%TF.GenerationSoftware,KiCad,Pcbnew,(5.1.10-1-10_14)*%
%TF.CreationDate,2022-01-24T14:54:24+11:00*%
%TF.ProjectId,STM32L431CBT6_BO,53544d33-324c-4343-9331-434254365f42,rev?*%
%TF.SameCoordinates,Original*%
%TF.FileFunction,Soldermask,Bot*%
%TF.FilePolarity,Negative*%
%FSLAX46Y46*%
G04 Gerber Fmt 4.6, Leading zero omitted, Abs format (unit mm)*
G04 Created by KiCad (PCBNEW (5.1.10-1-10_14)) date 2022-01-24 14:54:24*
%MOMM*%
%LPD*%
G01*
G04 APERTURE LIST*
%ADD10O,1.700000X1.700000*%
%ADD11R,1.700000X1.700000*%
G04 APERTURE END LIST*
D10*
%TO.C,J6*%
X182880000Y-81280000D03*
X180340000Y-81280000D03*
X177800000Y-81280000D03*
X175260000Y-81280000D03*
X172720000Y-81280000D03*
X170180000Y-81280000D03*
X167640000Y-81280000D03*
X165100000Y-81280000D03*
X162560000Y-81280000D03*
D11*
X160020000Y-81280000D03*
%TD*%
%TO.C,J9*%
X193040000Y-83820000D03*
%TD*%
%TO.C,J1*%
X154940000Y-38100000D03*
D10*
X154940000Y-40640000D03*
%TD*%
%TO.C,J2*%
X187960000Y-63500000D03*
D11*
X187960000Y-60960000D03*
%TD*%
%TO.C,J3*%
X187960000Y-38100000D03*
D10*
X187960000Y-40640000D03*
X187960000Y-43180000D03*
X187960000Y-45720000D03*
X187960000Y-48260000D03*
X187960000Y-50800000D03*
X187960000Y-53340000D03*
%TD*%
D11*
%TO.C,J4*%
X154940000Y-45720000D03*
D10*
X154940000Y-48260000D03*
X154940000Y-50800000D03*
X154940000Y-53340000D03*
X154940000Y-55880000D03*
X154940000Y-58420000D03*
X154940000Y-60960000D03*
X154940000Y-63500000D03*
X154940000Y-66040000D03*
X154940000Y-68580000D03*
X154940000Y-71120000D03*
X154940000Y-73660000D03*
X154940000Y-76200000D03*
X154940000Y-78740000D03*
X154940000Y-81280000D03*
X154940000Y-83820000D03*
%TD*%
D11*
%TO.C,J5*%
X187960000Y-71120000D03*
D10*
X187960000Y-73660000D03*
X187960000Y-76200000D03*
X187960000Y-78740000D03*
X187960000Y-81280000D03*
X187960000Y-83820000D03*
%TD*%
D11*
%TO.C,J7*%
X193040000Y-38100000D03*
%TD*%
%TO.C,J8*%
X149860000Y-38100000D03*
%TD*%
%TO.C,J10*%
X149860000Y-83820000D03*
%TD*%
M02*
