%TF.GenerationSoftware,KiCad,Pcbnew,(5.1.10-1-10_14)*%
%TF.CreationDate,2022-01-24T14:54:24+11:00*%
%TF.ProjectId,STM32L431CBT6_BO,53544d33-324c-4343-9331-434254365f42,rev?*%
%TF.SameCoordinates,Original*%
%TF.FileFunction,Copper,L1,Top*%
%TF.FilePolarity,Positive*%
%FSLAX46Y46*%
G04 Gerber Fmt 4.6, Leading zero omitted, Abs format (unit mm)*
G04 Created by KiCad (PCBNEW (5.1.10-1-10_14)) date 2022-01-24 14:54:24*
%MOMM*%
%LPD*%
G01*
G04 APERTURE LIST*
%TA.AperFunction,ComponentPad*%
%ADD10O,1.700000X1.700000*%
%TD*%
%TA.AperFunction,ComponentPad*%
%ADD11R,1.700000X1.700000*%
%TD*%
%TA.AperFunction,SMDPad,CuDef*%
%ADD12R,0.900000X1.200000*%
%TD*%
%TA.AperFunction,SMDPad,CuDef*%
%ADD13R,2.100000X1.800000*%
%TD*%
%TA.AperFunction,ViaPad*%
%ADD14C,0.800000*%
%TD*%
%TA.AperFunction,ViaPad*%
%ADD15C,1.000000*%
%TD*%
%TA.AperFunction,Conductor*%
%ADD16C,1.000000*%
%TD*%
%TA.AperFunction,Conductor*%
%ADD17C,0.300000*%
%TD*%
%TA.AperFunction,Conductor*%
%ADD18C,0.500000*%
%TD*%
%TA.AperFunction,Conductor*%
%ADD19C,0.254000*%
%TD*%
%TA.AperFunction,Conductor*%
%ADD20C,0.100000*%
%TD*%
G04 APERTURE END LIST*
%TO.P,C6,1*%
%TO.N,+3.3VA*%
%TA.AperFunction,SMDPad,CuDef*%
G36*
G01*
X169531500Y-53820000D02*
X169531500Y-54130000D01*
G75*
G02*
X169376500Y-54285000I-155000J0D01*
G01*
X168951500Y-54285000D01*
G75*
G02*
X168796500Y-54130000I0J155000D01*
G01*
X168796500Y-53820000D01*
G75*
G02*
X168951500Y-53665000I155000J0D01*
G01*
X169376500Y-53665000D01*
G75*
G02*
X169531500Y-53820000I0J-155000D01*
G01*
G37*
%TD.AperFunction*%
%TO.P,C6,2*%
%TO.N,GND*%
%TA.AperFunction,SMDPad,CuDef*%
G36*
G01*
X168396500Y-53820000D02*
X168396500Y-54130000D01*
G75*
G02*
X168241500Y-54285000I-155000J0D01*
G01*
X167816500Y-54285000D01*
G75*
G02*
X167661500Y-54130000I0J155000D01*
G01*
X167661500Y-53820000D01*
G75*
G02*
X167816500Y-53665000I155000J0D01*
G01*
X168241500Y-53665000D01*
G75*
G02*
X168396500Y-53820000I0J-155000D01*
G01*
G37*
%TD.AperFunction*%
%TD*%
%TO.P,C10,2*%
%TO.N,GND*%
%TA.AperFunction,SMDPad,CuDef*%
G36*
G01*
X168811000Y-49455540D02*
X168501000Y-49455540D01*
G75*
G02*
X168346000Y-49300540I0J155000D01*
G01*
X168346000Y-48875540D01*
G75*
G02*
X168501000Y-48720540I155000J0D01*
G01*
X168811000Y-48720540D01*
G75*
G02*
X168966000Y-48875540I0J-155000D01*
G01*
X168966000Y-49300540D01*
G75*
G02*
X168811000Y-49455540I-155000J0D01*
G01*
G37*
%TD.AperFunction*%
%TO.P,C10,1*%
%TO.N,Net-(C10-Pad1)*%
%TA.AperFunction,SMDPad,CuDef*%
G36*
G01*
X168811000Y-50590540D02*
X168501000Y-50590540D01*
G75*
G02*
X168346000Y-50435540I0J155000D01*
G01*
X168346000Y-50010540D01*
G75*
G02*
X168501000Y-49855540I155000J0D01*
G01*
X168811000Y-49855540D01*
G75*
G02*
X168966000Y-50010540I0J-155000D01*
G01*
X168966000Y-50435540D01*
G75*
G02*
X168811000Y-50590540I-155000J0D01*
G01*
G37*
%TD.AperFunction*%
%TD*%
%TO.P,C5,2*%
%TO.N,GND*%
%TA.AperFunction,SMDPad,CuDef*%
G36*
G01*
X177300372Y-67981752D02*
X177636248Y-68317628D01*
G75*
G02*
X177636248Y-68653504I-167938J-167938D01*
G01*
X177211984Y-69077768D01*
G75*
G02*
X176876108Y-69077768I-167938J167938D01*
G01*
X176540232Y-68741892D01*
G75*
G02*
X176540232Y-68406016I167938J167938D01*
G01*
X176964496Y-67981752D01*
G75*
G02*
X177300372Y-67981752I167938J-167938D01*
G01*
G37*
%TD.AperFunction*%
%TO.P,C5,1*%
%TO.N,+3V3*%
%TA.AperFunction,SMDPad,CuDef*%
G36*
G01*
X178520132Y-66761992D02*
X178856008Y-67097868D01*
G75*
G02*
X178856008Y-67433744I-167938J-167938D01*
G01*
X178431744Y-67858008D01*
G75*
G02*
X178095868Y-67858008I-167938J167938D01*
G01*
X177759992Y-67522132D01*
G75*
G02*
X177759992Y-67186256I167938J167938D01*
G01*
X178184256Y-66761992D01*
G75*
G02*
X178520132Y-66761992I167938J-167938D01*
G01*
G37*
%TD.AperFunction*%
%TD*%
D10*
%TO.P,J6,10*%
%TO.N,PA12*%
X182880000Y-81280000D03*
%TO.P,J6,9*%
%TO.N,PA11*%
X180340000Y-81280000D03*
%TO.P,J6,8*%
%TO.N,USART_Rx*%
X177800000Y-81280000D03*
%TO.P,J6,7*%
%TO.N,USART_Tx*%
X175260000Y-81280000D03*
%TO.P,J6,6*%
%TO.N,GND*%
X172720000Y-81280000D03*
%TO.P,J6,5*%
%TO.N,PA8*%
X170180000Y-81280000D03*
%TO.P,J6,4*%
%TO.N,PB15*%
X167640000Y-81280000D03*
%TO.P,J6,3*%
%TO.N,PB14*%
X165100000Y-81280000D03*
%TO.P,J6,2*%
%TO.N,PB13*%
X162560000Y-81280000D03*
D11*
%TO.P,J6,1*%
%TO.N,PB12*%
X160020000Y-81280000D03*
%TD*%
%TO.P,J9,1*%
%TO.N,GND*%
X193040000Y-83820000D03*
%TD*%
%TO.P,C1,2*%
%TO.N,GND*%
%TA.AperFunction,SMDPad,CuDef*%
G36*
G01*
X176027500Y-54765000D02*
X176027500Y-54455000D01*
G75*
G02*
X176182500Y-54300000I155000J0D01*
G01*
X176607500Y-54300000D01*
G75*
G02*
X176762500Y-54455000I0J-155000D01*
G01*
X176762500Y-54765000D01*
G75*
G02*
X176607500Y-54920000I-155000J0D01*
G01*
X176182500Y-54920000D01*
G75*
G02*
X176027500Y-54765000I0J155000D01*
G01*
G37*
%TD.AperFunction*%
%TO.P,C1,1*%
%TO.N,+3V3*%
%TA.AperFunction,SMDPad,CuDef*%
G36*
G01*
X174892500Y-54765000D02*
X174892500Y-54455000D01*
G75*
G02*
X175047500Y-54300000I155000J0D01*
G01*
X175472500Y-54300000D01*
G75*
G02*
X175627500Y-54455000I0J-155000D01*
G01*
X175627500Y-54765000D01*
G75*
G02*
X175472500Y-54920000I-155000J0D01*
G01*
X175047500Y-54920000D01*
G75*
G02*
X174892500Y-54765000I0J155000D01*
G01*
G37*
%TD.AperFunction*%
%TD*%
%TO.P,C2,1*%
%TO.N,+3V3*%
%TA.AperFunction,SMDPad,CuDef*%
G36*
G01*
X177029253Y-56598456D02*
X177248456Y-56379253D01*
G75*
G02*
X177467660Y-56379253I109602J-109602D01*
G01*
X177768181Y-56679774D01*
G75*
G02*
X177768181Y-56898978I-109602J-109602D01*
G01*
X177548978Y-57118181D01*
G75*
G02*
X177329774Y-57118181I-109602J109602D01*
G01*
X177029253Y-56817660D01*
G75*
G02*
X177029253Y-56598456I109602J109602D01*
G01*
G37*
%TD.AperFunction*%
%TO.P,C2,2*%
%TO.N,GND*%
%TA.AperFunction,SMDPad,CuDef*%
G36*
G01*
X177831819Y-57401022D02*
X178051022Y-57181819D01*
G75*
G02*
X178270226Y-57181819I109602J-109602D01*
G01*
X178570747Y-57482340D01*
G75*
G02*
X178570747Y-57701544I-109602J-109602D01*
G01*
X178351544Y-57920747D01*
G75*
G02*
X178132340Y-57920747I-109602J109602D01*
G01*
X177831819Y-57620226D01*
G75*
G02*
X177831819Y-57401022I109602J109602D01*
G01*
G37*
%TD.AperFunction*%
%TD*%
%TO.P,C3,2*%
%TO.N,GND*%
%TA.AperFunction,SMDPad,CuDef*%
G36*
G01*
X165068181Y-64117695D02*
X164848978Y-64336898D01*
G75*
G02*
X164629774Y-64336898I-109602J109602D01*
G01*
X164329253Y-64036377D01*
G75*
G02*
X164329253Y-63817173I109602J109602D01*
G01*
X164548456Y-63597970D01*
G75*
G02*
X164767660Y-63597970I109602J-109602D01*
G01*
X165068181Y-63898491D01*
G75*
G02*
X165068181Y-64117695I-109602J-109602D01*
G01*
G37*
%TD.AperFunction*%
%TO.P,C3,1*%
%TO.N,+3V3*%
%TA.AperFunction,SMDPad,CuDef*%
G36*
G01*
X165870747Y-64920261D02*
X165651544Y-65139464D01*
G75*
G02*
X165432340Y-65139464I-109602J109602D01*
G01*
X165131819Y-64838943D01*
G75*
G02*
X165131819Y-64619739I109602J109602D01*
G01*
X165351022Y-64400536D01*
G75*
G02*
X165570226Y-64400536I109602J-109602D01*
G01*
X165870747Y-64701057D01*
G75*
G02*
X165870747Y-64920261I-109602J-109602D01*
G01*
G37*
%TD.AperFunction*%
%TD*%
%TO.P,C4,1*%
%TO.N,+3V3*%
%TA.AperFunction,SMDPad,CuDef*%
G36*
G01*
X176680261Y-65670536D02*
X176899464Y-65889739D01*
G75*
G02*
X176899464Y-66108943I-109602J-109602D01*
G01*
X176598943Y-66409464D01*
G75*
G02*
X176379739Y-66409464I-109602J109602D01*
G01*
X176160536Y-66190261D01*
G75*
G02*
X176160536Y-65971057I109602J109602D01*
G01*
X176461057Y-65670536D01*
G75*
G02*
X176680261Y-65670536I109602J-109602D01*
G01*
G37*
%TD.AperFunction*%
%TO.P,C4,2*%
%TO.N,GND*%
%TA.AperFunction,SMDPad,CuDef*%
G36*
G01*
X175877695Y-66473102D02*
X176096898Y-66692305D01*
G75*
G02*
X176096898Y-66911509I-109602J-109602D01*
G01*
X175796377Y-67212030D01*
G75*
G02*
X175577173Y-67212030I-109602J109602D01*
G01*
X175357970Y-66992827D01*
G75*
G02*
X175357970Y-66773623I109602J109602D01*
G01*
X175658491Y-66473102D01*
G75*
G02*
X175877695Y-66473102I109602J-109602D01*
G01*
G37*
%TD.AperFunction*%
%TD*%
%TO.P,C7,1*%
%TO.N,+3.3VA*%
%TA.AperFunction,SMDPad,CuDef*%
G36*
G01*
X165383500Y-52060500D02*
X165383500Y-52535500D01*
G75*
G02*
X165146000Y-52773000I-237500J0D01*
G01*
X164546000Y-52773000D01*
G75*
G02*
X164308500Y-52535500I0J237500D01*
G01*
X164308500Y-52060500D01*
G75*
G02*
X164546000Y-51823000I237500J0D01*
G01*
X165146000Y-51823000D01*
G75*
G02*
X165383500Y-52060500I0J-237500D01*
G01*
G37*
%TD.AperFunction*%
%TO.P,C7,2*%
%TO.N,GND*%
%TA.AperFunction,SMDPad,CuDef*%
G36*
G01*
X163658500Y-52060500D02*
X163658500Y-52535500D01*
G75*
G02*
X163421000Y-52773000I-237500J0D01*
G01*
X162821000Y-52773000D01*
G75*
G02*
X162583500Y-52535500I0J237500D01*
G01*
X162583500Y-52060500D01*
G75*
G02*
X162821000Y-51823000I237500J0D01*
G01*
X163421000Y-51823000D01*
G75*
G02*
X163658500Y-52060500I0J-237500D01*
G01*
G37*
%TD.AperFunction*%
%TD*%
%TO.P,C8,2*%
%TO.N,GND*%
%TA.AperFunction,SMDPad,CuDef*%
G36*
G01*
X180715500Y-77315000D02*
X180715500Y-77625000D01*
G75*
G02*
X180560500Y-77780000I-155000J0D01*
G01*
X180135500Y-77780000D01*
G75*
G02*
X179980500Y-77625000I0J155000D01*
G01*
X179980500Y-77315000D01*
G75*
G02*
X180135500Y-77160000I155000J0D01*
G01*
X180560500Y-77160000D01*
G75*
G02*
X180715500Y-77315000I0J-155000D01*
G01*
G37*
%TD.AperFunction*%
%TO.P,C8,1*%
%TO.N,NRST*%
%TA.AperFunction,SMDPad,CuDef*%
G36*
G01*
X181850500Y-77315000D02*
X181850500Y-77625000D01*
G75*
G02*
X181695500Y-77780000I-155000J0D01*
G01*
X181270500Y-77780000D01*
G75*
G02*
X181115500Y-77625000I0J155000D01*
G01*
X181115500Y-77315000D01*
G75*
G02*
X181270500Y-77160000I155000J0D01*
G01*
X181695500Y-77160000D01*
G75*
G02*
X181850500Y-77315000I0J-155000D01*
G01*
G37*
%TD.AperFunction*%
%TD*%
%TO.P,C9,1*%
%TO.N,HSE_IN*%
%TA.AperFunction,SMDPad,CuDef*%
G36*
G01*
X175994000Y-48720920D02*
X176304000Y-48720920D01*
G75*
G02*
X176459000Y-48875920I0J-155000D01*
G01*
X176459000Y-49300920D01*
G75*
G02*
X176304000Y-49455920I-155000J0D01*
G01*
X175994000Y-49455920D01*
G75*
G02*
X175839000Y-49300920I0J155000D01*
G01*
X175839000Y-48875920D01*
G75*
G02*
X175994000Y-48720920I155000J0D01*
G01*
G37*
%TD.AperFunction*%
%TO.P,C9,2*%
%TO.N,GND*%
%TA.AperFunction,SMDPad,CuDef*%
G36*
G01*
X175994000Y-49855920D02*
X176304000Y-49855920D01*
G75*
G02*
X176459000Y-50010920I0J-155000D01*
G01*
X176459000Y-50435920D01*
G75*
G02*
X176304000Y-50590920I-155000J0D01*
G01*
X175994000Y-50590920D01*
G75*
G02*
X175839000Y-50435920I0J155000D01*
G01*
X175839000Y-50010920D01*
G75*
G02*
X175994000Y-49855920I155000J0D01*
G01*
G37*
%TD.AperFunction*%
%TD*%
D12*
%TO.P,D1,1*%
%TO.N,Net-(D1-Pad1)*%
X162560000Y-38100000D03*
%TO.P,D1,2*%
%TO.N,Net-(D1-Pad2)*%
X159260000Y-38100000D03*
%TD*%
%TO.P,D2,2*%
%TO.N,LED_STATUS*%
%TA.AperFunction,SMDPad,CuDef*%
G36*
G01*
X181593500Y-63771000D02*
X181118500Y-63771000D01*
G75*
G02*
X180881000Y-63533500I0J237500D01*
G01*
X180881000Y-62958500D01*
G75*
G02*
X181118500Y-62721000I237500J0D01*
G01*
X181593500Y-62721000D01*
G75*
G02*
X181831000Y-62958500I0J-237500D01*
G01*
X181831000Y-63533500D01*
G75*
G02*
X181593500Y-63771000I-237500J0D01*
G01*
G37*
%TD.AperFunction*%
%TO.P,D2,1*%
%TO.N,Net-(D2-Pad1)*%
%TA.AperFunction,SMDPad,CuDef*%
G36*
G01*
X181593500Y-65521000D02*
X181118500Y-65521000D01*
G75*
G02*
X180881000Y-65283500I0J237500D01*
G01*
X180881000Y-64708500D01*
G75*
G02*
X181118500Y-64471000I237500J0D01*
G01*
X181593500Y-64471000D01*
G75*
G02*
X181831000Y-64708500I0J-237500D01*
G01*
X181831000Y-65283500D01*
G75*
G02*
X181593500Y-65521000I-237500J0D01*
G01*
G37*
%TD.AperFunction*%
%TD*%
%TO.P,D3,1*%
%TO.N,Net-(D3-Pad1)*%
%TA.AperFunction,SMDPad,CuDef*%
G36*
G01*
X172850000Y-37862500D02*
X172850000Y-38337500D01*
G75*
G02*
X172612500Y-38575000I-237500J0D01*
G01*
X172037500Y-38575000D01*
G75*
G02*
X171800000Y-38337500I0J237500D01*
G01*
X171800000Y-37862500D01*
G75*
G02*
X172037500Y-37625000I237500J0D01*
G01*
X172612500Y-37625000D01*
G75*
G02*
X172850000Y-37862500I0J-237500D01*
G01*
G37*
%TD.AperFunction*%
%TO.P,D3,2*%
%TO.N,+3V3*%
%TA.AperFunction,SMDPad,CuDef*%
G36*
G01*
X171100000Y-37862500D02*
X171100000Y-38337500D01*
G75*
G02*
X170862500Y-38575000I-237500J0D01*
G01*
X170287500Y-38575000D01*
G75*
G02*
X170050000Y-38337500I0J237500D01*
G01*
X170050000Y-37862500D01*
G75*
G02*
X170287500Y-37625000I237500J0D01*
G01*
X170862500Y-37625000D01*
G75*
G02*
X171100000Y-37862500I0J-237500D01*
G01*
G37*
%TD.AperFunction*%
%TD*%
%TO.P,F1,1*%
%TO.N,+3V3*%
%TA.AperFunction,SMDPad,CuDef*%
G36*
G01*
X167375000Y-37862500D02*
X167375000Y-38337500D01*
G75*
G02*
X167137500Y-38575000I-237500J0D01*
G01*
X166562500Y-38575000D01*
G75*
G02*
X166325000Y-38337500I0J237500D01*
G01*
X166325000Y-37862500D01*
G75*
G02*
X166562500Y-37625000I237500J0D01*
G01*
X167137500Y-37625000D01*
G75*
G02*
X167375000Y-37862500I0J-237500D01*
G01*
G37*
%TD.AperFunction*%
%TO.P,F1,2*%
%TO.N,Net-(D1-Pad1)*%
%TA.AperFunction,SMDPad,CuDef*%
G36*
G01*
X165625000Y-37862500D02*
X165625000Y-38337500D01*
G75*
G02*
X165387500Y-38575000I-237500J0D01*
G01*
X164812500Y-38575000D01*
G75*
G02*
X164575000Y-38337500I0J237500D01*
G01*
X164575000Y-37862500D01*
G75*
G02*
X164812500Y-37625000I237500J0D01*
G01*
X165387500Y-37625000D01*
G75*
G02*
X165625000Y-37862500I0J-237500D01*
G01*
G37*
%TD.AperFunction*%
%TD*%
%TO.P,FB1,1*%
%TO.N,+3.3VA*%
%TA.AperFunction,SMDPad,CuDef*%
G36*
G01*
X162910001Y-49293000D02*
X162209999Y-49293000D01*
G75*
G02*
X161960000Y-49043001I0J249999D01*
G01*
X161960000Y-48492999D01*
G75*
G02*
X162209999Y-48243000I249999J0D01*
G01*
X162910001Y-48243000D01*
G75*
G02*
X163160000Y-48492999I0J-249999D01*
G01*
X163160000Y-49043001D01*
G75*
G02*
X162910001Y-49293000I-249999J0D01*
G01*
G37*
%TD.AperFunction*%
%TO.P,FB1,2*%
%TO.N,+3V3*%
%TA.AperFunction,SMDPad,CuDef*%
G36*
G01*
X162910001Y-46993000D02*
X162209999Y-46993000D01*
G75*
G02*
X161960000Y-46743001I0J249999D01*
G01*
X161960000Y-46192999D01*
G75*
G02*
X162209999Y-45943000I249999J0D01*
G01*
X162910001Y-45943000D01*
G75*
G02*
X163160000Y-46192999I0J-249999D01*
G01*
X163160000Y-46743001D01*
G75*
G02*
X162910001Y-46993000I-249999J0D01*
G01*
G37*
%TD.AperFunction*%
%TD*%
D11*
%TO.P,J1,1*%
%TO.N,Net-(D1-Pad2)*%
X154940000Y-38100000D03*
D10*
%TO.P,J1,2*%
%TO.N,GND*%
X154940000Y-40640000D03*
%TD*%
%TO.P,J2,2*%
%TO.N,GND*%
X187960000Y-63500000D03*
D11*
%TO.P,J2,1*%
%TO.N,+3V3*%
X187960000Y-60960000D03*
%TD*%
%TO.P,J3,1*%
%TO.N,PB9*%
X187960000Y-38100000D03*
D10*
%TO.P,J3,2*%
%TO.N,PB8*%
X187960000Y-40640000D03*
%TO.P,J3,3*%
%TO.N,BOOT*%
X187960000Y-43180000D03*
%TO.P,J3,4*%
%TO.N,I2C1_SDA*%
X187960000Y-45720000D03*
%TO.P,J3,5*%
%TO.N,I2C1_SCL*%
X187960000Y-48260000D03*
%TO.P,J3,6*%
%TO.N,PB5*%
X187960000Y-50800000D03*
%TO.P,J3,7*%
%TO.N,PB4*%
X187960000Y-53340000D03*
%TD*%
D11*
%TO.P,J4,1*%
%TO.N,+3.3VA*%
X154940000Y-45720000D03*
D10*
%TO.P,J4,2*%
%TO.N,ADC1_IN5*%
X154940000Y-48260000D03*
%TO.P,J4,3*%
%TO.N,GND*%
X154940000Y-50800000D03*
%TO.P,J4,4*%
%TO.N,PA1*%
X154940000Y-53340000D03*
%TO.P,J4,5*%
%TO.N,PA2*%
X154940000Y-55880000D03*
%TO.P,J4,6*%
%TO.N,PA3*%
X154940000Y-58420000D03*
%TO.P,J4,7*%
%TO.N,DAC1_OUT1*%
X154940000Y-60960000D03*
%TO.P,J4,8*%
%TO.N,GND*%
X154940000Y-63500000D03*
%TO.P,J4,9*%
%TO.N,PA5*%
X154940000Y-66040000D03*
%TO.P,J4,10*%
%TO.N,PA6*%
X154940000Y-68580000D03*
%TO.P,J4,11*%
%TO.N,PA7*%
X154940000Y-71120000D03*
%TO.P,J4,12*%
%TO.N,PB0*%
X154940000Y-73660000D03*
%TO.P,J4,13*%
%TO.N,PB1*%
X154940000Y-76200000D03*
%TO.P,J4,14*%
%TO.N,PB2*%
X154940000Y-78740000D03*
%TO.P,J4,15*%
%TO.N,USART3_Tx*%
X154940000Y-81280000D03*
%TO.P,J4,16*%
%TO.N,USART3_Rx*%
X154940000Y-83820000D03*
%TD*%
D11*
%TO.P,J5,1*%
%TO.N,+3V3*%
X187960000Y-71120000D03*
D10*
%TO.P,J5,2*%
%TO.N,SWCLK*%
X187960000Y-73660000D03*
%TO.P,J5,3*%
%TO.N,GND*%
X187960000Y-76200000D03*
%TO.P,J5,4*%
%TO.N,SWDIO*%
X187960000Y-78740000D03*
%TO.P,J5,5*%
%TO.N,NRST*%
X187960000Y-81280000D03*
%TO.P,J5,6*%
%TO.N,SWO*%
X187960000Y-83820000D03*
%TD*%
D11*
%TO.P,J7,1*%
%TO.N,GND*%
X193040000Y-38100000D03*
%TD*%
%TO.P,J8,1*%
%TO.N,GND*%
X149860000Y-38100000D03*
%TD*%
%TO.P,J10,1*%
%TO.N,GND*%
X149860000Y-83820000D03*
%TD*%
%TO.P,R1,1*%
%TO.N,BOOT*%
%TA.AperFunction,SMDPad,CuDef*%
G36*
G01*
X184117000Y-43711500D02*
X184437000Y-43711500D01*
G75*
G02*
X184597000Y-43871500I0J-160000D01*
G01*
X184597000Y-44266500D01*
G75*
G02*
X184437000Y-44426500I-160000J0D01*
G01*
X184117000Y-44426500D01*
G75*
G02*
X183957000Y-44266500I0J160000D01*
G01*
X183957000Y-43871500D01*
G75*
G02*
X184117000Y-43711500I160000J0D01*
G01*
G37*
%TD.AperFunction*%
%TO.P,R1,2*%
%TO.N,GND*%
%TA.AperFunction,SMDPad,CuDef*%
G36*
G01*
X184117000Y-44906500D02*
X184437000Y-44906500D01*
G75*
G02*
X184597000Y-45066500I0J-160000D01*
G01*
X184597000Y-45461500D01*
G75*
G02*
X184437000Y-45621500I-160000J0D01*
G01*
X184117000Y-45621500D01*
G75*
G02*
X183957000Y-45461500I0J160000D01*
G01*
X183957000Y-45066500D01*
G75*
G02*
X184117000Y-44906500I160000J0D01*
G01*
G37*
%TD.AperFunction*%
%TD*%
%TO.P,R2,2*%
%TO.N,GND*%
%TA.AperFunction,SMDPad,CuDef*%
G36*
G01*
X183752500Y-63710000D02*
X183277500Y-63710000D01*
G75*
G02*
X183040000Y-63472500I0J237500D01*
G01*
X183040000Y-62972500D01*
G75*
G02*
X183277500Y-62735000I237500J0D01*
G01*
X183752500Y-62735000D01*
G75*
G02*
X183990000Y-62972500I0J-237500D01*
G01*
X183990000Y-63472500D01*
G75*
G02*
X183752500Y-63710000I-237500J0D01*
G01*
G37*
%TD.AperFunction*%
%TO.P,R2,1*%
%TO.N,Net-(D2-Pad1)*%
%TA.AperFunction,SMDPad,CuDef*%
G36*
G01*
X183752500Y-65535000D02*
X183277500Y-65535000D01*
G75*
G02*
X183040000Y-65297500I0J237500D01*
G01*
X183040000Y-64797500D01*
G75*
G02*
X183277500Y-64560000I237500J0D01*
G01*
X183752500Y-64560000D01*
G75*
G02*
X183990000Y-64797500I0J-237500D01*
G01*
X183990000Y-65297500D01*
G75*
G02*
X183752500Y-65535000I-237500J0D01*
G01*
G37*
%TD.AperFunction*%
%TD*%
%TO.P,R3,2*%
%TO.N,Net-(C10-Pad1)*%
%TA.AperFunction,SMDPad,CuDef*%
G36*
G01*
X171864000Y-53697500D02*
X171544000Y-53697500D01*
G75*
G02*
X171384000Y-53537500I0J160000D01*
G01*
X171384000Y-53142500D01*
G75*
G02*
X171544000Y-52982500I160000J0D01*
G01*
X171864000Y-52982500D01*
G75*
G02*
X172024000Y-53142500I0J-160000D01*
G01*
X172024000Y-53537500D01*
G75*
G02*
X171864000Y-53697500I-160000J0D01*
G01*
G37*
%TD.AperFunction*%
%TO.P,R3,1*%
%TO.N,HSE_OUT*%
%TA.AperFunction,SMDPad,CuDef*%
G36*
G01*
X171864000Y-54892500D02*
X171544000Y-54892500D01*
G75*
G02*
X171384000Y-54732500I0J160000D01*
G01*
X171384000Y-54337500D01*
G75*
G02*
X171544000Y-54177500I160000J0D01*
G01*
X171864000Y-54177500D01*
G75*
G02*
X172024000Y-54337500I0J-160000D01*
G01*
X172024000Y-54732500D01*
G75*
G02*
X171864000Y-54892500I-160000J0D01*
G01*
G37*
%TD.AperFunction*%
%TD*%
%TO.P,R4,1*%
%TO.N,Net-(D3-Pad1)*%
%TA.AperFunction,SMDPad,CuDef*%
G36*
G01*
X176292500Y-37612500D02*
X176767500Y-37612500D01*
G75*
G02*
X177005000Y-37850000I0J-237500D01*
G01*
X177005000Y-38350000D01*
G75*
G02*
X176767500Y-38587500I-237500J0D01*
G01*
X176292500Y-38587500D01*
G75*
G02*
X176055000Y-38350000I0J237500D01*
G01*
X176055000Y-37850000D01*
G75*
G02*
X176292500Y-37612500I237500J0D01*
G01*
G37*
%TD.AperFunction*%
%TO.P,R4,2*%
%TO.N,GND*%
%TA.AperFunction,SMDPad,CuDef*%
G36*
G01*
X176292500Y-39437500D02*
X176767500Y-39437500D01*
G75*
G02*
X177005000Y-39675000I0J-237500D01*
G01*
X177005000Y-40175000D01*
G75*
G02*
X176767500Y-40412500I-237500J0D01*
G01*
X176292500Y-40412500D01*
G75*
G02*
X176055000Y-40175000I0J237500D01*
G01*
X176055000Y-39675000D01*
G75*
G02*
X176292500Y-39437500I237500J0D01*
G01*
G37*
%TD.AperFunction*%
%TD*%
%TO.P,U1,1*%
%TO.N,+3V3*%
%TA.AperFunction,SMDPad,CuDef*%
G36*
G01*
X174125000Y-56060000D02*
X174275000Y-56060000D01*
G75*
G02*
X174350000Y-56135000I0J-75000D01*
G01*
X174350000Y-57460000D01*
G75*
G02*
X174275000Y-57535000I-75000J0D01*
G01*
X174125000Y-57535000D01*
G75*
G02*
X174050000Y-57460000I0J75000D01*
G01*
X174050000Y-56135000D01*
G75*
G02*
X174125000Y-56060000I75000J0D01*
G01*
G37*
%TD.AperFunction*%
%TO.P,U1,2*%
%TO.N,Net-(U1-Pad2)*%
%TA.AperFunction,SMDPad,CuDef*%
G36*
G01*
X173625000Y-56060000D02*
X173775000Y-56060000D01*
G75*
G02*
X173850000Y-56135000I0J-75000D01*
G01*
X173850000Y-57460000D01*
G75*
G02*
X173775000Y-57535000I-75000J0D01*
G01*
X173625000Y-57535000D01*
G75*
G02*
X173550000Y-57460000I0J75000D01*
G01*
X173550000Y-56135000D01*
G75*
G02*
X173625000Y-56060000I75000J0D01*
G01*
G37*
%TD.AperFunction*%
%TO.P,U1,3*%
%TO.N,Net-(U1-Pad3)*%
%TA.AperFunction,SMDPad,CuDef*%
G36*
G01*
X173125000Y-56060000D02*
X173275000Y-56060000D01*
G75*
G02*
X173350000Y-56135000I0J-75000D01*
G01*
X173350000Y-57460000D01*
G75*
G02*
X173275000Y-57535000I-75000J0D01*
G01*
X173125000Y-57535000D01*
G75*
G02*
X173050000Y-57460000I0J75000D01*
G01*
X173050000Y-56135000D01*
G75*
G02*
X173125000Y-56060000I75000J0D01*
G01*
G37*
%TD.AperFunction*%
%TO.P,U1,4*%
%TO.N,Net-(U1-Pad4)*%
%TA.AperFunction,SMDPad,CuDef*%
G36*
G01*
X172625000Y-56060000D02*
X172775000Y-56060000D01*
G75*
G02*
X172850000Y-56135000I0J-75000D01*
G01*
X172850000Y-57460000D01*
G75*
G02*
X172775000Y-57535000I-75000J0D01*
G01*
X172625000Y-57535000D01*
G75*
G02*
X172550000Y-57460000I0J75000D01*
G01*
X172550000Y-56135000D01*
G75*
G02*
X172625000Y-56060000I75000J0D01*
G01*
G37*
%TD.AperFunction*%
%TO.P,U1,5*%
%TO.N,HSE_IN*%
%TA.AperFunction,SMDPad,CuDef*%
G36*
G01*
X172125000Y-56060000D02*
X172275000Y-56060000D01*
G75*
G02*
X172350000Y-56135000I0J-75000D01*
G01*
X172350000Y-57460000D01*
G75*
G02*
X172275000Y-57535000I-75000J0D01*
G01*
X172125000Y-57535000D01*
G75*
G02*
X172050000Y-57460000I0J75000D01*
G01*
X172050000Y-56135000D01*
G75*
G02*
X172125000Y-56060000I75000J0D01*
G01*
G37*
%TD.AperFunction*%
%TO.P,U1,6*%
%TO.N,HSE_OUT*%
%TA.AperFunction,SMDPad,CuDef*%
G36*
G01*
X171625000Y-56060000D02*
X171775000Y-56060000D01*
G75*
G02*
X171850000Y-56135000I0J-75000D01*
G01*
X171850000Y-57460000D01*
G75*
G02*
X171775000Y-57535000I-75000J0D01*
G01*
X171625000Y-57535000D01*
G75*
G02*
X171550000Y-57460000I0J75000D01*
G01*
X171550000Y-56135000D01*
G75*
G02*
X171625000Y-56060000I75000J0D01*
G01*
G37*
%TD.AperFunction*%
%TO.P,U1,7*%
%TO.N,NRST*%
%TA.AperFunction,SMDPad,CuDef*%
G36*
G01*
X171125000Y-56060000D02*
X171275000Y-56060000D01*
G75*
G02*
X171350000Y-56135000I0J-75000D01*
G01*
X171350000Y-57460000D01*
G75*
G02*
X171275000Y-57535000I-75000J0D01*
G01*
X171125000Y-57535000D01*
G75*
G02*
X171050000Y-57460000I0J75000D01*
G01*
X171050000Y-56135000D01*
G75*
G02*
X171125000Y-56060000I75000J0D01*
G01*
G37*
%TD.AperFunction*%
%TO.P,U1,8*%
%TO.N,GND*%
%TA.AperFunction,SMDPad,CuDef*%
G36*
G01*
X170625000Y-56060000D02*
X170775000Y-56060000D01*
G75*
G02*
X170850000Y-56135000I0J-75000D01*
G01*
X170850000Y-57460000D01*
G75*
G02*
X170775000Y-57535000I-75000J0D01*
G01*
X170625000Y-57535000D01*
G75*
G02*
X170550000Y-57460000I0J75000D01*
G01*
X170550000Y-56135000D01*
G75*
G02*
X170625000Y-56060000I75000J0D01*
G01*
G37*
%TD.AperFunction*%
%TO.P,U1,9*%
%TO.N,+3.3VA*%
%TA.AperFunction,SMDPad,CuDef*%
G36*
G01*
X170125000Y-56060000D02*
X170275000Y-56060000D01*
G75*
G02*
X170350000Y-56135000I0J-75000D01*
G01*
X170350000Y-57460000D01*
G75*
G02*
X170275000Y-57535000I-75000J0D01*
G01*
X170125000Y-57535000D01*
G75*
G02*
X170050000Y-57460000I0J75000D01*
G01*
X170050000Y-56135000D01*
G75*
G02*
X170125000Y-56060000I75000J0D01*
G01*
G37*
%TD.AperFunction*%
%TO.P,U1,10*%
%TO.N,ADC1_IN5*%
%TA.AperFunction,SMDPad,CuDef*%
G36*
G01*
X169625000Y-56060000D02*
X169775000Y-56060000D01*
G75*
G02*
X169850000Y-56135000I0J-75000D01*
G01*
X169850000Y-57460000D01*
G75*
G02*
X169775000Y-57535000I-75000J0D01*
G01*
X169625000Y-57535000D01*
G75*
G02*
X169550000Y-57460000I0J75000D01*
G01*
X169550000Y-56135000D01*
G75*
G02*
X169625000Y-56060000I75000J0D01*
G01*
G37*
%TD.AperFunction*%
%TO.P,U1,11*%
%TO.N,PA1*%
%TA.AperFunction,SMDPad,CuDef*%
G36*
G01*
X169125000Y-56060000D02*
X169275000Y-56060000D01*
G75*
G02*
X169350000Y-56135000I0J-75000D01*
G01*
X169350000Y-57460000D01*
G75*
G02*
X169275000Y-57535000I-75000J0D01*
G01*
X169125000Y-57535000D01*
G75*
G02*
X169050000Y-57460000I0J75000D01*
G01*
X169050000Y-56135000D01*
G75*
G02*
X169125000Y-56060000I75000J0D01*
G01*
G37*
%TD.AperFunction*%
%TO.P,U1,12*%
%TO.N,PA2*%
%TA.AperFunction,SMDPad,CuDef*%
G36*
G01*
X168625000Y-56060000D02*
X168775000Y-56060000D01*
G75*
G02*
X168850000Y-56135000I0J-75000D01*
G01*
X168850000Y-57460000D01*
G75*
G02*
X168775000Y-57535000I-75000J0D01*
G01*
X168625000Y-57535000D01*
G75*
G02*
X168550000Y-57460000I0J75000D01*
G01*
X168550000Y-56135000D01*
G75*
G02*
X168625000Y-56060000I75000J0D01*
G01*
G37*
%TD.AperFunction*%
%TO.P,U1,13*%
%TO.N,PA3*%
%TA.AperFunction,SMDPad,CuDef*%
G36*
G01*
X166625000Y-58060000D02*
X167950000Y-58060000D01*
G75*
G02*
X168025000Y-58135000I0J-75000D01*
G01*
X168025000Y-58285000D01*
G75*
G02*
X167950000Y-58360000I-75000J0D01*
G01*
X166625000Y-58360000D01*
G75*
G02*
X166550000Y-58285000I0J75000D01*
G01*
X166550000Y-58135000D01*
G75*
G02*
X166625000Y-58060000I75000J0D01*
G01*
G37*
%TD.AperFunction*%
%TO.P,U1,14*%
%TO.N,DAC1_OUT1*%
%TA.AperFunction,SMDPad,CuDef*%
G36*
G01*
X166625000Y-58560000D02*
X167950000Y-58560000D01*
G75*
G02*
X168025000Y-58635000I0J-75000D01*
G01*
X168025000Y-58785000D01*
G75*
G02*
X167950000Y-58860000I-75000J0D01*
G01*
X166625000Y-58860000D01*
G75*
G02*
X166550000Y-58785000I0J75000D01*
G01*
X166550000Y-58635000D01*
G75*
G02*
X166625000Y-58560000I75000J0D01*
G01*
G37*
%TD.AperFunction*%
%TO.P,U1,15*%
%TO.N,PA5*%
%TA.AperFunction,SMDPad,CuDef*%
G36*
G01*
X166625000Y-59060000D02*
X167950000Y-59060000D01*
G75*
G02*
X168025000Y-59135000I0J-75000D01*
G01*
X168025000Y-59285000D01*
G75*
G02*
X167950000Y-59360000I-75000J0D01*
G01*
X166625000Y-59360000D01*
G75*
G02*
X166550000Y-59285000I0J75000D01*
G01*
X166550000Y-59135000D01*
G75*
G02*
X166625000Y-59060000I75000J0D01*
G01*
G37*
%TD.AperFunction*%
%TO.P,U1,16*%
%TO.N,PA6*%
%TA.AperFunction,SMDPad,CuDef*%
G36*
G01*
X166625000Y-59560000D02*
X167950000Y-59560000D01*
G75*
G02*
X168025000Y-59635000I0J-75000D01*
G01*
X168025000Y-59785000D01*
G75*
G02*
X167950000Y-59860000I-75000J0D01*
G01*
X166625000Y-59860000D01*
G75*
G02*
X166550000Y-59785000I0J75000D01*
G01*
X166550000Y-59635000D01*
G75*
G02*
X166625000Y-59560000I75000J0D01*
G01*
G37*
%TD.AperFunction*%
%TO.P,U1,17*%
%TO.N,PA7*%
%TA.AperFunction,SMDPad,CuDef*%
G36*
G01*
X166625000Y-60060000D02*
X167950000Y-60060000D01*
G75*
G02*
X168025000Y-60135000I0J-75000D01*
G01*
X168025000Y-60285000D01*
G75*
G02*
X167950000Y-60360000I-75000J0D01*
G01*
X166625000Y-60360000D01*
G75*
G02*
X166550000Y-60285000I0J75000D01*
G01*
X166550000Y-60135000D01*
G75*
G02*
X166625000Y-60060000I75000J0D01*
G01*
G37*
%TD.AperFunction*%
%TO.P,U1,18*%
%TO.N,PB0*%
%TA.AperFunction,SMDPad,CuDef*%
G36*
G01*
X166625000Y-60560000D02*
X167950000Y-60560000D01*
G75*
G02*
X168025000Y-60635000I0J-75000D01*
G01*
X168025000Y-60785000D01*
G75*
G02*
X167950000Y-60860000I-75000J0D01*
G01*
X166625000Y-60860000D01*
G75*
G02*
X166550000Y-60785000I0J75000D01*
G01*
X166550000Y-60635000D01*
G75*
G02*
X166625000Y-60560000I75000J0D01*
G01*
G37*
%TD.AperFunction*%
%TO.P,U1,19*%
%TO.N,PB1*%
%TA.AperFunction,SMDPad,CuDef*%
G36*
G01*
X166625000Y-61060000D02*
X167950000Y-61060000D01*
G75*
G02*
X168025000Y-61135000I0J-75000D01*
G01*
X168025000Y-61285000D01*
G75*
G02*
X167950000Y-61360000I-75000J0D01*
G01*
X166625000Y-61360000D01*
G75*
G02*
X166550000Y-61285000I0J75000D01*
G01*
X166550000Y-61135000D01*
G75*
G02*
X166625000Y-61060000I75000J0D01*
G01*
G37*
%TD.AperFunction*%
%TO.P,U1,20*%
%TO.N,PB2*%
%TA.AperFunction,SMDPad,CuDef*%
G36*
G01*
X166625000Y-61560000D02*
X167950000Y-61560000D01*
G75*
G02*
X168025000Y-61635000I0J-75000D01*
G01*
X168025000Y-61785000D01*
G75*
G02*
X167950000Y-61860000I-75000J0D01*
G01*
X166625000Y-61860000D01*
G75*
G02*
X166550000Y-61785000I0J75000D01*
G01*
X166550000Y-61635000D01*
G75*
G02*
X166625000Y-61560000I75000J0D01*
G01*
G37*
%TD.AperFunction*%
%TO.P,U1,21*%
%TO.N,USART3_Tx*%
%TA.AperFunction,SMDPad,CuDef*%
G36*
G01*
X166625000Y-62060000D02*
X167950000Y-62060000D01*
G75*
G02*
X168025000Y-62135000I0J-75000D01*
G01*
X168025000Y-62285000D01*
G75*
G02*
X167950000Y-62360000I-75000J0D01*
G01*
X166625000Y-62360000D01*
G75*
G02*
X166550000Y-62285000I0J75000D01*
G01*
X166550000Y-62135000D01*
G75*
G02*
X166625000Y-62060000I75000J0D01*
G01*
G37*
%TD.AperFunction*%
%TO.P,U1,22*%
%TO.N,USART3_Rx*%
%TA.AperFunction,SMDPad,CuDef*%
G36*
G01*
X166625000Y-62560000D02*
X167950000Y-62560000D01*
G75*
G02*
X168025000Y-62635000I0J-75000D01*
G01*
X168025000Y-62785000D01*
G75*
G02*
X167950000Y-62860000I-75000J0D01*
G01*
X166625000Y-62860000D01*
G75*
G02*
X166550000Y-62785000I0J75000D01*
G01*
X166550000Y-62635000D01*
G75*
G02*
X166625000Y-62560000I75000J0D01*
G01*
G37*
%TD.AperFunction*%
%TO.P,U1,23*%
%TO.N,GND*%
%TA.AperFunction,SMDPad,CuDef*%
G36*
G01*
X166625000Y-63060000D02*
X167950000Y-63060000D01*
G75*
G02*
X168025000Y-63135000I0J-75000D01*
G01*
X168025000Y-63285000D01*
G75*
G02*
X167950000Y-63360000I-75000J0D01*
G01*
X166625000Y-63360000D01*
G75*
G02*
X166550000Y-63285000I0J75000D01*
G01*
X166550000Y-63135000D01*
G75*
G02*
X166625000Y-63060000I75000J0D01*
G01*
G37*
%TD.AperFunction*%
%TO.P,U1,24*%
%TO.N,+3V3*%
%TA.AperFunction,SMDPad,CuDef*%
G36*
G01*
X166625000Y-63560000D02*
X167950000Y-63560000D01*
G75*
G02*
X168025000Y-63635000I0J-75000D01*
G01*
X168025000Y-63785000D01*
G75*
G02*
X167950000Y-63860000I-75000J0D01*
G01*
X166625000Y-63860000D01*
G75*
G02*
X166550000Y-63785000I0J75000D01*
G01*
X166550000Y-63635000D01*
G75*
G02*
X166625000Y-63560000I75000J0D01*
G01*
G37*
%TD.AperFunction*%
%TO.P,U1,25*%
%TO.N,PB12*%
%TA.AperFunction,SMDPad,CuDef*%
G36*
G01*
X168625000Y-64385000D02*
X168775000Y-64385000D01*
G75*
G02*
X168850000Y-64460000I0J-75000D01*
G01*
X168850000Y-65785000D01*
G75*
G02*
X168775000Y-65860000I-75000J0D01*
G01*
X168625000Y-65860000D01*
G75*
G02*
X168550000Y-65785000I0J75000D01*
G01*
X168550000Y-64460000D01*
G75*
G02*
X168625000Y-64385000I75000J0D01*
G01*
G37*
%TD.AperFunction*%
%TO.P,U1,26*%
%TO.N,PB13*%
%TA.AperFunction,SMDPad,CuDef*%
G36*
G01*
X169125000Y-64385000D02*
X169275000Y-64385000D01*
G75*
G02*
X169350000Y-64460000I0J-75000D01*
G01*
X169350000Y-65785000D01*
G75*
G02*
X169275000Y-65860000I-75000J0D01*
G01*
X169125000Y-65860000D01*
G75*
G02*
X169050000Y-65785000I0J75000D01*
G01*
X169050000Y-64460000D01*
G75*
G02*
X169125000Y-64385000I75000J0D01*
G01*
G37*
%TD.AperFunction*%
%TO.P,U1,27*%
%TO.N,PB14*%
%TA.AperFunction,SMDPad,CuDef*%
G36*
G01*
X169625000Y-64385000D02*
X169775000Y-64385000D01*
G75*
G02*
X169850000Y-64460000I0J-75000D01*
G01*
X169850000Y-65785000D01*
G75*
G02*
X169775000Y-65860000I-75000J0D01*
G01*
X169625000Y-65860000D01*
G75*
G02*
X169550000Y-65785000I0J75000D01*
G01*
X169550000Y-64460000D01*
G75*
G02*
X169625000Y-64385000I75000J0D01*
G01*
G37*
%TD.AperFunction*%
%TO.P,U1,28*%
%TO.N,PB15*%
%TA.AperFunction,SMDPad,CuDef*%
G36*
G01*
X170125000Y-64385000D02*
X170275000Y-64385000D01*
G75*
G02*
X170350000Y-64460000I0J-75000D01*
G01*
X170350000Y-65785000D01*
G75*
G02*
X170275000Y-65860000I-75000J0D01*
G01*
X170125000Y-65860000D01*
G75*
G02*
X170050000Y-65785000I0J75000D01*
G01*
X170050000Y-64460000D01*
G75*
G02*
X170125000Y-64385000I75000J0D01*
G01*
G37*
%TD.AperFunction*%
%TO.P,U1,29*%
%TO.N,PA8*%
%TA.AperFunction,SMDPad,CuDef*%
G36*
G01*
X170625000Y-64385000D02*
X170775000Y-64385000D01*
G75*
G02*
X170850000Y-64460000I0J-75000D01*
G01*
X170850000Y-65785000D01*
G75*
G02*
X170775000Y-65860000I-75000J0D01*
G01*
X170625000Y-65860000D01*
G75*
G02*
X170550000Y-65785000I0J75000D01*
G01*
X170550000Y-64460000D01*
G75*
G02*
X170625000Y-64385000I75000J0D01*
G01*
G37*
%TD.AperFunction*%
%TO.P,U1,30*%
%TO.N,USART_Tx*%
%TA.AperFunction,SMDPad,CuDef*%
G36*
G01*
X171125000Y-64385000D02*
X171275000Y-64385000D01*
G75*
G02*
X171350000Y-64460000I0J-75000D01*
G01*
X171350000Y-65785000D01*
G75*
G02*
X171275000Y-65860000I-75000J0D01*
G01*
X171125000Y-65860000D01*
G75*
G02*
X171050000Y-65785000I0J75000D01*
G01*
X171050000Y-64460000D01*
G75*
G02*
X171125000Y-64385000I75000J0D01*
G01*
G37*
%TD.AperFunction*%
%TO.P,U1,31*%
%TO.N,USART_Rx*%
%TA.AperFunction,SMDPad,CuDef*%
G36*
G01*
X171625000Y-64385000D02*
X171775000Y-64385000D01*
G75*
G02*
X171850000Y-64460000I0J-75000D01*
G01*
X171850000Y-65785000D01*
G75*
G02*
X171775000Y-65860000I-75000J0D01*
G01*
X171625000Y-65860000D01*
G75*
G02*
X171550000Y-65785000I0J75000D01*
G01*
X171550000Y-64460000D01*
G75*
G02*
X171625000Y-64385000I75000J0D01*
G01*
G37*
%TD.AperFunction*%
%TO.P,U1,32*%
%TO.N,PA11*%
%TA.AperFunction,SMDPad,CuDef*%
G36*
G01*
X172125000Y-64385000D02*
X172275000Y-64385000D01*
G75*
G02*
X172350000Y-64460000I0J-75000D01*
G01*
X172350000Y-65785000D01*
G75*
G02*
X172275000Y-65860000I-75000J0D01*
G01*
X172125000Y-65860000D01*
G75*
G02*
X172050000Y-65785000I0J75000D01*
G01*
X172050000Y-64460000D01*
G75*
G02*
X172125000Y-64385000I75000J0D01*
G01*
G37*
%TD.AperFunction*%
%TO.P,U1,33*%
%TO.N,PA12*%
%TA.AperFunction,SMDPad,CuDef*%
G36*
G01*
X172625000Y-64385000D02*
X172775000Y-64385000D01*
G75*
G02*
X172850000Y-64460000I0J-75000D01*
G01*
X172850000Y-65785000D01*
G75*
G02*
X172775000Y-65860000I-75000J0D01*
G01*
X172625000Y-65860000D01*
G75*
G02*
X172550000Y-65785000I0J75000D01*
G01*
X172550000Y-64460000D01*
G75*
G02*
X172625000Y-64385000I75000J0D01*
G01*
G37*
%TD.AperFunction*%
%TO.P,U1,34*%
%TO.N,SWDIO*%
%TA.AperFunction,SMDPad,CuDef*%
G36*
G01*
X173125000Y-64385000D02*
X173275000Y-64385000D01*
G75*
G02*
X173350000Y-64460000I0J-75000D01*
G01*
X173350000Y-65785000D01*
G75*
G02*
X173275000Y-65860000I-75000J0D01*
G01*
X173125000Y-65860000D01*
G75*
G02*
X173050000Y-65785000I0J75000D01*
G01*
X173050000Y-64460000D01*
G75*
G02*
X173125000Y-64385000I75000J0D01*
G01*
G37*
%TD.AperFunction*%
%TO.P,U1,35*%
%TO.N,GND*%
%TA.AperFunction,SMDPad,CuDef*%
G36*
G01*
X173625000Y-64385000D02*
X173775000Y-64385000D01*
G75*
G02*
X173850000Y-64460000I0J-75000D01*
G01*
X173850000Y-65785000D01*
G75*
G02*
X173775000Y-65860000I-75000J0D01*
G01*
X173625000Y-65860000D01*
G75*
G02*
X173550000Y-65785000I0J75000D01*
G01*
X173550000Y-64460000D01*
G75*
G02*
X173625000Y-64385000I75000J0D01*
G01*
G37*
%TD.AperFunction*%
%TO.P,U1,36*%
%TO.N,+3V3*%
%TA.AperFunction,SMDPad,CuDef*%
G36*
G01*
X174125000Y-64385000D02*
X174275000Y-64385000D01*
G75*
G02*
X174350000Y-64460000I0J-75000D01*
G01*
X174350000Y-65785000D01*
G75*
G02*
X174275000Y-65860000I-75000J0D01*
G01*
X174125000Y-65860000D01*
G75*
G02*
X174050000Y-65785000I0J75000D01*
G01*
X174050000Y-64460000D01*
G75*
G02*
X174125000Y-64385000I75000J0D01*
G01*
G37*
%TD.AperFunction*%
%TO.P,U1,37*%
%TO.N,SWCLK*%
%TA.AperFunction,SMDPad,CuDef*%
G36*
G01*
X174950000Y-63560000D02*
X176275000Y-63560000D01*
G75*
G02*
X176350000Y-63635000I0J-75000D01*
G01*
X176350000Y-63785000D01*
G75*
G02*
X176275000Y-63860000I-75000J0D01*
G01*
X174950000Y-63860000D01*
G75*
G02*
X174875000Y-63785000I0J75000D01*
G01*
X174875000Y-63635000D01*
G75*
G02*
X174950000Y-63560000I75000J0D01*
G01*
G37*
%TD.AperFunction*%
%TO.P,U1,38*%
%TO.N,LED_STATUS*%
%TA.AperFunction,SMDPad,CuDef*%
G36*
G01*
X174950000Y-63060000D02*
X176275000Y-63060000D01*
G75*
G02*
X176350000Y-63135000I0J-75000D01*
G01*
X176350000Y-63285000D01*
G75*
G02*
X176275000Y-63360000I-75000J0D01*
G01*
X174950000Y-63360000D01*
G75*
G02*
X174875000Y-63285000I0J75000D01*
G01*
X174875000Y-63135000D01*
G75*
G02*
X174950000Y-63060000I75000J0D01*
G01*
G37*
%TD.AperFunction*%
%TO.P,U1,39*%
%TO.N,SWO*%
%TA.AperFunction,SMDPad,CuDef*%
G36*
G01*
X174950000Y-62560000D02*
X176275000Y-62560000D01*
G75*
G02*
X176350000Y-62635000I0J-75000D01*
G01*
X176350000Y-62785000D01*
G75*
G02*
X176275000Y-62860000I-75000J0D01*
G01*
X174950000Y-62860000D01*
G75*
G02*
X174875000Y-62785000I0J75000D01*
G01*
X174875000Y-62635000D01*
G75*
G02*
X174950000Y-62560000I75000J0D01*
G01*
G37*
%TD.AperFunction*%
%TO.P,U1,40*%
%TO.N,PB4*%
%TA.AperFunction,SMDPad,CuDef*%
G36*
G01*
X174950000Y-62060000D02*
X176275000Y-62060000D01*
G75*
G02*
X176350000Y-62135000I0J-75000D01*
G01*
X176350000Y-62285000D01*
G75*
G02*
X176275000Y-62360000I-75000J0D01*
G01*
X174950000Y-62360000D01*
G75*
G02*
X174875000Y-62285000I0J75000D01*
G01*
X174875000Y-62135000D01*
G75*
G02*
X174950000Y-62060000I75000J0D01*
G01*
G37*
%TD.AperFunction*%
%TO.P,U1,41*%
%TO.N,PB5*%
%TA.AperFunction,SMDPad,CuDef*%
G36*
G01*
X174950000Y-61560000D02*
X176275000Y-61560000D01*
G75*
G02*
X176350000Y-61635000I0J-75000D01*
G01*
X176350000Y-61785000D01*
G75*
G02*
X176275000Y-61860000I-75000J0D01*
G01*
X174950000Y-61860000D01*
G75*
G02*
X174875000Y-61785000I0J75000D01*
G01*
X174875000Y-61635000D01*
G75*
G02*
X174950000Y-61560000I75000J0D01*
G01*
G37*
%TD.AperFunction*%
%TO.P,U1,42*%
%TO.N,I2C1_SCL*%
%TA.AperFunction,SMDPad,CuDef*%
G36*
G01*
X174950000Y-61060000D02*
X176275000Y-61060000D01*
G75*
G02*
X176350000Y-61135000I0J-75000D01*
G01*
X176350000Y-61285000D01*
G75*
G02*
X176275000Y-61360000I-75000J0D01*
G01*
X174950000Y-61360000D01*
G75*
G02*
X174875000Y-61285000I0J75000D01*
G01*
X174875000Y-61135000D01*
G75*
G02*
X174950000Y-61060000I75000J0D01*
G01*
G37*
%TD.AperFunction*%
%TO.P,U1,43*%
%TO.N,I2C1_SDA*%
%TA.AperFunction,SMDPad,CuDef*%
G36*
G01*
X174950000Y-60560000D02*
X176275000Y-60560000D01*
G75*
G02*
X176350000Y-60635000I0J-75000D01*
G01*
X176350000Y-60785000D01*
G75*
G02*
X176275000Y-60860000I-75000J0D01*
G01*
X174950000Y-60860000D01*
G75*
G02*
X174875000Y-60785000I0J75000D01*
G01*
X174875000Y-60635000D01*
G75*
G02*
X174950000Y-60560000I75000J0D01*
G01*
G37*
%TD.AperFunction*%
%TO.P,U1,44*%
%TO.N,BOOT*%
%TA.AperFunction,SMDPad,CuDef*%
G36*
G01*
X174950000Y-60060000D02*
X176275000Y-60060000D01*
G75*
G02*
X176350000Y-60135000I0J-75000D01*
G01*
X176350000Y-60285000D01*
G75*
G02*
X176275000Y-60360000I-75000J0D01*
G01*
X174950000Y-60360000D01*
G75*
G02*
X174875000Y-60285000I0J75000D01*
G01*
X174875000Y-60135000D01*
G75*
G02*
X174950000Y-60060000I75000J0D01*
G01*
G37*
%TD.AperFunction*%
%TO.P,U1,45*%
%TO.N,PB8*%
%TA.AperFunction,SMDPad,CuDef*%
G36*
G01*
X174950000Y-59560000D02*
X176275000Y-59560000D01*
G75*
G02*
X176350000Y-59635000I0J-75000D01*
G01*
X176350000Y-59785000D01*
G75*
G02*
X176275000Y-59860000I-75000J0D01*
G01*
X174950000Y-59860000D01*
G75*
G02*
X174875000Y-59785000I0J75000D01*
G01*
X174875000Y-59635000D01*
G75*
G02*
X174950000Y-59560000I75000J0D01*
G01*
G37*
%TD.AperFunction*%
%TO.P,U1,46*%
%TO.N,PB9*%
%TA.AperFunction,SMDPad,CuDef*%
G36*
G01*
X174950000Y-59060000D02*
X176275000Y-59060000D01*
G75*
G02*
X176350000Y-59135000I0J-75000D01*
G01*
X176350000Y-59285000D01*
G75*
G02*
X176275000Y-59360000I-75000J0D01*
G01*
X174950000Y-59360000D01*
G75*
G02*
X174875000Y-59285000I0J75000D01*
G01*
X174875000Y-59135000D01*
G75*
G02*
X174950000Y-59060000I75000J0D01*
G01*
G37*
%TD.AperFunction*%
%TO.P,U1,47*%
%TO.N,GND*%
%TA.AperFunction,SMDPad,CuDef*%
G36*
G01*
X174950000Y-58560000D02*
X176275000Y-58560000D01*
G75*
G02*
X176350000Y-58635000I0J-75000D01*
G01*
X176350000Y-58785000D01*
G75*
G02*
X176275000Y-58860000I-75000J0D01*
G01*
X174950000Y-58860000D01*
G75*
G02*
X174875000Y-58785000I0J75000D01*
G01*
X174875000Y-58635000D01*
G75*
G02*
X174950000Y-58560000I75000J0D01*
G01*
G37*
%TD.AperFunction*%
%TO.P,U1,48*%
%TO.N,+3V3*%
%TA.AperFunction,SMDPad,CuDef*%
G36*
G01*
X174950000Y-58060000D02*
X176275000Y-58060000D01*
G75*
G02*
X176350000Y-58135000I0J-75000D01*
G01*
X176350000Y-58285000D01*
G75*
G02*
X176275000Y-58360000I-75000J0D01*
G01*
X174950000Y-58360000D01*
G75*
G02*
X174875000Y-58285000I0J75000D01*
G01*
X174875000Y-58135000D01*
G75*
G02*
X174950000Y-58060000I75000J0D01*
G01*
G37*
%TD.AperFunction*%
%TD*%
D13*
%TO.P,X1,1*%
%TO.N,Net-(C10-Pad1)*%
X170963000Y-50800000D03*
%TO.P,X1,2*%
%TO.N,GND*%
X173863000Y-50800000D03*
%TO.P,X1,3*%
%TO.N,HSE_IN*%
X173863000Y-48500000D03*
%TO.P,X1,4*%
%TO.N,GND*%
X170963000Y-48500000D03*
%TD*%
D14*
%TO.N,GND*%
X157480000Y-52324000D03*
X183134000Y-46228000D03*
%TO.N,+3V3*%
X178308000Y-55880000D03*
D15*
X166878000Y-40767000D03*
X168275000Y-39878000D03*
X165481000Y-39878000D03*
X162687000Y-44577000D03*
X160528000Y-46482000D03*
X164719000Y-46482000D03*
D14*
X175514000Y-56007000D03*
D15*
X185166000Y-60960000D03*
X187960000Y-57404000D03*
X187960000Y-68072000D03*
%TO.N,GND*%
X157988000Y-60833000D03*
X172720000Y-78740000D03*
X187960000Y-66421000D03*
X185293000Y-63500000D03*
X192786000Y-40894000D03*
X194437000Y-40894000D03*
X150495000Y-81153000D03*
X148717000Y-81153000D03*
X193929000Y-79375000D03*
X193929000Y-81153000D03*
%TO.N,SWO*%
X185166000Y-84074000D03*
D14*
%TO.N,NRST*%
X180467000Y-76200000D03*
%TO.N,GND*%
X179197000Y-77470000D03*
D15*
X170688000Y-59055000D03*
%TO.N,NRST*%
X172466000Y-59055000D03*
%TO.N,SWO*%
X173863000Y-62611000D03*
D14*
%TO.N,+3V3*%
X177546000Y-65151000D03*
X179959000Y-67945000D03*
X164719000Y-65532000D03*
D15*
%TO.N,GND*%
X149225000Y-40767000D03*
X150749000Y-40767000D03*
X157607000Y-40005000D03*
X157607000Y-42545000D03*
X157607000Y-41275000D03*
D14*
X161607500Y-50927000D03*
X175260000Y-39941500D03*
X163131500Y-50927000D03*
X163893500Y-64706500D03*
X183515000Y-61722000D03*
X174752000Y-67818000D03*
X178054000Y-69469000D03*
X178943000Y-56896000D03*
X166370000Y-54102000D03*
X177546000Y-54610000D03*
X175895000Y-51435000D03*
X168910000Y-47879000D03*
X184912000Y-72771000D03*
X167640000Y-43180000D03*
X172720000Y-43180000D03*
X177800000Y-43180000D03*
X172720000Y-40640000D03*
X179070000Y-40640000D03*
X181610000Y-38100000D03*
X179070000Y-38100000D03*
X179070000Y-46990000D03*
X179070000Y-49530000D03*
X179070000Y-52070000D03*
X179070000Y-54610000D03*
X172720000Y-43180000D03*
X172720000Y-45720000D03*
X177800000Y-45720000D03*
X167640000Y-45720000D03*
X162560000Y-40640000D03*
X160020000Y-43180000D03*
X165100000Y-43180000D03*
X167640000Y-43180000D03*
X158750000Y-53975000D03*
X159258000Y-59817000D03*
X162560000Y-68580000D03*
X166370000Y-68580000D03*
X166370000Y-72390000D03*
X162560000Y-72390000D03*
X162560000Y-76200000D03*
X160020000Y-78740000D03*
X149098000Y-78994000D03*
X173990000Y-72390000D03*
X179070000Y-71120000D03*
X182880000Y-74930000D03*
X182753000Y-70612000D03*
X158115000Y-85090000D03*
X191135000Y-68580000D03*
X184150000Y-67310000D03*
X184785000Y-59055000D03*
X190500000Y-57150000D03*
X183515000Y-48006000D03*
X183515000Y-42418000D03*
X183515000Y-39624000D03*
X194056000Y-42672000D03*
X149098000Y-42926000D03*
X151638000Y-42926000D03*
X183896000Y-51054000D03*
X184912000Y-52578000D03*
X157988000Y-74422000D03*
%TD*%
D16*
%TO.N,GND*%
X169531000Y-48500000D02*
X168910000Y-47879000D01*
X170963000Y-48500000D02*
X169531000Y-48500000D01*
X175260000Y-50800000D02*
X175895000Y-51435000D01*
X173863000Y-50800000D02*
X175260000Y-50800000D01*
X176149000Y-51181000D02*
X175895000Y-51435000D01*
X176149000Y-50223420D02*
X176149000Y-51181000D01*
X174439580Y-50223420D02*
X173863000Y-50800000D01*
X176149000Y-50223420D02*
X174439580Y-50223420D01*
X170374960Y-49088040D02*
X170963000Y-48500000D01*
X168656000Y-49088040D02*
X170374960Y-49088040D01*
X168656000Y-48133000D02*
X168910000Y-47879000D01*
X168656000Y-49088040D02*
X168656000Y-48133000D01*
D17*
X177042566Y-58710000D02*
X178201283Y-57551283D01*
X175612500Y-58710000D02*
X177042566Y-58710000D01*
X165456151Y-63210000D02*
X167287500Y-63210000D01*
X164698717Y-63967434D02*
X165456151Y-63210000D01*
X173700000Y-65961058D02*
X173700000Y-65122500D01*
X174581508Y-66842566D02*
X173700000Y-65961058D01*
D16*
X176395000Y-54610000D02*
X177546000Y-54610000D01*
X178287717Y-57551283D02*
X178248727Y-57551283D01*
X178943000Y-56896000D02*
X178287717Y-57551283D01*
X175682940Y-67124460D02*
X175682940Y-66890010D01*
D17*
X175727434Y-66842566D02*
X174581508Y-66842566D01*
D16*
X175445540Y-67124460D02*
X175682940Y-67124460D01*
X176149000Y-67356070D02*
X175682940Y-66890010D01*
X177088240Y-68529760D02*
X175682940Y-67124460D01*
X164698717Y-63967434D02*
X164632566Y-63967434D01*
X163121000Y-50937500D02*
X163131500Y-50927000D01*
X163121000Y-52298000D02*
X163121000Y-50937500D01*
X176513500Y-39941500D02*
X176530000Y-39925000D01*
X175260000Y-39941500D02*
X176513500Y-39941500D01*
X162978500Y-52298000D02*
X161607500Y-50927000D01*
X163121000Y-52298000D02*
X162978500Y-52298000D01*
X161607500Y-50927000D02*
X163131500Y-50927000D01*
X154813000Y-40767000D02*
X154940000Y-40640000D01*
X155575000Y-40005000D02*
X154940000Y-40640000D01*
X157607000Y-40005000D02*
X155575000Y-40005000D01*
X155575000Y-41275000D02*
X154940000Y-40640000D01*
X157226000Y-40640000D02*
X157607000Y-41021000D01*
X157607000Y-41021000D02*
X157607000Y-41275000D01*
X154940000Y-40640000D02*
X157226000Y-40640000D01*
X157607000Y-40005000D02*
X157607000Y-41021000D01*
X149860000Y-38100000D02*
X149860000Y-38227000D01*
X149987000Y-39116000D02*
X149860000Y-39116000D01*
X149860000Y-39116000D02*
X149860000Y-39878000D01*
X149860000Y-38100000D02*
X149860000Y-39116000D01*
X149225000Y-38735000D02*
X149860000Y-38100000D01*
X149225000Y-40767000D02*
X149225000Y-38735000D01*
D18*
X163959651Y-64706500D02*
X164698717Y-63967434D01*
X163893500Y-64706500D02*
X163959651Y-64706500D01*
D17*
X170700000Y-59043000D02*
X170688000Y-59055000D01*
X170700000Y-56797500D02*
X170700000Y-59043000D01*
D16*
X175679990Y-66890010D02*
X175682940Y-66890010D01*
X174752000Y-67818000D02*
X175679990Y-66890010D01*
X178027480Y-69469000D02*
X177088240Y-68529760D01*
X178054000Y-69469000D02*
X178027480Y-69469000D01*
X176376480Y-67818000D02*
X177088240Y-68529760D01*
X174752000Y-67818000D02*
X176376480Y-67818000D01*
X179197000Y-77470000D02*
X180348000Y-77470000D01*
X187960000Y-66421000D02*
X187960000Y-63500000D01*
X172720000Y-81280000D02*
X172720000Y-78740000D01*
X155956000Y-50800000D02*
X157480000Y-52324000D01*
X154940000Y-50800000D02*
X155956000Y-50800000D01*
D18*
X167902000Y-54102000D02*
X168029000Y-53975000D01*
X166370000Y-54102000D02*
X167902000Y-54102000D01*
X155321000Y-63500000D02*
X157988000Y-60833000D01*
X154940000Y-63500000D02*
X155321000Y-63500000D01*
X174752000Y-67818000D02*
X174752000Y-67056000D01*
X187960000Y-75819000D02*
X184912000Y-72771000D01*
X187960000Y-76200000D02*
X187960000Y-75819000D01*
D16*
X193040000Y-82042000D02*
X193929000Y-81153000D01*
X193040000Y-83820000D02*
X193040000Y-82042000D01*
X193929000Y-79375000D02*
X193929000Y-81153000D01*
X183515000Y-63222500D02*
X183515000Y-61722000D01*
D18*
X183313000Y-46228000D02*
X184277000Y-45264000D01*
X183134000Y-46228000D02*
X183313000Y-46228000D01*
D16*
X149225000Y-40767000D02*
X150749000Y-40767000D01*
X149860000Y-39878000D02*
X150749000Y-40767000D01*
X149860000Y-38100000D02*
X149860000Y-39878000D01*
X150749000Y-38989000D02*
X149860000Y-38100000D01*
X150749000Y-40767000D02*
X150749000Y-38989000D01*
X154940000Y-40640000D02*
X156845000Y-42545000D01*
X156845000Y-42545000D02*
X157607000Y-42545000D01*
X157607000Y-42545000D02*
X157607000Y-40005000D01*
X156464000Y-41402000D02*
X156464000Y-41275000D01*
X157607000Y-42545000D02*
X156464000Y-41402000D01*
X156464000Y-41275000D02*
X155575000Y-41275000D01*
X157607000Y-41275000D02*
X156464000Y-41275000D01*
X193040000Y-40640000D02*
X192786000Y-40894000D01*
X193040000Y-38100000D02*
X193040000Y-40640000D01*
X193040000Y-39497000D02*
X194437000Y-40894000D01*
X193040000Y-38100000D02*
X193040000Y-39497000D01*
X192786000Y-40894000D02*
X194437000Y-40894000D01*
X150495000Y-83185000D02*
X149860000Y-83820000D01*
X150495000Y-81153000D02*
X150495000Y-83185000D01*
X148717000Y-81153000D02*
X150495000Y-81153000D01*
X148717000Y-81153000D02*
X149860000Y-82296000D01*
X149860000Y-82296000D02*
X149860000Y-83820000D01*
X149860000Y-81788000D02*
X149860000Y-82296000D01*
X150495000Y-81153000D02*
X149860000Y-81788000D01*
D17*
%TO.N,+3V3*%
X174200000Y-56797500D02*
X174200000Y-55670000D01*
X175612500Y-58210000D02*
X176511400Y-58210000D01*
X177398717Y-57322683D02*
X177398717Y-56748717D01*
X176511400Y-58210000D02*
X177398717Y-57322683D01*
X165501283Y-64770000D02*
X166561273Y-63710010D01*
X167287490Y-63710010D02*
X167287500Y-63710000D01*
X166561273Y-63710010D02*
X167287490Y-63710010D01*
X176530000Y-66040000D02*
X174688500Y-66040000D01*
X174200000Y-65551500D02*
X174200000Y-65122500D01*
X174688500Y-66040000D02*
X174200000Y-65551500D01*
D18*
X164739283Y-65532000D02*
X165501283Y-64770000D01*
X164719000Y-65532000D02*
X164739283Y-65532000D01*
D16*
X187960000Y-60960000D02*
X187960000Y-57404000D01*
X160528000Y-46482000D02*
X164719000Y-46482000D01*
X162687000Y-46341000D02*
X162560000Y-46468000D01*
X160782000Y-46482000D02*
X162687000Y-44577000D01*
X160528000Y-46482000D02*
X160782000Y-46482000D01*
X162814000Y-44577000D02*
X164719000Y-46482000D01*
X162687000Y-44577000D02*
X162814000Y-44577000D01*
X162687000Y-45339000D02*
X162687000Y-46341000D01*
X161544000Y-46482000D02*
X162687000Y-45339000D01*
X160528000Y-46482000D02*
X161544000Y-46482000D01*
X162687000Y-44577000D02*
X162687000Y-45339000D01*
X163830000Y-46482000D02*
X164719000Y-46482000D01*
X162687000Y-45339000D02*
X163830000Y-46482000D01*
X166850000Y-40739000D02*
X166878000Y-40767000D01*
X166850000Y-38382000D02*
X166850000Y-38100000D01*
X166850000Y-38100000D02*
X166850000Y-38890000D01*
X166878000Y-38128000D02*
X166850000Y-38100000D01*
X166878000Y-40767000D02*
X166878000Y-38128000D01*
X166342000Y-40739000D02*
X166850000Y-40739000D01*
X165481000Y-39878000D02*
X166342000Y-40739000D01*
X167386000Y-40767000D02*
X168275000Y-39878000D01*
X166878000Y-40767000D02*
X167386000Y-40767000D01*
X165481000Y-39878000D02*
X168275000Y-39878000D01*
X166850000Y-38509000D02*
X166850000Y-38100000D01*
X165481000Y-39878000D02*
X166850000Y-38509000D01*
X166850000Y-38100000D02*
X166850000Y-38453000D01*
X167767000Y-38100000D02*
X167767000Y-38862000D01*
X167513000Y-39116000D02*
X168275000Y-39878000D01*
X166850000Y-38453000D02*
X167513000Y-39116000D01*
X167767000Y-38862000D02*
X167513000Y-39116000D01*
X166850000Y-38100000D02*
X167767000Y-38100000D01*
D18*
X166850000Y-38100000D02*
X170688000Y-38100000D01*
X175260000Y-54610000D02*
X175260000Y-55118000D01*
X177855220Y-56601273D02*
X177894211Y-56601273D01*
X178308000Y-56187484D02*
X178308000Y-55880000D01*
X177894211Y-56601273D02*
X178308000Y-56187484D01*
X177439283Y-56748717D02*
X178308000Y-55880000D01*
X177398717Y-56748717D02*
X177439283Y-56748717D01*
X175260000Y-55753000D02*
X175514000Y-56007000D01*
X175260000Y-54610000D02*
X175260000Y-55753000D01*
D16*
X176657000Y-66040000D02*
X177546000Y-65151000D01*
X176530000Y-66040000D02*
X176657000Y-66040000D01*
X179324000Y-67310000D02*
X179959000Y-67945000D01*
X178308000Y-67310000D02*
X179324000Y-67310000D01*
D17*
X175196500Y-55054500D02*
X175260000Y-55118000D01*
X174815500Y-55054500D02*
X175196500Y-55054500D01*
X174200000Y-55670000D02*
X174815500Y-55054500D01*
X174815500Y-55054500D02*
X175260000Y-54610000D01*
D16*
X187960000Y-71120000D02*
X187960000Y-68072000D01*
X185166000Y-60960000D02*
X187960000Y-60960000D01*
%TO.N,+3.3VA*%
X164846000Y-50454000D02*
X164846000Y-52298000D01*
X163160000Y-48768000D02*
X164846000Y-50454000D01*
X162560000Y-48768000D02*
X163160000Y-48768000D01*
X157988000Y-48768000D02*
X154940000Y-45720000D01*
X162560000Y-48768000D02*
X157988000Y-48768000D01*
D18*
X164846000Y-52298000D02*
X164846000Y-52324000D01*
D17*
X170200000Y-55011000D02*
X169164000Y-53975000D01*
X170200000Y-56797500D02*
X170200000Y-55011000D01*
D18*
X169164000Y-53886884D02*
X168490116Y-53213000D01*
X169164000Y-53975000D02*
X169164000Y-53886884D01*
X165761000Y-53213000D02*
X164846000Y-52298000D01*
X168490116Y-53213000D02*
X165761000Y-53213000D01*
D17*
%TO.N,NRST*%
X171200000Y-57789000D02*
X172466000Y-59055000D01*
X171200000Y-56797500D02*
X171200000Y-57789000D01*
X181483000Y-77470000D02*
X182880000Y-78867000D01*
X185547000Y-78867000D02*
X187960000Y-81280000D01*
X182880000Y-78867000D02*
X185547000Y-78867000D01*
D18*
X181483000Y-77216000D02*
X181483000Y-77470000D01*
X180467000Y-76200000D02*
X181483000Y-77216000D01*
D17*
%TO.N,HSE_IN*%
X173496000Y-48500000D02*
X173863000Y-48500000D01*
X172462999Y-51980001D02*
X172462999Y-49533001D01*
X172462999Y-49533001D02*
X173496000Y-48500000D01*
X172466000Y-54851764D02*
X172466000Y-51983002D01*
X172200000Y-55117764D02*
X172466000Y-54851764D01*
X172466000Y-51983002D02*
X172462999Y-51980001D01*
X172200000Y-56797500D02*
X172200000Y-55117764D01*
D16*
X176149000Y-48736000D02*
X176149000Y-49023410D01*
X175913000Y-48500000D02*
X176149000Y-48736000D01*
X173863000Y-48500000D02*
X175913000Y-48500000D01*
D18*
%TO.N,Net-(C10-Pad1)*%
X171704000Y-51541000D02*
X170963000Y-50800000D01*
X171704000Y-53340000D02*
X171704000Y-51541000D01*
D16*
X168656000Y-50543000D02*
X168656000Y-50288050D01*
X168913000Y-50800000D02*
X168656000Y-50543000D01*
X170963000Y-50800000D02*
X168913000Y-50800000D01*
%TO.N,Net-(D1-Pad1)*%
X162560000Y-38100000D02*
X165100000Y-38100000D01*
%TO.N,Net-(D1-Pad2)*%
X154940000Y-38100000D02*
X159260000Y-38100000D01*
D17*
%TO.N,LED_STATUS*%
X181320000Y-63210000D02*
X181356000Y-63246000D01*
X175612500Y-63210000D02*
X181320000Y-63210000D01*
D16*
%TO.N,Net-(D2-Pad1)*%
X183463500Y-64996000D02*
X183515000Y-65047500D01*
X181356000Y-64996000D02*
X183463500Y-64996000D01*
D18*
%TO.N,Net-(D3-Pad1)*%
X172325000Y-38100000D02*
X176530000Y-38100000D01*
D17*
%TO.N,PB9*%
X177831094Y-59210000D02*
X180848000Y-56193094D01*
X175612500Y-59210000D02*
X177831094Y-59210000D01*
X180848000Y-56193094D02*
X180848000Y-41021000D01*
X183769000Y-38100000D02*
X187960000Y-38100000D01*
X180848000Y-41021000D02*
X183769000Y-38100000D01*
%TO.N,PB8*%
X178038214Y-59710000D02*
X181483000Y-56265214D01*
X175612500Y-59710000D02*
X178038214Y-59710000D01*
X181483000Y-56265214D02*
X181483000Y-42418000D01*
X183261000Y-40640000D02*
X187960000Y-40640000D01*
X181483000Y-42418000D02*
X183261000Y-40640000D01*
D18*
%TO.N,BOOT*%
X187071000Y-44069000D02*
X187960000Y-43180000D01*
X184277000Y-44069000D02*
X187071000Y-44069000D01*
D17*
X175612500Y-60210000D02*
X178245334Y-60210000D01*
X178245334Y-60210000D02*
X182245000Y-56210334D01*
X182245000Y-56210334D02*
X182245000Y-45466000D01*
X183642000Y-44069000D02*
X184277000Y-44069000D01*
X182245000Y-45466000D02*
X183642000Y-44069000D01*
%TO.N,I2C1_SDA*%
X175612500Y-60710000D02*
X178558000Y-60710000D01*
X178558000Y-60710000D02*
X183007000Y-56261000D01*
X183007000Y-50673000D02*
X187960000Y-45720000D01*
X183007000Y-56261000D02*
X183007000Y-50673000D01*
%TO.N,I2C1_SCL*%
X175612500Y-61210000D02*
X178947000Y-61210000D01*
X178947000Y-61210000D02*
X184023000Y-56134000D01*
X184023000Y-52197000D02*
X187960000Y-48260000D01*
X184023000Y-56134000D02*
X184023000Y-52197000D01*
%TO.N,PB5*%
X175612500Y-61710000D02*
X179336000Y-61710000D01*
X184785000Y-53975000D02*
X187960000Y-50800000D01*
X184785000Y-56261000D02*
X184785000Y-53975000D01*
X179336000Y-61710000D02*
X184785000Y-56261000D01*
%TO.N,PB4*%
X187960000Y-53975000D02*
X187960000Y-53340000D01*
X187960000Y-53793120D02*
X187960000Y-53340000D01*
X179543120Y-62210000D02*
X187960000Y-53793120D01*
X175612500Y-62210000D02*
X179543120Y-62210000D01*
%TO.N,ADC1_IN5*%
X169700000Y-55708880D02*
X168855120Y-54864000D01*
X169700000Y-56797500D02*
X169700000Y-55708880D01*
X161544000Y-54864000D02*
X154940000Y-48260000D01*
X168855120Y-54864000D02*
X161544000Y-54864000D01*
%TO.N,PA1*%
X169200000Y-56797500D02*
X169200000Y-55916000D01*
X169200000Y-55916000D02*
X168656000Y-55372000D01*
X156972000Y-55372000D02*
X154940000Y-53340000D01*
X168656000Y-55372000D02*
X156972000Y-55372000D01*
%TO.N,PA2*%
X155857500Y-56797500D02*
X154940000Y-55880000D01*
X168700000Y-56797500D02*
X155857500Y-56797500D01*
%TO.N,PA3*%
X155150000Y-58210000D02*
X154940000Y-58420000D01*
X167287500Y-58210000D02*
X155150000Y-58210000D01*
%TO.N,DAC1_OUT1*%
X157190000Y-58710000D02*
X154940000Y-60960000D01*
X167287500Y-58710000D02*
X157190000Y-58710000D01*
%TO.N,PA5*%
X161770000Y-59210000D02*
X167287500Y-59210000D01*
X154940000Y-66040000D02*
X161770000Y-59210000D01*
%TO.N,PA6*%
X156140001Y-67015184D02*
X163445185Y-59710000D01*
X156140001Y-67379999D02*
X156140001Y-67015184D01*
X163445185Y-59710000D02*
X167287500Y-59710000D01*
X154940000Y-68580000D02*
X156140001Y-67379999D01*
%TO.N,PA7*%
X163652305Y-60210000D02*
X167287500Y-60210000D01*
X158654966Y-65207339D02*
X163652305Y-60210000D01*
X158654966Y-67405034D02*
X158654966Y-65207339D01*
X154940000Y-71120000D02*
X158654966Y-67405034D01*
%TO.N,PB0*%
X159154974Y-65414451D02*
X163859425Y-60710000D01*
X159154974Y-69445026D02*
X159154974Y-65414451D01*
X163859425Y-60710000D02*
X167287500Y-60710000D01*
X154940000Y-73660000D02*
X159154974Y-69445026D01*
%TO.N,PB1*%
X164066545Y-61210000D02*
X167287500Y-61210000D01*
X159654982Y-71485018D02*
X159654982Y-65621563D01*
X159654982Y-65621563D02*
X164066545Y-61210000D01*
X154940000Y-76200000D02*
X159654982Y-71485018D01*
%TO.N,PB2*%
X164273665Y-61710000D02*
X167287500Y-61710000D01*
X160154990Y-65828675D02*
X164273665Y-61710000D01*
X160154990Y-73525010D02*
X160154990Y-65828675D01*
X154940000Y-78740000D02*
X160154990Y-73525010D01*
%TO.N,USART3_Tx*%
X156140001Y-80079999D02*
X156140001Y-79317999D01*
X154940000Y-81280000D02*
X156140001Y-80079999D01*
X156140001Y-79317999D02*
X160655000Y-74803000D01*
X164480785Y-62210000D02*
X167287500Y-62210000D01*
X160655000Y-66035785D02*
X164480785Y-62210000D01*
X160655000Y-74803000D02*
X160655000Y-66035785D01*
%TO.N,USART3_Rx*%
X154940000Y-83820000D02*
X157226000Y-81534000D01*
X157226000Y-81534000D02*
X157226000Y-79121000D01*
X157226000Y-79121000D02*
X161290000Y-75057000D01*
X164687905Y-62710000D02*
X167287500Y-62710000D01*
X161290000Y-66107905D02*
X164687905Y-62710000D01*
X161290000Y-75057000D02*
X161290000Y-66107905D01*
%TO.N,SWCLK*%
X187765094Y-73660000D02*
X187960000Y-73660000D01*
X177723002Y-63710000D02*
X187673002Y-73660000D01*
X187673002Y-73660000D02*
X187960000Y-73660000D01*
X175612500Y-63710000D02*
X177723002Y-63710000D01*
%TO.N,SWDIO*%
X173200000Y-67468095D02*
X183455905Y-77724000D01*
X173200000Y-65122500D02*
X173200000Y-67468095D01*
X186944000Y-77724000D02*
X187960000Y-78740000D01*
X183455905Y-77724000D02*
X186944000Y-77724000D01*
%TO.N,SWO*%
X173962000Y-62710000D02*
X173863000Y-62611000D01*
X175612500Y-62710000D02*
X173962000Y-62710000D01*
D16*
X187706000Y-84074000D02*
X187960000Y-83820000D01*
X185166000Y-84074000D02*
X187706000Y-84074000D01*
D17*
%TO.N,PB12*%
X168700000Y-72600000D02*
X160020000Y-81280000D01*
X168700000Y-65122500D02*
X168700000Y-72600000D01*
%TO.N,PB13*%
X169200000Y-74640000D02*
X162560000Y-81280000D01*
X169200000Y-65122500D02*
X169200000Y-74640000D01*
%TO.N,PB14*%
X169700000Y-76680000D02*
X165100000Y-81280000D01*
X169700000Y-65122500D02*
X169700000Y-76680000D01*
%TO.N,PB15*%
X170200000Y-78720000D02*
X167640000Y-81280000D01*
X170200000Y-65122500D02*
X170200000Y-78720000D01*
%TO.N,PA8*%
X170700000Y-80760000D02*
X170180000Y-81280000D01*
X170700000Y-65122500D02*
X170700000Y-80760000D01*
%TO.N,USART_Tx*%
X175260000Y-80077905D02*
X175260000Y-81280000D01*
X171200000Y-76017905D02*
X175260000Y-80077905D01*
X171200000Y-65122500D02*
X171200000Y-76017905D01*
%TO.N,USART_Rx*%
X177169215Y-81280000D02*
X177800000Y-81280000D01*
X171700000Y-75810785D02*
X177169215Y-81280000D01*
X171700000Y-65122500D02*
X171700000Y-75810785D01*
%TO.N,PA11*%
X172200000Y-65122500D02*
X172200000Y-74410000D01*
X172200000Y-74410000D02*
X177038000Y-79248000D01*
X178308000Y-79248000D02*
X180340000Y-81280000D01*
X177038000Y-79248000D02*
X178308000Y-79248000D01*
%TO.N,PA12*%
X172700000Y-65122500D02*
X172700000Y-72624000D01*
X172700000Y-72624000D02*
X178562000Y-78486000D01*
X180086000Y-78486000D02*
X182880000Y-81280000D01*
X178562000Y-78486000D02*
X180086000Y-78486000D01*
%TO.N,HSE_OUT*%
X171700000Y-54539000D02*
X171704000Y-54535000D01*
X171700000Y-56797500D02*
X171700000Y-54539000D01*
%TD*%
D19*
%TO.N,GND*%
X194427869Y-36234722D02*
X194541246Y-36268953D01*
X194645819Y-36324555D01*
X194737596Y-36399407D01*
X194813091Y-36490664D01*
X194869419Y-36594844D01*
X194904440Y-36707976D01*
X194920000Y-36856022D01*
X194920001Y-42906618D01*
X192596236Y-45230384D01*
X192571052Y-45251052D01*
X192541680Y-45286842D01*
X192488575Y-45351550D01*
X192452982Y-45418141D01*
X192427290Y-45466208D01*
X192389550Y-45590618D01*
X192380000Y-45687582D01*
X192380000Y-45687591D01*
X192376808Y-45720000D01*
X192380000Y-45752409D01*
X192380001Y-76167581D01*
X192376808Y-76200000D01*
X192380001Y-76232418D01*
X192380001Y-76232419D01*
X192389551Y-76329383D01*
X192392346Y-76338597D01*
X192427290Y-76453792D01*
X192488575Y-76568450D01*
X192550386Y-76643766D01*
X192550388Y-76643768D01*
X192571053Y-76668948D01*
X192596232Y-76689612D01*
X194920000Y-79013381D01*
X194920001Y-85057711D01*
X194905278Y-85207869D01*
X194871047Y-85321246D01*
X194815446Y-85425817D01*
X194740594Y-85517595D01*
X194649335Y-85593091D01*
X194545160Y-85649419D01*
X194432024Y-85684440D01*
X194283979Y-85700000D01*
X148622279Y-85700000D01*
X148472131Y-85685278D01*
X148358754Y-85651047D01*
X148254183Y-85595446D01*
X148162405Y-85520594D01*
X148086909Y-85429335D01*
X148030581Y-85325160D01*
X147995560Y-85212024D01*
X147980000Y-85063979D01*
X147980000Y-84670000D01*
X148371928Y-84670000D01*
X148384188Y-84794482D01*
X148420498Y-84914180D01*
X148479463Y-85024494D01*
X148558815Y-85121185D01*
X148655506Y-85200537D01*
X148765820Y-85259502D01*
X148885518Y-85295812D01*
X149010000Y-85308072D01*
X149574250Y-85305000D01*
X149733000Y-85146250D01*
X149733000Y-83947000D01*
X149987000Y-83947000D01*
X149987000Y-85146250D01*
X150145750Y-85305000D01*
X150710000Y-85308072D01*
X150834482Y-85295812D01*
X150954180Y-85259502D01*
X151064494Y-85200537D01*
X151161185Y-85121185D01*
X151240537Y-85024494D01*
X151299502Y-84914180D01*
X151335812Y-84794482D01*
X151348072Y-84670000D01*
X151345000Y-84105750D01*
X151186250Y-83947000D01*
X149987000Y-83947000D01*
X149733000Y-83947000D01*
X148533750Y-83947000D01*
X148375000Y-84105750D01*
X148371928Y-84670000D01*
X147980000Y-84670000D01*
X147980000Y-82970000D01*
X148371928Y-82970000D01*
X148375000Y-83534250D01*
X148533750Y-83693000D01*
X149733000Y-83693000D01*
X149733000Y-82493750D01*
X149987000Y-82493750D01*
X149987000Y-83693000D01*
X151186250Y-83693000D01*
X151345000Y-83534250D01*
X151348072Y-82970000D01*
X151335812Y-82845518D01*
X151299502Y-82725820D01*
X151240537Y-82615506D01*
X151161185Y-82518815D01*
X151064494Y-82439463D01*
X150954180Y-82380498D01*
X150834482Y-82344188D01*
X150710000Y-82331928D01*
X150145750Y-82335000D01*
X149987000Y-82493750D01*
X149733000Y-82493750D01*
X149574250Y-82335000D01*
X149010000Y-82331928D01*
X148885518Y-82344188D01*
X148765820Y-82380498D01*
X148655506Y-82439463D01*
X148558815Y-82518815D01*
X148479463Y-82615506D01*
X148420498Y-82725820D01*
X148384188Y-82845518D01*
X148371928Y-82970000D01*
X147980000Y-82970000D01*
X147980000Y-79013380D01*
X150303770Y-76689611D01*
X150328948Y-76668948D01*
X150349615Y-76643766D01*
X150411424Y-76568451D01*
X150411425Y-76568450D01*
X150472710Y-76453793D01*
X150510450Y-76329383D01*
X150520000Y-76232419D01*
X150520000Y-76232410D01*
X150523192Y-76200001D01*
X150520000Y-76167592D01*
X150520000Y-45752408D01*
X150523192Y-45719999D01*
X150520000Y-45687590D01*
X150520000Y-45687581D01*
X150510450Y-45590617D01*
X150472710Y-45466207D01*
X150411425Y-45351550D01*
X150354156Y-45281768D01*
X150349613Y-45276232D01*
X150349612Y-45276231D01*
X150328948Y-45251052D01*
X150303769Y-45230388D01*
X149943381Y-44870000D01*
X153451928Y-44870000D01*
X153451928Y-46570000D01*
X153464188Y-46694482D01*
X153500498Y-46814180D01*
X153559463Y-46924494D01*
X153638815Y-47021185D01*
X153735506Y-47100537D01*
X153845820Y-47159502D01*
X153918380Y-47181513D01*
X153786525Y-47313368D01*
X153624010Y-47556589D01*
X153512068Y-47826842D01*
X153455000Y-48113740D01*
X153455000Y-48406260D01*
X153512068Y-48693158D01*
X153624010Y-48963411D01*
X153786525Y-49206632D01*
X153993368Y-49413475D01*
X154175534Y-49535195D01*
X154058645Y-49604822D01*
X153842412Y-49799731D01*
X153668359Y-50033080D01*
X153543175Y-50295901D01*
X153498524Y-50443110D01*
X153619845Y-50673000D01*
X154813000Y-50673000D01*
X154813000Y-50653000D01*
X155067000Y-50653000D01*
X155067000Y-50673000D01*
X155087000Y-50673000D01*
X155087000Y-50927000D01*
X155067000Y-50927000D01*
X155067000Y-50947000D01*
X154813000Y-50947000D01*
X154813000Y-50927000D01*
X153619845Y-50927000D01*
X153498524Y-51156890D01*
X153543175Y-51304099D01*
X153668359Y-51566920D01*
X153842412Y-51800269D01*
X154058645Y-51995178D01*
X154175534Y-52064805D01*
X153993368Y-52186525D01*
X153786525Y-52393368D01*
X153624010Y-52636589D01*
X153512068Y-52906842D01*
X153455000Y-53193740D01*
X153455000Y-53486260D01*
X153512068Y-53773158D01*
X153624010Y-54043411D01*
X153786525Y-54286632D01*
X153993368Y-54493475D01*
X154167760Y-54610000D01*
X153993368Y-54726525D01*
X153786525Y-54933368D01*
X153624010Y-55176589D01*
X153512068Y-55446842D01*
X153455000Y-55733740D01*
X153455000Y-56026260D01*
X153512068Y-56313158D01*
X153624010Y-56583411D01*
X153786525Y-56826632D01*
X153993368Y-57033475D01*
X154167760Y-57150000D01*
X153993368Y-57266525D01*
X153786525Y-57473368D01*
X153624010Y-57716589D01*
X153512068Y-57986842D01*
X153455000Y-58273740D01*
X153455000Y-58566260D01*
X153512068Y-58853158D01*
X153624010Y-59123411D01*
X153786525Y-59366632D01*
X153993368Y-59573475D01*
X154167760Y-59690000D01*
X153993368Y-59806525D01*
X153786525Y-60013368D01*
X153624010Y-60256589D01*
X153512068Y-60526842D01*
X153455000Y-60813740D01*
X153455000Y-61106260D01*
X153512068Y-61393158D01*
X153624010Y-61663411D01*
X153786525Y-61906632D01*
X153993368Y-62113475D01*
X154175534Y-62235195D01*
X154058645Y-62304822D01*
X153842412Y-62499731D01*
X153668359Y-62733080D01*
X153543175Y-62995901D01*
X153498524Y-63143110D01*
X153619845Y-63373000D01*
X154813000Y-63373000D01*
X154813000Y-63353000D01*
X155067000Y-63353000D01*
X155067000Y-63373000D01*
X155087000Y-63373000D01*
X155087000Y-63627000D01*
X155067000Y-63627000D01*
X155067000Y-63647000D01*
X154813000Y-63647000D01*
X154813000Y-63627000D01*
X153619845Y-63627000D01*
X153498524Y-63856890D01*
X153543175Y-64004099D01*
X153668359Y-64266920D01*
X153842412Y-64500269D01*
X154058645Y-64695178D01*
X154175534Y-64764805D01*
X153993368Y-64886525D01*
X153786525Y-65093368D01*
X153624010Y-65336589D01*
X153512068Y-65606842D01*
X153455000Y-65893740D01*
X153455000Y-66186260D01*
X153512068Y-66473158D01*
X153624010Y-66743411D01*
X153786525Y-66986632D01*
X153993368Y-67193475D01*
X154167760Y-67310000D01*
X153993368Y-67426525D01*
X153786525Y-67633368D01*
X153624010Y-67876589D01*
X153512068Y-68146842D01*
X153455000Y-68433740D01*
X153455000Y-68726260D01*
X153512068Y-69013158D01*
X153624010Y-69283411D01*
X153786525Y-69526632D01*
X153993368Y-69733475D01*
X154167760Y-69850000D01*
X153993368Y-69966525D01*
X153786525Y-70173368D01*
X153624010Y-70416589D01*
X153512068Y-70686842D01*
X153455000Y-70973740D01*
X153455000Y-71266260D01*
X153512068Y-71553158D01*
X153624010Y-71823411D01*
X153786525Y-72066632D01*
X153993368Y-72273475D01*
X154167760Y-72390000D01*
X153993368Y-72506525D01*
X153786525Y-72713368D01*
X153624010Y-72956589D01*
X153512068Y-73226842D01*
X153455000Y-73513740D01*
X153455000Y-73806260D01*
X153512068Y-74093158D01*
X153624010Y-74363411D01*
X153786525Y-74606632D01*
X153993368Y-74813475D01*
X154167760Y-74930000D01*
X153993368Y-75046525D01*
X153786525Y-75253368D01*
X153624010Y-75496589D01*
X153512068Y-75766842D01*
X153455000Y-76053740D01*
X153455000Y-76346260D01*
X153512068Y-76633158D01*
X153624010Y-76903411D01*
X153786525Y-77146632D01*
X153993368Y-77353475D01*
X154167760Y-77470000D01*
X153993368Y-77586525D01*
X153786525Y-77793368D01*
X153624010Y-78036589D01*
X153512068Y-78306842D01*
X153455000Y-78593740D01*
X153455000Y-78886260D01*
X153512068Y-79173158D01*
X153624010Y-79443411D01*
X153786525Y-79686632D01*
X153993368Y-79893475D01*
X154167760Y-80010000D01*
X153993368Y-80126525D01*
X153786525Y-80333368D01*
X153624010Y-80576589D01*
X153512068Y-80846842D01*
X153455000Y-81133740D01*
X153455000Y-81426260D01*
X153512068Y-81713158D01*
X153624010Y-81983411D01*
X153786525Y-82226632D01*
X153993368Y-82433475D01*
X154167760Y-82550000D01*
X153993368Y-82666525D01*
X153786525Y-82873368D01*
X153624010Y-83116589D01*
X153512068Y-83386842D01*
X153455000Y-83673740D01*
X153455000Y-83966260D01*
X153512068Y-84253158D01*
X153624010Y-84523411D01*
X153786525Y-84766632D01*
X153993368Y-84973475D01*
X154236589Y-85135990D01*
X154506842Y-85247932D01*
X154793740Y-85305000D01*
X155086260Y-85305000D01*
X155373158Y-85247932D01*
X155643411Y-85135990D01*
X155886632Y-84973475D01*
X156093475Y-84766632D01*
X156255990Y-84523411D01*
X156367932Y-84253158D01*
X156425000Y-83966260D01*
X156425000Y-83673740D01*
X156387075Y-83483082D01*
X157753817Y-82116341D01*
X157783764Y-82091764D01*
X157815051Y-82053642D01*
X157832450Y-82032441D01*
X157881862Y-81972233D01*
X157954754Y-81835860D01*
X157999641Y-81687887D01*
X158011000Y-81572561D01*
X158011000Y-81572554D01*
X158014797Y-81534001D01*
X158011000Y-81495448D01*
X158011000Y-79446157D01*
X161817817Y-75639341D01*
X161847764Y-75614764D01*
X161879052Y-75576641D01*
X161906276Y-75543468D01*
X161945862Y-75495233D01*
X162018754Y-75358860D01*
X162027262Y-75330812D01*
X162063642Y-75210887D01*
X162074084Y-75104859D01*
X162075000Y-75095561D01*
X162075000Y-75095556D01*
X162078797Y-75057000D01*
X162075000Y-75018444D01*
X162075000Y-66433062D01*
X164723618Y-63784445D01*
X164892465Y-63953292D01*
X164878322Y-63967434D01*
X164880038Y-63969150D01*
X164700433Y-64148755D01*
X164698717Y-64147039D01*
X164232557Y-64613199D01*
X164232557Y-64613216D01*
X164228744Y-64614795D01*
X164059226Y-64728063D01*
X163915063Y-64872226D01*
X163801795Y-65041744D01*
X163723774Y-65230102D01*
X163684000Y-65430061D01*
X163684000Y-65633939D01*
X163723774Y-65833898D01*
X163801795Y-66022256D01*
X163915063Y-66191774D01*
X164059226Y-66335937D01*
X164228744Y-66449205D01*
X164417102Y-66527226D01*
X164617061Y-66567000D01*
X164820939Y-66567000D01*
X165020898Y-66527226D01*
X165209256Y-66449205D01*
X165378774Y-66335937D01*
X165522937Y-66191774D01*
X165636205Y-66022256D01*
X165714226Y-65833898D01*
X165720499Y-65802363D01*
X165723223Y-65799638D01*
X165845438Y-65762565D01*
X165982549Y-65689277D01*
X166102729Y-65590649D01*
X166321932Y-65371446D01*
X166420560Y-65251266D01*
X166493848Y-65114155D01*
X166538978Y-64965380D01*
X166552407Y-64829033D01*
X166883369Y-64498072D01*
X167280027Y-64498072D01*
X167287490Y-64498807D01*
X167294953Y-64498072D01*
X167911928Y-64498072D01*
X167911928Y-65785000D01*
X167915000Y-65816193D01*
X167915001Y-72274842D01*
X160397915Y-79791928D01*
X159170000Y-79791928D01*
X159045518Y-79804188D01*
X158925820Y-79840498D01*
X158815506Y-79899463D01*
X158718815Y-79978815D01*
X158639463Y-80075506D01*
X158580498Y-80185820D01*
X158544188Y-80305518D01*
X158531928Y-80430000D01*
X158531928Y-82130000D01*
X158544188Y-82254482D01*
X158580498Y-82374180D01*
X158639463Y-82484494D01*
X158718815Y-82581185D01*
X158815506Y-82660537D01*
X158925820Y-82719502D01*
X159045518Y-82755812D01*
X159170000Y-82768072D01*
X160870000Y-82768072D01*
X160994482Y-82755812D01*
X161114180Y-82719502D01*
X161224494Y-82660537D01*
X161321185Y-82581185D01*
X161400537Y-82484494D01*
X161459502Y-82374180D01*
X161481513Y-82301620D01*
X161613368Y-82433475D01*
X161856589Y-82595990D01*
X162126842Y-82707932D01*
X162413740Y-82765000D01*
X162706260Y-82765000D01*
X162993158Y-82707932D01*
X163263411Y-82595990D01*
X163506632Y-82433475D01*
X163713475Y-82226632D01*
X163830000Y-82052240D01*
X163946525Y-82226632D01*
X164153368Y-82433475D01*
X164396589Y-82595990D01*
X164666842Y-82707932D01*
X164953740Y-82765000D01*
X165246260Y-82765000D01*
X165533158Y-82707932D01*
X165803411Y-82595990D01*
X166046632Y-82433475D01*
X166253475Y-82226632D01*
X166370000Y-82052240D01*
X166486525Y-82226632D01*
X166693368Y-82433475D01*
X166936589Y-82595990D01*
X167206842Y-82707932D01*
X167493740Y-82765000D01*
X167786260Y-82765000D01*
X168073158Y-82707932D01*
X168343411Y-82595990D01*
X168586632Y-82433475D01*
X168793475Y-82226632D01*
X168910000Y-82052240D01*
X169026525Y-82226632D01*
X169233368Y-82433475D01*
X169476589Y-82595990D01*
X169746842Y-82707932D01*
X170033740Y-82765000D01*
X170326260Y-82765000D01*
X170613158Y-82707932D01*
X170883411Y-82595990D01*
X171126632Y-82433475D01*
X171333475Y-82226632D01*
X171455195Y-82044466D01*
X171524822Y-82161355D01*
X171719731Y-82377588D01*
X171953080Y-82551641D01*
X172215901Y-82676825D01*
X172363110Y-82721476D01*
X172593000Y-82600155D01*
X172593000Y-81407000D01*
X172573000Y-81407000D01*
X172573000Y-81153000D01*
X172593000Y-81153000D01*
X172593000Y-79959845D01*
X172363110Y-79838524D01*
X172215901Y-79883175D01*
X171953080Y-80008359D01*
X171719731Y-80182412D01*
X171524822Y-80398645D01*
X171485000Y-80465497D01*
X171485000Y-77413062D01*
X174255915Y-80183978D01*
X174106525Y-80333368D01*
X173984805Y-80515534D01*
X173915178Y-80398645D01*
X173720269Y-80182412D01*
X173486920Y-80008359D01*
X173224099Y-79883175D01*
X173076890Y-79838524D01*
X172847000Y-79959845D01*
X172847000Y-81153000D01*
X172867000Y-81153000D01*
X172867000Y-81407000D01*
X172847000Y-81407000D01*
X172847000Y-82600155D01*
X173076890Y-82721476D01*
X173224099Y-82676825D01*
X173486920Y-82551641D01*
X173720269Y-82377588D01*
X173915178Y-82161355D01*
X173984805Y-82044466D01*
X174106525Y-82226632D01*
X174313368Y-82433475D01*
X174556589Y-82595990D01*
X174826842Y-82707932D01*
X175113740Y-82765000D01*
X175406260Y-82765000D01*
X175693158Y-82707932D01*
X175963411Y-82595990D01*
X176206632Y-82433475D01*
X176413475Y-82226632D01*
X176530000Y-82052240D01*
X176646525Y-82226632D01*
X176853368Y-82433475D01*
X177096589Y-82595990D01*
X177366842Y-82707932D01*
X177653740Y-82765000D01*
X177946260Y-82765000D01*
X178233158Y-82707932D01*
X178503411Y-82595990D01*
X178746632Y-82433475D01*
X178953475Y-82226632D01*
X179070000Y-82052240D01*
X179186525Y-82226632D01*
X179393368Y-82433475D01*
X179636589Y-82595990D01*
X179906842Y-82707932D01*
X180193740Y-82765000D01*
X180486260Y-82765000D01*
X180773158Y-82707932D01*
X181043411Y-82595990D01*
X181286632Y-82433475D01*
X181493475Y-82226632D01*
X181610000Y-82052240D01*
X181726525Y-82226632D01*
X181933368Y-82433475D01*
X182176589Y-82595990D01*
X182446842Y-82707932D01*
X182733740Y-82765000D01*
X183026260Y-82765000D01*
X183313158Y-82707932D01*
X183583411Y-82595990D01*
X183826632Y-82433475D01*
X184033475Y-82226632D01*
X184195990Y-81983411D01*
X184307932Y-81713158D01*
X184365000Y-81426260D01*
X184365000Y-81133740D01*
X184307932Y-80846842D01*
X184195990Y-80576589D01*
X184033475Y-80333368D01*
X183826632Y-80126525D01*
X183583411Y-79964010D01*
X183313158Y-79852068D01*
X183026260Y-79795000D01*
X182733740Y-79795000D01*
X182543082Y-79832925D01*
X181111776Y-78401619D01*
X181115779Y-78402833D01*
X181270500Y-78418072D01*
X181320915Y-78418072D01*
X182297658Y-79394816D01*
X182322236Y-79424764D01*
X182352184Y-79449342D01*
X182352187Y-79449345D01*
X182375837Y-79468754D01*
X182441767Y-79522862D01*
X182578140Y-79595754D01*
X182691672Y-79630194D01*
X182726112Y-79640641D01*
X182737545Y-79641767D01*
X182841439Y-79652000D01*
X182841446Y-79652000D01*
X182879999Y-79655797D01*
X182918552Y-79652000D01*
X185221843Y-79652000D01*
X186512925Y-80943082D01*
X186475000Y-81133740D01*
X186475000Y-81426260D01*
X186532068Y-81713158D01*
X186644010Y-81983411D01*
X186806525Y-82226632D01*
X187013368Y-82433475D01*
X187187760Y-82550000D01*
X187013368Y-82666525D01*
X186806525Y-82873368D01*
X186762671Y-82939000D01*
X185054212Y-82939000D01*
X184999253Y-82949932D01*
X184943501Y-82955423D01*
X184889894Y-82971685D01*
X184834933Y-82982617D01*
X184783158Y-83004063D01*
X184729553Y-83020324D01*
X184680149Y-83046731D01*
X184628376Y-83068176D01*
X184581786Y-83099307D01*
X184532377Y-83125716D01*
X184489068Y-83161259D01*
X184442480Y-83192388D01*
X184402859Y-83232009D01*
X184359551Y-83267551D01*
X184324011Y-83310857D01*
X184284388Y-83350480D01*
X184253259Y-83397068D01*
X184217716Y-83440377D01*
X184191307Y-83489786D01*
X184160176Y-83536376D01*
X184138731Y-83588149D01*
X184112324Y-83637553D01*
X184096063Y-83691158D01*
X184074617Y-83742933D01*
X184063685Y-83797894D01*
X184047423Y-83851501D01*
X184041932Y-83907253D01*
X184031000Y-83962212D01*
X184031000Y-84018248D01*
X184025509Y-84074000D01*
X184031000Y-84129752D01*
X184031000Y-84185788D01*
X184041932Y-84240747D01*
X184047423Y-84296499D01*
X184063685Y-84350106D01*
X184074617Y-84405067D01*
X184096063Y-84456842D01*
X184112324Y-84510447D01*
X184138731Y-84559851D01*
X184160176Y-84611624D01*
X184191307Y-84658214D01*
X184217716Y-84707623D01*
X184253259Y-84750932D01*
X184284388Y-84797520D01*
X184324009Y-84837141D01*
X184359551Y-84880449D01*
X184402859Y-84915991D01*
X184442480Y-84955612D01*
X184489068Y-84986741D01*
X184532377Y-85022284D01*
X184581786Y-85048693D01*
X184628376Y-85079824D01*
X184680149Y-85101269D01*
X184729553Y-85127676D01*
X184783158Y-85143937D01*
X184834933Y-85165383D01*
X184889894Y-85176315D01*
X184943501Y-85192577D01*
X184999253Y-85198068D01*
X185054212Y-85209000D01*
X187432851Y-85209000D01*
X187526842Y-85247932D01*
X187813740Y-85305000D01*
X188106260Y-85305000D01*
X188393158Y-85247932D01*
X188663411Y-85135990D01*
X188906632Y-84973475D01*
X189113475Y-84766632D01*
X189178042Y-84670000D01*
X191551928Y-84670000D01*
X191564188Y-84794482D01*
X191600498Y-84914180D01*
X191659463Y-85024494D01*
X191738815Y-85121185D01*
X191835506Y-85200537D01*
X191945820Y-85259502D01*
X192065518Y-85295812D01*
X192190000Y-85308072D01*
X192754250Y-85305000D01*
X192913000Y-85146250D01*
X192913000Y-83947000D01*
X193167000Y-83947000D01*
X193167000Y-85146250D01*
X193325750Y-85305000D01*
X193890000Y-85308072D01*
X194014482Y-85295812D01*
X194134180Y-85259502D01*
X194244494Y-85200537D01*
X194341185Y-85121185D01*
X194420537Y-85024494D01*
X194479502Y-84914180D01*
X194515812Y-84794482D01*
X194528072Y-84670000D01*
X194525000Y-84105750D01*
X194366250Y-83947000D01*
X193167000Y-83947000D01*
X192913000Y-83947000D01*
X191713750Y-83947000D01*
X191555000Y-84105750D01*
X191551928Y-84670000D01*
X189178042Y-84670000D01*
X189275990Y-84523411D01*
X189387932Y-84253158D01*
X189445000Y-83966260D01*
X189445000Y-83673740D01*
X189387932Y-83386842D01*
X189275990Y-83116589D01*
X189178043Y-82970000D01*
X191551928Y-82970000D01*
X191555000Y-83534250D01*
X191713750Y-83693000D01*
X192913000Y-83693000D01*
X192913000Y-82493750D01*
X193167000Y-82493750D01*
X193167000Y-83693000D01*
X194366250Y-83693000D01*
X194525000Y-83534250D01*
X194528072Y-82970000D01*
X194515812Y-82845518D01*
X194479502Y-82725820D01*
X194420537Y-82615506D01*
X194341185Y-82518815D01*
X194244494Y-82439463D01*
X194134180Y-82380498D01*
X194014482Y-82344188D01*
X193890000Y-82331928D01*
X193325750Y-82335000D01*
X193167000Y-82493750D01*
X192913000Y-82493750D01*
X192754250Y-82335000D01*
X192190000Y-82331928D01*
X192065518Y-82344188D01*
X191945820Y-82380498D01*
X191835506Y-82439463D01*
X191738815Y-82518815D01*
X191659463Y-82615506D01*
X191600498Y-82725820D01*
X191564188Y-82845518D01*
X191551928Y-82970000D01*
X189178043Y-82970000D01*
X189113475Y-82873368D01*
X188906632Y-82666525D01*
X188732240Y-82550000D01*
X188906632Y-82433475D01*
X189113475Y-82226632D01*
X189275990Y-81983411D01*
X189387932Y-81713158D01*
X189445000Y-81426260D01*
X189445000Y-81133740D01*
X189387932Y-80846842D01*
X189275990Y-80576589D01*
X189113475Y-80333368D01*
X188906632Y-80126525D01*
X188732240Y-80010000D01*
X188906632Y-79893475D01*
X189113475Y-79686632D01*
X189275990Y-79443411D01*
X189387932Y-79173158D01*
X189445000Y-78886260D01*
X189445000Y-78593740D01*
X189387932Y-78306842D01*
X189275990Y-78036589D01*
X189113475Y-77793368D01*
X188906632Y-77586525D01*
X188724466Y-77464805D01*
X188841355Y-77395178D01*
X189057588Y-77200269D01*
X189231641Y-76966920D01*
X189356825Y-76704099D01*
X189401476Y-76556890D01*
X189280155Y-76327000D01*
X188087000Y-76327000D01*
X188087000Y-76347000D01*
X187833000Y-76347000D01*
X187833000Y-76327000D01*
X186639845Y-76327000D01*
X186518524Y-76556890D01*
X186563175Y-76704099D01*
X186675060Y-76939000D01*
X183781063Y-76939000D01*
X176178455Y-69336392D01*
X176461213Y-69336392D01*
X176461213Y-69560898D01*
X176592861Y-69696891D01*
X176689552Y-69776244D01*
X176799866Y-69835208D01*
X176919565Y-69871517D01*
X177044046Y-69883778D01*
X177168527Y-69871517D01*
X177288225Y-69835208D01*
X177398540Y-69776244D01*
X177495231Y-69696891D01*
X177671073Y-69516704D01*
X177671073Y-69292198D01*
X177088240Y-68709365D01*
X176461213Y-69336392D01*
X176178455Y-69336392D01*
X175416017Y-68573954D01*
X175734222Y-68573954D01*
X175746483Y-68698435D01*
X175782792Y-68818134D01*
X175841756Y-68928448D01*
X175921109Y-69025139D01*
X176057102Y-69156787D01*
X176281608Y-69156787D01*
X176908635Y-68529760D01*
X176325802Y-67946927D01*
X176101296Y-67946927D01*
X175921109Y-68122769D01*
X175841756Y-68219460D01*
X175782792Y-68329775D01*
X175746483Y-68449473D01*
X175734222Y-68573954D01*
X175416017Y-68573954D01*
X174371053Y-67528990D01*
X175220615Y-67528990D01*
X175220615Y-67753496D01*
X175235590Y-67772816D01*
X175332282Y-67852169D01*
X175442596Y-67911133D01*
X175562294Y-67947442D01*
X175686775Y-67959703D01*
X175811257Y-67947442D01*
X175930955Y-67911133D01*
X176041269Y-67852169D01*
X176137960Y-67772816D01*
X176193594Y-67712838D01*
X176193594Y-67488331D01*
X175727434Y-67022171D01*
X175220615Y-67528990D01*
X174371053Y-67528990D01*
X173985000Y-67142938D01*
X173985000Y-66484102D01*
X173985887Y-66484371D01*
X174026737Y-66488394D01*
X174106153Y-66567810D01*
X174130736Y-66597764D01*
X174250267Y-66695862D01*
X174386640Y-66768754D01*
X174481911Y-66797654D01*
X174534612Y-66813641D01*
X174548990Y-66815057D01*
X174616358Y-66821692D01*
X174610297Y-66883225D01*
X174622558Y-67007706D01*
X174658867Y-67127404D01*
X174717831Y-67237718D01*
X174797184Y-67334410D01*
X174816504Y-67349385D01*
X175041010Y-67349385D01*
X175547829Y-66842566D01*
X175533687Y-66828424D01*
X175537110Y-66825000D01*
X175705948Y-66825000D01*
X175723551Y-66846449D01*
X175896377Y-66988284D01*
X176093553Y-67093676D01*
X176186277Y-67121804D01*
X176373199Y-67308726D01*
X176597706Y-67308726D01*
X176657684Y-67253092D01*
X176722566Y-67174033D01*
X176879499Y-67158577D01*
X177093447Y-67093676D01*
X177096963Y-67091797D01*
X177069622Y-67181929D01*
X177007953Y-67188003D01*
X176888255Y-67224312D01*
X176777940Y-67283276D01*
X176681249Y-67362629D01*
X176505407Y-67542816D01*
X176505407Y-67767322D01*
X177088240Y-68350155D01*
X177102383Y-68336013D01*
X177281988Y-68515618D01*
X177267845Y-68529760D01*
X177850678Y-69112593D01*
X178075184Y-69112593D01*
X178255371Y-68936751D01*
X178334724Y-68840060D01*
X178393688Y-68729745D01*
X178429997Y-68610047D01*
X178436071Y-68548378D01*
X178598873Y-68498993D01*
X178699888Y-68445000D01*
X178853868Y-68445000D01*
X179195857Y-68786989D01*
X179325377Y-68893284D01*
X179522553Y-68998676D01*
X179736501Y-69063577D01*
X179959000Y-69085491D01*
X180181499Y-69063577D01*
X180395447Y-68998676D01*
X180592623Y-68893284D01*
X180765449Y-68751449D01*
X180907284Y-68578623D01*
X181012676Y-68381447D01*
X181075893Y-68173049D01*
X186475000Y-73572156D01*
X186475000Y-73806260D01*
X186532068Y-74093158D01*
X186644010Y-74363411D01*
X186806525Y-74606632D01*
X187013368Y-74813475D01*
X187195534Y-74935195D01*
X187078645Y-75004822D01*
X186862412Y-75199731D01*
X186688359Y-75433080D01*
X186563175Y-75695901D01*
X186518524Y-75843110D01*
X186639845Y-76073000D01*
X187833000Y-76073000D01*
X187833000Y-76053000D01*
X188087000Y-76053000D01*
X188087000Y-76073000D01*
X189280155Y-76073000D01*
X189401476Y-75843110D01*
X189356825Y-75695901D01*
X189231641Y-75433080D01*
X189057588Y-75199731D01*
X188841355Y-75004822D01*
X188724466Y-74935195D01*
X188906632Y-74813475D01*
X189113475Y-74606632D01*
X189275990Y-74363411D01*
X189387932Y-74093158D01*
X189445000Y-73806260D01*
X189445000Y-73513740D01*
X189387932Y-73226842D01*
X189275990Y-72956589D01*
X189113475Y-72713368D01*
X188981620Y-72581513D01*
X189054180Y-72559502D01*
X189164494Y-72500537D01*
X189261185Y-72421185D01*
X189340537Y-72324494D01*
X189399502Y-72214180D01*
X189435812Y-72094482D01*
X189448072Y-71970000D01*
X189448072Y-70270000D01*
X189435812Y-70145518D01*
X189399502Y-70025820D01*
X189340537Y-69915506D01*
X189261185Y-69818815D01*
X189164494Y-69739463D01*
X189095000Y-69702317D01*
X189095000Y-67960212D01*
X189084068Y-67905253D01*
X189078577Y-67849501D01*
X189062315Y-67795894D01*
X189051383Y-67740933D01*
X189029937Y-67689158D01*
X189013676Y-67635553D01*
X188987269Y-67586149D01*
X188965824Y-67534376D01*
X188934693Y-67487786D01*
X188908284Y-67438377D01*
X188872741Y-67395068D01*
X188841612Y-67348480D01*
X188801991Y-67308859D01*
X188766449Y-67265551D01*
X188723141Y-67230009D01*
X188683520Y-67190388D01*
X188636932Y-67159259D01*
X188593623Y-67123716D01*
X188544214Y-67097307D01*
X188497624Y-67066176D01*
X188445851Y-67044731D01*
X188396447Y-67018324D01*
X188342842Y-67002063D01*
X188291067Y-66980617D01*
X188236106Y-66969685D01*
X188182499Y-66953423D01*
X188126747Y-66947932D01*
X188071788Y-66937000D01*
X188015752Y-66937000D01*
X187960000Y-66931509D01*
X187904249Y-66937000D01*
X187848212Y-66937000D01*
X187793252Y-66947932D01*
X187737502Y-66953423D01*
X187683897Y-66969684D01*
X187628933Y-66980617D01*
X187577155Y-67002064D01*
X187523554Y-67018324D01*
X187474153Y-67044729D01*
X187422376Y-67066176D01*
X187375782Y-67097309D01*
X187326378Y-67123716D01*
X187283074Y-67159255D01*
X187236480Y-67190388D01*
X187196855Y-67230013D01*
X187153552Y-67265551D01*
X187118014Y-67308854D01*
X187078388Y-67348480D01*
X187047254Y-67395075D01*
X187011717Y-67438377D01*
X186985312Y-67487778D01*
X186954176Y-67534376D01*
X186932728Y-67586157D01*
X186906325Y-67635553D01*
X186890067Y-67689149D01*
X186868617Y-67740933D01*
X186857683Y-67795904D01*
X186841424Y-67849501D01*
X186835934Y-67905243D01*
X186825000Y-67960212D01*
X186825000Y-68183788D01*
X186825001Y-68183793D01*
X186825000Y-69702317D01*
X186755506Y-69739463D01*
X186658815Y-69818815D01*
X186579463Y-69915506D01*
X186520498Y-70025820D01*
X186484188Y-70145518D01*
X186471928Y-70270000D01*
X186471928Y-71348768D01*
X181282231Y-66159072D01*
X181593500Y-66159072D01*
X181764316Y-66142248D01*
X181801396Y-66131000D01*
X183023453Y-66131000D01*
X183106684Y-66156248D01*
X183277500Y-66173072D01*
X183363524Y-66173072D01*
X183515000Y-66187991D01*
X183666476Y-66173072D01*
X183752500Y-66173072D01*
X183923316Y-66156248D01*
X184087567Y-66106423D01*
X184238942Y-66025512D01*
X184371623Y-65916623D01*
X184480512Y-65783942D01*
X184561423Y-65632567D01*
X184611248Y-65468316D01*
X184628072Y-65297500D01*
X184628072Y-65288145D01*
X184633577Y-65269998D01*
X184655491Y-65047500D01*
X184633577Y-64825002D01*
X184628072Y-64806855D01*
X184628072Y-64797500D01*
X184611248Y-64626684D01*
X184561423Y-64462433D01*
X184480512Y-64311058D01*
X184391188Y-64202217D01*
X184441185Y-64161185D01*
X184520537Y-64064494D01*
X184579502Y-63954180D01*
X184609014Y-63856890D01*
X186518524Y-63856890D01*
X186563175Y-64004099D01*
X186688359Y-64266920D01*
X186862412Y-64500269D01*
X187078645Y-64695178D01*
X187328748Y-64844157D01*
X187603109Y-64941481D01*
X187833000Y-64820814D01*
X187833000Y-63627000D01*
X188087000Y-63627000D01*
X188087000Y-64820814D01*
X188316891Y-64941481D01*
X188591252Y-64844157D01*
X188841355Y-64695178D01*
X189057588Y-64500269D01*
X189231641Y-64266920D01*
X189356825Y-64004099D01*
X189401476Y-63856890D01*
X189280155Y-63627000D01*
X188087000Y-63627000D01*
X187833000Y-63627000D01*
X186639845Y-63627000D01*
X186518524Y-63856890D01*
X184609014Y-63856890D01*
X184615812Y-63834482D01*
X184628072Y-63710000D01*
X184625000Y-63508250D01*
X184466250Y-63349500D01*
X183642000Y-63349500D01*
X183642000Y-63369500D01*
X183388000Y-63369500D01*
X183388000Y-63349500D01*
X183368000Y-63349500D01*
X183368000Y-63095500D01*
X183388000Y-63095500D01*
X183388000Y-62258750D01*
X183642000Y-62258750D01*
X183642000Y-63095500D01*
X184466250Y-63095500D01*
X184625000Y-62936750D01*
X184628072Y-62735000D01*
X184615812Y-62610518D01*
X184579502Y-62490820D01*
X184520537Y-62380506D01*
X184441185Y-62283815D01*
X184344494Y-62204463D01*
X184234180Y-62145498D01*
X184114482Y-62109188D01*
X183990000Y-62096928D01*
X183800750Y-62100000D01*
X183642000Y-62258750D01*
X183388000Y-62258750D01*
X183229250Y-62100000D01*
X183040000Y-62096928D01*
X182915518Y-62109188D01*
X182795820Y-62145498D01*
X182685506Y-62204463D01*
X182588815Y-62283815D01*
X182509463Y-62380506D01*
X182450498Y-62490820D01*
X182414188Y-62610518D01*
X182410344Y-62649546D01*
X182402423Y-62623433D01*
X182321512Y-62472058D01*
X182212623Y-62339377D01*
X182079942Y-62230488D01*
X181928567Y-62149577D01*
X181764316Y-62099752D01*
X181593500Y-62082928D01*
X181118500Y-62082928D01*
X180947684Y-62099752D01*
X180783433Y-62149577D01*
X180633628Y-62229649D01*
X181903277Y-60960000D01*
X184025509Y-60960000D01*
X184031000Y-61015751D01*
X184031000Y-61071788D01*
X184041932Y-61126747D01*
X184047423Y-61182499D01*
X184063685Y-61236106D01*
X184074617Y-61291067D01*
X184096063Y-61342842D01*
X184112324Y-61396447D01*
X184138731Y-61445851D01*
X184160176Y-61497624D01*
X184191307Y-61544214D01*
X184217716Y-61593623D01*
X184253259Y-61636932D01*
X184284388Y-61683520D01*
X184324009Y-61723141D01*
X184359551Y-61766449D01*
X184402859Y-61801991D01*
X184442480Y-61841612D01*
X184489068Y-61872741D01*
X184532377Y-61908284D01*
X184581786Y-61934693D01*
X184628376Y-61965824D01*
X184680149Y-61987269D01*
X184729553Y-62013676D01*
X184783158Y-62029937D01*
X184834933Y-62051383D01*
X184889894Y-62062315D01*
X184943501Y-62078577D01*
X184999253Y-62084068D01*
X185054212Y-62095000D01*
X186542317Y-62095000D01*
X186579463Y-62164494D01*
X186658815Y-62261185D01*
X186755506Y-62340537D01*
X186865820Y-62399502D01*
X186946466Y-62423966D01*
X186862412Y-62499731D01*
X186688359Y-62733080D01*
X186563175Y-62995901D01*
X186518524Y-63143110D01*
X186639845Y-63373000D01*
X187833000Y-63373000D01*
X187833000Y-63353000D01*
X188087000Y-63353000D01*
X188087000Y-63373000D01*
X189280155Y-63373000D01*
X189401476Y-63143110D01*
X189356825Y-62995901D01*
X189231641Y-62733080D01*
X189057588Y-62499731D01*
X188973534Y-62423966D01*
X189054180Y-62399502D01*
X189164494Y-62340537D01*
X189261185Y-62261185D01*
X189340537Y-62164494D01*
X189399502Y-62054180D01*
X189435812Y-61934482D01*
X189448072Y-61810000D01*
X189448072Y-60110000D01*
X189435812Y-59985518D01*
X189399502Y-59865820D01*
X189340537Y-59755506D01*
X189261185Y-59658815D01*
X189164494Y-59579463D01*
X189095000Y-59542317D01*
X189095000Y-57292212D01*
X189084068Y-57237253D01*
X189078577Y-57181501D01*
X189062315Y-57127894D01*
X189051383Y-57072933D01*
X189029937Y-57021158D01*
X189013676Y-56967553D01*
X188987269Y-56918149D01*
X188965824Y-56866376D01*
X188934693Y-56819786D01*
X188908284Y-56770377D01*
X188872741Y-56727068D01*
X188841612Y-56680480D01*
X188801991Y-56640859D01*
X188766449Y-56597551D01*
X188723141Y-56562009D01*
X188683520Y-56522388D01*
X188636932Y-56491259D01*
X188593623Y-56455716D01*
X188544214Y-56429307D01*
X188497624Y-56398176D01*
X188445851Y-56376731D01*
X188396447Y-56350324D01*
X188342842Y-56334063D01*
X188291067Y-56312617D01*
X188236106Y-56301685D01*
X188182499Y-56285423D01*
X188126747Y-56279932D01*
X188071788Y-56269000D01*
X188015752Y-56269000D01*
X187960000Y-56263509D01*
X187904249Y-56269000D01*
X187848212Y-56269000D01*
X187793252Y-56279932D01*
X187737502Y-56285423D01*
X187683897Y-56301684D01*
X187628933Y-56312617D01*
X187577155Y-56334064D01*
X187523554Y-56350324D01*
X187474153Y-56376729D01*
X187422376Y-56398176D01*
X187375782Y-56429309D01*
X187326378Y-56455716D01*
X187283074Y-56491255D01*
X187236480Y-56522388D01*
X187196855Y-56562013D01*
X187153552Y-56597551D01*
X187118014Y-56640854D01*
X187078388Y-56680480D01*
X187047254Y-56727075D01*
X187011717Y-56770377D01*
X186985312Y-56819778D01*
X186954176Y-56866376D01*
X186932728Y-56918157D01*
X186906325Y-56967553D01*
X186890067Y-57021149D01*
X186868617Y-57072933D01*
X186857683Y-57127904D01*
X186841424Y-57181501D01*
X186835934Y-57237243D01*
X186825000Y-57292212D01*
X186825000Y-57515788D01*
X186825001Y-57515793D01*
X186825000Y-59542317D01*
X186755506Y-59579463D01*
X186658815Y-59658815D01*
X186579463Y-59755506D01*
X186542317Y-59825000D01*
X185054212Y-59825000D01*
X184999253Y-59835932D01*
X184943501Y-59841423D01*
X184889894Y-59857685D01*
X184834933Y-59868617D01*
X184783158Y-59890063D01*
X184729553Y-59906324D01*
X184680149Y-59932731D01*
X184628376Y-59954176D01*
X184581786Y-59985307D01*
X184532377Y-60011716D01*
X184489068Y-60047259D01*
X184442480Y-60078388D01*
X184402859Y-60118009D01*
X184359551Y-60153551D01*
X184324009Y-60196859D01*
X184284388Y-60236480D01*
X184253259Y-60283068D01*
X184217716Y-60326377D01*
X184191307Y-60375786D01*
X184160176Y-60422376D01*
X184138731Y-60474149D01*
X184112324Y-60523553D01*
X184096063Y-60577158D01*
X184074617Y-60628933D01*
X184063685Y-60683894D01*
X184047423Y-60737501D01*
X184041932Y-60793253D01*
X184031000Y-60848212D01*
X184031000Y-60904248D01*
X184025509Y-60960000D01*
X181903277Y-60960000D01*
X188038277Y-54825000D01*
X188106260Y-54825000D01*
X188393158Y-54767932D01*
X188663411Y-54655990D01*
X188906632Y-54493475D01*
X189113475Y-54286632D01*
X189275990Y-54043411D01*
X189387932Y-53773158D01*
X189445000Y-53486260D01*
X189445000Y-53193740D01*
X189387932Y-52906842D01*
X189275990Y-52636589D01*
X189113475Y-52393368D01*
X188906632Y-52186525D01*
X188732240Y-52070000D01*
X188906632Y-51953475D01*
X189113475Y-51746632D01*
X189275990Y-51503411D01*
X189387932Y-51233158D01*
X189445000Y-50946260D01*
X189445000Y-50653740D01*
X189387932Y-50366842D01*
X189275990Y-50096589D01*
X189113475Y-49853368D01*
X188906632Y-49646525D01*
X188732240Y-49530000D01*
X188906632Y-49413475D01*
X189113475Y-49206632D01*
X189275990Y-48963411D01*
X189387932Y-48693158D01*
X189445000Y-48406260D01*
X189445000Y-48113740D01*
X189387932Y-47826842D01*
X189275990Y-47556589D01*
X189113475Y-47313368D01*
X188906632Y-47106525D01*
X188732240Y-46990000D01*
X188906632Y-46873475D01*
X189113475Y-46666632D01*
X189275990Y-46423411D01*
X189387932Y-46153158D01*
X189445000Y-45866260D01*
X189445000Y-45573740D01*
X189387932Y-45286842D01*
X189275990Y-45016589D01*
X189113475Y-44773368D01*
X188906632Y-44566525D01*
X188732240Y-44450000D01*
X188906632Y-44333475D01*
X189113475Y-44126632D01*
X189275990Y-43883411D01*
X189387932Y-43613158D01*
X189445000Y-43326260D01*
X189445000Y-43033740D01*
X189387932Y-42746842D01*
X189275990Y-42476589D01*
X189113475Y-42233368D01*
X188906632Y-42026525D01*
X188732240Y-41910000D01*
X188906632Y-41793475D01*
X189113475Y-41586632D01*
X189275990Y-41343411D01*
X189387932Y-41073158D01*
X189445000Y-40786260D01*
X189445000Y-40493740D01*
X189387932Y-40206842D01*
X189275990Y-39936589D01*
X189113475Y-39693368D01*
X188981620Y-39561513D01*
X189054180Y-39539502D01*
X189164494Y-39480537D01*
X189261185Y-39401185D01*
X189340537Y-39304494D01*
X189399502Y-39194180D01*
X189435812Y-39074482D01*
X189448072Y-38950000D01*
X191551928Y-38950000D01*
X191564188Y-39074482D01*
X191600498Y-39194180D01*
X191659463Y-39304494D01*
X191738815Y-39401185D01*
X191835506Y-39480537D01*
X191945820Y-39539502D01*
X192065518Y-39575812D01*
X192190000Y-39588072D01*
X192754250Y-39585000D01*
X192913000Y-39426250D01*
X192913000Y-38227000D01*
X193167000Y-38227000D01*
X193167000Y-39426250D01*
X193325750Y-39585000D01*
X193890000Y-39588072D01*
X194014482Y-39575812D01*
X194134180Y-39539502D01*
X194244494Y-39480537D01*
X194341185Y-39401185D01*
X194420537Y-39304494D01*
X194479502Y-39194180D01*
X194515812Y-39074482D01*
X194528072Y-38950000D01*
X194525000Y-38385750D01*
X194366250Y-38227000D01*
X193167000Y-38227000D01*
X192913000Y-38227000D01*
X191713750Y-38227000D01*
X191555000Y-38385750D01*
X191551928Y-38950000D01*
X189448072Y-38950000D01*
X189448072Y-37250000D01*
X191551928Y-37250000D01*
X191555000Y-37814250D01*
X191713750Y-37973000D01*
X192913000Y-37973000D01*
X192913000Y-36773750D01*
X193167000Y-36773750D01*
X193167000Y-37973000D01*
X194366250Y-37973000D01*
X194525000Y-37814250D01*
X194528072Y-37250000D01*
X194515812Y-37125518D01*
X194479502Y-37005820D01*
X194420537Y-36895506D01*
X194341185Y-36798815D01*
X194244494Y-36719463D01*
X194134180Y-36660498D01*
X194014482Y-36624188D01*
X193890000Y-36611928D01*
X193325750Y-36615000D01*
X193167000Y-36773750D01*
X192913000Y-36773750D01*
X192754250Y-36615000D01*
X192190000Y-36611928D01*
X192065518Y-36624188D01*
X191945820Y-36660498D01*
X191835506Y-36719463D01*
X191738815Y-36798815D01*
X191659463Y-36895506D01*
X191600498Y-37005820D01*
X191564188Y-37125518D01*
X191551928Y-37250000D01*
X189448072Y-37250000D01*
X189435812Y-37125518D01*
X189399502Y-37005820D01*
X189340537Y-36895506D01*
X189261185Y-36798815D01*
X189164494Y-36719463D01*
X189054180Y-36660498D01*
X188934482Y-36624188D01*
X188810000Y-36611928D01*
X187110000Y-36611928D01*
X186985518Y-36624188D01*
X186865820Y-36660498D01*
X186755506Y-36719463D01*
X186658815Y-36798815D01*
X186579463Y-36895506D01*
X186520498Y-37005820D01*
X186484188Y-37125518D01*
X186471928Y-37250000D01*
X186471928Y-37315000D01*
X183807556Y-37315000D01*
X183769000Y-37311203D01*
X183730444Y-37315000D01*
X183730439Y-37315000D01*
X183690026Y-37318980D01*
X183615113Y-37326358D01*
X183476159Y-37368510D01*
X183467140Y-37371246D01*
X183330767Y-37444138D01*
X183211236Y-37542236D01*
X183186653Y-37572190D01*
X180320185Y-40438658D01*
X180290237Y-40463236D01*
X180265659Y-40493184D01*
X180265655Y-40493188D01*
X180250527Y-40511622D01*
X180192139Y-40582767D01*
X180161548Y-40640000D01*
X180119246Y-40719141D01*
X180074359Y-40867114D01*
X180059203Y-41021000D01*
X180063001Y-41059563D01*
X180063000Y-55867936D01*
X178186523Y-57744413D01*
X178106287Y-57664177D01*
X178127471Y-57624543D01*
X178135185Y-57599113D01*
X178172359Y-57476570D01*
X178175897Y-57440647D01*
X178234524Y-57422862D01*
X178388270Y-57340684D01*
X178523028Y-57230090D01*
X178550745Y-57196317D01*
X178903045Y-56844017D01*
X178936817Y-56816301D01*
X179047411Y-56681543D01*
X179129589Y-56527797D01*
X179137612Y-56501348D01*
X179225205Y-56370256D01*
X179303226Y-56181898D01*
X179343000Y-55981939D01*
X179343000Y-55778061D01*
X179303226Y-55578102D01*
X179225205Y-55389744D01*
X179111937Y-55220226D01*
X178967774Y-55076063D01*
X178798256Y-54962795D01*
X178609898Y-54884774D01*
X178409939Y-54845000D01*
X178206061Y-54845000D01*
X178006102Y-54884774D01*
X177817744Y-54962795D01*
X177648226Y-55076063D01*
X177504063Y-55220226D01*
X177390795Y-55389744D01*
X177312774Y-55578102D01*
X177301465Y-55634956D01*
X177227810Y-55708612D01*
X177203337Y-55711022D01*
X177054562Y-55756152D01*
X176917451Y-55829440D01*
X176797271Y-55928068D01*
X176578068Y-56147271D01*
X176529637Y-56206285D01*
X176549000Y-56108939D01*
X176549000Y-55905061D01*
X176509226Y-55705102D01*
X176447051Y-55555000D01*
X176522002Y-55555000D01*
X176522002Y-55396252D01*
X176680750Y-55555000D01*
X176762500Y-55558072D01*
X176886982Y-55545812D01*
X177006680Y-55509502D01*
X177116994Y-55450537D01*
X177213685Y-55371185D01*
X177293037Y-55274494D01*
X177352002Y-55164180D01*
X177388312Y-55044482D01*
X177400572Y-54920000D01*
X177397500Y-54895750D01*
X177238750Y-54737000D01*
X176522000Y-54737000D01*
X176522000Y-54757000D01*
X176268000Y-54757000D01*
X176268000Y-54737000D01*
X176265572Y-54737000D01*
X176265572Y-54483000D01*
X176268000Y-54483000D01*
X176268000Y-53823750D01*
X176522000Y-53823750D01*
X176522000Y-54483000D01*
X177238750Y-54483000D01*
X177397500Y-54324250D01*
X177400572Y-54300000D01*
X177388312Y-54175518D01*
X177352002Y-54055820D01*
X177293037Y-53945506D01*
X177213685Y-53848815D01*
X177116994Y-53769463D01*
X177006680Y-53710498D01*
X176886982Y-53674188D01*
X176762500Y-53661928D01*
X176680750Y-53665000D01*
X176522000Y-53823750D01*
X176268000Y-53823750D01*
X176109250Y-53665000D01*
X176027500Y-53661928D01*
X175903018Y-53674188D01*
X175783320Y-53710498D01*
X175766586Y-53719443D01*
X175627221Y-53677167D01*
X175472500Y-53661928D01*
X175047500Y-53661928D01*
X174892779Y-53677167D01*
X174744004Y-53722297D01*
X174606893Y-53795585D01*
X174486713Y-53894213D01*
X174388085Y-54014393D01*
X174314797Y-54151504D01*
X174269667Y-54300279D01*
X174254428Y-54455000D01*
X174254428Y-54500767D01*
X174233157Y-54526685D01*
X173672185Y-55087658D01*
X173642237Y-55112236D01*
X173617659Y-55142184D01*
X173617655Y-55142188D01*
X173598229Y-55165859D01*
X173544139Y-55231767D01*
X173522695Y-55271887D01*
X173482000Y-55348022D01*
X173482000Y-52832000D01*
X177292000Y-52832000D01*
X177316776Y-52829560D01*
X177340601Y-52822333D01*
X177362557Y-52810597D01*
X177381803Y-52794803D01*
X177397597Y-52775557D01*
X177409333Y-52753601D01*
X177416560Y-52729776D01*
X177419000Y-52705000D01*
X177419000Y-46609000D01*
X177416560Y-46584224D01*
X177409333Y-46560399D01*
X177397597Y-46538443D01*
X177381803Y-46519197D01*
X177362557Y-46503403D01*
X177340601Y-46491667D01*
X177316776Y-46484440D01*
X177292000Y-46482000D01*
X167513000Y-46482000D01*
X167488224Y-46484440D01*
X167464399Y-46491667D01*
X167442443Y-46503403D01*
X167423197Y-46519197D01*
X167407403Y-46538443D01*
X167395667Y-46560399D01*
X167388440Y-46584224D01*
X167386000Y-46609000D01*
X167386000Y-52328000D01*
X166127579Y-52328000D01*
X166021572Y-52221993D01*
X166021572Y-52060500D01*
X166004748Y-51889684D01*
X165981000Y-51811397D01*
X165981000Y-50509751D01*
X165986491Y-50453999D01*
X165964577Y-50231501D01*
X165899676Y-50017553D01*
X165896282Y-50011203D01*
X165794284Y-49820377D01*
X165652449Y-49647551D01*
X165609140Y-49612009D01*
X164001996Y-48004865D01*
X163966449Y-47961551D01*
X163793623Y-47819716D01*
X163596447Y-47714324D01*
X163382499Y-47649423D01*
X163215752Y-47633000D01*
X163215751Y-47633000D01*
X163160000Y-47627509D01*
X163115795Y-47631863D01*
X163083255Y-47621992D01*
X163042723Y-47618000D01*
X163052877Y-47617000D01*
X163774248Y-47617000D01*
X163829999Y-47622491D01*
X163885751Y-47617000D01*
X164663248Y-47617000D01*
X164719000Y-47622491D01*
X164774752Y-47617000D01*
X164830788Y-47617000D01*
X164885747Y-47606068D01*
X164941499Y-47600577D01*
X164995106Y-47584315D01*
X165050067Y-47573383D01*
X165101842Y-47551937D01*
X165155447Y-47535676D01*
X165204851Y-47509269D01*
X165256624Y-47487824D01*
X165303214Y-47456693D01*
X165352623Y-47430284D01*
X165395932Y-47394741D01*
X165442520Y-47363612D01*
X165482141Y-47323991D01*
X165525449Y-47288449D01*
X165560991Y-47245141D01*
X165600612Y-47205520D01*
X165631741Y-47158932D01*
X165667284Y-47115623D01*
X165693693Y-47066214D01*
X165724824Y-47019624D01*
X165746269Y-46967851D01*
X165772676Y-46918447D01*
X165788937Y-46864842D01*
X165810383Y-46813067D01*
X165821315Y-46758106D01*
X165837577Y-46704499D01*
X165843068Y-46648747D01*
X165854000Y-46593788D01*
X165854000Y-46537752D01*
X165859491Y-46482000D01*
X165854000Y-46426248D01*
X165854000Y-46370212D01*
X165843068Y-46315253D01*
X165837577Y-46259501D01*
X165821315Y-46205894D01*
X165810383Y-46150933D01*
X165788937Y-46099158D01*
X165772676Y-46045553D01*
X165746269Y-45996149D01*
X165724824Y-45944376D01*
X165693693Y-45897786D01*
X165667284Y-45848377D01*
X165631741Y-45805068D01*
X165600612Y-45758480D01*
X165560989Y-45718857D01*
X165525449Y-45675551D01*
X165482141Y-45640009D01*
X165442520Y-45600388D01*
X163655996Y-43813865D01*
X163620449Y-43770551D01*
X163447623Y-43628716D01*
X163250447Y-43523324D01*
X163036499Y-43458423D01*
X162869752Y-43442000D01*
X162869751Y-43442000D01*
X162814000Y-43436509D01*
X162758249Y-43442000D01*
X162742752Y-43442000D01*
X162687000Y-43436509D01*
X162631248Y-43442000D01*
X162575212Y-43442000D01*
X162520253Y-43452932D01*
X162464501Y-43458423D01*
X162410894Y-43474685D01*
X162355933Y-43485617D01*
X162304158Y-43507063D01*
X162250553Y-43523324D01*
X162201149Y-43549731D01*
X162149376Y-43571176D01*
X162102786Y-43602307D01*
X162053377Y-43628716D01*
X162010068Y-43664259D01*
X161963480Y-43695388D01*
X161923859Y-43735009D01*
X161880551Y-43770551D01*
X161845009Y-43813859D01*
X160291067Y-45367801D01*
X160251894Y-45379685D01*
X160196933Y-45390617D01*
X160145158Y-45412063D01*
X160091553Y-45428324D01*
X160042149Y-45454731D01*
X159990376Y-45476176D01*
X159943786Y-45507307D01*
X159894377Y-45533716D01*
X159851068Y-45569259D01*
X159804480Y-45600388D01*
X159764859Y-45640009D01*
X159721551Y-45675551D01*
X159686011Y-45718857D01*
X159646388Y-45758480D01*
X159615259Y-45805068D01*
X159579716Y-45848377D01*
X159553307Y-45897786D01*
X159522176Y-45944376D01*
X159500731Y-45996149D01*
X159474324Y-46045553D01*
X159458063Y-46099158D01*
X159436617Y-46150933D01*
X159425685Y-46205894D01*
X159409423Y-46259501D01*
X159403932Y-46315253D01*
X159393000Y-46370212D01*
X159393000Y-46426248D01*
X159387509Y-46482000D01*
X159393000Y-46537752D01*
X159393000Y-46593788D01*
X159403932Y-46648747D01*
X159409423Y-46704499D01*
X159425685Y-46758106D01*
X159436617Y-46813067D01*
X159458063Y-46864842D01*
X159474324Y-46918447D01*
X159500731Y-46967851D01*
X159522176Y-47019624D01*
X159553307Y-47066214D01*
X159579716Y-47115623D01*
X159615259Y-47158932D01*
X159646388Y-47205520D01*
X159686009Y-47245141D01*
X159721551Y-47288449D01*
X159764859Y-47323991D01*
X159804480Y-47363612D01*
X159851068Y-47394741D01*
X159894377Y-47430284D01*
X159943786Y-47456693D01*
X159990376Y-47487824D01*
X160042149Y-47509269D01*
X160091553Y-47535676D01*
X160145158Y-47551937D01*
X160196933Y-47573383D01*
X160251894Y-47584315D01*
X160305501Y-47600577D01*
X160361253Y-47606068D01*
X160416212Y-47617000D01*
X160726249Y-47617000D01*
X160782000Y-47622491D01*
X160837751Y-47617000D01*
X161488249Y-47617000D01*
X161544000Y-47622491D01*
X161599751Y-47617000D01*
X162067123Y-47617000D01*
X162077277Y-47618000D01*
X162036745Y-47621992D01*
X162000456Y-47633000D01*
X158458132Y-47633000D01*
X156428072Y-45602941D01*
X156428072Y-44870000D01*
X156415812Y-44745518D01*
X156379502Y-44625820D01*
X156320537Y-44515506D01*
X156241185Y-44418815D01*
X156144494Y-44339463D01*
X156034180Y-44280498D01*
X155914482Y-44244188D01*
X155790000Y-44231928D01*
X154090000Y-44231928D01*
X153965518Y-44244188D01*
X153845820Y-44280498D01*
X153735506Y-44339463D01*
X153638815Y-44418815D01*
X153559463Y-44515506D01*
X153500498Y-44625820D01*
X153464188Y-44745518D01*
X153451928Y-44870000D01*
X149943381Y-44870000D01*
X147980000Y-42906620D01*
X147980000Y-40996890D01*
X153498524Y-40996890D01*
X153543175Y-41144099D01*
X153668359Y-41406920D01*
X153842412Y-41640269D01*
X154058645Y-41835178D01*
X154308748Y-41984157D01*
X154583109Y-42081481D01*
X154813000Y-41960814D01*
X154813000Y-40767000D01*
X155067000Y-40767000D01*
X155067000Y-41960814D01*
X155296891Y-42081481D01*
X155571252Y-41984157D01*
X155821355Y-41835178D01*
X156037588Y-41640269D01*
X156211641Y-41406920D01*
X156336825Y-41144099D01*
X156381476Y-40996890D01*
X156260155Y-40767000D01*
X155067000Y-40767000D01*
X154813000Y-40767000D01*
X153619845Y-40767000D01*
X153498524Y-40996890D01*
X147980000Y-40996890D01*
X147980000Y-38950000D01*
X148371928Y-38950000D01*
X148384188Y-39074482D01*
X148420498Y-39194180D01*
X148479463Y-39304494D01*
X148558815Y-39401185D01*
X148655506Y-39480537D01*
X148765820Y-39539502D01*
X148885518Y-39575812D01*
X149010000Y-39588072D01*
X149574250Y-39585000D01*
X149733000Y-39426250D01*
X149733000Y-38227000D01*
X149987000Y-38227000D01*
X149987000Y-39426250D01*
X150145750Y-39585000D01*
X150710000Y-39588072D01*
X150834482Y-39575812D01*
X150954180Y-39539502D01*
X151064494Y-39480537D01*
X151161185Y-39401185D01*
X151240537Y-39304494D01*
X151299502Y-39194180D01*
X151335812Y-39074482D01*
X151348072Y-38950000D01*
X151345000Y-38385750D01*
X151186250Y-38227000D01*
X149987000Y-38227000D01*
X149733000Y-38227000D01*
X148533750Y-38227000D01*
X148375000Y-38385750D01*
X148371928Y-38950000D01*
X147980000Y-38950000D01*
X147980000Y-37250000D01*
X148371928Y-37250000D01*
X148375000Y-37814250D01*
X148533750Y-37973000D01*
X149733000Y-37973000D01*
X149733000Y-36773750D01*
X149987000Y-36773750D01*
X149987000Y-37973000D01*
X151186250Y-37973000D01*
X151345000Y-37814250D01*
X151348072Y-37250000D01*
X153451928Y-37250000D01*
X153451928Y-38950000D01*
X153464188Y-39074482D01*
X153500498Y-39194180D01*
X153559463Y-39304494D01*
X153638815Y-39401185D01*
X153735506Y-39480537D01*
X153845820Y-39539502D01*
X153926466Y-39563966D01*
X153842412Y-39639731D01*
X153668359Y-39873080D01*
X153543175Y-40135901D01*
X153498524Y-40283110D01*
X153619845Y-40513000D01*
X154813000Y-40513000D01*
X154813000Y-40493000D01*
X155067000Y-40493000D01*
X155067000Y-40513000D01*
X156260155Y-40513000D01*
X156381476Y-40283110D01*
X156336825Y-40135901D01*
X156211641Y-39873080D01*
X156037588Y-39639731D01*
X155953534Y-39563966D01*
X156034180Y-39539502D01*
X156144494Y-39480537D01*
X156241185Y-39401185D01*
X156320537Y-39304494D01*
X156357683Y-39235000D01*
X158463856Y-39235000D01*
X158565820Y-39289502D01*
X158685518Y-39325812D01*
X158810000Y-39338072D01*
X159710000Y-39338072D01*
X159834482Y-39325812D01*
X159954180Y-39289502D01*
X160064494Y-39230537D01*
X160161185Y-39151185D01*
X160240537Y-39054494D01*
X160299502Y-38944180D01*
X160335812Y-38824482D01*
X160348072Y-38700000D01*
X160348072Y-38423060D01*
X160378577Y-38322499D01*
X160400491Y-38100000D01*
X161419509Y-38100000D01*
X161441423Y-38322499D01*
X161471928Y-38423060D01*
X161471928Y-38700000D01*
X161484188Y-38824482D01*
X161520498Y-38944180D01*
X161579463Y-39054494D01*
X161658815Y-39151185D01*
X161755506Y-39230537D01*
X161865820Y-39289502D01*
X161985518Y-39325812D01*
X162110000Y-39338072D01*
X163010000Y-39338072D01*
X163134482Y-39325812D01*
X163254180Y-39289502D01*
X163356144Y-39235000D01*
X164540412Y-39235000D01*
X164532716Y-39244377D01*
X164506307Y-39293786D01*
X164475176Y-39340376D01*
X164453731Y-39392149D01*
X164427324Y-39441553D01*
X164411063Y-39495158D01*
X164389617Y-39546933D01*
X164378685Y-39601894D01*
X164362423Y-39655501D01*
X164356932Y-39711253D01*
X164346000Y-39766212D01*
X164346000Y-39822248D01*
X164340509Y-39878000D01*
X164346000Y-39933752D01*
X164346000Y-39989788D01*
X164356932Y-40044747D01*
X164362423Y-40100499D01*
X164378685Y-40154106D01*
X164389617Y-40209067D01*
X164411063Y-40260842D01*
X164427324Y-40314447D01*
X164453731Y-40363851D01*
X164475176Y-40415624D01*
X164506307Y-40462214D01*
X164532716Y-40511623D01*
X164568259Y-40554932D01*
X164599388Y-40601520D01*
X164639009Y-40641141D01*
X164674551Y-40684449D01*
X164717857Y-40719989D01*
X164757480Y-40759612D01*
X164757483Y-40759614D01*
X165500008Y-41502140D01*
X165535551Y-41545449D01*
X165656073Y-41644359D01*
X165708377Y-41687284D01*
X165905553Y-41792676D01*
X166119501Y-41857577D01*
X166342000Y-41879491D01*
X166397752Y-41874000D01*
X166617337Y-41874000D01*
X166655501Y-41885577D01*
X166711253Y-41891068D01*
X166766212Y-41902000D01*
X166822248Y-41902000D01*
X166878000Y-41907491D01*
X166933751Y-41902000D01*
X167330249Y-41902000D01*
X167386000Y-41907491D01*
X167441751Y-41902000D01*
X167441752Y-41902000D01*
X167608499Y-41885577D01*
X167822447Y-41820676D01*
X168019623Y-41715284D01*
X168192449Y-41573449D01*
X168227995Y-41530136D01*
X169038143Y-40719989D01*
X169081449Y-40684449D01*
X169116991Y-40641141D01*
X169156612Y-40601520D01*
X169187741Y-40554932D01*
X169223284Y-40511623D01*
X169249693Y-40462214D01*
X169280824Y-40415624D01*
X169282117Y-40412500D01*
X175416928Y-40412500D01*
X175429188Y-40536982D01*
X175465498Y-40656680D01*
X175524463Y-40766994D01*
X175603815Y-40863685D01*
X175700506Y-40943037D01*
X175810820Y-41002002D01*
X175930518Y-41038312D01*
X176055000Y-41050572D01*
X176244250Y-41047500D01*
X176403000Y-40888750D01*
X176403000Y-40052000D01*
X176657000Y-40052000D01*
X176657000Y-40888750D01*
X176815750Y-41047500D01*
X177005000Y-41050572D01*
X177129482Y-41038312D01*
X177249180Y-41002002D01*
X177359494Y-40943037D01*
X177456185Y-40863685D01*
X177535537Y-40766994D01*
X177594502Y-40656680D01*
X177630812Y-40536982D01*
X177643072Y-40412500D01*
X177640000Y-40210750D01*
X177481250Y-40052000D01*
X176657000Y-40052000D01*
X176403000Y-40052000D01*
X175578750Y-40052000D01*
X175420000Y-40210750D01*
X175416928Y-40412500D01*
X169282117Y-40412500D01*
X169302269Y-40363851D01*
X169328676Y-40314447D01*
X169344937Y-40260842D01*
X169366383Y-40209067D01*
X169377315Y-40154106D01*
X169393577Y-40100499D01*
X169399068Y-40044747D01*
X169410000Y-39989788D01*
X169410000Y-39933752D01*
X169415491Y-39878000D01*
X169410000Y-39822248D01*
X169410000Y-39766212D01*
X169399068Y-39711253D01*
X169393577Y-39655501D01*
X169377315Y-39601894D01*
X169366383Y-39546933D01*
X169344937Y-39495158D01*
X169328676Y-39441553D01*
X169302269Y-39392149D01*
X169280824Y-39340376D01*
X169249693Y-39293786D01*
X169223284Y-39244377D01*
X169187741Y-39201068D01*
X169156612Y-39154480D01*
X169116989Y-39114857D01*
X169081449Y-39071551D01*
X169038141Y-39036009D01*
X168987132Y-38985000D01*
X169702954Y-38985000D01*
X169801058Y-39065512D01*
X169952433Y-39146423D01*
X170116684Y-39196248D01*
X170287500Y-39213072D01*
X170862500Y-39213072D01*
X171033316Y-39196248D01*
X171197567Y-39146423D01*
X171348942Y-39065512D01*
X171450000Y-38982575D01*
X171551058Y-39065512D01*
X171702433Y-39146423D01*
X171866684Y-39196248D01*
X172037500Y-39213072D01*
X172612500Y-39213072D01*
X172783316Y-39196248D01*
X172947567Y-39146423D01*
X173098942Y-39065512D01*
X173197046Y-38985000D01*
X175605417Y-38985000D01*
X175603815Y-38986315D01*
X175524463Y-39083006D01*
X175465498Y-39193320D01*
X175429188Y-39313018D01*
X175416928Y-39437500D01*
X175420000Y-39639250D01*
X175578750Y-39798000D01*
X176403000Y-39798000D01*
X176403000Y-39778000D01*
X176657000Y-39778000D01*
X176657000Y-39798000D01*
X177481250Y-39798000D01*
X177640000Y-39639250D01*
X177643072Y-39437500D01*
X177630812Y-39313018D01*
X177594502Y-39193320D01*
X177535537Y-39083006D01*
X177456185Y-38986315D01*
X177406188Y-38945283D01*
X177495512Y-38836442D01*
X177576423Y-38685067D01*
X177626248Y-38520816D01*
X177643072Y-38350000D01*
X177643072Y-37850000D01*
X177626248Y-37679184D01*
X177576423Y-37514933D01*
X177495512Y-37363558D01*
X177386623Y-37230877D01*
X177253942Y-37121988D01*
X177102567Y-37041077D01*
X176938316Y-36991252D01*
X176767500Y-36974428D01*
X176292500Y-36974428D01*
X176121684Y-36991252D01*
X175957433Y-37041077D01*
X175806058Y-37121988D01*
X175692723Y-37215000D01*
X173197046Y-37215000D01*
X173098942Y-37134488D01*
X172947567Y-37053577D01*
X172783316Y-37003752D01*
X172612500Y-36986928D01*
X172037500Y-36986928D01*
X171866684Y-37003752D01*
X171702433Y-37053577D01*
X171551058Y-37134488D01*
X171450000Y-37217425D01*
X171348942Y-37134488D01*
X171197567Y-37053577D01*
X171033316Y-37003752D01*
X170862500Y-36986928D01*
X170287500Y-36986928D01*
X170116684Y-37003752D01*
X169952433Y-37053577D01*
X169801058Y-37134488D01*
X169702954Y-37215000D01*
X168477735Y-37215000D01*
X168400623Y-37151716D01*
X168203447Y-37046324D01*
X167989499Y-36981423D01*
X167822752Y-36965000D01*
X167822751Y-36965000D01*
X167767000Y-36959509D01*
X167711248Y-36965000D01*
X166905752Y-36965000D01*
X166850000Y-36959509D01*
X166794248Y-36965000D01*
X166627501Y-36981423D01*
X166609354Y-36986928D01*
X166562500Y-36986928D01*
X166391684Y-37003752D01*
X166227433Y-37053577D01*
X166076058Y-37134488D01*
X165975000Y-37217425D01*
X165873942Y-37134488D01*
X165722567Y-37053577D01*
X165558316Y-37003752D01*
X165387500Y-36986928D01*
X165340646Y-36986928D01*
X165322499Y-36981423D01*
X165155752Y-36965000D01*
X163356144Y-36965000D01*
X163254180Y-36910498D01*
X163134482Y-36874188D01*
X163010000Y-36861928D01*
X162110000Y-36861928D01*
X161985518Y-36874188D01*
X161865820Y-36910498D01*
X161755506Y-36969463D01*
X161658815Y-37048815D01*
X161579463Y-37145506D01*
X161520498Y-37255820D01*
X161484188Y-37375518D01*
X161471928Y-37500000D01*
X161471928Y-37776940D01*
X161441423Y-37877501D01*
X161419509Y-38100000D01*
X160400491Y-38100000D01*
X160378577Y-37877501D01*
X160348072Y-37776940D01*
X160348072Y-37500000D01*
X160335812Y-37375518D01*
X160299502Y-37255820D01*
X160240537Y-37145506D01*
X160161185Y-37048815D01*
X160064494Y-36969463D01*
X159954180Y-36910498D01*
X159834482Y-36874188D01*
X159710000Y-36861928D01*
X158810000Y-36861928D01*
X158685518Y-36874188D01*
X158565820Y-36910498D01*
X158463856Y-36965000D01*
X156357683Y-36965000D01*
X156320537Y-36895506D01*
X156241185Y-36798815D01*
X156144494Y-36719463D01*
X156034180Y-36660498D01*
X155914482Y-36624188D01*
X155790000Y-36611928D01*
X154090000Y-36611928D01*
X153965518Y-36624188D01*
X153845820Y-36660498D01*
X153735506Y-36719463D01*
X153638815Y-36798815D01*
X153559463Y-36895506D01*
X153500498Y-37005820D01*
X153464188Y-37125518D01*
X153451928Y-37250000D01*
X151348072Y-37250000D01*
X151335812Y-37125518D01*
X151299502Y-37005820D01*
X151240537Y-36895506D01*
X151161185Y-36798815D01*
X151064494Y-36719463D01*
X150954180Y-36660498D01*
X150834482Y-36624188D01*
X150710000Y-36611928D01*
X150145750Y-36615000D01*
X149987000Y-36773750D01*
X149733000Y-36773750D01*
X149574250Y-36615000D01*
X149010000Y-36611928D01*
X148885518Y-36624188D01*
X148765820Y-36660498D01*
X148655506Y-36719463D01*
X148558815Y-36798815D01*
X148479463Y-36895506D01*
X148420498Y-37005820D01*
X148384188Y-37125518D01*
X148371928Y-37250000D01*
X147980000Y-37250000D01*
X147980000Y-36862279D01*
X147994722Y-36712131D01*
X148028953Y-36598754D01*
X148084555Y-36494181D01*
X148159407Y-36402404D01*
X148250664Y-36326909D01*
X148354844Y-36270581D01*
X148467976Y-36235560D01*
X148616022Y-36220000D01*
X194277721Y-36220000D01*
X194427869Y-36234722D01*
%TA.AperFunction,Conductor*%
D20*
G36*
X194427869Y-36234722D02*
G01*
X194541246Y-36268953D01*
X194645819Y-36324555D01*
X194737596Y-36399407D01*
X194813091Y-36490664D01*
X194869419Y-36594844D01*
X194904440Y-36707976D01*
X194920000Y-36856022D01*
X194920001Y-42906618D01*
X192596236Y-45230384D01*
X192571052Y-45251052D01*
X192541680Y-45286842D01*
X192488575Y-45351550D01*
X192452982Y-45418141D01*
X192427290Y-45466208D01*
X192389550Y-45590618D01*
X192380000Y-45687582D01*
X192380000Y-45687591D01*
X192376808Y-45720000D01*
X192380000Y-45752409D01*
X192380001Y-76167581D01*
X192376808Y-76200000D01*
X192380001Y-76232418D01*
X192380001Y-76232419D01*
X192389551Y-76329383D01*
X192392346Y-76338597D01*
X192427290Y-76453792D01*
X192488575Y-76568450D01*
X192550386Y-76643766D01*
X192550388Y-76643768D01*
X192571053Y-76668948D01*
X192596232Y-76689612D01*
X194920000Y-79013381D01*
X194920001Y-85057711D01*
X194905278Y-85207869D01*
X194871047Y-85321246D01*
X194815446Y-85425817D01*
X194740594Y-85517595D01*
X194649335Y-85593091D01*
X194545160Y-85649419D01*
X194432024Y-85684440D01*
X194283979Y-85700000D01*
X148622279Y-85700000D01*
X148472131Y-85685278D01*
X148358754Y-85651047D01*
X148254183Y-85595446D01*
X148162405Y-85520594D01*
X148086909Y-85429335D01*
X148030581Y-85325160D01*
X147995560Y-85212024D01*
X147980000Y-85063979D01*
X147980000Y-84670000D01*
X148371928Y-84670000D01*
X148384188Y-84794482D01*
X148420498Y-84914180D01*
X148479463Y-85024494D01*
X148558815Y-85121185D01*
X148655506Y-85200537D01*
X148765820Y-85259502D01*
X148885518Y-85295812D01*
X149010000Y-85308072D01*
X149574250Y-85305000D01*
X149733000Y-85146250D01*
X149733000Y-83947000D01*
X149987000Y-83947000D01*
X149987000Y-85146250D01*
X150145750Y-85305000D01*
X150710000Y-85308072D01*
X150834482Y-85295812D01*
X150954180Y-85259502D01*
X151064494Y-85200537D01*
X151161185Y-85121185D01*
X151240537Y-85024494D01*
X151299502Y-84914180D01*
X151335812Y-84794482D01*
X151348072Y-84670000D01*
X151345000Y-84105750D01*
X151186250Y-83947000D01*
X149987000Y-83947000D01*
X149733000Y-83947000D01*
X148533750Y-83947000D01*
X148375000Y-84105750D01*
X148371928Y-84670000D01*
X147980000Y-84670000D01*
X147980000Y-82970000D01*
X148371928Y-82970000D01*
X148375000Y-83534250D01*
X148533750Y-83693000D01*
X149733000Y-83693000D01*
X149733000Y-82493750D01*
X149987000Y-82493750D01*
X149987000Y-83693000D01*
X151186250Y-83693000D01*
X151345000Y-83534250D01*
X151348072Y-82970000D01*
X151335812Y-82845518D01*
X151299502Y-82725820D01*
X151240537Y-82615506D01*
X151161185Y-82518815D01*
X151064494Y-82439463D01*
X150954180Y-82380498D01*
X150834482Y-82344188D01*
X150710000Y-82331928D01*
X150145750Y-82335000D01*
X149987000Y-82493750D01*
X149733000Y-82493750D01*
X149574250Y-82335000D01*
X149010000Y-82331928D01*
X148885518Y-82344188D01*
X148765820Y-82380498D01*
X148655506Y-82439463D01*
X148558815Y-82518815D01*
X148479463Y-82615506D01*
X148420498Y-82725820D01*
X148384188Y-82845518D01*
X148371928Y-82970000D01*
X147980000Y-82970000D01*
X147980000Y-79013380D01*
X150303770Y-76689611D01*
X150328948Y-76668948D01*
X150349615Y-76643766D01*
X150411424Y-76568451D01*
X150411425Y-76568450D01*
X150472710Y-76453793D01*
X150510450Y-76329383D01*
X150520000Y-76232419D01*
X150520000Y-76232410D01*
X150523192Y-76200001D01*
X150520000Y-76167592D01*
X150520000Y-45752408D01*
X150523192Y-45719999D01*
X150520000Y-45687590D01*
X150520000Y-45687581D01*
X150510450Y-45590617D01*
X150472710Y-45466207D01*
X150411425Y-45351550D01*
X150354156Y-45281768D01*
X150349613Y-45276232D01*
X150349612Y-45276231D01*
X150328948Y-45251052D01*
X150303769Y-45230388D01*
X149943381Y-44870000D01*
X153451928Y-44870000D01*
X153451928Y-46570000D01*
X153464188Y-46694482D01*
X153500498Y-46814180D01*
X153559463Y-46924494D01*
X153638815Y-47021185D01*
X153735506Y-47100537D01*
X153845820Y-47159502D01*
X153918380Y-47181513D01*
X153786525Y-47313368D01*
X153624010Y-47556589D01*
X153512068Y-47826842D01*
X153455000Y-48113740D01*
X153455000Y-48406260D01*
X153512068Y-48693158D01*
X153624010Y-48963411D01*
X153786525Y-49206632D01*
X153993368Y-49413475D01*
X154175534Y-49535195D01*
X154058645Y-49604822D01*
X153842412Y-49799731D01*
X153668359Y-50033080D01*
X153543175Y-50295901D01*
X153498524Y-50443110D01*
X153619845Y-50673000D01*
X154813000Y-50673000D01*
X154813000Y-50653000D01*
X155067000Y-50653000D01*
X155067000Y-50673000D01*
X155087000Y-50673000D01*
X155087000Y-50927000D01*
X155067000Y-50927000D01*
X155067000Y-50947000D01*
X154813000Y-50947000D01*
X154813000Y-50927000D01*
X153619845Y-50927000D01*
X153498524Y-51156890D01*
X153543175Y-51304099D01*
X153668359Y-51566920D01*
X153842412Y-51800269D01*
X154058645Y-51995178D01*
X154175534Y-52064805D01*
X153993368Y-52186525D01*
X153786525Y-52393368D01*
X153624010Y-52636589D01*
X153512068Y-52906842D01*
X153455000Y-53193740D01*
X153455000Y-53486260D01*
X153512068Y-53773158D01*
X153624010Y-54043411D01*
X153786525Y-54286632D01*
X153993368Y-54493475D01*
X154167760Y-54610000D01*
X153993368Y-54726525D01*
X153786525Y-54933368D01*
X153624010Y-55176589D01*
X153512068Y-55446842D01*
X153455000Y-55733740D01*
X153455000Y-56026260D01*
X153512068Y-56313158D01*
X153624010Y-56583411D01*
X153786525Y-56826632D01*
X153993368Y-57033475D01*
X154167760Y-57150000D01*
X153993368Y-57266525D01*
X153786525Y-57473368D01*
X153624010Y-57716589D01*
X153512068Y-57986842D01*
X153455000Y-58273740D01*
X153455000Y-58566260D01*
X153512068Y-58853158D01*
X153624010Y-59123411D01*
X153786525Y-59366632D01*
X153993368Y-59573475D01*
X154167760Y-59690000D01*
X153993368Y-59806525D01*
X153786525Y-60013368D01*
X153624010Y-60256589D01*
X153512068Y-60526842D01*
X153455000Y-60813740D01*
X153455000Y-61106260D01*
X153512068Y-61393158D01*
X153624010Y-61663411D01*
X153786525Y-61906632D01*
X153993368Y-62113475D01*
X154175534Y-62235195D01*
X154058645Y-62304822D01*
X153842412Y-62499731D01*
X153668359Y-62733080D01*
X153543175Y-62995901D01*
X153498524Y-63143110D01*
X153619845Y-63373000D01*
X154813000Y-63373000D01*
X154813000Y-63353000D01*
X155067000Y-63353000D01*
X155067000Y-63373000D01*
X155087000Y-63373000D01*
X155087000Y-63627000D01*
X155067000Y-63627000D01*
X155067000Y-63647000D01*
X154813000Y-63647000D01*
X154813000Y-63627000D01*
X153619845Y-63627000D01*
X153498524Y-63856890D01*
X153543175Y-64004099D01*
X153668359Y-64266920D01*
X153842412Y-64500269D01*
X154058645Y-64695178D01*
X154175534Y-64764805D01*
X153993368Y-64886525D01*
X153786525Y-65093368D01*
X153624010Y-65336589D01*
X153512068Y-65606842D01*
X153455000Y-65893740D01*
X153455000Y-66186260D01*
X153512068Y-66473158D01*
X153624010Y-66743411D01*
X153786525Y-66986632D01*
X153993368Y-67193475D01*
X154167760Y-67310000D01*
X153993368Y-67426525D01*
X153786525Y-67633368D01*
X153624010Y-67876589D01*
X153512068Y-68146842D01*
X153455000Y-68433740D01*
X153455000Y-68726260D01*
X153512068Y-69013158D01*
X153624010Y-69283411D01*
X153786525Y-69526632D01*
X153993368Y-69733475D01*
X154167760Y-69850000D01*
X153993368Y-69966525D01*
X153786525Y-70173368D01*
X153624010Y-70416589D01*
X153512068Y-70686842D01*
X153455000Y-70973740D01*
X153455000Y-71266260D01*
X153512068Y-71553158D01*
X153624010Y-71823411D01*
X153786525Y-72066632D01*
X153993368Y-72273475D01*
X154167760Y-72390000D01*
X153993368Y-72506525D01*
X153786525Y-72713368D01*
X153624010Y-72956589D01*
X153512068Y-73226842D01*
X153455000Y-73513740D01*
X153455000Y-73806260D01*
X153512068Y-74093158D01*
X153624010Y-74363411D01*
X153786525Y-74606632D01*
X153993368Y-74813475D01*
X154167760Y-74930000D01*
X153993368Y-75046525D01*
X153786525Y-75253368D01*
X153624010Y-75496589D01*
X153512068Y-75766842D01*
X153455000Y-76053740D01*
X153455000Y-76346260D01*
X153512068Y-76633158D01*
X153624010Y-76903411D01*
X153786525Y-77146632D01*
X153993368Y-77353475D01*
X154167760Y-77470000D01*
X153993368Y-77586525D01*
X153786525Y-77793368D01*
X153624010Y-78036589D01*
X153512068Y-78306842D01*
X153455000Y-78593740D01*
X153455000Y-78886260D01*
X153512068Y-79173158D01*
X153624010Y-79443411D01*
X153786525Y-79686632D01*
X153993368Y-79893475D01*
X154167760Y-80010000D01*
X153993368Y-80126525D01*
X153786525Y-80333368D01*
X153624010Y-80576589D01*
X153512068Y-80846842D01*
X153455000Y-81133740D01*
X153455000Y-81426260D01*
X153512068Y-81713158D01*
X153624010Y-81983411D01*
X153786525Y-82226632D01*
X153993368Y-82433475D01*
X154167760Y-82550000D01*
X153993368Y-82666525D01*
X153786525Y-82873368D01*
X153624010Y-83116589D01*
X153512068Y-83386842D01*
X153455000Y-83673740D01*
X153455000Y-83966260D01*
X153512068Y-84253158D01*
X153624010Y-84523411D01*
X153786525Y-84766632D01*
X153993368Y-84973475D01*
X154236589Y-85135990D01*
X154506842Y-85247932D01*
X154793740Y-85305000D01*
X155086260Y-85305000D01*
X155373158Y-85247932D01*
X155643411Y-85135990D01*
X155886632Y-84973475D01*
X156093475Y-84766632D01*
X156255990Y-84523411D01*
X156367932Y-84253158D01*
X156425000Y-83966260D01*
X156425000Y-83673740D01*
X156387075Y-83483082D01*
X157753817Y-82116341D01*
X157783764Y-82091764D01*
X157815051Y-82053642D01*
X157832450Y-82032441D01*
X157881862Y-81972233D01*
X157954754Y-81835860D01*
X157999641Y-81687887D01*
X158011000Y-81572561D01*
X158011000Y-81572554D01*
X158014797Y-81534001D01*
X158011000Y-81495448D01*
X158011000Y-79446157D01*
X161817817Y-75639341D01*
X161847764Y-75614764D01*
X161879052Y-75576641D01*
X161906276Y-75543468D01*
X161945862Y-75495233D01*
X162018754Y-75358860D01*
X162027262Y-75330812D01*
X162063642Y-75210887D01*
X162074084Y-75104859D01*
X162075000Y-75095561D01*
X162075000Y-75095556D01*
X162078797Y-75057000D01*
X162075000Y-75018444D01*
X162075000Y-66433062D01*
X164723618Y-63784445D01*
X164892465Y-63953292D01*
X164878322Y-63967434D01*
X164880038Y-63969150D01*
X164700433Y-64148755D01*
X164698717Y-64147039D01*
X164232557Y-64613199D01*
X164232557Y-64613216D01*
X164228744Y-64614795D01*
X164059226Y-64728063D01*
X163915063Y-64872226D01*
X163801795Y-65041744D01*
X163723774Y-65230102D01*
X163684000Y-65430061D01*
X163684000Y-65633939D01*
X163723774Y-65833898D01*
X163801795Y-66022256D01*
X163915063Y-66191774D01*
X164059226Y-66335937D01*
X164228744Y-66449205D01*
X164417102Y-66527226D01*
X164617061Y-66567000D01*
X164820939Y-66567000D01*
X165020898Y-66527226D01*
X165209256Y-66449205D01*
X165378774Y-66335937D01*
X165522937Y-66191774D01*
X165636205Y-66022256D01*
X165714226Y-65833898D01*
X165720499Y-65802363D01*
X165723223Y-65799638D01*
X165845438Y-65762565D01*
X165982549Y-65689277D01*
X166102729Y-65590649D01*
X166321932Y-65371446D01*
X166420560Y-65251266D01*
X166493848Y-65114155D01*
X166538978Y-64965380D01*
X166552407Y-64829033D01*
X166883369Y-64498072D01*
X167280027Y-64498072D01*
X167287490Y-64498807D01*
X167294953Y-64498072D01*
X167911928Y-64498072D01*
X167911928Y-65785000D01*
X167915000Y-65816193D01*
X167915001Y-72274842D01*
X160397915Y-79791928D01*
X159170000Y-79791928D01*
X159045518Y-79804188D01*
X158925820Y-79840498D01*
X158815506Y-79899463D01*
X158718815Y-79978815D01*
X158639463Y-80075506D01*
X158580498Y-80185820D01*
X158544188Y-80305518D01*
X158531928Y-80430000D01*
X158531928Y-82130000D01*
X158544188Y-82254482D01*
X158580498Y-82374180D01*
X158639463Y-82484494D01*
X158718815Y-82581185D01*
X158815506Y-82660537D01*
X158925820Y-82719502D01*
X159045518Y-82755812D01*
X159170000Y-82768072D01*
X160870000Y-82768072D01*
X160994482Y-82755812D01*
X161114180Y-82719502D01*
X161224494Y-82660537D01*
X161321185Y-82581185D01*
X161400537Y-82484494D01*
X161459502Y-82374180D01*
X161481513Y-82301620D01*
X161613368Y-82433475D01*
X161856589Y-82595990D01*
X162126842Y-82707932D01*
X162413740Y-82765000D01*
X162706260Y-82765000D01*
X162993158Y-82707932D01*
X163263411Y-82595990D01*
X163506632Y-82433475D01*
X163713475Y-82226632D01*
X163830000Y-82052240D01*
X163946525Y-82226632D01*
X164153368Y-82433475D01*
X164396589Y-82595990D01*
X164666842Y-82707932D01*
X164953740Y-82765000D01*
X165246260Y-82765000D01*
X165533158Y-82707932D01*
X165803411Y-82595990D01*
X166046632Y-82433475D01*
X166253475Y-82226632D01*
X166370000Y-82052240D01*
X166486525Y-82226632D01*
X166693368Y-82433475D01*
X166936589Y-82595990D01*
X167206842Y-82707932D01*
X167493740Y-82765000D01*
X167786260Y-82765000D01*
X168073158Y-82707932D01*
X168343411Y-82595990D01*
X168586632Y-82433475D01*
X168793475Y-82226632D01*
X168910000Y-82052240D01*
X169026525Y-82226632D01*
X169233368Y-82433475D01*
X169476589Y-82595990D01*
X169746842Y-82707932D01*
X170033740Y-82765000D01*
X170326260Y-82765000D01*
X170613158Y-82707932D01*
X170883411Y-82595990D01*
X171126632Y-82433475D01*
X171333475Y-82226632D01*
X171455195Y-82044466D01*
X171524822Y-82161355D01*
X171719731Y-82377588D01*
X171953080Y-82551641D01*
X172215901Y-82676825D01*
X172363110Y-82721476D01*
X172593000Y-82600155D01*
X172593000Y-81407000D01*
X172573000Y-81407000D01*
X172573000Y-81153000D01*
X172593000Y-81153000D01*
X172593000Y-79959845D01*
X172363110Y-79838524D01*
X172215901Y-79883175D01*
X171953080Y-80008359D01*
X171719731Y-80182412D01*
X171524822Y-80398645D01*
X171485000Y-80465497D01*
X171485000Y-77413062D01*
X174255915Y-80183978D01*
X174106525Y-80333368D01*
X173984805Y-80515534D01*
X173915178Y-80398645D01*
X173720269Y-80182412D01*
X173486920Y-80008359D01*
X173224099Y-79883175D01*
X173076890Y-79838524D01*
X172847000Y-79959845D01*
X172847000Y-81153000D01*
X172867000Y-81153000D01*
X172867000Y-81407000D01*
X172847000Y-81407000D01*
X172847000Y-82600155D01*
X173076890Y-82721476D01*
X173224099Y-82676825D01*
X173486920Y-82551641D01*
X173720269Y-82377588D01*
X173915178Y-82161355D01*
X173984805Y-82044466D01*
X174106525Y-82226632D01*
X174313368Y-82433475D01*
X174556589Y-82595990D01*
X174826842Y-82707932D01*
X175113740Y-82765000D01*
X175406260Y-82765000D01*
X175693158Y-82707932D01*
X175963411Y-82595990D01*
X176206632Y-82433475D01*
X176413475Y-82226632D01*
X176530000Y-82052240D01*
X176646525Y-82226632D01*
X176853368Y-82433475D01*
X177096589Y-82595990D01*
X177366842Y-82707932D01*
X177653740Y-82765000D01*
X177946260Y-82765000D01*
X178233158Y-82707932D01*
X178503411Y-82595990D01*
X178746632Y-82433475D01*
X178953475Y-82226632D01*
X179070000Y-82052240D01*
X179186525Y-82226632D01*
X179393368Y-82433475D01*
X179636589Y-82595990D01*
X179906842Y-82707932D01*
X180193740Y-82765000D01*
X180486260Y-82765000D01*
X180773158Y-82707932D01*
X181043411Y-82595990D01*
X181286632Y-82433475D01*
X181493475Y-82226632D01*
X181610000Y-82052240D01*
X181726525Y-82226632D01*
X181933368Y-82433475D01*
X182176589Y-82595990D01*
X182446842Y-82707932D01*
X182733740Y-82765000D01*
X183026260Y-82765000D01*
X183313158Y-82707932D01*
X183583411Y-82595990D01*
X183826632Y-82433475D01*
X184033475Y-82226632D01*
X184195990Y-81983411D01*
X184307932Y-81713158D01*
X184365000Y-81426260D01*
X184365000Y-81133740D01*
X184307932Y-80846842D01*
X184195990Y-80576589D01*
X184033475Y-80333368D01*
X183826632Y-80126525D01*
X183583411Y-79964010D01*
X183313158Y-79852068D01*
X183026260Y-79795000D01*
X182733740Y-79795000D01*
X182543082Y-79832925D01*
X181111776Y-78401619D01*
X181115779Y-78402833D01*
X181270500Y-78418072D01*
X181320915Y-78418072D01*
X182297658Y-79394816D01*
X182322236Y-79424764D01*
X182352184Y-79449342D01*
X182352187Y-79449345D01*
X182375837Y-79468754D01*
X182441767Y-79522862D01*
X182578140Y-79595754D01*
X182691672Y-79630194D01*
X182726112Y-79640641D01*
X182737545Y-79641767D01*
X182841439Y-79652000D01*
X182841446Y-79652000D01*
X182879999Y-79655797D01*
X182918552Y-79652000D01*
X185221843Y-79652000D01*
X186512925Y-80943082D01*
X186475000Y-81133740D01*
X186475000Y-81426260D01*
X186532068Y-81713158D01*
X186644010Y-81983411D01*
X186806525Y-82226632D01*
X187013368Y-82433475D01*
X187187760Y-82550000D01*
X187013368Y-82666525D01*
X186806525Y-82873368D01*
X186762671Y-82939000D01*
X185054212Y-82939000D01*
X184999253Y-82949932D01*
X184943501Y-82955423D01*
X184889894Y-82971685D01*
X184834933Y-82982617D01*
X184783158Y-83004063D01*
X184729553Y-83020324D01*
X184680149Y-83046731D01*
X184628376Y-83068176D01*
X184581786Y-83099307D01*
X184532377Y-83125716D01*
X184489068Y-83161259D01*
X184442480Y-83192388D01*
X184402859Y-83232009D01*
X184359551Y-83267551D01*
X184324011Y-83310857D01*
X184284388Y-83350480D01*
X184253259Y-83397068D01*
X184217716Y-83440377D01*
X184191307Y-83489786D01*
X184160176Y-83536376D01*
X184138731Y-83588149D01*
X184112324Y-83637553D01*
X184096063Y-83691158D01*
X184074617Y-83742933D01*
X184063685Y-83797894D01*
X184047423Y-83851501D01*
X184041932Y-83907253D01*
X184031000Y-83962212D01*
X184031000Y-84018248D01*
X184025509Y-84074000D01*
X184031000Y-84129752D01*
X184031000Y-84185788D01*
X184041932Y-84240747D01*
X184047423Y-84296499D01*
X184063685Y-84350106D01*
X184074617Y-84405067D01*
X184096063Y-84456842D01*
X184112324Y-84510447D01*
X184138731Y-84559851D01*
X184160176Y-84611624D01*
X184191307Y-84658214D01*
X184217716Y-84707623D01*
X184253259Y-84750932D01*
X184284388Y-84797520D01*
X184324009Y-84837141D01*
X184359551Y-84880449D01*
X184402859Y-84915991D01*
X184442480Y-84955612D01*
X184489068Y-84986741D01*
X184532377Y-85022284D01*
X184581786Y-85048693D01*
X184628376Y-85079824D01*
X184680149Y-85101269D01*
X184729553Y-85127676D01*
X184783158Y-85143937D01*
X184834933Y-85165383D01*
X184889894Y-85176315D01*
X184943501Y-85192577D01*
X184999253Y-85198068D01*
X185054212Y-85209000D01*
X187432851Y-85209000D01*
X187526842Y-85247932D01*
X187813740Y-85305000D01*
X188106260Y-85305000D01*
X188393158Y-85247932D01*
X188663411Y-85135990D01*
X188906632Y-84973475D01*
X189113475Y-84766632D01*
X189178042Y-84670000D01*
X191551928Y-84670000D01*
X191564188Y-84794482D01*
X191600498Y-84914180D01*
X191659463Y-85024494D01*
X191738815Y-85121185D01*
X191835506Y-85200537D01*
X191945820Y-85259502D01*
X192065518Y-85295812D01*
X192190000Y-85308072D01*
X192754250Y-85305000D01*
X192913000Y-85146250D01*
X192913000Y-83947000D01*
X193167000Y-83947000D01*
X193167000Y-85146250D01*
X193325750Y-85305000D01*
X193890000Y-85308072D01*
X194014482Y-85295812D01*
X194134180Y-85259502D01*
X194244494Y-85200537D01*
X194341185Y-85121185D01*
X194420537Y-85024494D01*
X194479502Y-84914180D01*
X194515812Y-84794482D01*
X194528072Y-84670000D01*
X194525000Y-84105750D01*
X194366250Y-83947000D01*
X193167000Y-83947000D01*
X192913000Y-83947000D01*
X191713750Y-83947000D01*
X191555000Y-84105750D01*
X191551928Y-84670000D01*
X189178042Y-84670000D01*
X189275990Y-84523411D01*
X189387932Y-84253158D01*
X189445000Y-83966260D01*
X189445000Y-83673740D01*
X189387932Y-83386842D01*
X189275990Y-83116589D01*
X189178043Y-82970000D01*
X191551928Y-82970000D01*
X191555000Y-83534250D01*
X191713750Y-83693000D01*
X192913000Y-83693000D01*
X192913000Y-82493750D01*
X193167000Y-82493750D01*
X193167000Y-83693000D01*
X194366250Y-83693000D01*
X194525000Y-83534250D01*
X194528072Y-82970000D01*
X194515812Y-82845518D01*
X194479502Y-82725820D01*
X194420537Y-82615506D01*
X194341185Y-82518815D01*
X194244494Y-82439463D01*
X194134180Y-82380498D01*
X194014482Y-82344188D01*
X193890000Y-82331928D01*
X193325750Y-82335000D01*
X193167000Y-82493750D01*
X192913000Y-82493750D01*
X192754250Y-82335000D01*
X192190000Y-82331928D01*
X192065518Y-82344188D01*
X191945820Y-82380498D01*
X191835506Y-82439463D01*
X191738815Y-82518815D01*
X191659463Y-82615506D01*
X191600498Y-82725820D01*
X191564188Y-82845518D01*
X191551928Y-82970000D01*
X189178043Y-82970000D01*
X189113475Y-82873368D01*
X188906632Y-82666525D01*
X188732240Y-82550000D01*
X188906632Y-82433475D01*
X189113475Y-82226632D01*
X189275990Y-81983411D01*
X189387932Y-81713158D01*
X189445000Y-81426260D01*
X189445000Y-81133740D01*
X189387932Y-80846842D01*
X189275990Y-80576589D01*
X189113475Y-80333368D01*
X188906632Y-80126525D01*
X188732240Y-80010000D01*
X188906632Y-79893475D01*
X189113475Y-79686632D01*
X189275990Y-79443411D01*
X189387932Y-79173158D01*
X189445000Y-78886260D01*
X189445000Y-78593740D01*
X189387932Y-78306842D01*
X189275990Y-78036589D01*
X189113475Y-77793368D01*
X188906632Y-77586525D01*
X188724466Y-77464805D01*
X188841355Y-77395178D01*
X189057588Y-77200269D01*
X189231641Y-76966920D01*
X189356825Y-76704099D01*
X189401476Y-76556890D01*
X189280155Y-76327000D01*
X188087000Y-76327000D01*
X188087000Y-76347000D01*
X187833000Y-76347000D01*
X187833000Y-76327000D01*
X186639845Y-76327000D01*
X186518524Y-76556890D01*
X186563175Y-76704099D01*
X186675060Y-76939000D01*
X183781063Y-76939000D01*
X176178455Y-69336392D01*
X176461213Y-69336392D01*
X176461213Y-69560898D01*
X176592861Y-69696891D01*
X176689552Y-69776244D01*
X176799866Y-69835208D01*
X176919565Y-69871517D01*
X177044046Y-69883778D01*
X177168527Y-69871517D01*
X177288225Y-69835208D01*
X177398540Y-69776244D01*
X177495231Y-69696891D01*
X177671073Y-69516704D01*
X177671073Y-69292198D01*
X177088240Y-68709365D01*
X176461213Y-69336392D01*
X176178455Y-69336392D01*
X175416017Y-68573954D01*
X175734222Y-68573954D01*
X175746483Y-68698435D01*
X175782792Y-68818134D01*
X175841756Y-68928448D01*
X175921109Y-69025139D01*
X176057102Y-69156787D01*
X176281608Y-69156787D01*
X176908635Y-68529760D01*
X176325802Y-67946927D01*
X176101296Y-67946927D01*
X175921109Y-68122769D01*
X175841756Y-68219460D01*
X175782792Y-68329775D01*
X175746483Y-68449473D01*
X175734222Y-68573954D01*
X175416017Y-68573954D01*
X174371053Y-67528990D01*
X175220615Y-67528990D01*
X175220615Y-67753496D01*
X175235590Y-67772816D01*
X175332282Y-67852169D01*
X175442596Y-67911133D01*
X175562294Y-67947442D01*
X175686775Y-67959703D01*
X175811257Y-67947442D01*
X175930955Y-67911133D01*
X176041269Y-67852169D01*
X176137960Y-67772816D01*
X176193594Y-67712838D01*
X176193594Y-67488331D01*
X175727434Y-67022171D01*
X175220615Y-67528990D01*
X174371053Y-67528990D01*
X173985000Y-67142938D01*
X173985000Y-66484102D01*
X173985887Y-66484371D01*
X174026737Y-66488394D01*
X174106153Y-66567810D01*
X174130736Y-66597764D01*
X174250267Y-66695862D01*
X174386640Y-66768754D01*
X174481911Y-66797654D01*
X174534612Y-66813641D01*
X174548990Y-66815057D01*
X174616358Y-66821692D01*
X174610297Y-66883225D01*
X174622558Y-67007706D01*
X174658867Y-67127404D01*
X174717831Y-67237718D01*
X174797184Y-67334410D01*
X174816504Y-67349385D01*
X175041010Y-67349385D01*
X175547829Y-66842566D01*
X175533687Y-66828424D01*
X175537110Y-66825000D01*
X175705948Y-66825000D01*
X175723551Y-66846449D01*
X175896377Y-66988284D01*
X176093553Y-67093676D01*
X176186277Y-67121804D01*
X176373199Y-67308726D01*
X176597706Y-67308726D01*
X176657684Y-67253092D01*
X176722566Y-67174033D01*
X176879499Y-67158577D01*
X177093447Y-67093676D01*
X177096963Y-67091797D01*
X177069622Y-67181929D01*
X177007953Y-67188003D01*
X176888255Y-67224312D01*
X176777940Y-67283276D01*
X176681249Y-67362629D01*
X176505407Y-67542816D01*
X176505407Y-67767322D01*
X177088240Y-68350155D01*
X177102383Y-68336013D01*
X177281988Y-68515618D01*
X177267845Y-68529760D01*
X177850678Y-69112593D01*
X178075184Y-69112593D01*
X178255371Y-68936751D01*
X178334724Y-68840060D01*
X178393688Y-68729745D01*
X178429997Y-68610047D01*
X178436071Y-68548378D01*
X178598873Y-68498993D01*
X178699888Y-68445000D01*
X178853868Y-68445000D01*
X179195857Y-68786989D01*
X179325377Y-68893284D01*
X179522553Y-68998676D01*
X179736501Y-69063577D01*
X179959000Y-69085491D01*
X180181499Y-69063577D01*
X180395447Y-68998676D01*
X180592623Y-68893284D01*
X180765449Y-68751449D01*
X180907284Y-68578623D01*
X181012676Y-68381447D01*
X181075893Y-68173049D01*
X186475000Y-73572156D01*
X186475000Y-73806260D01*
X186532068Y-74093158D01*
X186644010Y-74363411D01*
X186806525Y-74606632D01*
X187013368Y-74813475D01*
X187195534Y-74935195D01*
X187078645Y-75004822D01*
X186862412Y-75199731D01*
X186688359Y-75433080D01*
X186563175Y-75695901D01*
X186518524Y-75843110D01*
X186639845Y-76073000D01*
X187833000Y-76073000D01*
X187833000Y-76053000D01*
X188087000Y-76053000D01*
X188087000Y-76073000D01*
X189280155Y-76073000D01*
X189401476Y-75843110D01*
X189356825Y-75695901D01*
X189231641Y-75433080D01*
X189057588Y-75199731D01*
X188841355Y-75004822D01*
X188724466Y-74935195D01*
X188906632Y-74813475D01*
X189113475Y-74606632D01*
X189275990Y-74363411D01*
X189387932Y-74093158D01*
X189445000Y-73806260D01*
X189445000Y-73513740D01*
X189387932Y-73226842D01*
X189275990Y-72956589D01*
X189113475Y-72713368D01*
X188981620Y-72581513D01*
X189054180Y-72559502D01*
X189164494Y-72500537D01*
X189261185Y-72421185D01*
X189340537Y-72324494D01*
X189399502Y-72214180D01*
X189435812Y-72094482D01*
X189448072Y-71970000D01*
X189448072Y-70270000D01*
X189435812Y-70145518D01*
X189399502Y-70025820D01*
X189340537Y-69915506D01*
X189261185Y-69818815D01*
X189164494Y-69739463D01*
X189095000Y-69702317D01*
X189095000Y-67960212D01*
X189084068Y-67905253D01*
X189078577Y-67849501D01*
X189062315Y-67795894D01*
X189051383Y-67740933D01*
X189029937Y-67689158D01*
X189013676Y-67635553D01*
X188987269Y-67586149D01*
X188965824Y-67534376D01*
X188934693Y-67487786D01*
X188908284Y-67438377D01*
X188872741Y-67395068D01*
X188841612Y-67348480D01*
X188801991Y-67308859D01*
X188766449Y-67265551D01*
X188723141Y-67230009D01*
X188683520Y-67190388D01*
X188636932Y-67159259D01*
X188593623Y-67123716D01*
X188544214Y-67097307D01*
X188497624Y-67066176D01*
X188445851Y-67044731D01*
X188396447Y-67018324D01*
X188342842Y-67002063D01*
X188291067Y-66980617D01*
X188236106Y-66969685D01*
X188182499Y-66953423D01*
X188126747Y-66947932D01*
X188071788Y-66937000D01*
X188015752Y-66937000D01*
X187960000Y-66931509D01*
X187904249Y-66937000D01*
X187848212Y-66937000D01*
X187793252Y-66947932D01*
X187737502Y-66953423D01*
X187683897Y-66969684D01*
X187628933Y-66980617D01*
X187577155Y-67002064D01*
X187523554Y-67018324D01*
X187474153Y-67044729D01*
X187422376Y-67066176D01*
X187375782Y-67097309D01*
X187326378Y-67123716D01*
X187283074Y-67159255D01*
X187236480Y-67190388D01*
X187196855Y-67230013D01*
X187153552Y-67265551D01*
X187118014Y-67308854D01*
X187078388Y-67348480D01*
X187047254Y-67395075D01*
X187011717Y-67438377D01*
X186985312Y-67487778D01*
X186954176Y-67534376D01*
X186932728Y-67586157D01*
X186906325Y-67635553D01*
X186890067Y-67689149D01*
X186868617Y-67740933D01*
X186857683Y-67795904D01*
X186841424Y-67849501D01*
X186835934Y-67905243D01*
X186825000Y-67960212D01*
X186825000Y-68183788D01*
X186825001Y-68183793D01*
X186825000Y-69702317D01*
X186755506Y-69739463D01*
X186658815Y-69818815D01*
X186579463Y-69915506D01*
X186520498Y-70025820D01*
X186484188Y-70145518D01*
X186471928Y-70270000D01*
X186471928Y-71348768D01*
X181282231Y-66159072D01*
X181593500Y-66159072D01*
X181764316Y-66142248D01*
X181801396Y-66131000D01*
X183023453Y-66131000D01*
X183106684Y-66156248D01*
X183277500Y-66173072D01*
X183363524Y-66173072D01*
X183515000Y-66187991D01*
X183666476Y-66173072D01*
X183752500Y-66173072D01*
X183923316Y-66156248D01*
X184087567Y-66106423D01*
X184238942Y-66025512D01*
X184371623Y-65916623D01*
X184480512Y-65783942D01*
X184561423Y-65632567D01*
X184611248Y-65468316D01*
X184628072Y-65297500D01*
X184628072Y-65288145D01*
X184633577Y-65269998D01*
X184655491Y-65047500D01*
X184633577Y-64825002D01*
X184628072Y-64806855D01*
X184628072Y-64797500D01*
X184611248Y-64626684D01*
X184561423Y-64462433D01*
X184480512Y-64311058D01*
X184391188Y-64202217D01*
X184441185Y-64161185D01*
X184520537Y-64064494D01*
X184579502Y-63954180D01*
X184609014Y-63856890D01*
X186518524Y-63856890D01*
X186563175Y-64004099D01*
X186688359Y-64266920D01*
X186862412Y-64500269D01*
X187078645Y-64695178D01*
X187328748Y-64844157D01*
X187603109Y-64941481D01*
X187833000Y-64820814D01*
X187833000Y-63627000D01*
X188087000Y-63627000D01*
X188087000Y-64820814D01*
X188316891Y-64941481D01*
X188591252Y-64844157D01*
X188841355Y-64695178D01*
X189057588Y-64500269D01*
X189231641Y-64266920D01*
X189356825Y-64004099D01*
X189401476Y-63856890D01*
X189280155Y-63627000D01*
X188087000Y-63627000D01*
X187833000Y-63627000D01*
X186639845Y-63627000D01*
X186518524Y-63856890D01*
X184609014Y-63856890D01*
X184615812Y-63834482D01*
X184628072Y-63710000D01*
X184625000Y-63508250D01*
X184466250Y-63349500D01*
X183642000Y-63349500D01*
X183642000Y-63369500D01*
X183388000Y-63369500D01*
X183388000Y-63349500D01*
X183368000Y-63349500D01*
X183368000Y-63095500D01*
X183388000Y-63095500D01*
X183388000Y-62258750D01*
X183642000Y-62258750D01*
X183642000Y-63095500D01*
X184466250Y-63095500D01*
X184625000Y-62936750D01*
X184628072Y-62735000D01*
X184615812Y-62610518D01*
X184579502Y-62490820D01*
X184520537Y-62380506D01*
X184441185Y-62283815D01*
X184344494Y-62204463D01*
X184234180Y-62145498D01*
X184114482Y-62109188D01*
X183990000Y-62096928D01*
X183800750Y-62100000D01*
X183642000Y-62258750D01*
X183388000Y-62258750D01*
X183229250Y-62100000D01*
X183040000Y-62096928D01*
X182915518Y-62109188D01*
X182795820Y-62145498D01*
X182685506Y-62204463D01*
X182588815Y-62283815D01*
X182509463Y-62380506D01*
X182450498Y-62490820D01*
X182414188Y-62610518D01*
X182410344Y-62649546D01*
X182402423Y-62623433D01*
X182321512Y-62472058D01*
X182212623Y-62339377D01*
X182079942Y-62230488D01*
X181928567Y-62149577D01*
X181764316Y-62099752D01*
X181593500Y-62082928D01*
X181118500Y-62082928D01*
X180947684Y-62099752D01*
X180783433Y-62149577D01*
X180633628Y-62229649D01*
X181903277Y-60960000D01*
X184025509Y-60960000D01*
X184031000Y-61015751D01*
X184031000Y-61071788D01*
X184041932Y-61126747D01*
X184047423Y-61182499D01*
X184063685Y-61236106D01*
X184074617Y-61291067D01*
X184096063Y-61342842D01*
X184112324Y-61396447D01*
X184138731Y-61445851D01*
X184160176Y-61497624D01*
X184191307Y-61544214D01*
X184217716Y-61593623D01*
X184253259Y-61636932D01*
X184284388Y-61683520D01*
X184324009Y-61723141D01*
X184359551Y-61766449D01*
X184402859Y-61801991D01*
X184442480Y-61841612D01*
X184489068Y-61872741D01*
X184532377Y-61908284D01*
X184581786Y-61934693D01*
X184628376Y-61965824D01*
X184680149Y-61987269D01*
X184729553Y-62013676D01*
X184783158Y-62029937D01*
X184834933Y-62051383D01*
X184889894Y-62062315D01*
X184943501Y-62078577D01*
X184999253Y-62084068D01*
X185054212Y-62095000D01*
X186542317Y-62095000D01*
X186579463Y-62164494D01*
X186658815Y-62261185D01*
X186755506Y-62340537D01*
X186865820Y-62399502D01*
X186946466Y-62423966D01*
X186862412Y-62499731D01*
X186688359Y-62733080D01*
X186563175Y-62995901D01*
X186518524Y-63143110D01*
X186639845Y-63373000D01*
X187833000Y-63373000D01*
X187833000Y-63353000D01*
X188087000Y-63353000D01*
X188087000Y-63373000D01*
X189280155Y-63373000D01*
X189401476Y-63143110D01*
X189356825Y-62995901D01*
X189231641Y-62733080D01*
X189057588Y-62499731D01*
X188973534Y-62423966D01*
X189054180Y-62399502D01*
X189164494Y-62340537D01*
X189261185Y-62261185D01*
X189340537Y-62164494D01*
X189399502Y-62054180D01*
X189435812Y-61934482D01*
X189448072Y-61810000D01*
X189448072Y-60110000D01*
X189435812Y-59985518D01*
X189399502Y-59865820D01*
X189340537Y-59755506D01*
X189261185Y-59658815D01*
X189164494Y-59579463D01*
X189095000Y-59542317D01*
X189095000Y-57292212D01*
X189084068Y-57237253D01*
X189078577Y-57181501D01*
X189062315Y-57127894D01*
X189051383Y-57072933D01*
X189029937Y-57021158D01*
X189013676Y-56967553D01*
X188987269Y-56918149D01*
X188965824Y-56866376D01*
X188934693Y-56819786D01*
X188908284Y-56770377D01*
X188872741Y-56727068D01*
X188841612Y-56680480D01*
X188801991Y-56640859D01*
X188766449Y-56597551D01*
X188723141Y-56562009D01*
X188683520Y-56522388D01*
X188636932Y-56491259D01*
X188593623Y-56455716D01*
X188544214Y-56429307D01*
X188497624Y-56398176D01*
X188445851Y-56376731D01*
X188396447Y-56350324D01*
X188342842Y-56334063D01*
X188291067Y-56312617D01*
X188236106Y-56301685D01*
X188182499Y-56285423D01*
X188126747Y-56279932D01*
X188071788Y-56269000D01*
X188015752Y-56269000D01*
X187960000Y-56263509D01*
X187904249Y-56269000D01*
X187848212Y-56269000D01*
X187793252Y-56279932D01*
X187737502Y-56285423D01*
X187683897Y-56301684D01*
X187628933Y-56312617D01*
X187577155Y-56334064D01*
X187523554Y-56350324D01*
X187474153Y-56376729D01*
X187422376Y-56398176D01*
X187375782Y-56429309D01*
X187326378Y-56455716D01*
X187283074Y-56491255D01*
X187236480Y-56522388D01*
X187196855Y-56562013D01*
X187153552Y-56597551D01*
X187118014Y-56640854D01*
X187078388Y-56680480D01*
X187047254Y-56727075D01*
X187011717Y-56770377D01*
X186985312Y-56819778D01*
X186954176Y-56866376D01*
X186932728Y-56918157D01*
X186906325Y-56967553D01*
X186890067Y-57021149D01*
X186868617Y-57072933D01*
X186857683Y-57127904D01*
X186841424Y-57181501D01*
X186835934Y-57237243D01*
X186825000Y-57292212D01*
X186825000Y-57515788D01*
X186825001Y-57515793D01*
X186825000Y-59542317D01*
X186755506Y-59579463D01*
X186658815Y-59658815D01*
X186579463Y-59755506D01*
X186542317Y-59825000D01*
X185054212Y-59825000D01*
X184999253Y-59835932D01*
X184943501Y-59841423D01*
X184889894Y-59857685D01*
X184834933Y-59868617D01*
X184783158Y-59890063D01*
X184729553Y-59906324D01*
X184680149Y-59932731D01*
X184628376Y-59954176D01*
X184581786Y-59985307D01*
X184532377Y-60011716D01*
X184489068Y-60047259D01*
X184442480Y-60078388D01*
X184402859Y-60118009D01*
X184359551Y-60153551D01*
X184324009Y-60196859D01*
X184284388Y-60236480D01*
X184253259Y-60283068D01*
X184217716Y-60326377D01*
X184191307Y-60375786D01*
X184160176Y-60422376D01*
X184138731Y-60474149D01*
X184112324Y-60523553D01*
X184096063Y-60577158D01*
X184074617Y-60628933D01*
X184063685Y-60683894D01*
X184047423Y-60737501D01*
X184041932Y-60793253D01*
X184031000Y-60848212D01*
X184031000Y-60904248D01*
X184025509Y-60960000D01*
X181903277Y-60960000D01*
X188038277Y-54825000D01*
X188106260Y-54825000D01*
X188393158Y-54767932D01*
X188663411Y-54655990D01*
X188906632Y-54493475D01*
X189113475Y-54286632D01*
X189275990Y-54043411D01*
X189387932Y-53773158D01*
X189445000Y-53486260D01*
X189445000Y-53193740D01*
X189387932Y-52906842D01*
X189275990Y-52636589D01*
X189113475Y-52393368D01*
X188906632Y-52186525D01*
X188732240Y-52070000D01*
X188906632Y-51953475D01*
X189113475Y-51746632D01*
X189275990Y-51503411D01*
X189387932Y-51233158D01*
X189445000Y-50946260D01*
X189445000Y-50653740D01*
X189387932Y-50366842D01*
X189275990Y-50096589D01*
X189113475Y-49853368D01*
X188906632Y-49646525D01*
X188732240Y-49530000D01*
X188906632Y-49413475D01*
X189113475Y-49206632D01*
X189275990Y-48963411D01*
X189387932Y-48693158D01*
X189445000Y-48406260D01*
X189445000Y-48113740D01*
X189387932Y-47826842D01*
X189275990Y-47556589D01*
X189113475Y-47313368D01*
X188906632Y-47106525D01*
X188732240Y-46990000D01*
X188906632Y-46873475D01*
X189113475Y-46666632D01*
X189275990Y-46423411D01*
X189387932Y-46153158D01*
X189445000Y-45866260D01*
X189445000Y-45573740D01*
X189387932Y-45286842D01*
X189275990Y-45016589D01*
X189113475Y-44773368D01*
X188906632Y-44566525D01*
X188732240Y-44450000D01*
X188906632Y-44333475D01*
X189113475Y-44126632D01*
X189275990Y-43883411D01*
X189387932Y-43613158D01*
X189445000Y-43326260D01*
X189445000Y-43033740D01*
X189387932Y-42746842D01*
X189275990Y-42476589D01*
X189113475Y-42233368D01*
X188906632Y-42026525D01*
X188732240Y-41910000D01*
X188906632Y-41793475D01*
X189113475Y-41586632D01*
X189275990Y-41343411D01*
X189387932Y-41073158D01*
X189445000Y-40786260D01*
X189445000Y-40493740D01*
X189387932Y-40206842D01*
X189275990Y-39936589D01*
X189113475Y-39693368D01*
X188981620Y-39561513D01*
X189054180Y-39539502D01*
X189164494Y-39480537D01*
X189261185Y-39401185D01*
X189340537Y-39304494D01*
X189399502Y-39194180D01*
X189435812Y-39074482D01*
X189448072Y-38950000D01*
X191551928Y-38950000D01*
X191564188Y-39074482D01*
X191600498Y-39194180D01*
X191659463Y-39304494D01*
X191738815Y-39401185D01*
X191835506Y-39480537D01*
X191945820Y-39539502D01*
X192065518Y-39575812D01*
X192190000Y-39588072D01*
X192754250Y-39585000D01*
X192913000Y-39426250D01*
X192913000Y-38227000D01*
X193167000Y-38227000D01*
X193167000Y-39426250D01*
X193325750Y-39585000D01*
X193890000Y-39588072D01*
X194014482Y-39575812D01*
X194134180Y-39539502D01*
X194244494Y-39480537D01*
X194341185Y-39401185D01*
X194420537Y-39304494D01*
X194479502Y-39194180D01*
X194515812Y-39074482D01*
X194528072Y-38950000D01*
X194525000Y-38385750D01*
X194366250Y-38227000D01*
X193167000Y-38227000D01*
X192913000Y-38227000D01*
X191713750Y-38227000D01*
X191555000Y-38385750D01*
X191551928Y-38950000D01*
X189448072Y-38950000D01*
X189448072Y-37250000D01*
X191551928Y-37250000D01*
X191555000Y-37814250D01*
X191713750Y-37973000D01*
X192913000Y-37973000D01*
X192913000Y-36773750D01*
X193167000Y-36773750D01*
X193167000Y-37973000D01*
X194366250Y-37973000D01*
X194525000Y-37814250D01*
X194528072Y-37250000D01*
X194515812Y-37125518D01*
X194479502Y-37005820D01*
X194420537Y-36895506D01*
X194341185Y-36798815D01*
X194244494Y-36719463D01*
X194134180Y-36660498D01*
X194014482Y-36624188D01*
X193890000Y-36611928D01*
X193325750Y-36615000D01*
X193167000Y-36773750D01*
X192913000Y-36773750D01*
X192754250Y-36615000D01*
X192190000Y-36611928D01*
X192065518Y-36624188D01*
X191945820Y-36660498D01*
X191835506Y-36719463D01*
X191738815Y-36798815D01*
X191659463Y-36895506D01*
X191600498Y-37005820D01*
X191564188Y-37125518D01*
X191551928Y-37250000D01*
X189448072Y-37250000D01*
X189435812Y-37125518D01*
X189399502Y-37005820D01*
X189340537Y-36895506D01*
X189261185Y-36798815D01*
X189164494Y-36719463D01*
X189054180Y-36660498D01*
X188934482Y-36624188D01*
X188810000Y-36611928D01*
X187110000Y-36611928D01*
X186985518Y-36624188D01*
X186865820Y-36660498D01*
X186755506Y-36719463D01*
X186658815Y-36798815D01*
X186579463Y-36895506D01*
X186520498Y-37005820D01*
X186484188Y-37125518D01*
X186471928Y-37250000D01*
X186471928Y-37315000D01*
X183807556Y-37315000D01*
X183769000Y-37311203D01*
X183730444Y-37315000D01*
X183730439Y-37315000D01*
X183690026Y-37318980D01*
X183615113Y-37326358D01*
X183476159Y-37368510D01*
X183467140Y-37371246D01*
X183330767Y-37444138D01*
X183211236Y-37542236D01*
X183186653Y-37572190D01*
X180320185Y-40438658D01*
X180290237Y-40463236D01*
X180265659Y-40493184D01*
X180265655Y-40493188D01*
X180250527Y-40511622D01*
X180192139Y-40582767D01*
X180161548Y-40640000D01*
X180119246Y-40719141D01*
X180074359Y-40867114D01*
X180059203Y-41021000D01*
X180063001Y-41059563D01*
X180063000Y-55867936D01*
X178186523Y-57744413D01*
X178106287Y-57664177D01*
X178127471Y-57624543D01*
X178135185Y-57599113D01*
X178172359Y-57476570D01*
X178175897Y-57440647D01*
X178234524Y-57422862D01*
X178388270Y-57340684D01*
X178523028Y-57230090D01*
X178550745Y-57196317D01*
X178903045Y-56844017D01*
X178936817Y-56816301D01*
X179047411Y-56681543D01*
X179129589Y-56527797D01*
X179137612Y-56501348D01*
X179225205Y-56370256D01*
X179303226Y-56181898D01*
X179343000Y-55981939D01*
X179343000Y-55778061D01*
X179303226Y-55578102D01*
X179225205Y-55389744D01*
X179111937Y-55220226D01*
X178967774Y-55076063D01*
X178798256Y-54962795D01*
X178609898Y-54884774D01*
X178409939Y-54845000D01*
X178206061Y-54845000D01*
X178006102Y-54884774D01*
X177817744Y-54962795D01*
X177648226Y-55076063D01*
X177504063Y-55220226D01*
X177390795Y-55389744D01*
X177312774Y-55578102D01*
X177301465Y-55634956D01*
X177227810Y-55708612D01*
X177203337Y-55711022D01*
X177054562Y-55756152D01*
X176917451Y-55829440D01*
X176797271Y-55928068D01*
X176578068Y-56147271D01*
X176529637Y-56206285D01*
X176549000Y-56108939D01*
X176549000Y-55905061D01*
X176509226Y-55705102D01*
X176447051Y-55555000D01*
X176522002Y-55555000D01*
X176522002Y-55396252D01*
X176680750Y-55555000D01*
X176762500Y-55558072D01*
X176886982Y-55545812D01*
X177006680Y-55509502D01*
X177116994Y-55450537D01*
X177213685Y-55371185D01*
X177293037Y-55274494D01*
X177352002Y-55164180D01*
X177388312Y-55044482D01*
X177400572Y-54920000D01*
X177397500Y-54895750D01*
X177238750Y-54737000D01*
X176522000Y-54737000D01*
X176522000Y-54757000D01*
X176268000Y-54757000D01*
X176268000Y-54737000D01*
X176265572Y-54737000D01*
X176265572Y-54483000D01*
X176268000Y-54483000D01*
X176268000Y-53823750D01*
X176522000Y-53823750D01*
X176522000Y-54483000D01*
X177238750Y-54483000D01*
X177397500Y-54324250D01*
X177400572Y-54300000D01*
X177388312Y-54175518D01*
X177352002Y-54055820D01*
X177293037Y-53945506D01*
X177213685Y-53848815D01*
X177116994Y-53769463D01*
X177006680Y-53710498D01*
X176886982Y-53674188D01*
X176762500Y-53661928D01*
X176680750Y-53665000D01*
X176522000Y-53823750D01*
X176268000Y-53823750D01*
X176109250Y-53665000D01*
X176027500Y-53661928D01*
X175903018Y-53674188D01*
X175783320Y-53710498D01*
X175766586Y-53719443D01*
X175627221Y-53677167D01*
X175472500Y-53661928D01*
X175047500Y-53661928D01*
X174892779Y-53677167D01*
X174744004Y-53722297D01*
X174606893Y-53795585D01*
X174486713Y-53894213D01*
X174388085Y-54014393D01*
X174314797Y-54151504D01*
X174269667Y-54300279D01*
X174254428Y-54455000D01*
X174254428Y-54500767D01*
X174233157Y-54526685D01*
X173672185Y-55087658D01*
X173642237Y-55112236D01*
X173617659Y-55142184D01*
X173617655Y-55142188D01*
X173598229Y-55165859D01*
X173544139Y-55231767D01*
X173522695Y-55271887D01*
X173482000Y-55348022D01*
X173482000Y-52832000D01*
X177292000Y-52832000D01*
X177316776Y-52829560D01*
X177340601Y-52822333D01*
X177362557Y-52810597D01*
X177381803Y-52794803D01*
X177397597Y-52775557D01*
X177409333Y-52753601D01*
X177416560Y-52729776D01*
X177419000Y-52705000D01*
X177419000Y-46609000D01*
X177416560Y-46584224D01*
X177409333Y-46560399D01*
X177397597Y-46538443D01*
X177381803Y-46519197D01*
X177362557Y-46503403D01*
X177340601Y-46491667D01*
X177316776Y-46484440D01*
X177292000Y-46482000D01*
X167513000Y-46482000D01*
X167488224Y-46484440D01*
X167464399Y-46491667D01*
X167442443Y-46503403D01*
X167423197Y-46519197D01*
X167407403Y-46538443D01*
X167395667Y-46560399D01*
X167388440Y-46584224D01*
X167386000Y-46609000D01*
X167386000Y-52328000D01*
X166127579Y-52328000D01*
X166021572Y-52221993D01*
X166021572Y-52060500D01*
X166004748Y-51889684D01*
X165981000Y-51811397D01*
X165981000Y-50509751D01*
X165986491Y-50453999D01*
X165964577Y-50231501D01*
X165899676Y-50017553D01*
X165896282Y-50011203D01*
X165794284Y-49820377D01*
X165652449Y-49647551D01*
X165609140Y-49612009D01*
X164001996Y-48004865D01*
X163966449Y-47961551D01*
X163793623Y-47819716D01*
X163596447Y-47714324D01*
X163382499Y-47649423D01*
X163215752Y-47633000D01*
X163215751Y-47633000D01*
X163160000Y-47627509D01*
X163115795Y-47631863D01*
X163083255Y-47621992D01*
X163042723Y-47618000D01*
X163052877Y-47617000D01*
X163774248Y-47617000D01*
X163829999Y-47622491D01*
X163885751Y-47617000D01*
X164663248Y-47617000D01*
X164719000Y-47622491D01*
X164774752Y-47617000D01*
X164830788Y-47617000D01*
X164885747Y-47606068D01*
X164941499Y-47600577D01*
X164995106Y-47584315D01*
X165050067Y-47573383D01*
X165101842Y-47551937D01*
X165155447Y-47535676D01*
X165204851Y-47509269D01*
X165256624Y-47487824D01*
X165303214Y-47456693D01*
X165352623Y-47430284D01*
X165395932Y-47394741D01*
X165442520Y-47363612D01*
X165482141Y-47323991D01*
X165525449Y-47288449D01*
X165560991Y-47245141D01*
X165600612Y-47205520D01*
X165631741Y-47158932D01*
X165667284Y-47115623D01*
X165693693Y-47066214D01*
X165724824Y-47019624D01*
X165746269Y-46967851D01*
X165772676Y-46918447D01*
X165788937Y-46864842D01*
X165810383Y-46813067D01*
X165821315Y-46758106D01*
X165837577Y-46704499D01*
X165843068Y-46648747D01*
X165854000Y-46593788D01*
X165854000Y-46537752D01*
X165859491Y-46482000D01*
X165854000Y-46426248D01*
X165854000Y-46370212D01*
X165843068Y-46315253D01*
X165837577Y-46259501D01*
X165821315Y-46205894D01*
X165810383Y-46150933D01*
X165788937Y-46099158D01*
X165772676Y-46045553D01*
X165746269Y-45996149D01*
X165724824Y-45944376D01*
X165693693Y-45897786D01*
X165667284Y-45848377D01*
X165631741Y-45805068D01*
X165600612Y-45758480D01*
X165560989Y-45718857D01*
X165525449Y-45675551D01*
X165482141Y-45640009D01*
X165442520Y-45600388D01*
X163655996Y-43813865D01*
X163620449Y-43770551D01*
X163447623Y-43628716D01*
X163250447Y-43523324D01*
X163036499Y-43458423D01*
X162869752Y-43442000D01*
X162869751Y-43442000D01*
X162814000Y-43436509D01*
X162758249Y-43442000D01*
X162742752Y-43442000D01*
X162687000Y-43436509D01*
X162631248Y-43442000D01*
X162575212Y-43442000D01*
X162520253Y-43452932D01*
X162464501Y-43458423D01*
X162410894Y-43474685D01*
X162355933Y-43485617D01*
X162304158Y-43507063D01*
X162250553Y-43523324D01*
X162201149Y-43549731D01*
X162149376Y-43571176D01*
X162102786Y-43602307D01*
X162053377Y-43628716D01*
X162010068Y-43664259D01*
X161963480Y-43695388D01*
X161923859Y-43735009D01*
X161880551Y-43770551D01*
X161845009Y-43813859D01*
X160291067Y-45367801D01*
X160251894Y-45379685D01*
X160196933Y-45390617D01*
X160145158Y-45412063D01*
X160091553Y-45428324D01*
X160042149Y-45454731D01*
X159990376Y-45476176D01*
X159943786Y-45507307D01*
X159894377Y-45533716D01*
X159851068Y-45569259D01*
X159804480Y-45600388D01*
X159764859Y-45640009D01*
X159721551Y-45675551D01*
X159686011Y-45718857D01*
X159646388Y-45758480D01*
X159615259Y-45805068D01*
X159579716Y-45848377D01*
X159553307Y-45897786D01*
X159522176Y-45944376D01*
X159500731Y-45996149D01*
X159474324Y-46045553D01*
X159458063Y-46099158D01*
X159436617Y-46150933D01*
X159425685Y-46205894D01*
X159409423Y-46259501D01*
X159403932Y-46315253D01*
X159393000Y-46370212D01*
X159393000Y-46426248D01*
X159387509Y-46482000D01*
X159393000Y-46537752D01*
X159393000Y-46593788D01*
X159403932Y-46648747D01*
X159409423Y-46704499D01*
X159425685Y-46758106D01*
X159436617Y-46813067D01*
X159458063Y-46864842D01*
X159474324Y-46918447D01*
X159500731Y-46967851D01*
X159522176Y-47019624D01*
X159553307Y-47066214D01*
X159579716Y-47115623D01*
X159615259Y-47158932D01*
X159646388Y-47205520D01*
X159686009Y-47245141D01*
X159721551Y-47288449D01*
X159764859Y-47323991D01*
X159804480Y-47363612D01*
X159851068Y-47394741D01*
X159894377Y-47430284D01*
X159943786Y-47456693D01*
X159990376Y-47487824D01*
X160042149Y-47509269D01*
X160091553Y-47535676D01*
X160145158Y-47551937D01*
X160196933Y-47573383D01*
X160251894Y-47584315D01*
X160305501Y-47600577D01*
X160361253Y-47606068D01*
X160416212Y-47617000D01*
X160726249Y-47617000D01*
X160782000Y-47622491D01*
X160837751Y-47617000D01*
X161488249Y-47617000D01*
X161544000Y-47622491D01*
X161599751Y-47617000D01*
X162067123Y-47617000D01*
X162077277Y-47618000D01*
X162036745Y-47621992D01*
X162000456Y-47633000D01*
X158458132Y-47633000D01*
X156428072Y-45602941D01*
X156428072Y-44870000D01*
X156415812Y-44745518D01*
X156379502Y-44625820D01*
X156320537Y-44515506D01*
X156241185Y-44418815D01*
X156144494Y-44339463D01*
X156034180Y-44280498D01*
X155914482Y-44244188D01*
X155790000Y-44231928D01*
X154090000Y-44231928D01*
X153965518Y-44244188D01*
X153845820Y-44280498D01*
X153735506Y-44339463D01*
X153638815Y-44418815D01*
X153559463Y-44515506D01*
X153500498Y-44625820D01*
X153464188Y-44745518D01*
X153451928Y-44870000D01*
X149943381Y-44870000D01*
X147980000Y-42906620D01*
X147980000Y-40996890D01*
X153498524Y-40996890D01*
X153543175Y-41144099D01*
X153668359Y-41406920D01*
X153842412Y-41640269D01*
X154058645Y-41835178D01*
X154308748Y-41984157D01*
X154583109Y-42081481D01*
X154813000Y-41960814D01*
X154813000Y-40767000D01*
X155067000Y-40767000D01*
X155067000Y-41960814D01*
X155296891Y-42081481D01*
X155571252Y-41984157D01*
X155821355Y-41835178D01*
X156037588Y-41640269D01*
X156211641Y-41406920D01*
X156336825Y-41144099D01*
X156381476Y-40996890D01*
X156260155Y-40767000D01*
X155067000Y-40767000D01*
X154813000Y-40767000D01*
X153619845Y-40767000D01*
X153498524Y-40996890D01*
X147980000Y-40996890D01*
X147980000Y-38950000D01*
X148371928Y-38950000D01*
X148384188Y-39074482D01*
X148420498Y-39194180D01*
X148479463Y-39304494D01*
X148558815Y-39401185D01*
X148655506Y-39480537D01*
X148765820Y-39539502D01*
X148885518Y-39575812D01*
X149010000Y-39588072D01*
X149574250Y-39585000D01*
X149733000Y-39426250D01*
X149733000Y-38227000D01*
X149987000Y-38227000D01*
X149987000Y-39426250D01*
X150145750Y-39585000D01*
X150710000Y-39588072D01*
X150834482Y-39575812D01*
X150954180Y-39539502D01*
X151064494Y-39480537D01*
X151161185Y-39401185D01*
X151240537Y-39304494D01*
X151299502Y-39194180D01*
X151335812Y-39074482D01*
X151348072Y-38950000D01*
X151345000Y-38385750D01*
X151186250Y-38227000D01*
X149987000Y-38227000D01*
X149733000Y-38227000D01*
X148533750Y-38227000D01*
X148375000Y-38385750D01*
X148371928Y-38950000D01*
X147980000Y-38950000D01*
X147980000Y-37250000D01*
X148371928Y-37250000D01*
X148375000Y-37814250D01*
X148533750Y-37973000D01*
X149733000Y-37973000D01*
X149733000Y-36773750D01*
X149987000Y-36773750D01*
X149987000Y-37973000D01*
X151186250Y-37973000D01*
X151345000Y-37814250D01*
X151348072Y-37250000D01*
X153451928Y-37250000D01*
X153451928Y-38950000D01*
X153464188Y-39074482D01*
X153500498Y-39194180D01*
X153559463Y-39304494D01*
X153638815Y-39401185D01*
X153735506Y-39480537D01*
X153845820Y-39539502D01*
X153926466Y-39563966D01*
X153842412Y-39639731D01*
X153668359Y-39873080D01*
X153543175Y-40135901D01*
X153498524Y-40283110D01*
X153619845Y-40513000D01*
X154813000Y-40513000D01*
X154813000Y-40493000D01*
X155067000Y-40493000D01*
X155067000Y-40513000D01*
X156260155Y-40513000D01*
X156381476Y-40283110D01*
X156336825Y-40135901D01*
X156211641Y-39873080D01*
X156037588Y-39639731D01*
X155953534Y-39563966D01*
X156034180Y-39539502D01*
X156144494Y-39480537D01*
X156241185Y-39401185D01*
X156320537Y-39304494D01*
X156357683Y-39235000D01*
X158463856Y-39235000D01*
X158565820Y-39289502D01*
X158685518Y-39325812D01*
X158810000Y-39338072D01*
X159710000Y-39338072D01*
X159834482Y-39325812D01*
X159954180Y-39289502D01*
X160064494Y-39230537D01*
X160161185Y-39151185D01*
X160240537Y-39054494D01*
X160299502Y-38944180D01*
X160335812Y-38824482D01*
X160348072Y-38700000D01*
X160348072Y-38423060D01*
X160378577Y-38322499D01*
X160400491Y-38100000D01*
X161419509Y-38100000D01*
X161441423Y-38322499D01*
X161471928Y-38423060D01*
X161471928Y-38700000D01*
X161484188Y-38824482D01*
X161520498Y-38944180D01*
X161579463Y-39054494D01*
X161658815Y-39151185D01*
X161755506Y-39230537D01*
X161865820Y-39289502D01*
X161985518Y-39325812D01*
X162110000Y-39338072D01*
X163010000Y-39338072D01*
X163134482Y-39325812D01*
X163254180Y-39289502D01*
X163356144Y-39235000D01*
X164540412Y-39235000D01*
X164532716Y-39244377D01*
X164506307Y-39293786D01*
X164475176Y-39340376D01*
X164453731Y-39392149D01*
X164427324Y-39441553D01*
X164411063Y-39495158D01*
X164389617Y-39546933D01*
X164378685Y-39601894D01*
X164362423Y-39655501D01*
X164356932Y-39711253D01*
X164346000Y-39766212D01*
X164346000Y-39822248D01*
X164340509Y-39878000D01*
X164346000Y-39933752D01*
X164346000Y-39989788D01*
X164356932Y-40044747D01*
X164362423Y-40100499D01*
X164378685Y-40154106D01*
X164389617Y-40209067D01*
X164411063Y-40260842D01*
X164427324Y-40314447D01*
X164453731Y-40363851D01*
X164475176Y-40415624D01*
X164506307Y-40462214D01*
X164532716Y-40511623D01*
X164568259Y-40554932D01*
X164599388Y-40601520D01*
X164639009Y-40641141D01*
X164674551Y-40684449D01*
X164717857Y-40719989D01*
X164757480Y-40759612D01*
X164757483Y-40759614D01*
X165500008Y-41502140D01*
X165535551Y-41545449D01*
X165656073Y-41644359D01*
X165708377Y-41687284D01*
X165905553Y-41792676D01*
X166119501Y-41857577D01*
X166342000Y-41879491D01*
X166397752Y-41874000D01*
X166617337Y-41874000D01*
X166655501Y-41885577D01*
X166711253Y-41891068D01*
X166766212Y-41902000D01*
X166822248Y-41902000D01*
X166878000Y-41907491D01*
X166933751Y-41902000D01*
X167330249Y-41902000D01*
X167386000Y-41907491D01*
X167441751Y-41902000D01*
X167441752Y-41902000D01*
X167608499Y-41885577D01*
X167822447Y-41820676D01*
X168019623Y-41715284D01*
X168192449Y-41573449D01*
X168227995Y-41530136D01*
X169038143Y-40719989D01*
X169081449Y-40684449D01*
X169116991Y-40641141D01*
X169156612Y-40601520D01*
X169187741Y-40554932D01*
X169223284Y-40511623D01*
X169249693Y-40462214D01*
X169280824Y-40415624D01*
X169282117Y-40412500D01*
X175416928Y-40412500D01*
X175429188Y-40536982D01*
X175465498Y-40656680D01*
X175524463Y-40766994D01*
X175603815Y-40863685D01*
X175700506Y-40943037D01*
X175810820Y-41002002D01*
X175930518Y-41038312D01*
X176055000Y-41050572D01*
X176244250Y-41047500D01*
X176403000Y-40888750D01*
X176403000Y-40052000D01*
X176657000Y-40052000D01*
X176657000Y-40888750D01*
X176815750Y-41047500D01*
X177005000Y-41050572D01*
X177129482Y-41038312D01*
X177249180Y-41002002D01*
X177359494Y-40943037D01*
X177456185Y-40863685D01*
X177535537Y-40766994D01*
X177594502Y-40656680D01*
X177630812Y-40536982D01*
X177643072Y-40412500D01*
X177640000Y-40210750D01*
X177481250Y-40052000D01*
X176657000Y-40052000D01*
X176403000Y-40052000D01*
X175578750Y-40052000D01*
X175420000Y-40210750D01*
X175416928Y-40412500D01*
X169282117Y-40412500D01*
X169302269Y-40363851D01*
X169328676Y-40314447D01*
X169344937Y-40260842D01*
X169366383Y-40209067D01*
X169377315Y-40154106D01*
X169393577Y-40100499D01*
X169399068Y-40044747D01*
X169410000Y-39989788D01*
X169410000Y-39933752D01*
X169415491Y-39878000D01*
X169410000Y-39822248D01*
X169410000Y-39766212D01*
X169399068Y-39711253D01*
X169393577Y-39655501D01*
X169377315Y-39601894D01*
X169366383Y-39546933D01*
X169344937Y-39495158D01*
X169328676Y-39441553D01*
X169302269Y-39392149D01*
X169280824Y-39340376D01*
X169249693Y-39293786D01*
X169223284Y-39244377D01*
X169187741Y-39201068D01*
X169156612Y-39154480D01*
X169116989Y-39114857D01*
X169081449Y-39071551D01*
X169038141Y-39036009D01*
X168987132Y-38985000D01*
X169702954Y-38985000D01*
X169801058Y-39065512D01*
X169952433Y-39146423D01*
X170116684Y-39196248D01*
X170287500Y-39213072D01*
X170862500Y-39213072D01*
X171033316Y-39196248D01*
X171197567Y-39146423D01*
X171348942Y-39065512D01*
X171450000Y-38982575D01*
X171551058Y-39065512D01*
X171702433Y-39146423D01*
X171866684Y-39196248D01*
X172037500Y-39213072D01*
X172612500Y-39213072D01*
X172783316Y-39196248D01*
X172947567Y-39146423D01*
X173098942Y-39065512D01*
X173197046Y-38985000D01*
X175605417Y-38985000D01*
X175603815Y-38986315D01*
X175524463Y-39083006D01*
X175465498Y-39193320D01*
X175429188Y-39313018D01*
X175416928Y-39437500D01*
X175420000Y-39639250D01*
X175578750Y-39798000D01*
X176403000Y-39798000D01*
X176403000Y-39778000D01*
X176657000Y-39778000D01*
X176657000Y-39798000D01*
X177481250Y-39798000D01*
X177640000Y-39639250D01*
X177643072Y-39437500D01*
X177630812Y-39313018D01*
X177594502Y-39193320D01*
X177535537Y-39083006D01*
X177456185Y-38986315D01*
X177406188Y-38945283D01*
X177495512Y-38836442D01*
X177576423Y-38685067D01*
X177626248Y-38520816D01*
X177643072Y-38350000D01*
X177643072Y-37850000D01*
X177626248Y-37679184D01*
X177576423Y-37514933D01*
X177495512Y-37363558D01*
X177386623Y-37230877D01*
X177253942Y-37121988D01*
X177102567Y-37041077D01*
X176938316Y-36991252D01*
X176767500Y-36974428D01*
X176292500Y-36974428D01*
X176121684Y-36991252D01*
X175957433Y-37041077D01*
X175806058Y-37121988D01*
X175692723Y-37215000D01*
X173197046Y-37215000D01*
X173098942Y-37134488D01*
X172947567Y-37053577D01*
X172783316Y-37003752D01*
X172612500Y-36986928D01*
X172037500Y-36986928D01*
X171866684Y-37003752D01*
X171702433Y-37053577D01*
X171551058Y-37134488D01*
X171450000Y-37217425D01*
X171348942Y-37134488D01*
X171197567Y-37053577D01*
X171033316Y-37003752D01*
X170862500Y-36986928D01*
X170287500Y-36986928D01*
X170116684Y-37003752D01*
X169952433Y-37053577D01*
X169801058Y-37134488D01*
X169702954Y-37215000D01*
X168477735Y-37215000D01*
X168400623Y-37151716D01*
X168203447Y-37046324D01*
X167989499Y-36981423D01*
X167822752Y-36965000D01*
X167822751Y-36965000D01*
X167767000Y-36959509D01*
X167711248Y-36965000D01*
X166905752Y-36965000D01*
X166850000Y-36959509D01*
X166794248Y-36965000D01*
X166627501Y-36981423D01*
X166609354Y-36986928D01*
X166562500Y-36986928D01*
X166391684Y-37003752D01*
X166227433Y-37053577D01*
X166076058Y-37134488D01*
X165975000Y-37217425D01*
X165873942Y-37134488D01*
X165722567Y-37053577D01*
X165558316Y-37003752D01*
X165387500Y-36986928D01*
X165340646Y-36986928D01*
X165322499Y-36981423D01*
X165155752Y-36965000D01*
X163356144Y-36965000D01*
X163254180Y-36910498D01*
X163134482Y-36874188D01*
X163010000Y-36861928D01*
X162110000Y-36861928D01*
X161985518Y-36874188D01*
X161865820Y-36910498D01*
X161755506Y-36969463D01*
X161658815Y-37048815D01*
X161579463Y-37145506D01*
X161520498Y-37255820D01*
X161484188Y-37375518D01*
X161471928Y-37500000D01*
X161471928Y-37776940D01*
X161441423Y-37877501D01*
X161419509Y-38100000D01*
X160400491Y-38100000D01*
X160378577Y-37877501D01*
X160348072Y-37776940D01*
X160348072Y-37500000D01*
X160335812Y-37375518D01*
X160299502Y-37255820D01*
X160240537Y-37145506D01*
X160161185Y-37048815D01*
X160064494Y-36969463D01*
X159954180Y-36910498D01*
X159834482Y-36874188D01*
X159710000Y-36861928D01*
X158810000Y-36861928D01*
X158685518Y-36874188D01*
X158565820Y-36910498D01*
X158463856Y-36965000D01*
X156357683Y-36965000D01*
X156320537Y-36895506D01*
X156241185Y-36798815D01*
X156144494Y-36719463D01*
X156034180Y-36660498D01*
X155914482Y-36624188D01*
X155790000Y-36611928D01*
X154090000Y-36611928D01*
X153965518Y-36624188D01*
X153845820Y-36660498D01*
X153735506Y-36719463D01*
X153638815Y-36798815D01*
X153559463Y-36895506D01*
X153500498Y-37005820D01*
X153464188Y-37125518D01*
X153451928Y-37250000D01*
X151348072Y-37250000D01*
X151335812Y-37125518D01*
X151299502Y-37005820D01*
X151240537Y-36895506D01*
X151161185Y-36798815D01*
X151064494Y-36719463D01*
X150954180Y-36660498D01*
X150834482Y-36624188D01*
X150710000Y-36611928D01*
X150145750Y-36615000D01*
X149987000Y-36773750D01*
X149733000Y-36773750D01*
X149574250Y-36615000D01*
X149010000Y-36611928D01*
X148885518Y-36624188D01*
X148765820Y-36660498D01*
X148655506Y-36719463D01*
X148558815Y-36798815D01*
X148479463Y-36895506D01*
X148420498Y-37005820D01*
X148384188Y-37125518D01*
X148371928Y-37250000D01*
X147980000Y-37250000D01*
X147980000Y-36862279D01*
X147994722Y-36712131D01*
X148028953Y-36598754D01*
X148084555Y-36494181D01*
X148159407Y-36402404D01*
X148250664Y-36326909D01*
X148354844Y-36270581D01*
X148467976Y-36235560D01*
X148616022Y-36220000D01*
X194277721Y-36220000D01*
X194427869Y-36234722D01*
G37*
%TD.AperFunction*%
D19*
X179933462Y-75311715D02*
X179807226Y-75396063D01*
X179663063Y-75540226D01*
X179549795Y-75709744D01*
X179471774Y-75898102D01*
X179432000Y-76098061D01*
X179432000Y-76301939D01*
X179471774Y-76501898D01*
X179549795Y-76690256D01*
X179550551Y-76691387D01*
X179529315Y-76708815D01*
X179449963Y-76805506D01*
X179390998Y-76915820D01*
X179354688Y-77035518D01*
X179342428Y-77160000D01*
X179345500Y-77184250D01*
X179504250Y-77343000D01*
X180221000Y-77343000D01*
X180221000Y-77323000D01*
X180338422Y-77323000D01*
X180477428Y-77462007D01*
X180477428Y-77597000D01*
X180475000Y-77597000D01*
X180475000Y-77617000D01*
X180221000Y-77617000D01*
X180221000Y-77597000D01*
X179504250Y-77597000D01*
X179400250Y-77701000D01*
X178887158Y-77701000D01*
X173485000Y-72298843D01*
X173485000Y-68863252D01*
X179933462Y-75311715D01*
%TA.AperFunction,Conductor*%
D20*
G36*
X179933462Y-75311715D02*
G01*
X179807226Y-75396063D01*
X179663063Y-75540226D01*
X179549795Y-75709744D01*
X179471774Y-75898102D01*
X179432000Y-76098061D01*
X179432000Y-76301939D01*
X179471774Y-76501898D01*
X179549795Y-76690256D01*
X179550551Y-76691387D01*
X179529315Y-76708815D01*
X179449963Y-76805506D01*
X179390998Y-76915820D01*
X179354688Y-77035518D01*
X179342428Y-77160000D01*
X179345500Y-77184250D01*
X179504250Y-77343000D01*
X180221000Y-77343000D01*
X180221000Y-77323000D01*
X180338422Y-77323000D01*
X180477428Y-77462007D01*
X180477428Y-77597000D01*
X180475000Y-77597000D01*
X180475000Y-77617000D01*
X180221000Y-77617000D01*
X180221000Y-77597000D01*
X179504250Y-77597000D01*
X179400250Y-77701000D01*
X178887158Y-77701000D01*
X173485000Y-72298843D01*
X173485000Y-68863252D01*
X179933462Y-75311715D01*
G37*
%TD.AperFunction*%
D19*
X159369990Y-73199853D02*
X156425000Y-76144843D01*
X156425000Y-76053740D01*
X156387075Y-75863082D01*
X159369990Y-72880168D01*
X159369990Y-73199853D01*
%TA.AperFunction,Conductor*%
D20*
G36*
X159369990Y-73199853D02*
G01*
X156425000Y-76144843D01*
X156425000Y-76053740D01*
X156387075Y-75863082D01*
X159369990Y-72880168D01*
X159369990Y-73199853D01*
G37*
%TD.AperFunction*%
D19*
X173985887Y-58159371D02*
X174125000Y-58173072D01*
X174236928Y-58173072D01*
X174236928Y-58285000D01*
X174250629Y-58424113D01*
X174251186Y-58425949D01*
X174251132Y-58426117D01*
X174240000Y-58528250D01*
X174315982Y-58604232D01*
X174357102Y-58681162D01*
X174380769Y-58710000D01*
X174357102Y-58738838D01*
X174315982Y-58815768D01*
X174240000Y-58891750D01*
X174251132Y-58993883D01*
X174251186Y-58994051D01*
X174250629Y-58995887D01*
X174236928Y-59135000D01*
X174236928Y-59285000D01*
X174250629Y-59424113D01*
X174261515Y-59460000D01*
X174250629Y-59495887D01*
X174236928Y-59635000D01*
X174236928Y-59785000D01*
X174250629Y-59924113D01*
X174261515Y-59960000D01*
X174250629Y-59995887D01*
X174236928Y-60135000D01*
X174236928Y-60285000D01*
X174250629Y-60424113D01*
X174261515Y-60460000D01*
X174250629Y-60495887D01*
X174236928Y-60635000D01*
X174236928Y-60785000D01*
X174250629Y-60924113D01*
X174261515Y-60960000D01*
X174250629Y-60995887D01*
X174236928Y-61135000D01*
X174236928Y-61285000D01*
X174250629Y-61424113D01*
X174261515Y-61460000D01*
X174250629Y-61495887D01*
X174246166Y-61541197D01*
X174194067Y-61519617D01*
X173974788Y-61476000D01*
X173751212Y-61476000D01*
X173531933Y-61519617D01*
X173325376Y-61605176D01*
X173139480Y-61729388D01*
X172981388Y-61887480D01*
X172857176Y-62073376D01*
X172771617Y-62279933D01*
X172728000Y-62499212D01*
X172728000Y-62722788D01*
X172771617Y-62942067D01*
X172857176Y-63148624D01*
X172981388Y-63334520D01*
X173139480Y-63492612D01*
X173325376Y-63616824D01*
X173531933Y-63702383D01*
X173751212Y-63746000D01*
X173974788Y-63746000D01*
X174194067Y-63702383D01*
X174236928Y-63684629D01*
X174236928Y-63746928D01*
X174125000Y-63746928D01*
X173985887Y-63760629D01*
X173984051Y-63761186D01*
X173983883Y-63761132D01*
X173881750Y-63750000D01*
X173805768Y-63825982D01*
X173728838Y-63867102D01*
X173700000Y-63890769D01*
X173671162Y-63867102D01*
X173594232Y-63825982D01*
X173518250Y-63750000D01*
X173416117Y-63761132D01*
X173415949Y-63761186D01*
X173414113Y-63760629D01*
X173275000Y-63746928D01*
X173125000Y-63746928D01*
X172985887Y-63760629D01*
X172950000Y-63771515D01*
X172914113Y-63760629D01*
X172775000Y-63746928D01*
X172625000Y-63746928D01*
X172485887Y-63760629D01*
X172450000Y-63771515D01*
X172414113Y-63760629D01*
X172275000Y-63746928D01*
X172125000Y-63746928D01*
X171985887Y-63760629D01*
X171950000Y-63771515D01*
X171914113Y-63760629D01*
X171775000Y-63746928D01*
X171625000Y-63746928D01*
X171485887Y-63760629D01*
X171450000Y-63771515D01*
X171414113Y-63760629D01*
X171275000Y-63746928D01*
X171125000Y-63746928D01*
X170985887Y-63760629D01*
X170950000Y-63771515D01*
X170914113Y-63760629D01*
X170775000Y-63746928D01*
X170625000Y-63746928D01*
X170485887Y-63760629D01*
X170450000Y-63771515D01*
X170414113Y-63760629D01*
X170275000Y-63746928D01*
X170125000Y-63746928D01*
X169985887Y-63760629D01*
X169950000Y-63771515D01*
X169914113Y-63760629D01*
X169775000Y-63746928D01*
X169625000Y-63746928D01*
X169485887Y-63760629D01*
X169450000Y-63771515D01*
X169414113Y-63760629D01*
X169275000Y-63746928D01*
X169125000Y-63746928D01*
X168985887Y-63760629D01*
X168950000Y-63771515D01*
X168914113Y-63760629D01*
X168775000Y-63746928D01*
X168663072Y-63746928D01*
X168663072Y-63635000D01*
X168649371Y-63495887D01*
X168648814Y-63494051D01*
X168648868Y-63493883D01*
X168660000Y-63391750D01*
X168584018Y-63315768D01*
X168542898Y-63238838D01*
X168519231Y-63210000D01*
X168542898Y-63181162D01*
X168584018Y-63104232D01*
X168660000Y-63028250D01*
X168648868Y-62926117D01*
X168648814Y-62925949D01*
X168649371Y-62924113D01*
X168663072Y-62785000D01*
X168663072Y-62635000D01*
X168649371Y-62495887D01*
X168638485Y-62460000D01*
X168649371Y-62424113D01*
X168663072Y-62285000D01*
X168663072Y-62135000D01*
X168649371Y-61995887D01*
X168638485Y-61960000D01*
X168649371Y-61924113D01*
X168663072Y-61785000D01*
X168663072Y-61635000D01*
X168649371Y-61495887D01*
X168638485Y-61460000D01*
X168649371Y-61424113D01*
X168663072Y-61285000D01*
X168663072Y-61135000D01*
X168649371Y-60995887D01*
X168638485Y-60960000D01*
X168649371Y-60924113D01*
X168663072Y-60785000D01*
X168663072Y-60635000D01*
X168649371Y-60495887D01*
X168638485Y-60460000D01*
X168649371Y-60424113D01*
X168663072Y-60285000D01*
X168663072Y-60135000D01*
X168649371Y-59995887D01*
X168638485Y-59960000D01*
X168649371Y-59924113D01*
X168663072Y-59785000D01*
X168663072Y-59635000D01*
X168649371Y-59495887D01*
X168638485Y-59460000D01*
X168649371Y-59424113D01*
X168663072Y-59285000D01*
X168663072Y-59135000D01*
X168649371Y-58995887D01*
X168638485Y-58960000D01*
X168649371Y-58924113D01*
X168663072Y-58785000D01*
X168663072Y-58635000D01*
X168649371Y-58495887D01*
X168638485Y-58460000D01*
X168649371Y-58424113D01*
X168663072Y-58285000D01*
X168663072Y-58173072D01*
X168775000Y-58173072D01*
X168914113Y-58159371D01*
X168950000Y-58148485D01*
X168985887Y-58159371D01*
X169125000Y-58173072D01*
X169275000Y-58173072D01*
X169414113Y-58159371D01*
X169450000Y-58148485D01*
X169485887Y-58159371D01*
X169625000Y-58173072D01*
X169775000Y-58173072D01*
X169914113Y-58159371D01*
X169950000Y-58148485D01*
X169985887Y-58159371D01*
X170125000Y-58173072D01*
X170275000Y-58173072D01*
X170414113Y-58159371D01*
X170415949Y-58158814D01*
X170416117Y-58158868D01*
X170434000Y-58160817D01*
X170434000Y-58166000D01*
X170436440Y-58190776D01*
X170443667Y-58214601D01*
X170455403Y-58236557D01*
X170471197Y-58255803D01*
X170490443Y-58271597D01*
X170512399Y-58283333D01*
X170536224Y-58290560D01*
X170561000Y-58293000D01*
X170598113Y-58293000D01*
X170617655Y-58316812D01*
X170617659Y-58316816D01*
X170642237Y-58346764D01*
X170672185Y-58371342D01*
X171331000Y-59030158D01*
X171331000Y-59166788D01*
X171374617Y-59386067D01*
X171460176Y-59592624D01*
X171584388Y-59778520D01*
X171742480Y-59936612D01*
X171928376Y-60060824D01*
X172134933Y-60146383D01*
X172354212Y-60190000D01*
X172577788Y-60190000D01*
X172797067Y-60146383D01*
X173003624Y-60060824D01*
X173189520Y-59936612D01*
X173347612Y-59778520D01*
X173471824Y-59592624D01*
X173557383Y-59386067D01*
X173601000Y-59166788D01*
X173601000Y-58943212D01*
X173557383Y-58723933D01*
X173471824Y-58517376D01*
X173347612Y-58331480D01*
X173309132Y-58293000D01*
X173355000Y-58293000D01*
X173379776Y-58290560D01*
X173403601Y-58283333D01*
X173425557Y-58271597D01*
X173444803Y-58255803D01*
X173460597Y-58236557D01*
X173472333Y-58214601D01*
X173479560Y-58190776D01*
X173482000Y-58166000D01*
X173482000Y-58158192D01*
X173485887Y-58159371D01*
X173625000Y-58173072D01*
X173775000Y-58173072D01*
X173914113Y-58159371D01*
X173950000Y-58148485D01*
X173985887Y-58159371D01*
%TA.AperFunction,Conductor*%
D20*
G36*
X173985887Y-58159371D02*
G01*
X174125000Y-58173072D01*
X174236928Y-58173072D01*
X174236928Y-58285000D01*
X174250629Y-58424113D01*
X174251186Y-58425949D01*
X174251132Y-58426117D01*
X174240000Y-58528250D01*
X174315982Y-58604232D01*
X174357102Y-58681162D01*
X174380769Y-58710000D01*
X174357102Y-58738838D01*
X174315982Y-58815768D01*
X174240000Y-58891750D01*
X174251132Y-58993883D01*
X174251186Y-58994051D01*
X174250629Y-58995887D01*
X174236928Y-59135000D01*
X174236928Y-59285000D01*
X174250629Y-59424113D01*
X174261515Y-59460000D01*
X174250629Y-59495887D01*
X174236928Y-59635000D01*
X174236928Y-59785000D01*
X174250629Y-59924113D01*
X174261515Y-59960000D01*
X174250629Y-59995887D01*
X174236928Y-60135000D01*
X174236928Y-60285000D01*
X174250629Y-60424113D01*
X174261515Y-60460000D01*
X174250629Y-60495887D01*
X174236928Y-60635000D01*
X174236928Y-60785000D01*
X174250629Y-60924113D01*
X174261515Y-60960000D01*
X174250629Y-60995887D01*
X174236928Y-61135000D01*
X174236928Y-61285000D01*
X174250629Y-61424113D01*
X174261515Y-61460000D01*
X174250629Y-61495887D01*
X174246166Y-61541197D01*
X174194067Y-61519617D01*
X173974788Y-61476000D01*
X173751212Y-61476000D01*
X173531933Y-61519617D01*
X173325376Y-61605176D01*
X173139480Y-61729388D01*
X172981388Y-61887480D01*
X172857176Y-62073376D01*
X172771617Y-62279933D01*
X172728000Y-62499212D01*
X172728000Y-62722788D01*
X172771617Y-62942067D01*
X172857176Y-63148624D01*
X172981388Y-63334520D01*
X173139480Y-63492612D01*
X173325376Y-63616824D01*
X173531933Y-63702383D01*
X173751212Y-63746000D01*
X173974788Y-63746000D01*
X174194067Y-63702383D01*
X174236928Y-63684629D01*
X174236928Y-63746928D01*
X174125000Y-63746928D01*
X173985887Y-63760629D01*
X173984051Y-63761186D01*
X173983883Y-63761132D01*
X173881750Y-63750000D01*
X173805768Y-63825982D01*
X173728838Y-63867102D01*
X173700000Y-63890769D01*
X173671162Y-63867102D01*
X173594232Y-63825982D01*
X173518250Y-63750000D01*
X173416117Y-63761132D01*
X173415949Y-63761186D01*
X173414113Y-63760629D01*
X173275000Y-63746928D01*
X173125000Y-63746928D01*
X172985887Y-63760629D01*
X172950000Y-63771515D01*
X172914113Y-63760629D01*
X172775000Y-63746928D01*
X172625000Y-63746928D01*
X172485887Y-63760629D01*
X172450000Y-63771515D01*
X172414113Y-63760629D01*
X172275000Y-63746928D01*
X172125000Y-63746928D01*
X171985887Y-63760629D01*
X171950000Y-63771515D01*
X171914113Y-63760629D01*
X171775000Y-63746928D01*
X171625000Y-63746928D01*
X171485887Y-63760629D01*
X171450000Y-63771515D01*
X171414113Y-63760629D01*
X171275000Y-63746928D01*
X171125000Y-63746928D01*
X170985887Y-63760629D01*
X170950000Y-63771515D01*
X170914113Y-63760629D01*
X170775000Y-63746928D01*
X170625000Y-63746928D01*
X170485887Y-63760629D01*
X170450000Y-63771515D01*
X170414113Y-63760629D01*
X170275000Y-63746928D01*
X170125000Y-63746928D01*
X169985887Y-63760629D01*
X169950000Y-63771515D01*
X169914113Y-63760629D01*
X169775000Y-63746928D01*
X169625000Y-63746928D01*
X169485887Y-63760629D01*
X169450000Y-63771515D01*
X169414113Y-63760629D01*
X169275000Y-63746928D01*
X169125000Y-63746928D01*
X168985887Y-63760629D01*
X168950000Y-63771515D01*
X168914113Y-63760629D01*
X168775000Y-63746928D01*
X168663072Y-63746928D01*
X168663072Y-63635000D01*
X168649371Y-63495887D01*
X168648814Y-63494051D01*
X168648868Y-63493883D01*
X168660000Y-63391750D01*
X168584018Y-63315768D01*
X168542898Y-63238838D01*
X168519231Y-63210000D01*
X168542898Y-63181162D01*
X168584018Y-63104232D01*
X168660000Y-63028250D01*
X168648868Y-62926117D01*
X168648814Y-62925949D01*
X168649371Y-62924113D01*
X168663072Y-62785000D01*
X168663072Y-62635000D01*
X168649371Y-62495887D01*
X168638485Y-62460000D01*
X168649371Y-62424113D01*
X168663072Y-62285000D01*
X168663072Y-62135000D01*
X168649371Y-61995887D01*
X168638485Y-61960000D01*
X168649371Y-61924113D01*
X168663072Y-61785000D01*
X168663072Y-61635000D01*
X168649371Y-61495887D01*
X168638485Y-61460000D01*
X168649371Y-61424113D01*
X168663072Y-61285000D01*
X168663072Y-61135000D01*
X168649371Y-60995887D01*
X168638485Y-60960000D01*
X168649371Y-60924113D01*
X168663072Y-60785000D01*
X168663072Y-60635000D01*
X168649371Y-60495887D01*
X168638485Y-60460000D01*
X168649371Y-60424113D01*
X168663072Y-60285000D01*
X168663072Y-60135000D01*
X168649371Y-59995887D01*
X168638485Y-59960000D01*
X168649371Y-59924113D01*
X168663072Y-59785000D01*
X168663072Y-59635000D01*
X168649371Y-59495887D01*
X168638485Y-59460000D01*
X168649371Y-59424113D01*
X168663072Y-59285000D01*
X168663072Y-59135000D01*
X168649371Y-58995887D01*
X168638485Y-58960000D01*
X168649371Y-58924113D01*
X168663072Y-58785000D01*
X168663072Y-58635000D01*
X168649371Y-58495887D01*
X168638485Y-58460000D01*
X168649371Y-58424113D01*
X168663072Y-58285000D01*
X168663072Y-58173072D01*
X168775000Y-58173072D01*
X168914113Y-58159371D01*
X168950000Y-58148485D01*
X168985887Y-58159371D01*
X169125000Y-58173072D01*
X169275000Y-58173072D01*
X169414113Y-58159371D01*
X169450000Y-58148485D01*
X169485887Y-58159371D01*
X169625000Y-58173072D01*
X169775000Y-58173072D01*
X169914113Y-58159371D01*
X169950000Y-58148485D01*
X169985887Y-58159371D01*
X170125000Y-58173072D01*
X170275000Y-58173072D01*
X170414113Y-58159371D01*
X170415949Y-58158814D01*
X170416117Y-58158868D01*
X170434000Y-58160817D01*
X170434000Y-58166000D01*
X170436440Y-58190776D01*
X170443667Y-58214601D01*
X170455403Y-58236557D01*
X170471197Y-58255803D01*
X170490443Y-58271597D01*
X170512399Y-58283333D01*
X170536224Y-58290560D01*
X170561000Y-58293000D01*
X170598113Y-58293000D01*
X170617655Y-58316812D01*
X170617659Y-58316816D01*
X170642237Y-58346764D01*
X170672185Y-58371342D01*
X171331000Y-59030158D01*
X171331000Y-59166788D01*
X171374617Y-59386067D01*
X171460176Y-59592624D01*
X171584388Y-59778520D01*
X171742480Y-59936612D01*
X171928376Y-60060824D01*
X172134933Y-60146383D01*
X172354212Y-60190000D01*
X172577788Y-60190000D01*
X172797067Y-60146383D01*
X173003624Y-60060824D01*
X173189520Y-59936612D01*
X173347612Y-59778520D01*
X173471824Y-59592624D01*
X173557383Y-59386067D01*
X173601000Y-59166788D01*
X173601000Y-58943212D01*
X173557383Y-58723933D01*
X173471824Y-58517376D01*
X173347612Y-58331480D01*
X173309132Y-58293000D01*
X173355000Y-58293000D01*
X173379776Y-58290560D01*
X173403601Y-58283333D01*
X173425557Y-58271597D01*
X173444803Y-58255803D01*
X173460597Y-58236557D01*
X173472333Y-58214601D01*
X173479560Y-58190776D01*
X173482000Y-58166000D01*
X173482000Y-58158192D01*
X173485887Y-58159371D01*
X173625000Y-58173072D01*
X173775000Y-58173072D01*
X173914113Y-58159371D01*
X173950000Y-58148485D01*
X173985887Y-58159371D01*
G37*
%TD.AperFunction*%
D19*
X156425000Y-63444843D02*
X156425000Y-63372998D01*
X156260156Y-63372998D01*
X156381476Y-63143110D01*
X156336825Y-62995901D01*
X156211641Y-62733080D01*
X156037588Y-62499731D01*
X155821355Y-62304822D01*
X155704466Y-62235195D01*
X155886632Y-62113475D01*
X156093475Y-61906632D01*
X156255990Y-61663411D01*
X156367932Y-61393158D01*
X156425000Y-61106260D01*
X156425000Y-60813740D01*
X156387075Y-60623082D01*
X157515157Y-59495000D01*
X160374843Y-59495000D01*
X156425000Y-63444843D01*
%TA.AperFunction,Conductor*%
D20*
G36*
X156425000Y-63444843D02*
G01*
X156425000Y-63372998D01*
X156260156Y-63372998D01*
X156381476Y-63143110D01*
X156336825Y-62995901D01*
X156211641Y-62733080D01*
X156037588Y-62499731D01*
X155821355Y-62304822D01*
X155704466Y-62235195D01*
X155886632Y-62113475D01*
X156093475Y-61906632D01*
X156255990Y-61663411D01*
X156367932Y-61393158D01*
X156425000Y-61106260D01*
X156425000Y-60813740D01*
X156387075Y-60623082D01*
X157515157Y-59495000D01*
X160374843Y-59495000D01*
X156425000Y-63444843D01*
G37*
%TD.AperFunction*%
D19*
X160156842Y-54587000D02*
X157297158Y-54587000D01*
X156387075Y-53676918D01*
X156425000Y-53486260D01*
X156425000Y-53193740D01*
X156367932Y-52906842D01*
X156255990Y-52636589D01*
X156093475Y-52393368D01*
X155886632Y-52186525D01*
X155704466Y-52064805D01*
X155821355Y-51995178D01*
X156037588Y-51800269D01*
X156211641Y-51566920D01*
X156336825Y-51304099D01*
X156381476Y-51156890D01*
X156260156Y-50927002D01*
X156425000Y-50927002D01*
X156425000Y-50855157D01*
X160156842Y-54587000D01*
%TA.AperFunction,Conductor*%
D20*
G36*
X160156842Y-54587000D02*
G01*
X157297158Y-54587000D01*
X156387075Y-53676918D01*
X156425000Y-53486260D01*
X156425000Y-53193740D01*
X156367932Y-52906842D01*
X156255990Y-52636589D01*
X156093475Y-52393368D01*
X155886632Y-52186525D01*
X155704466Y-52064805D01*
X155821355Y-51995178D01*
X156037588Y-51800269D01*
X156211641Y-51566920D01*
X156336825Y-51304099D01*
X156381476Y-51156890D01*
X156260156Y-50927002D01*
X156425000Y-50927002D01*
X156425000Y-50855157D01*
X160156842Y-54587000D01*
G37*
%TD.AperFunction*%
D19*
X157765501Y-49886577D02*
X157988000Y-49908491D01*
X158043751Y-49903000D01*
X162000456Y-49903000D01*
X162036745Y-49914008D01*
X162209999Y-49931072D01*
X162717941Y-49931072D01*
X163711000Y-50924132D01*
X163711000Y-51190099D01*
X163658500Y-51184928D01*
X163406750Y-51188000D01*
X163248000Y-51346750D01*
X163248000Y-52171000D01*
X163268000Y-52171000D01*
X163268000Y-52425000D01*
X163248000Y-52425000D01*
X163248000Y-53249250D01*
X163406750Y-53408000D01*
X163658500Y-53411072D01*
X163782982Y-53398812D01*
X163902680Y-53362502D01*
X164012994Y-53303537D01*
X164060894Y-53264226D01*
X164210933Y-53344423D01*
X164375184Y-53394248D01*
X164546000Y-53411072D01*
X164605355Y-53411072D01*
X164623502Y-53416577D01*
X164722776Y-53426355D01*
X165104470Y-53808049D01*
X165132183Y-53841817D01*
X165165951Y-53869530D01*
X165165953Y-53869532D01*
X165196027Y-53894213D01*
X165266941Y-53952411D01*
X165420687Y-54034589D01*
X165567088Y-54079000D01*
X161869158Y-54079000D01*
X160563158Y-52773000D01*
X161945428Y-52773000D01*
X161957688Y-52897482D01*
X161993998Y-53017180D01*
X162052963Y-53127494D01*
X162132315Y-53224185D01*
X162229006Y-53303537D01*
X162339320Y-53362502D01*
X162459018Y-53398812D01*
X162583500Y-53411072D01*
X162835250Y-53408000D01*
X162994000Y-53249250D01*
X162994000Y-52425000D01*
X162107250Y-52425000D01*
X161948500Y-52583750D01*
X161945428Y-52773000D01*
X160563158Y-52773000D01*
X159613158Y-51823000D01*
X161945428Y-51823000D01*
X161948500Y-52012250D01*
X162107250Y-52171000D01*
X162994000Y-52171000D01*
X162994000Y-51346750D01*
X162835250Y-51188000D01*
X162583500Y-51184928D01*
X162459018Y-51197188D01*
X162339320Y-51233498D01*
X162229006Y-51292463D01*
X162132315Y-51371815D01*
X162052963Y-51468506D01*
X161993998Y-51578820D01*
X161957688Y-51698518D01*
X161945428Y-51823000D01*
X159613158Y-51823000D01*
X157638082Y-49847924D01*
X157765501Y-49886577D01*
%TA.AperFunction,Conductor*%
D20*
G36*
X157765501Y-49886577D02*
G01*
X157988000Y-49908491D01*
X158043751Y-49903000D01*
X162000456Y-49903000D01*
X162036745Y-49914008D01*
X162209999Y-49931072D01*
X162717941Y-49931072D01*
X163711000Y-50924132D01*
X163711000Y-51190099D01*
X163658500Y-51184928D01*
X163406750Y-51188000D01*
X163248000Y-51346750D01*
X163248000Y-52171000D01*
X163268000Y-52171000D01*
X163268000Y-52425000D01*
X163248000Y-52425000D01*
X163248000Y-53249250D01*
X163406750Y-53408000D01*
X163658500Y-53411072D01*
X163782982Y-53398812D01*
X163902680Y-53362502D01*
X164012994Y-53303537D01*
X164060894Y-53264226D01*
X164210933Y-53344423D01*
X164375184Y-53394248D01*
X164546000Y-53411072D01*
X164605355Y-53411072D01*
X164623502Y-53416577D01*
X164722776Y-53426355D01*
X165104470Y-53808049D01*
X165132183Y-53841817D01*
X165165951Y-53869530D01*
X165165953Y-53869532D01*
X165196027Y-53894213D01*
X165266941Y-53952411D01*
X165420687Y-54034589D01*
X165567088Y-54079000D01*
X161869158Y-54079000D01*
X160563158Y-52773000D01*
X161945428Y-52773000D01*
X161957688Y-52897482D01*
X161993998Y-53017180D01*
X162052963Y-53127494D01*
X162132315Y-53224185D01*
X162229006Y-53303537D01*
X162339320Y-53362502D01*
X162459018Y-53398812D01*
X162583500Y-53411072D01*
X162835250Y-53408000D01*
X162994000Y-53249250D01*
X162994000Y-52425000D01*
X162107250Y-52425000D01*
X161948500Y-52583750D01*
X161945428Y-52773000D01*
X160563158Y-52773000D01*
X159613158Y-51823000D01*
X161945428Y-51823000D01*
X161948500Y-52012250D01*
X162107250Y-52171000D01*
X162994000Y-52171000D01*
X162994000Y-51346750D01*
X162835250Y-51188000D01*
X162583500Y-51184928D01*
X162459018Y-51197188D01*
X162339320Y-51233498D01*
X162229006Y-51292463D01*
X162132315Y-51371815D01*
X162052963Y-51468506D01*
X161993998Y-51578820D01*
X161957688Y-51698518D01*
X161945428Y-51823000D01*
X159613158Y-51823000D01*
X157638082Y-49847924D01*
X157765501Y-49886577D01*
G37*
%TD.AperFunction*%
D19*
X186475000Y-50946260D02*
X186512924Y-51136918D01*
X184808000Y-52841843D01*
X184808000Y-52522157D01*
X186475000Y-50855157D01*
X186475000Y-50946260D01*
%TA.AperFunction,Conductor*%
D20*
G36*
X186475000Y-50946260D02*
G01*
X186512924Y-51136918D01*
X184808000Y-52841843D01*
X184808000Y-52522157D01*
X186475000Y-50855157D01*
X186475000Y-50946260D01*
G37*
%TD.AperFunction*%
D19*
X186475000Y-48406260D02*
X186512925Y-48596918D01*
X183792000Y-51317843D01*
X183792000Y-50998157D01*
X186475000Y-48315157D01*
X186475000Y-48406260D01*
%TA.AperFunction,Conductor*%
D20*
G36*
X186475000Y-48406260D02*
G01*
X186512925Y-48596918D01*
X183792000Y-51317843D01*
X183792000Y-50998157D01*
X186475000Y-48315157D01*
X186475000Y-48406260D01*
G37*
%TD.AperFunction*%
D19*
X186644010Y-45016589D02*
X186532068Y-45286842D01*
X186475000Y-45573740D01*
X186475000Y-45866260D01*
X186512925Y-46056918D01*
X183030000Y-49539843D01*
X183030000Y-45791157D01*
X183430156Y-45391002D01*
X183480748Y-45391002D01*
X183322000Y-45549750D01*
X183318928Y-45621500D01*
X183331188Y-45745982D01*
X183367498Y-45865680D01*
X183426463Y-45975994D01*
X183505815Y-46072685D01*
X183602506Y-46152037D01*
X183712820Y-46211002D01*
X183832518Y-46247312D01*
X183957000Y-46259572D01*
X183991250Y-46256500D01*
X184150000Y-46097750D01*
X184150000Y-45391000D01*
X184404000Y-45391000D01*
X184404000Y-46097750D01*
X184562750Y-46256500D01*
X184597000Y-46259572D01*
X184721482Y-46247312D01*
X184841180Y-46211002D01*
X184951494Y-46152037D01*
X185048185Y-46072685D01*
X185127537Y-45975994D01*
X185186502Y-45865680D01*
X185222812Y-45745982D01*
X185235072Y-45621500D01*
X185232000Y-45549750D01*
X185073250Y-45391000D01*
X184404000Y-45391000D01*
X184150000Y-45391000D01*
X184130000Y-45391000D01*
X184130000Y-45137000D01*
X184150000Y-45137000D01*
X184150000Y-45117000D01*
X184404000Y-45117000D01*
X184404000Y-45137000D01*
X185073250Y-45137000D01*
X185232000Y-44978250D01*
X185233038Y-44954000D01*
X186685831Y-44954000D01*
X186644010Y-45016589D01*
%TA.AperFunction,Conductor*%
D20*
G36*
X186644010Y-45016589D02*
G01*
X186532068Y-45286842D01*
X186475000Y-45573740D01*
X186475000Y-45866260D01*
X186512925Y-46056918D01*
X183030000Y-49539843D01*
X183030000Y-45791157D01*
X183430156Y-45391002D01*
X183480748Y-45391002D01*
X183322000Y-45549750D01*
X183318928Y-45621500D01*
X183331188Y-45745982D01*
X183367498Y-45865680D01*
X183426463Y-45975994D01*
X183505815Y-46072685D01*
X183602506Y-46152037D01*
X183712820Y-46211002D01*
X183832518Y-46247312D01*
X183957000Y-46259572D01*
X183991250Y-46256500D01*
X184150000Y-46097750D01*
X184150000Y-45391000D01*
X184404000Y-45391000D01*
X184404000Y-46097750D01*
X184562750Y-46256500D01*
X184597000Y-46259572D01*
X184721482Y-46247312D01*
X184841180Y-46211002D01*
X184951494Y-46152037D01*
X185048185Y-46072685D01*
X185127537Y-45975994D01*
X185186502Y-45865680D01*
X185222812Y-45745982D01*
X185235072Y-45621500D01*
X185232000Y-45549750D01*
X185073250Y-45391000D01*
X184404000Y-45391000D01*
X184150000Y-45391000D01*
X184130000Y-45391000D01*
X184130000Y-45137000D01*
X184150000Y-45137000D01*
X184150000Y-45117000D01*
X184404000Y-45117000D01*
X184404000Y-45137000D01*
X185073250Y-45137000D01*
X185232000Y-44978250D01*
X185233038Y-44954000D01*
X186685831Y-44954000D01*
X186644010Y-45016589D01*
G37*
%TD.AperFunction*%
D19*
X186806525Y-41586632D02*
X187013368Y-41793475D01*
X187187760Y-41910000D01*
X187013368Y-42026525D01*
X186806525Y-42233368D01*
X186644010Y-42476589D01*
X186532068Y-42746842D01*
X186475000Y-43033740D01*
X186475000Y-43184000D01*
X184835620Y-43184000D01*
X184742409Y-43134178D01*
X184592696Y-43088763D01*
X184437000Y-43073428D01*
X184117000Y-43073428D01*
X183961304Y-43088763D01*
X183811591Y-43134178D01*
X183673615Y-43207927D01*
X183577849Y-43286520D01*
X183502490Y-43293943D01*
X183488112Y-43295359D01*
X183453672Y-43305806D01*
X183340140Y-43340246D01*
X183203767Y-43413138D01*
X183148588Y-43458423D01*
X183114187Y-43486655D01*
X183114184Y-43486658D01*
X183084236Y-43511236D01*
X183059658Y-43541184D01*
X182268000Y-44332843D01*
X182268000Y-42743157D01*
X183586157Y-41425000D01*
X186698526Y-41425000D01*
X186806525Y-41586632D01*
%TA.AperFunction,Conductor*%
D20*
G36*
X186806525Y-41586632D02*
G01*
X187013368Y-41793475D01*
X187187760Y-41910000D01*
X187013368Y-42026525D01*
X186806525Y-42233368D01*
X186644010Y-42476589D01*
X186532068Y-42746842D01*
X186475000Y-43033740D01*
X186475000Y-43184000D01*
X184835620Y-43184000D01*
X184742409Y-43134178D01*
X184592696Y-43088763D01*
X184437000Y-43073428D01*
X184117000Y-43073428D01*
X183961304Y-43088763D01*
X183811591Y-43134178D01*
X183673615Y-43207927D01*
X183577849Y-43286520D01*
X183502490Y-43293943D01*
X183488112Y-43295359D01*
X183453672Y-43305806D01*
X183340140Y-43340246D01*
X183203767Y-43413138D01*
X183148588Y-43458423D01*
X183114187Y-43486655D01*
X183114184Y-43486658D01*
X183084236Y-43511236D01*
X183059658Y-43541184D01*
X182268000Y-44332843D01*
X182268000Y-42743157D01*
X183586157Y-41425000D01*
X186698526Y-41425000D01*
X186806525Y-41586632D01*
G37*
%TD.AperFunction*%
D19*
X186471928Y-38950000D02*
X186484188Y-39074482D01*
X186520498Y-39194180D01*
X186579463Y-39304494D01*
X186658815Y-39401185D01*
X186755506Y-39480537D01*
X186865820Y-39539502D01*
X186938380Y-39561513D01*
X186806525Y-39693368D01*
X186698526Y-39855000D01*
X183299556Y-39855000D01*
X183261000Y-39851203D01*
X183222444Y-39855000D01*
X183222439Y-39855000D01*
X183182026Y-39858980D01*
X183113420Y-39865737D01*
X184094157Y-38885000D01*
X186471928Y-38885000D01*
X186471928Y-38950000D01*
%TA.AperFunction,Conductor*%
D20*
G36*
X186471928Y-38950000D02*
G01*
X186484188Y-39074482D01*
X186520498Y-39194180D01*
X186579463Y-39304494D01*
X186658815Y-39401185D01*
X186755506Y-39480537D01*
X186865820Y-39539502D01*
X186938380Y-39561513D01*
X186806525Y-39693368D01*
X186698526Y-39855000D01*
X183299556Y-39855000D01*
X183261000Y-39851203D01*
X183222444Y-39855000D01*
X183222439Y-39855000D01*
X183182026Y-39858980D01*
X183113420Y-39865737D01*
X184094157Y-38885000D01*
X186471928Y-38885000D01*
X186471928Y-38950000D01*
G37*
%TD.AperFunction*%
%TD*%
M02*
