%TF.GenerationSoftware,KiCad,Pcbnew,(5.1.10-1-10_14)*%
%TF.CreationDate,2022-01-24T14:54:24+11:00*%
%TF.ProjectId,STM32L431CBT6_BO,53544d33-324c-4343-9331-434254365f42,rev?*%
%TF.SameCoordinates,Original*%
%TF.FileFunction,Copper,L3,Inr*%
%TF.FilePolarity,Positive*%
%FSLAX46Y46*%
G04 Gerber Fmt 4.6, Leading zero omitted, Abs format (unit mm)*
G04 Created by KiCad (PCBNEW (5.1.10-1-10_14)) date 2022-01-24 14:54:24*
%MOMM*%
%LPD*%
G01*
G04 APERTURE LIST*
%TA.AperFunction,ComponentPad*%
%ADD10O,1.700000X1.700000*%
%TD*%
%TA.AperFunction,ComponentPad*%
%ADD11R,1.700000X1.700000*%
%TD*%
%TA.AperFunction,ViaPad*%
%ADD12C,0.800000*%
%TD*%
%TA.AperFunction,ViaPad*%
%ADD13C,1.000000*%
%TD*%
%TA.AperFunction,Conductor*%
%ADD14C,0.254000*%
%TD*%
%TA.AperFunction,Conductor*%
%ADD15C,0.100000*%
%TD*%
G04 APERTURE END LIST*
D10*
%TO.N,PA12*%
%TO.C,J6*%
X182880000Y-81280000D03*
%TO.N,PA11*%
X180340000Y-81280000D03*
%TO.N,USART_Rx*%
X177800000Y-81280000D03*
%TO.N,USART_Tx*%
X175260000Y-81280000D03*
%TO.N,GND*%
X172720000Y-81280000D03*
%TO.N,PA8*%
X170180000Y-81280000D03*
%TO.N,PB15*%
X167640000Y-81280000D03*
%TO.N,PB14*%
X165100000Y-81280000D03*
%TO.N,PB13*%
X162560000Y-81280000D03*
D11*
%TO.N,PB12*%
X160020000Y-81280000D03*
%TD*%
%TO.N,GND*%
%TO.C,J9*%
X193040000Y-83820000D03*
%TD*%
%TO.N,Net-(D1-Pad2)*%
%TO.C,J1*%
X154940000Y-38100000D03*
D10*
%TO.N,GND*%
X154940000Y-40640000D03*
%TD*%
%TO.N,GND*%
%TO.C,J2*%
X187960000Y-63500000D03*
D11*
%TO.N,+3V3*%
X187960000Y-60960000D03*
%TD*%
%TO.N,PB9*%
%TO.C,J3*%
X187960000Y-38100000D03*
D10*
%TO.N,PB8*%
X187960000Y-40640000D03*
%TO.N,BOOT*%
X187960000Y-43180000D03*
%TO.N,I2C1_SDA*%
X187960000Y-45720000D03*
%TO.N,I2C1_SCL*%
X187960000Y-48260000D03*
%TO.N,PB5*%
X187960000Y-50800000D03*
%TO.N,PB4*%
X187960000Y-53340000D03*
%TD*%
D11*
%TO.N,+3.3VA*%
%TO.C,J4*%
X154940000Y-45720000D03*
D10*
%TO.N,ADC1_IN5*%
X154940000Y-48260000D03*
%TO.N,GND*%
X154940000Y-50800000D03*
%TO.N,PA1*%
X154940000Y-53340000D03*
%TO.N,PA2*%
X154940000Y-55880000D03*
%TO.N,PA3*%
X154940000Y-58420000D03*
%TO.N,DAC1_OUT1*%
X154940000Y-60960000D03*
%TO.N,GND*%
X154940000Y-63500000D03*
%TO.N,PA5*%
X154940000Y-66040000D03*
%TO.N,PA6*%
X154940000Y-68580000D03*
%TO.N,PA7*%
X154940000Y-71120000D03*
%TO.N,PB0*%
X154940000Y-73660000D03*
%TO.N,PB1*%
X154940000Y-76200000D03*
%TO.N,PB2*%
X154940000Y-78740000D03*
%TO.N,USART3_Tx*%
X154940000Y-81280000D03*
%TO.N,USART3_Rx*%
X154940000Y-83820000D03*
%TD*%
D11*
%TO.N,+3V3*%
%TO.C,J5*%
X187960000Y-71120000D03*
D10*
%TO.N,SWCLK*%
X187960000Y-73660000D03*
%TO.N,GND*%
X187960000Y-76200000D03*
%TO.N,SWDIO*%
X187960000Y-78740000D03*
%TO.N,NRST*%
X187960000Y-81280000D03*
%TO.N,SWO*%
X187960000Y-83820000D03*
%TD*%
D11*
%TO.N,GND*%
%TO.C,J7*%
X193040000Y-38100000D03*
%TD*%
%TO.N,GND*%
%TO.C,J8*%
X149860000Y-38100000D03*
%TD*%
%TO.N,GND*%
%TO.C,J10*%
X149860000Y-83820000D03*
%TD*%
D12*
%TO.N,GND*%
X157480000Y-52324000D03*
X183134000Y-46228000D03*
%TO.N,+3V3*%
X178308000Y-55880000D03*
D13*
X166878000Y-40767000D03*
X168275000Y-39878000D03*
X165481000Y-39878000D03*
X162687000Y-44577000D03*
X160528000Y-46482000D03*
X164719000Y-46482000D03*
D12*
X175514000Y-56007000D03*
D13*
X185166000Y-60960000D03*
X187960000Y-57404000D03*
X187960000Y-68072000D03*
%TO.N,GND*%
X157988000Y-60833000D03*
X172720000Y-78740000D03*
X187960000Y-66421000D03*
X185293000Y-63500000D03*
X192786000Y-40894000D03*
X194437000Y-40894000D03*
X150495000Y-81153000D03*
X148717000Y-81153000D03*
X193929000Y-79375000D03*
X193929000Y-81153000D03*
%TO.N,SWO*%
X185166000Y-84074000D03*
D12*
%TO.N,NRST*%
X180467000Y-76200000D03*
%TO.N,GND*%
X179197000Y-77470000D03*
D13*
X170688000Y-59055000D03*
%TO.N,NRST*%
X172466000Y-59055000D03*
%TO.N,SWO*%
X173863000Y-62611000D03*
D12*
%TO.N,+3V3*%
X177546000Y-65151000D03*
X179959000Y-67945000D03*
X164719000Y-65532000D03*
D13*
%TO.N,GND*%
X149225000Y-40767000D03*
X150749000Y-40767000D03*
X157607000Y-40005000D03*
X157607000Y-42545000D03*
X157607000Y-41275000D03*
D12*
X161607500Y-50927000D03*
X175260000Y-39941500D03*
X163131500Y-50927000D03*
X163893500Y-64706500D03*
X183515000Y-61722000D03*
X174752000Y-67818000D03*
X178054000Y-69469000D03*
X178943000Y-56896000D03*
X166370000Y-54102000D03*
X177546000Y-54610000D03*
X175895000Y-51435000D03*
X168910000Y-47879000D03*
X184912000Y-72771000D03*
X167640000Y-43180000D03*
X172720000Y-43180000D03*
X177800000Y-43180000D03*
X172720000Y-40640000D03*
X179070000Y-40640000D03*
X181610000Y-38100000D03*
X179070000Y-38100000D03*
X179070000Y-46990000D03*
X179070000Y-49530000D03*
X179070000Y-52070000D03*
X179070000Y-54610000D03*
X172720000Y-43180000D03*
X172720000Y-45720000D03*
X177800000Y-45720000D03*
X167640000Y-45720000D03*
X162560000Y-40640000D03*
X160020000Y-43180000D03*
X165100000Y-43180000D03*
X167640000Y-43180000D03*
X158750000Y-53975000D03*
X159258000Y-59817000D03*
X162560000Y-68580000D03*
X166370000Y-68580000D03*
X166370000Y-72390000D03*
X162560000Y-72390000D03*
X162560000Y-76200000D03*
X160020000Y-78740000D03*
X149098000Y-78994000D03*
X173990000Y-72390000D03*
X179070000Y-71120000D03*
X182880000Y-74930000D03*
X182753000Y-70612000D03*
X158115000Y-85090000D03*
X191135000Y-68580000D03*
X184150000Y-67310000D03*
X184785000Y-59055000D03*
X190500000Y-57150000D03*
X183515000Y-48006000D03*
X183515000Y-42418000D03*
X183515000Y-39624000D03*
X194056000Y-42672000D03*
X149098000Y-42926000D03*
X151638000Y-42926000D03*
X183896000Y-51054000D03*
X184912000Y-52578000D03*
X157988000Y-74422000D03*
%TD*%
D14*
%TO.N,+3V3*%
X194427869Y-36234722D02*
X194541246Y-36268953D01*
X194645819Y-36324555D01*
X194737596Y-36399407D01*
X194813091Y-36490664D01*
X194869419Y-36594844D01*
X194904440Y-36707976D01*
X194920000Y-36856022D01*
X194920000Y-39865550D01*
X194768067Y-39802617D01*
X194548788Y-39759000D01*
X194325212Y-39759000D01*
X194105933Y-39802617D01*
X193899376Y-39888176D01*
X193713480Y-40012388D01*
X193611500Y-40114368D01*
X193509520Y-40012388D01*
X193323624Y-39888176D01*
X193117067Y-39802617D01*
X192897788Y-39759000D01*
X192674212Y-39759000D01*
X192454933Y-39802617D01*
X192248376Y-39888176D01*
X192062480Y-40012388D01*
X191904388Y-40170480D01*
X191780176Y-40356376D01*
X191694617Y-40562933D01*
X191651000Y-40782212D01*
X191651000Y-41005788D01*
X191694617Y-41225067D01*
X191780176Y-41431624D01*
X191904388Y-41617520D01*
X192062480Y-41775612D01*
X192248376Y-41899824D01*
X192454933Y-41985383D01*
X192674212Y-42029000D01*
X192897788Y-42029000D01*
X193117067Y-41985383D01*
X193323624Y-41899824D01*
X193509520Y-41775612D01*
X193611500Y-41673632D01*
X193655489Y-41717621D01*
X193565744Y-41754795D01*
X193396226Y-41868063D01*
X193252063Y-42012226D01*
X193138795Y-42181744D01*
X193060774Y-42370102D01*
X193021000Y-42570061D01*
X193021000Y-42773939D01*
X193060774Y-42973898D01*
X193138795Y-43162256D01*
X193252063Y-43331774D01*
X193396226Y-43475937D01*
X193565744Y-43589205D01*
X193754102Y-43667226D01*
X193954061Y-43707000D01*
X194119619Y-43707000D01*
X192596236Y-45230384D01*
X192571052Y-45251052D01*
X192550386Y-45276234D01*
X192488575Y-45351550D01*
X192453003Y-45418102D01*
X192427290Y-45466208D01*
X192389550Y-45590618D01*
X192380000Y-45687582D01*
X192380000Y-45687591D01*
X192376808Y-45720000D01*
X192380000Y-45752409D01*
X192380001Y-76167581D01*
X192376808Y-76200000D01*
X192380001Y-76232418D01*
X192380001Y-76232419D01*
X192389551Y-76329383D01*
X192394671Y-76346260D01*
X192427290Y-76453792D01*
X192488575Y-76568450D01*
X192550386Y-76643766D01*
X192550388Y-76643768D01*
X192571053Y-76668948D01*
X192596232Y-76689612D01*
X194172897Y-78266278D01*
X194040788Y-78240000D01*
X193817212Y-78240000D01*
X193597933Y-78283617D01*
X193391376Y-78369176D01*
X193205480Y-78493388D01*
X193047388Y-78651480D01*
X192923176Y-78837376D01*
X192837617Y-79043933D01*
X192794000Y-79263212D01*
X192794000Y-79486788D01*
X192837617Y-79706067D01*
X192923176Y-79912624D01*
X193047388Y-80098520D01*
X193205480Y-80256612D01*
X193216537Y-80264000D01*
X193205480Y-80271388D01*
X193047388Y-80429480D01*
X192923176Y-80615376D01*
X192837617Y-80821933D01*
X192794000Y-81041212D01*
X192794000Y-81264788D01*
X192837617Y-81484067D01*
X192923176Y-81690624D01*
X193047388Y-81876520D01*
X193205480Y-82034612D01*
X193391376Y-82158824D01*
X193597933Y-82244383D01*
X193817212Y-82288000D01*
X194040788Y-82288000D01*
X194260067Y-82244383D01*
X194466624Y-82158824D01*
X194652520Y-82034612D01*
X194810612Y-81876520D01*
X194920000Y-81712809D01*
X194920001Y-85057711D01*
X194905278Y-85207869D01*
X194871047Y-85321246D01*
X194815446Y-85425817D01*
X194740594Y-85517595D01*
X194649335Y-85593091D01*
X194545160Y-85649419D01*
X194432024Y-85684440D01*
X194283979Y-85700000D01*
X158952195Y-85700000D01*
X159032205Y-85580256D01*
X159110226Y-85391898D01*
X159150000Y-85191939D01*
X159150000Y-84988061D01*
X159110226Y-84788102D01*
X159032205Y-84599744D01*
X158918937Y-84430226D01*
X158774774Y-84286063D01*
X158605256Y-84172795D01*
X158416898Y-84094774D01*
X158216939Y-84055000D01*
X158013061Y-84055000D01*
X157813102Y-84094774D01*
X157624744Y-84172795D01*
X157455226Y-84286063D01*
X157311063Y-84430226D01*
X157197795Y-84599744D01*
X157119774Y-84788102D01*
X157080000Y-84988061D01*
X157080000Y-85191939D01*
X157119774Y-85391898D01*
X157197795Y-85580256D01*
X157277805Y-85700000D01*
X148622279Y-85700000D01*
X148472131Y-85685278D01*
X148358754Y-85651047D01*
X148254183Y-85595446D01*
X148162405Y-85520594D01*
X148086909Y-85429335D01*
X148030581Y-85325160D01*
X147995560Y-85212024D01*
X147980000Y-85063979D01*
X147980000Y-82970000D01*
X148371928Y-82970000D01*
X148371928Y-84670000D01*
X148384188Y-84794482D01*
X148420498Y-84914180D01*
X148479463Y-85024494D01*
X148558815Y-85121185D01*
X148655506Y-85200537D01*
X148765820Y-85259502D01*
X148885518Y-85295812D01*
X149010000Y-85308072D01*
X150710000Y-85308072D01*
X150834482Y-85295812D01*
X150954180Y-85259502D01*
X151064494Y-85200537D01*
X151161185Y-85121185D01*
X151240537Y-85024494D01*
X151299502Y-84914180D01*
X151335812Y-84794482D01*
X151348072Y-84670000D01*
X151348072Y-82970000D01*
X151335812Y-82845518D01*
X151299502Y-82725820D01*
X151240537Y-82615506D01*
X151161185Y-82518815D01*
X151064494Y-82439463D01*
X150954180Y-82380498D01*
X150834482Y-82344188D01*
X150710000Y-82331928D01*
X149010000Y-82331928D01*
X148885518Y-82344188D01*
X148765820Y-82380498D01*
X148655506Y-82439463D01*
X148558815Y-82518815D01*
X148479463Y-82615506D01*
X148420498Y-82725820D01*
X148384188Y-82845518D01*
X148371928Y-82970000D01*
X147980000Y-82970000D01*
X147980000Y-82021132D01*
X147993480Y-82034612D01*
X148179376Y-82158824D01*
X148385933Y-82244383D01*
X148605212Y-82288000D01*
X148828788Y-82288000D01*
X149048067Y-82244383D01*
X149254624Y-82158824D01*
X149440520Y-82034612D01*
X149598612Y-81876520D01*
X149606000Y-81865463D01*
X149613388Y-81876520D01*
X149771480Y-82034612D01*
X149957376Y-82158824D01*
X150163933Y-82244383D01*
X150383212Y-82288000D01*
X150606788Y-82288000D01*
X150826067Y-82244383D01*
X151032624Y-82158824D01*
X151218520Y-82034612D01*
X151376612Y-81876520D01*
X151500824Y-81690624D01*
X151586383Y-81484067D01*
X151630000Y-81264788D01*
X151630000Y-81041212D01*
X151586383Y-80821933D01*
X151500824Y-80615376D01*
X151376612Y-80429480D01*
X151218520Y-80271388D01*
X151032624Y-80147176D01*
X150826067Y-80061617D01*
X150606788Y-80018000D01*
X150383212Y-80018000D01*
X150163933Y-80061617D01*
X149957376Y-80147176D01*
X149771480Y-80271388D01*
X149613388Y-80429480D01*
X149606000Y-80440537D01*
X149598612Y-80429480D01*
X149440520Y-80271388D01*
X149254624Y-80147176D01*
X149048067Y-80061617D01*
X148828788Y-80018000D01*
X148605212Y-80018000D01*
X148385933Y-80061617D01*
X148179376Y-80147176D01*
X147993480Y-80271388D01*
X147980000Y-80284868D01*
X147980000Y-79013380D01*
X148063000Y-78930380D01*
X148063000Y-79095939D01*
X148102774Y-79295898D01*
X148180795Y-79484256D01*
X148294063Y-79653774D01*
X148438226Y-79797937D01*
X148607744Y-79911205D01*
X148796102Y-79989226D01*
X148996061Y-80029000D01*
X149199939Y-80029000D01*
X149399898Y-79989226D01*
X149588256Y-79911205D01*
X149757774Y-79797937D01*
X149901937Y-79653774D01*
X150015205Y-79484256D01*
X150093226Y-79295898D01*
X150133000Y-79095939D01*
X150133000Y-78892061D01*
X150093226Y-78692102D01*
X150015205Y-78503744D01*
X149901937Y-78334226D01*
X149757774Y-78190063D01*
X149588256Y-78076795D01*
X149399898Y-77998774D01*
X149199939Y-77959000D01*
X149034380Y-77959000D01*
X150303770Y-76689611D01*
X150328948Y-76668948D01*
X150349615Y-76643766D01*
X150411424Y-76568451D01*
X150411425Y-76568450D01*
X150472710Y-76453793D01*
X150510450Y-76329383D01*
X150520000Y-76232419D01*
X150520000Y-76232410D01*
X150523192Y-76200001D01*
X150520000Y-76167592D01*
X150520000Y-45752408D01*
X150523192Y-45719999D01*
X150520000Y-45687590D01*
X150520000Y-45687581D01*
X150510450Y-45590617D01*
X150472710Y-45466207D01*
X150411425Y-45351550D01*
X150358320Y-45286842D01*
X150349613Y-45276232D01*
X150349612Y-45276231D01*
X150328948Y-45251052D01*
X150303769Y-45230388D01*
X149943381Y-44870000D01*
X153451928Y-44870000D01*
X153451928Y-46570000D01*
X153464188Y-46694482D01*
X153500498Y-46814180D01*
X153559463Y-46924494D01*
X153638815Y-47021185D01*
X153735506Y-47100537D01*
X153845820Y-47159502D01*
X153918380Y-47181513D01*
X153786525Y-47313368D01*
X153624010Y-47556589D01*
X153512068Y-47826842D01*
X153455000Y-48113740D01*
X153455000Y-48406260D01*
X153512068Y-48693158D01*
X153624010Y-48963411D01*
X153786525Y-49206632D01*
X153993368Y-49413475D01*
X154167760Y-49530000D01*
X153993368Y-49646525D01*
X153786525Y-49853368D01*
X153624010Y-50096589D01*
X153512068Y-50366842D01*
X153455000Y-50653740D01*
X153455000Y-50946260D01*
X153512068Y-51233158D01*
X153624010Y-51503411D01*
X153786525Y-51746632D01*
X153993368Y-51953475D01*
X154167760Y-52070000D01*
X153993368Y-52186525D01*
X153786525Y-52393368D01*
X153624010Y-52636589D01*
X153512068Y-52906842D01*
X153455000Y-53193740D01*
X153455000Y-53486260D01*
X153512068Y-53773158D01*
X153624010Y-54043411D01*
X153786525Y-54286632D01*
X153993368Y-54493475D01*
X154167760Y-54610000D01*
X153993368Y-54726525D01*
X153786525Y-54933368D01*
X153624010Y-55176589D01*
X153512068Y-55446842D01*
X153455000Y-55733740D01*
X153455000Y-56026260D01*
X153512068Y-56313158D01*
X153624010Y-56583411D01*
X153786525Y-56826632D01*
X153993368Y-57033475D01*
X154167760Y-57150000D01*
X153993368Y-57266525D01*
X153786525Y-57473368D01*
X153624010Y-57716589D01*
X153512068Y-57986842D01*
X153455000Y-58273740D01*
X153455000Y-58566260D01*
X153512068Y-58853158D01*
X153624010Y-59123411D01*
X153786525Y-59366632D01*
X153993368Y-59573475D01*
X154167760Y-59690000D01*
X153993368Y-59806525D01*
X153786525Y-60013368D01*
X153624010Y-60256589D01*
X153512068Y-60526842D01*
X153455000Y-60813740D01*
X153455000Y-61106260D01*
X153512068Y-61393158D01*
X153624010Y-61663411D01*
X153786525Y-61906632D01*
X153993368Y-62113475D01*
X154167760Y-62230000D01*
X153993368Y-62346525D01*
X153786525Y-62553368D01*
X153624010Y-62796589D01*
X153512068Y-63066842D01*
X153455000Y-63353740D01*
X153455000Y-63646260D01*
X153512068Y-63933158D01*
X153624010Y-64203411D01*
X153786525Y-64446632D01*
X153993368Y-64653475D01*
X154167760Y-64770000D01*
X153993368Y-64886525D01*
X153786525Y-65093368D01*
X153624010Y-65336589D01*
X153512068Y-65606842D01*
X153455000Y-65893740D01*
X153455000Y-66186260D01*
X153512068Y-66473158D01*
X153624010Y-66743411D01*
X153786525Y-66986632D01*
X153993368Y-67193475D01*
X154167760Y-67310000D01*
X153993368Y-67426525D01*
X153786525Y-67633368D01*
X153624010Y-67876589D01*
X153512068Y-68146842D01*
X153455000Y-68433740D01*
X153455000Y-68726260D01*
X153512068Y-69013158D01*
X153624010Y-69283411D01*
X153786525Y-69526632D01*
X153993368Y-69733475D01*
X154167760Y-69850000D01*
X153993368Y-69966525D01*
X153786525Y-70173368D01*
X153624010Y-70416589D01*
X153512068Y-70686842D01*
X153455000Y-70973740D01*
X153455000Y-71266260D01*
X153512068Y-71553158D01*
X153624010Y-71823411D01*
X153786525Y-72066632D01*
X153993368Y-72273475D01*
X154167760Y-72390000D01*
X153993368Y-72506525D01*
X153786525Y-72713368D01*
X153624010Y-72956589D01*
X153512068Y-73226842D01*
X153455000Y-73513740D01*
X153455000Y-73806260D01*
X153512068Y-74093158D01*
X153624010Y-74363411D01*
X153786525Y-74606632D01*
X153993368Y-74813475D01*
X154167760Y-74930000D01*
X153993368Y-75046525D01*
X153786525Y-75253368D01*
X153624010Y-75496589D01*
X153512068Y-75766842D01*
X153455000Y-76053740D01*
X153455000Y-76346260D01*
X153512068Y-76633158D01*
X153624010Y-76903411D01*
X153786525Y-77146632D01*
X153993368Y-77353475D01*
X154167760Y-77470000D01*
X153993368Y-77586525D01*
X153786525Y-77793368D01*
X153624010Y-78036589D01*
X153512068Y-78306842D01*
X153455000Y-78593740D01*
X153455000Y-78886260D01*
X153512068Y-79173158D01*
X153624010Y-79443411D01*
X153786525Y-79686632D01*
X153993368Y-79893475D01*
X154167760Y-80010000D01*
X153993368Y-80126525D01*
X153786525Y-80333368D01*
X153624010Y-80576589D01*
X153512068Y-80846842D01*
X153455000Y-81133740D01*
X153455000Y-81426260D01*
X153512068Y-81713158D01*
X153624010Y-81983411D01*
X153786525Y-82226632D01*
X153993368Y-82433475D01*
X154167760Y-82550000D01*
X153993368Y-82666525D01*
X153786525Y-82873368D01*
X153624010Y-83116589D01*
X153512068Y-83386842D01*
X153455000Y-83673740D01*
X153455000Y-83966260D01*
X153512068Y-84253158D01*
X153624010Y-84523411D01*
X153786525Y-84766632D01*
X153993368Y-84973475D01*
X154236589Y-85135990D01*
X154506842Y-85247932D01*
X154793740Y-85305000D01*
X155086260Y-85305000D01*
X155373158Y-85247932D01*
X155643411Y-85135990D01*
X155886632Y-84973475D01*
X156093475Y-84766632D01*
X156255990Y-84523411D01*
X156367932Y-84253158D01*
X156425000Y-83966260D01*
X156425000Y-83962212D01*
X184031000Y-83962212D01*
X184031000Y-84185788D01*
X184074617Y-84405067D01*
X184160176Y-84611624D01*
X184284388Y-84797520D01*
X184442480Y-84955612D01*
X184628376Y-85079824D01*
X184834933Y-85165383D01*
X185054212Y-85209000D01*
X185277788Y-85209000D01*
X185497067Y-85165383D01*
X185703624Y-85079824D01*
X185889520Y-84955612D01*
X186047612Y-84797520D01*
X186171824Y-84611624D01*
X186257383Y-84405067D01*
X186301000Y-84185788D01*
X186301000Y-83962212D01*
X186257383Y-83742933D01*
X186171824Y-83536376D01*
X186047612Y-83350480D01*
X185889520Y-83192388D01*
X185703624Y-83068176D01*
X185497067Y-82982617D01*
X185277788Y-82939000D01*
X185054212Y-82939000D01*
X184834933Y-82982617D01*
X184628376Y-83068176D01*
X184442480Y-83192388D01*
X184284388Y-83350480D01*
X184160176Y-83536376D01*
X184074617Y-83742933D01*
X184031000Y-83962212D01*
X156425000Y-83962212D01*
X156425000Y-83673740D01*
X156367932Y-83386842D01*
X156255990Y-83116589D01*
X156093475Y-82873368D01*
X155886632Y-82666525D01*
X155712240Y-82550000D01*
X155886632Y-82433475D01*
X156093475Y-82226632D01*
X156255990Y-81983411D01*
X156367932Y-81713158D01*
X156425000Y-81426260D01*
X156425000Y-81133740D01*
X156367932Y-80846842D01*
X156255990Y-80576589D01*
X156158043Y-80430000D01*
X158531928Y-80430000D01*
X158531928Y-82130000D01*
X158544188Y-82254482D01*
X158580498Y-82374180D01*
X158639463Y-82484494D01*
X158718815Y-82581185D01*
X158815506Y-82660537D01*
X158925820Y-82719502D01*
X159045518Y-82755812D01*
X159170000Y-82768072D01*
X160870000Y-82768072D01*
X160994482Y-82755812D01*
X161114180Y-82719502D01*
X161224494Y-82660537D01*
X161321185Y-82581185D01*
X161400537Y-82484494D01*
X161459502Y-82374180D01*
X161481513Y-82301620D01*
X161613368Y-82433475D01*
X161856589Y-82595990D01*
X162126842Y-82707932D01*
X162413740Y-82765000D01*
X162706260Y-82765000D01*
X162993158Y-82707932D01*
X163263411Y-82595990D01*
X163506632Y-82433475D01*
X163713475Y-82226632D01*
X163830000Y-82052240D01*
X163946525Y-82226632D01*
X164153368Y-82433475D01*
X164396589Y-82595990D01*
X164666842Y-82707932D01*
X164953740Y-82765000D01*
X165246260Y-82765000D01*
X165533158Y-82707932D01*
X165803411Y-82595990D01*
X166046632Y-82433475D01*
X166253475Y-82226632D01*
X166370000Y-82052240D01*
X166486525Y-82226632D01*
X166693368Y-82433475D01*
X166936589Y-82595990D01*
X167206842Y-82707932D01*
X167493740Y-82765000D01*
X167786260Y-82765000D01*
X168073158Y-82707932D01*
X168343411Y-82595990D01*
X168586632Y-82433475D01*
X168793475Y-82226632D01*
X168910000Y-82052240D01*
X169026525Y-82226632D01*
X169233368Y-82433475D01*
X169476589Y-82595990D01*
X169746842Y-82707932D01*
X170033740Y-82765000D01*
X170326260Y-82765000D01*
X170613158Y-82707932D01*
X170883411Y-82595990D01*
X171126632Y-82433475D01*
X171333475Y-82226632D01*
X171450000Y-82052240D01*
X171566525Y-82226632D01*
X171773368Y-82433475D01*
X172016589Y-82595990D01*
X172286842Y-82707932D01*
X172573740Y-82765000D01*
X172866260Y-82765000D01*
X173153158Y-82707932D01*
X173423411Y-82595990D01*
X173666632Y-82433475D01*
X173873475Y-82226632D01*
X173990000Y-82052240D01*
X174106525Y-82226632D01*
X174313368Y-82433475D01*
X174556589Y-82595990D01*
X174826842Y-82707932D01*
X175113740Y-82765000D01*
X175406260Y-82765000D01*
X175693158Y-82707932D01*
X175963411Y-82595990D01*
X176206632Y-82433475D01*
X176413475Y-82226632D01*
X176530000Y-82052240D01*
X176646525Y-82226632D01*
X176853368Y-82433475D01*
X177096589Y-82595990D01*
X177366842Y-82707932D01*
X177653740Y-82765000D01*
X177946260Y-82765000D01*
X178233158Y-82707932D01*
X178503411Y-82595990D01*
X178746632Y-82433475D01*
X178953475Y-82226632D01*
X179070000Y-82052240D01*
X179186525Y-82226632D01*
X179393368Y-82433475D01*
X179636589Y-82595990D01*
X179906842Y-82707932D01*
X180193740Y-82765000D01*
X180486260Y-82765000D01*
X180773158Y-82707932D01*
X181043411Y-82595990D01*
X181286632Y-82433475D01*
X181493475Y-82226632D01*
X181610000Y-82052240D01*
X181726525Y-82226632D01*
X181933368Y-82433475D01*
X182176589Y-82595990D01*
X182446842Y-82707932D01*
X182733740Y-82765000D01*
X183026260Y-82765000D01*
X183313158Y-82707932D01*
X183583411Y-82595990D01*
X183826632Y-82433475D01*
X184033475Y-82226632D01*
X184195990Y-81983411D01*
X184307932Y-81713158D01*
X184365000Y-81426260D01*
X184365000Y-81133740D01*
X184307932Y-80846842D01*
X184195990Y-80576589D01*
X184033475Y-80333368D01*
X183826632Y-80126525D01*
X183583411Y-79964010D01*
X183313158Y-79852068D01*
X183026260Y-79795000D01*
X182733740Y-79795000D01*
X182446842Y-79852068D01*
X182176589Y-79964010D01*
X181933368Y-80126525D01*
X181726525Y-80333368D01*
X181610000Y-80507760D01*
X181493475Y-80333368D01*
X181286632Y-80126525D01*
X181043411Y-79964010D01*
X180773158Y-79852068D01*
X180486260Y-79795000D01*
X180193740Y-79795000D01*
X179906842Y-79852068D01*
X179636589Y-79964010D01*
X179393368Y-80126525D01*
X179186525Y-80333368D01*
X179070000Y-80507760D01*
X178953475Y-80333368D01*
X178746632Y-80126525D01*
X178503411Y-79964010D01*
X178233158Y-79852068D01*
X177946260Y-79795000D01*
X177653740Y-79795000D01*
X177366842Y-79852068D01*
X177096589Y-79964010D01*
X176853368Y-80126525D01*
X176646525Y-80333368D01*
X176530000Y-80507760D01*
X176413475Y-80333368D01*
X176206632Y-80126525D01*
X175963411Y-79964010D01*
X175693158Y-79852068D01*
X175406260Y-79795000D01*
X175113740Y-79795000D01*
X174826842Y-79852068D01*
X174556589Y-79964010D01*
X174313368Y-80126525D01*
X174106525Y-80333368D01*
X173990000Y-80507760D01*
X173873475Y-80333368D01*
X173666632Y-80126525D01*
X173423411Y-79964010D01*
X173153158Y-79852068D01*
X173050118Y-79831572D01*
X173051067Y-79831383D01*
X173257624Y-79745824D01*
X173443520Y-79621612D01*
X173601612Y-79463520D01*
X173725824Y-79277624D01*
X173811383Y-79071067D01*
X173855000Y-78851788D01*
X173855000Y-78628212D01*
X173811383Y-78408933D01*
X173725824Y-78202376D01*
X173601612Y-78016480D01*
X173443520Y-77858388D01*
X173257624Y-77734176D01*
X173051067Y-77648617D01*
X172831788Y-77605000D01*
X172608212Y-77605000D01*
X172388933Y-77648617D01*
X172182376Y-77734176D01*
X171996480Y-77858388D01*
X171838388Y-78016480D01*
X171714176Y-78202376D01*
X171628617Y-78408933D01*
X171585000Y-78628212D01*
X171585000Y-78851788D01*
X171628617Y-79071067D01*
X171714176Y-79277624D01*
X171838388Y-79463520D01*
X171996480Y-79621612D01*
X172182376Y-79745824D01*
X172388933Y-79831383D01*
X172389882Y-79831572D01*
X172286842Y-79852068D01*
X172016589Y-79964010D01*
X171773368Y-80126525D01*
X171566525Y-80333368D01*
X171450000Y-80507760D01*
X171333475Y-80333368D01*
X171126632Y-80126525D01*
X170883411Y-79964010D01*
X170613158Y-79852068D01*
X170326260Y-79795000D01*
X170033740Y-79795000D01*
X169746842Y-79852068D01*
X169476589Y-79964010D01*
X169233368Y-80126525D01*
X169026525Y-80333368D01*
X168910000Y-80507760D01*
X168793475Y-80333368D01*
X168586632Y-80126525D01*
X168343411Y-79964010D01*
X168073158Y-79852068D01*
X167786260Y-79795000D01*
X167493740Y-79795000D01*
X167206842Y-79852068D01*
X166936589Y-79964010D01*
X166693368Y-80126525D01*
X166486525Y-80333368D01*
X166370000Y-80507760D01*
X166253475Y-80333368D01*
X166046632Y-80126525D01*
X165803411Y-79964010D01*
X165533158Y-79852068D01*
X165246260Y-79795000D01*
X164953740Y-79795000D01*
X164666842Y-79852068D01*
X164396589Y-79964010D01*
X164153368Y-80126525D01*
X163946525Y-80333368D01*
X163830000Y-80507760D01*
X163713475Y-80333368D01*
X163506632Y-80126525D01*
X163263411Y-79964010D01*
X162993158Y-79852068D01*
X162706260Y-79795000D01*
X162413740Y-79795000D01*
X162126842Y-79852068D01*
X161856589Y-79964010D01*
X161613368Y-80126525D01*
X161481513Y-80258380D01*
X161459502Y-80185820D01*
X161400537Y-80075506D01*
X161321185Y-79978815D01*
X161224494Y-79899463D01*
X161114180Y-79840498D01*
X160994482Y-79804188D01*
X160870000Y-79791928D01*
X159170000Y-79791928D01*
X159045518Y-79804188D01*
X158925820Y-79840498D01*
X158815506Y-79899463D01*
X158718815Y-79978815D01*
X158639463Y-80075506D01*
X158580498Y-80185820D01*
X158544188Y-80305518D01*
X158531928Y-80430000D01*
X156158043Y-80430000D01*
X156093475Y-80333368D01*
X155886632Y-80126525D01*
X155712240Y-80010000D01*
X155886632Y-79893475D01*
X156093475Y-79686632D01*
X156255990Y-79443411D01*
X156367932Y-79173158D01*
X156425000Y-78886260D01*
X156425000Y-78638061D01*
X158985000Y-78638061D01*
X158985000Y-78841939D01*
X159024774Y-79041898D01*
X159102795Y-79230256D01*
X159216063Y-79399774D01*
X159360226Y-79543937D01*
X159529744Y-79657205D01*
X159718102Y-79735226D01*
X159918061Y-79775000D01*
X160121939Y-79775000D01*
X160321898Y-79735226D01*
X160510256Y-79657205D01*
X160679774Y-79543937D01*
X160823937Y-79399774D01*
X160937205Y-79230256D01*
X161015226Y-79041898D01*
X161055000Y-78841939D01*
X161055000Y-78638061D01*
X161015226Y-78438102D01*
X160937205Y-78249744D01*
X160823937Y-78080226D01*
X160679774Y-77936063D01*
X160510256Y-77822795D01*
X160321898Y-77744774D01*
X160121939Y-77705000D01*
X159918061Y-77705000D01*
X159718102Y-77744774D01*
X159529744Y-77822795D01*
X159360226Y-77936063D01*
X159216063Y-78080226D01*
X159102795Y-78249744D01*
X159024774Y-78438102D01*
X158985000Y-78638061D01*
X156425000Y-78638061D01*
X156425000Y-78593740D01*
X156367932Y-78306842D01*
X156255990Y-78036589D01*
X156093475Y-77793368D01*
X155886632Y-77586525D01*
X155712240Y-77470000D01*
X155864802Y-77368061D01*
X178162000Y-77368061D01*
X178162000Y-77571939D01*
X178201774Y-77771898D01*
X178279795Y-77960256D01*
X178393063Y-78129774D01*
X178537226Y-78273937D01*
X178706744Y-78387205D01*
X178895102Y-78465226D01*
X179095061Y-78505000D01*
X179298939Y-78505000D01*
X179498898Y-78465226D01*
X179687256Y-78387205D01*
X179856774Y-78273937D01*
X180000937Y-78129774D01*
X180114205Y-77960256D01*
X180192226Y-77771898D01*
X180232000Y-77571939D01*
X180232000Y-77368061D01*
X180198961Y-77201961D01*
X180365061Y-77235000D01*
X180568939Y-77235000D01*
X180768898Y-77195226D01*
X180957256Y-77117205D01*
X181126774Y-77003937D01*
X181270937Y-76859774D01*
X181384205Y-76690256D01*
X181462226Y-76501898D01*
X181502000Y-76301939D01*
X181502000Y-76098061D01*
X181462226Y-75898102D01*
X181384205Y-75709744D01*
X181270937Y-75540226D01*
X181126774Y-75396063D01*
X180957256Y-75282795D01*
X180768898Y-75204774D01*
X180568939Y-75165000D01*
X180365061Y-75165000D01*
X180165102Y-75204774D01*
X179976744Y-75282795D01*
X179807226Y-75396063D01*
X179663063Y-75540226D01*
X179549795Y-75709744D01*
X179471774Y-75898102D01*
X179432000Y-76098061D01*
X179432000Y-76301939D01*
X179465039Y-76468039D01*
X179298939Y-76435000D01*
X179095061Y-76435000D01*
X178895102Y-76474774D01*
X178706744Y-76552795D01*
X178537226Y-76666063D01*
X178393063Y-76810226D01*
X178279795Y-76979744D01*
X178201774Y-77168102D01*
X178162000Y-77368061D01*
X155864802Y-77368061D01*
X155886632Y-77353475D01*
X156093475Y-77146632D01*
X156255990Y-76903411D01*
X156367932Y-76633158D01*
X156425000Y-76346260D01*
X156425000Y-76098061D01*
X161525000Y-76098061D01*
X161525000Y-76301939D01*
X161564774Y-76501898D01*
X161642795Y-76690256D01*
X161756063Y-76859774D01*
X161900226Y-77003937D01*
X162069744Y-77117205D01*
X162258102Y-77195226D01*
X162458061Y-77235000D01*
X162661939Y-77235000D01*
X162861898Y-77195226D01*
X163050256Y-77117205D01*
X163219774Y-77003937D01*
X163363937Y-76859774D01*
X163477205Y-76690256D01*
X163555226Y-76501898D01*
X163595000Y-76301939D01*
X163595000Y-76098061D01*
X163555226Y-75898102D01*
X163477205Y-75709744D01*
X163363937Y-75540226D01*
X163219774Y-75396063D01*
X163050256Y-75282795D01*
X162861898Y-75204774D01*
X162661939Y-75165000D01*
X162458061Y-75165000D01*
X162258102Y-75204774D01*
X162069744Y-75282795D01*
X161900226Y-75396063D01*
X161756063Y-75540226D01*
X161642795Y-75709744D01*
X161564774Y-75898102D01*
X161525000Y-76098061D01*
X156425000Y-76098061D01*
X156425000Y-76053740D01*
X156367932Y-75766842D01*
X156255990Y-75496589D01*
X156093475Y-75253368D01*
X155886632Y-75046525D01*
X155712240Y-74930000D01*
X155886632Y-74813475D01*
X156093475Y-74606632D01*
X156255990Y-74363411D01*
X156273946Y-74320061D01*
X156953000Y-74320061D01*
X156953000Y-74523939D01*
X156992774Y-74723898D01*
X157070795Y-74912256D01*
X157184063Y-75081774D01*
X157328226Y-75225937D01*
X157497744Y-75339205D01*
X157686102Y-75417226D01*
X157886061Y-75457000D01*
X158089939Y-75457000D01*
X158289898Y-75417226D01*
X158478256Y-75339205D01*
X158647774Y-75225937D01*
X158791937Y-75081774D01*
X158905205Y-74912256D01*
X158940079Y-74828061D01*
X181845000Y-74828061D01*
X181845000Y-75031939D01*
X181884774Y-75231898D01*
X181962795Y-75420256D01*
X182076063Y-75589774D01*
X182220226Y-75733937D01*
X182389744Y-75847205D01*
X182578102Y-75925226D01*
X182778061Y-75965000D01*
X182981939Y-75965000D01*
X183181898Y-75925226D01*
X183370256Y-75847205D01*
X183539774Y-75733937D01*
X183683937Y-75589774D01*
X183797205Y-75420256D01*
X183875226Y-75231898D01*
X183915000Y-75031939D01*
X183915000Y-74828061D01*
X183875226Y-74628102D01*
X183797205Y-74439744D01*
X183683937Y-74270226D01*
X183539774Y-74126063D01*
X183370256Y-74012795D01*
X183181898Y-73934774D01*
X182981939Y-73895000D01*
X182778061Y-73895000D01*
X182578102Y-73934774D01*
X182389744Y-74012795D01*
X182220226Y-74126063D01*
X182076063Y-74270226D01*
X181962795Y-74439744D01*
X181884774Y-74628102D01*
X181845000Y-74828061D01*
X158940079Y-74828061D01*
X158983226Y-74723898D01*
X159023000Y-74523939D01*
X159023000Y-74320061D01*
X158983226Y-74120102D01*
X158905205Y-73931744D01*
X158791937Y-73762226D01*
X158647774Y-73618063D01*
X158478256Y-73504795D01*
X158289898Y-73426774D01*
X158089939Y-73387000D01*
X157886061Y-73387000D01*
X157686102Y-73426774D01*
X157497744Y-73504795D01*
X157328226Y-73618063D01*
X157184063Y-73762226D01*
X157070795Y-73931744D01*
X156992774Y-74120102D01*
X156953000Y-74320061D01*
X156273946Y-74320061D01*
X156367932Y-74093158D01*
X156425000Y-73806260D01*
X156425000Y-73513740D01*
X156367932Y-73226842D01*
X156255990Y-72956589D01*
X156093475Y-72713368D01*
X155886632Y-72506525D01*
X155712240Y-72390000D01*
X155864802Y-72288061D01*
X161525000Y-72288061D01*
X161525000Y-72491939D01*
X161564774Y-72691898D01*
X161642795Y-72880256D01*
X161756063Y-73049774D01*
X161900226Y-73193937D01*
X162069744Y-73307205D01*
X162258102Y-73385226D01*
X162458061Y-73425000D01*
X162661939Y-73425000D01*
X162861898Y-73385226D01*
X163050256Y-73307205D01*
X163219774Y-73193937D01*
X163363937Y-73049774D01*
X163477205Y-72880256D01*
X163555226Y-72691898D01*
X163595000Y-72491939D01*
X163595000Y-72288061D01*
X165335000Y-72288061D01*
X165335000Y-72491939D01*
X165374774Y-72691898D01*
X165452795Y-72880256D01*
X165566063Y-73049774D01*
X165710226Y-73193937D01*
X165879744Y-73307205D01*
X166068102Y-73385226D01*
X166268061Y-73425000D01*
X166471939Y-73425000D01*
X166671898Y-73385226D01*
X166860256Y-73307205D01*
X167029774Y-73193937D01*
X167173937Y-73049774D01*
X167287205Y-72880256D01*
X167365226Y-72691898D01*
X167405000Y-72491939D01*
X167405000Y-72288061D01*
X172955000Y-72288061D01*
X172955000Y-72491939D01*
X172994774Y-72691898D01*
X173072795Y-72880256D01*
X173186063Y-73049774D01*
X173330226Y-73193937D01*
X173499744Y-73307205D01*
X173688102Y-73385226D01*
X173888061Y-73425000D01*
X174091939Y-73425000D01*
X174291898Y-73385226D01*
X174480256Y-73307205D01*
X174649774Y-73193937D01*
X174793937Y-73049774D01*
X174907205Y-72880256D01*
X174985226Y-72691898D01*
X174989768Y-72669061D01*
X183877000Y-72669061D01*
X183877000Y-72872939D01*
X183916774Y-73072898D01*
X183994795Y-73261256D01*
X184108063Y-73430774D01*
X184252226Y-73574937D01*
X184421744Y-73688205D01*
X184610102Y-73766226D01*
X184810061Y-73806000D01*
X185013939Y-73806000D01*
X185213898Y-73766226D01*
X185402256Y-73688205D01*
X185571774Y-73574937D01*
X185715937Y-73430774D01*
X185829205Y-73261256D01*
X185907226Y-73072898D01*
X185947000Y-72872939D01*
X185947000Y-72669061D01*
X185907226Y-72469102D01*
X185829205Y-72280744D01*
X185715937Y-72111226D01*
X185574711Y-71970000D01*
X186471928Y-71970000D01*
X186484188Y-72094482D01*
X186520498Y-72214180D01*
X186579463Y-72324494D01*
X186658815Y-72421185D01*
X186755506Y-72500537D01*
X186865820Y-72559502D01*
X186938380Y-72581513D01*
X186806525Y-72713368D01*
X186644010Y-72956589D01*
X186532068Y-73226842D01*
X186475000Y-73513740D01*
X186475000Y-73806260D01*
X186532068Y-74093158D01*
X186644010Y-74363411D01*
X186806525Y-74606632D01*
X187013368Y-74813475D01*
X187187760Y-74930000D01*
X187013368Y-75046525D01*
X186806525Y-75253368D01*
X186644010Y-75496589D01*
X186532068Y-75766842D01*
X186475000Y-76053740D01*
X186475000Y-76346260D01*
X186532068Y-76633158D01*
X186644010Y-76903411D01*
X186806525Y-77146632D01*
X187013368Y-77353475D01*
X187187760Y-77470000D01*
X187013368Y-77586525D01*
X186806525Y-77793368D01*
X186644010Y-78036589D01*
X186532068Y-78306842D01*
X186475000Y-78593740D01*
X186475000Y-78886260D01*
X186532068Y-79173158D01*
X186644010Y-79443411D01*
X186806525Y-79686632D01*
X187013368Y-79893475D01*
X187187760Y-80010000D01*
X187013368Y-80126525D01*
X186806525Y-80333368D01*
X186644010Y-80576589D01*
X186532068Y-80846842D01*
X186475000Y-81133740D01*
X186475000Y-81426260D01*
X186532068Y-81713158D01*
X186644010Y-81983411D01*
X186806525Y-82226632D01*
X187013368Y-82433475D01*
X187187760Y-82550000D01*
X187013368Y-82666525D01*
X186806525Y-82873368D01*
X186644010Y-83116589D01*
X186532068Y-83386842D01*
X186475000Y-83673740D01*
X186475000Y-83966260D01*
X186532068Y-84253158D01*
X186644010Y-84523411D01*
X186806525Y-84766632D01*
X187013368Y-84973475D01*
X187256589Y-85135990D01*
X187526842Y-85247932D01*
X187813740Y-85305000D01*
X188106260Y-85305000D01*
X188393158Y-85247932D01*
X188663411Y-85135990D01*
X188906632Y-84973475D01*
X189113475Y-84766632D01*
X189275990Y-84523411D01*
X189387932Y-84253158D01*
X189445000Y-83966260D01*
X189445000Y-83673740D01*
X189387932Y-83386842D01*
X189275990Y-83116589D01*
X189178043Y-82970000D01*
X191551928Y-82970000D01*
X191551928Y-84670000D01*
X191564188Y-84794482D01*
X191600498Y-84914180D01*
X191659463Y-85024494D01*
X191738815Y-85121185D01*
X191835506Y-85200537D01*
X191945820Y-85259502D01*
X192065518Y-85295812D01*
X192190000Y-85308072D01*
X193890000Y-85308072D01*
X194014482Y-85295812D01*
X194134180Y-85259502D01*
X194244494Y-85200537D01*
X194341185Y-85121185D01*
X194420537Y-85024494D01*
X194479502Y-84914180D01*
X194515812Y-84794482D01*
X194528072Y-84670000D01*
X194528072Y-82970000D01*
X194515812Y-82845518D01*
X194479502Y-82725820D01*
X194420537Y-82615506D01*
X194341185Y-82518815D01*
X194244494Y-82439463D01*
X194134180Y-82380498D01*
X194014482Y-82344188D01*
X193890000Y-82331928D01*
X192190000Y-82331928D01*
X192065518Y-82344188D01*
X191945820Y-82380498D01*
X191835506Y-82439463D01*
X191738815Y-82518815D01*
X191659463Y-82615506D01*
X191600498Y-82725820D01*
X191564188Y-82845518D01*
X191551928Y-82970000D01*
X189178043Y-82970000D01*
X189113475Y-82873368D01*
X188906632Y-82666525D01*
X188732240Y-82550000D01*
X188906632Y-82433475D01*
X189113475Y-82226632D01*
X189275990Y-81983411D01*
X189387932Y-81713158D01*
X189445000Y-81426260D01*
X189445000Y-81133740D01*
X189387932Y-80846842D01*
X189275990Y-80576589D01*
X189113475Y-80333368D01*
X188906632Y-80126525D01*
X188732240Y-80010000D01*
X188906632Y-79893475D01*
X189113475Y-79686632D01*
X189275990Y-79443411D01*
X189387932Y-79173158D01*
X189445000Y-78886260D01*
X189445000Y-78593740D01*
X189387932Y-78306842D01*
X189275990Y-78036589D01*
X189113475Y-77793368D01*
X188906632Y-77586525D01*
X188732240Y-77470000D01*
X188906632Y-77353475D01*
X189113475Y-77146632D01*
X189275990Y-76903411D01*
X189387932Y-76633158D01*
X189445000Y-76346260D01*
X189445000Y-76053740D01*
X189387932Y-75766842D01*
X189275990Y-75496589D01*
X189113475Y-75253368D01*
X188906632Y-75046525D01*
X188732240Y-74930000D01*
X188906632Y-74813475D01*
X189113475Y-74606632D01*
X189275990Y-74363411D01*
X189387932Y-74093158D01*
X189445000Y-73806260D01*
X189445000Y-73513740D01*
X189387932Y-73226842D01*
X189275990Y-72956589D01*
X189113475Y-72713368D01*
X188981620Y-72581513D01*
X189054180Y-72559502D01*
X189164494Y-72500537D01*
X189261185Y-72421185D01*
X189340537Y-72324494D01*
X189399502Y-72214180D01*
X189435812Y-72094482D01*
X189448072Y-71970000D01*
X189445000Y-71405750D01*
X189286250Y-71247000D01*
X188087000Y-71247000D01*
X188087000Y-71267000D01*
X187833000Y-71267000D01*
X187833000Y-71247000D01*
X186633750Y-71247000D01*
X186475000Y-71405750D01*
X186471928Y-71970000D01*
X185574711Y-71970000D01*
X185571774Y-71967063D01*
X185402256Y-71853795D01*
X185213898Y-71775774D01*
X185013939Y-71736000D01*
X184810061Y-71736000D01*
X184610102Y-71775774D01*
X184421744Y-71853795D01*
X184252226Y-71967063D01*
X184108063Y-72111226D01*
X183994795Y-72280744D01*
X183916774Y-72469102D01*
X183877000Y-72669061D01*
X174989768Y-72669061D01*
X175025000Y-72491939D01*
X175025000Y-72288061D01*
X174985226Y-72088102D01*
X174907205Y-71899744D01*
X174793937Y-71730226D01*
X174649774Y-71586063D01*
X174480256Y-71472795D01*
X174291898Y-71394774D01*
X174091939Y-71355000D01*
X173888061Y-71355000D01*
X173688102Y-71394774D01*
X173499744Y-71472795D01*
X173330226Y-71586063D01*
X173186063Y-71730226D01*
X173072795Y-71899744D01*
X172994774Y-72088102D01*
X172955000Y-72288061D01*
X167405000Y-72288061D01*
X167365226Y-72088102D01*
X167287205Y-71899744D01*
X167173937Y-71730226D01*
X167029774Y-71586063D01*
X166860256Y-71472795D01*
X166671898Y-71394774D01*
X166471939Y-71355000D01*
X166268061Y-71355000D01*
X166068102Y-71394774D01*
X165879744Y-71472795D01*
X165710226Y-71586063D01*
X165566063Y-71730226D01*
X165452795Y-71899744D01*
X165374774Y-72088102D01*
X165335000Y-72288061D01*
X163595000Y-72288061D01*
X163555226Y-72088102D01*
X163477205Y-71899744D01*
X163363937Y-71730226D01*
X163219774Y-71586063D01*
X163050256Y-71472795D01*
X162861898Y-71394774D01*
X162661939Y-71355000D01*
X162458061Y-71355000D01*
X162258102Y-71394774D01*
X162069744Y-71472795D01*
X161900226Y-71586063D01*
X161756063Y-71730226D01*
X161642795Y-71899744D01*
X161564774Y-72088102D01*
X161525000Y-72288061D01*
X155864802Y-72288061D01*
X155886632Y-72273475D01*
X156093475Y-72066632D01*
X156255990Y-71823411D01*
X156367932Y-71553158D01*
X156425000Y-71266260D01*
X156425000Y-70973740D01*
X156367932Y-70686842D01*
X156255990Y-70416589D01*
X156093475Y-70173368D01*
X155886632Y-69966525D01*
X155712240Y-69850000D01*
X155886632Y-69733475D01*
X156093475Y-69526632D01*
X156255990Y-69283411D01*
X156367932Y-69013158D01*
X156425000Y-68726260D01*
X156425000Y-68478061D01*
X161525000Y-68478061D01*
X161525000Y-68681939D01*
X161564774Y-68881898D01*
X161642795Y-69070256D01*
X161756063Y-69239774D01*
X161900226Y-69383937D01*
X162069744Y-69497205D01*
X162258102Y-69575226D01*
X162458061Y-69615000D01*
X162661939Y-69615000D01*
X162861898Y-69575226D01*
X163050256Y-69497205D01*
X163219774Y-69383937D01*
X163363937Y-69239774D01*
X163477205Y-69070256D01*
X163555226Y-68881898D01*
X163595000Y-68681939D01*
X163595000Y-68478061D01*
X165335000Y-68478061D01*
X165335000Y-68681939D01*
X165374774Y-68881898D01*
X165452795Y-69070256D01*
X165566063Y-69239774D01*
X165710226Y-69383937D01*
X165879744Y-69497205D01*
X166068102Y-69575226D01*
X166268061Y-69615000D01*
X166471939Y-69615000D01*
X166671898Y-69575226D01*
X166860256Y-69497205D01*
X167029774Y-69383937D01*
X167046650Y-69367061D01*
X177019000Y-69367061D01*
X177019000Y-69570939D01*
X177058774Y-69770898D01*
X177136795Y-69959256D01*
X177250063Y-70128774D01*
X177394226Y-70272937D01*
X177563744Y-70386205D01*
X177752102Y-70464226D01*
X177952061Y-70504000D01*
X178155939Y-70504000D01*
X178249211Y-70485447D01*
X178152795Y-70629744D01*
X178074774Y-70818102D01*
X178035000Y-71018061D01*
X178035000Y-71221939D01*
X178074774Y-71421898D01*
X178152795Y-71610256D01*
X178266063Y-71779774D01*
X178410226Y-71923937D01*
X178579744Y-72037205D01*
X178768102Y-72115226D01*
X178968061Y-72155000D01*
X179171939Y-72155000D01*
X179371898Y-72115226D01*
X179560256Y-72037205D01*
X179729774Y-71923937D01*
X179873937Y-71779774D01*
X179987205Y-71610256D01*
X180065226Y-71421898D01*
X180105000Y-71221939D01*
X180105000Y-71018061D01*
X180065226Y-70818102D01*
X179987205Y-70629744D01*
X179907236Y-70510061D01*
X181718000Y-70510061D01*
X181718000Y-70713939D01*
X181757774Y-70913898D01*
X181835795Y-71102256D01*
X181949063Y-71271774D01*
X182093226Y-71415937D01*
X182262744Y-71529205D01*
X182451102Y-71607226D01*
X182651061Y-71647000D01*
X182854939Y-71647000D01*
X183054898Y-71607226D01*
X183243256Y-71529205D01*
X183412774Y-71415937D01*
X183556937Y-71271774D01*
X183670205Y-71102256D01*
X183748226Y-70913898D01*
X183788000Y-70713939D01*
X183788000Y-70510061D01*
X183748226Y-70310102D01*
X183731616Y-70270000D01*
X186471928Y-70270000D01*
X186475000Y-70834250D01*
X186633750Y-70993000D01*
X187833000Y-70993000D01*
X187833000Y-69793750D01*
X188087000Y-69793750D01*
X188087000Y-70993000D01*
X189286250Y-70993000D01*
X189445000Y-70834250D01*
X189448072Y-70270000D01*
X189435812Y-70145518D01*
X189399502Y-70025820D01*
X189340537Y-69915506D01*
X189261185Y-69818815D01*
X189164494Y-69739463D01*
X189054180Y-69680498D01*
X188934482Y-69644188D01*
X188810000Y-69631928D01*
X188245750Y-69635000D01*
X188087000Y-69793750D01*
X187833000Y-69793750D01*
X187674250Y-69635000D01*
X187110000Y-69631928D01*
X186985518Y-69644188D01*
X186865820Y-69680498D01*
X186755506Y-69739463D01*
X186658815Y-69818815D01*
X186579463Y-69915506D01*
X186520498Y-70025820D01*
X186484188Y-70145518D01*
X186471928Y-70270000D01*
X183731616Y-70270000D01*
X183670205Y-70121744D01*
X183556937Y-69952226D01*
X183412774Y-69808063D01*
X183243256Y-69694795D01*
X183054898Y-69616774D01*
X182854939Y-69577000D01*
X182651061Y-69577000D01*
X182451102Y-69616774D01*
X182262744Y-69694795D01*
X182093226Y-69808063D01*
X181949063Y-69952226D01*
X181835795Y-70121744D01*
X181757774Y-70310102D01*
X181718000Y-70510061D01*
X179907236Y-70510061D01*
X179873937Y-70460226D01*
X179729774Y-70316063D01*
X179560256Y-70202795D01*
X179371898Y-70124774D01*
X179171939Y-70085000D01*
X178968061Y-70085000D01*
X178874789Y-70103553D01*
X178971205Y-69959256D01*
X179049226Y-69770898D01*
X179089000Y-69570939D01*
X179089000Y-69367061D01*
X179049226Y-69167102D01*
X178971205Y-68978744D01*
X178857937Y-68809226D01*
X178713774Y-68665063D01*
X178544256Y-68551795D01*
X178366248Y-68478061D01*
X190100000Y-68478061D01*
X190100000Y-68681939D01*
X190139774Y-68881898D01*
X190217795Y-69070256D01*
X190331063Y-69239774D01*
X190475226Y-69383937D01*
X190644744Y-69497205D01*
X190833102Y-69575226D01*
X191033061Y-69615000D01*
X191236939Y-69615000D01*
X191436898Y-69575226D01*
X191625256Y-69497205D01*
X191794774Y-69383937D01*
X191938937Y-69239774D01*
X192052205Y-69070256D01*
X192130226Y-68881898D01*
X192170000Y-68681939D01*
X192170000Y-68478061D01*
X192130226Y-68278102D01*
X192052205Y-68089744D01*
X191938937Y-67920226D01*
X191794774Y-67776063D01*
X191625256Y-67662795D01*
X191436898Y-67584774D01*
X191236939Y-67545000D01*
X191033061Y-67545000D01*
X190833102Y-67584774D01*
X190644744Y-67662795D01*
X190475226Y-67776063D01*
X190331063Y-67920226D01*
X190217795Y-68089744D01*
X190139774Y-68278102D01*
X190100000Y-68478061D01*
X178366248Y-68478061D01*
X178355898Y-68473774D01*
X178155939Y-68434000D01*
X177952061Y-68434000D01*
X177752102Y-68473774D01*
X177563744Y-68551795D01*
X177394226Y-68665063D01*
X177250063Y-68809226D01*
X177136795Y-68978744D01*
X177058774Y-69167102D01*
X177019000Y-69367061D01*
X167046650Y-69367061D01*
X167173937Y-69239774D01*
X167287205Y-69070256D01*
X167365226Y-68881898D01*
X167405000Y-68681939D01*
X167405000Y-68478061D01*
X167365226Y-68278102D01*
X167287205Y-68089744D01*
X167173937Y-67920226D01*
X167029774Y-67776063D01*
X166939975Y-67716061D01*
X173717000Y-67716061D01*
X173717000Y-67919939D01*
X173756774Y-68119898D01*
X173834795Y-68308256D01*
X173948063Y-68477774D01*
X174092226Y-68621937D01*
X174261744Y-68735205D01*
X174450102Y-68813226D01*
X174650061Y-68853000D01*
X174853939Y-68853000D01*
X175053898Y-68813226D01*
X175242256Y-68735205D01*
X175411774Y-68621937D01*
X175555937Y-68477774D01*
X175669205Y-68308256D01*
X175747226Y-68119898D01*
X175787000Y-67919939D01*
X175787000Y-67716061D01*
X175747226Y-67516102D01*
X175669205Y-67327744D01*
X175589236Y-67208061D01*
X183115000Y-67208061D01*
X183115000Y-67411939D01*
X183154774Y-67611898D01*
X183232795Y-67800256D01*
X183346063Y-67969774D01*
X183490226Y-68113937D01*
X183659744Y-68227205D01*
X183848102Y-68305226D01*
X184048061Y-68345000D01*
X184251939Y-68345000D01*
X184451898Y-68305226D01*
X184640256Y-68227205D01*
X184809774Y-68113937D01*
X184953937Y-67969774D01*
X185067205Y-67800256D01*
X185145226Y-67611898D01*
X185185000Y-67411939D01*
X185185000Y-67208061D01*
X185145226Y-67008102D01*
X185067205Y-66819744D01*
X184953937Y-66650226D01*
X184809774Y-66506063D01*
X184640256Y-66392795D01*
X184451898Y-66314774D01*
X184423936Y-66309212D01*
X186825000Y-66309212D01*
X186825000Y-66532788D01*
X186868617Y-66752067D01*
X186954176Y-66958624D01*
X187078388Y-67144520D01*
X187236480Y-67302612D01*
X187422376Y-67426824D01*
X187628933Y-67512383D01*
X187848212Y-67556000D01*
X188071788Y-67556000D01*
X188291067Y-67512383D01*
X188497624Y-67426824D01*
X188683520Y-67302612D01*
X188841612Y-67144520D01*
X188965824Y-66958624D01*
X189051383Y-66752067D01*
X189095000Y-66532788D01*
X189095000Y-66309212D01*
X189051383Y-66089933D01*
X188965824Y-65883376D01*
X188841612Y-65697480D01*
X188683520Y-65539388D01*
X188497624Y-65415176D01*
X188291067Y-65329617D01*
X188071788Y-65286000D01*
X187848212Y-65286000D01*
X187628933Y-65329617D01*
X187422376Y-65415176D01*
X187236480Y-65539388D01*
X187078388Y-65697480D01*
X186954176Y-65883376D01*
X186868617Y-66089933D01*
X186825000Y-66309212D01*
X184423936Y-66309212D01*
X184251939Y-66275000D01*
X184048061Y-66275000D01*
X183848102Y-66314774D01*
X183659744Y-66392795D01*
X183490226Y-66506063D01*
X183346063Y-66650226D01*
X183232795Y-66819744D01*
X183154774Y-67008102D01*
X183115000Y-67208061D01*
X175589236Y-67208061D01*
X175555937Y-67158226D01*
X175411774Y-67014063D01*
X175242256Y-66900795D01*
X175053898Y-66822774D01*
X174853939Y-66783000D01*
X174650061Y-66783000D01*
X174450102Y-66822774D01*
X174261744Y-66900795D01*
X174092226Y-67014063D01*
X173948063Y-67158226D01*
X173834795Y-67327744D01*
X173756774Y-67516102D01*
X173717000Y-67716061D01*
X166939975Y-67716061D01*
X166860256Y-67662795D01*
X166671898Y-67584774D01*
X166471939Y-67545000D01*
X166268061Y-67545000D01*
X166068102Y-67584774D01*
X165879744Y-67662795D01*
X165710226Y-67776063D01*
X165566063Y-67920226D01*
X165452795Y-68089744D01*
X165374774Y-68278102D01*
X165335000Y-68478061D01*
X163595000Y-68478061D01*
X163555226Y-68278102D01*
X163477205Y-68089744D01*
X163363937Y-67920226D01*
X163219774Y-67776063D01*
X163050256Y-67662795D01*
X162861898Y-67584774D01*
X162661939Y-67545000D01*
X162458061Y-67545000D01*
X162258102Y-67584774D01*
X162069744Y-67662795D01*
X161900226Y-67776063D01*
X161756063Y-67920226D01*
X161642795Y-68089744D01*
X161564774Y-68278102D01*
X161525000Y-68478061D01*
X156425000Y-68478061D01*
X156425000Y-68433740D01*
X156367932Y-68146842D01*
X156255990Y-67876589D01*
X156093475Y-67633368D01*
X155886632Y-67426525D01*
X155712240Y-67310000D01*
X155886632Y-67193475D01*
X156093475Y-66986632D01*
X156255990Y-66743411D01*
X156367932Y-66473158D01*
X156425000Y-66186260D01*
X156425000Y-65893740D01*
X156367932Y-65606842D01*
X156255990Y-65336589D01*
X156093475Y-65093368D01*
X155886632Y-64886525D01*
X155712240Y-64770000D01*
X155886632Y-64653475D01*
X155935546Y-64604561D01*
X162858500Y-64604561D01*
X162858500Y-64808439D01*
X162898274Y-65008398D01*
X162976295Y-65196756D01*
X163089563Y-65366274D01*
X163233726Y-65510437D01*
X163403244Y-65623705D01*
X163591602Y-65701726D01*
X163791561Y-65741500D01*
X163995439Y-65741500D01*
X164195398Y-65701726D01*
X164383756Y-65623705D01*
X164553274Y-65510437D01*
X164697437Y-65366274D01*
X164810705Y-65196756D01*
X164888726Y-65008398D01*
X164928500Y-64808439D01*
X164928500Y-64604561D01*
X164888726Y-64404602D01*
X164810705Y-64216244D01*
X164697437Y-64046726D01*
X164553274Y-63902563D01*
X164383756Y-63789295D01*
X164195398Y-63711274D01*
X163995439Y-63671500D01*
X163791561Y-63671500D01*
X163591602Y-63711274D01*
X163403244Y-63789295D01*
X163233726Y-63902563D01*
X163089563Y-64046726D01*
X162976295Y-64216244D01*
X162898274Y-64404602D01*
X162858500Y-64604561D01*
X155935546Y-64604561D01*
X156093475Y-64446632D01*
X156255990Y-64203411D01*
X156367932Y-63933158D01*
X156425000Y-63646260D01*
X156425000Y-63353740D01*
X156367932Y-63066842D01*
X156255990Y-62796589D01*
X156093475Y-62553368D01*
X156039319Y-62499212D01*
X172728000Y-62499212D01*
X172728000Y-62722788D01*
X172771617Y-62942067D01*
X172857176Y-63148624D01*
X172981388Y-63334520D01*
X173139480Y-63492612D01*
X173325376Y-63616824D01*
X173531933Y-63702383D01*
X173751212Y-63746000D01*
X173974788Y-63746000D01*
X174194067Y-63702383D01*
X174400624Y-63616824D01*
X174586520Y-63492612D01*
X174690920Y-63388212D01*
X184158000Y-63388212D01*
X184158000Y-63611788D01*
X184201617Y-63831067D01*
X184287176Y-64037624D01*
X184411388Y-64223520D01*
X184569480Y-64381612D01*
X184755376Y-64505824D01*
X184961933Y-64591383D01*
X185181212Y-64635000D01*
X185404788Y-64635000D01*
X185624067Y-64591383D01*
X185830624Y-64505824D01*
X186016520Y-64381612D01*
X186174612Y-64223520D01*
X186298824Y-64037624D01*
X186384383Y-63831067D01*
X186428000Y-63611788D01*
X186428000Y-63388212D01*
X186384383Y-63168933D01*
X186298824Y-62962376D01*
X186174612Y-62776480D01*
X186016520Y-62618388D01*
X185830624Y-62494176D01*
X185624067Y-62408617D01*
X185404788Y-62365000D01*
X185181212Y-62365000D01*
X184961933Y-62408617D01*
X184755376Y-62494176D01*
X184569480Y-62618388D01*
X184411388Y-62776480D01*
X184287176Y-62962376D01*
X184201617Y-63168933D01*
X184158000Y-63388212D01*
X174690920Y-63388212D01*
X174744612Y-63334520D01*
X174868824Y-63148624D01*
X174954383Y-62942067D01*
X174998000Y-62722788D01*
X174998000Y-62499212D01*
X174954383Y-62279933D01*
X174868824Y-62073376D01*
X174744612Y-61887480D01*
X174586520Y-61729388D01*
X174422901Y-61620061D01*
X182480000Y-61620061D01*
X182480000Y-61823939D01*
X182519774Y-62023898D01*
X182597795Y-62212256D01*
X182711063Y-62381774D01*
X182855226Y-62525937D01*
X183024744Y-62639205D01*
X183213102Y-62717226D01*
X183413061Y-62757000D01*
X183616939Y-62757000D01*
X183816898Y-62717226D01*
X184005256Y-62639205D01*
X184174774Y-62525937D01*
X184318937Y-62381774D01*
X184432205Y-62212256D01*
X184510226Y-62023898D01*
X184550000Y-61823939D01*
X184550000Y-61810000D01*
X186471928Y-61810000D01*
X186484188Y-61934482D01*
X186520498Y-62054180D01*
X186579463Y-62164494D01*
X186658815Y-62261185D01*
X186755506Y-62340537D01*
X186865820Y-62399502D01*
X186938380Y-62421513D01*
X186806525Y-62553368D01*
X186644010Y-62796589D01*
X186532068Y-63066842D01*
X186475000Y-63353740D01*
X186475000Y-63646260D01*
X186532068Y-63933158D01*
X186644010Y-64203411D01*
X186806525Y-64446632D01*
X187013368Y-64653475D01*
X187256589Y-64815990D01*
X187526842Y-64927932D01*
X187813740Y-64985000D01*
X188106260Y-64985000D01*
X188393158Y-64927932D01*
X188663411Y-64815990D01*
X188906632Y-64653475D01*
X189113475Y-64446632D01*
X189275990Y-64203411D01*
X189387932Y-63933158D01*
X189445000Y-63646260D01*
X189445000Y-63353740D01*
X189387932Y-63066842D01*
X189275990Y-62796589D01*
X189113475Y-62553368D01*
X188981620Y-62421513D01*
X189054180Y-62399502D01*
X189164494Y-62340537D01*
X189261185Y-62261185D01*
X189340537Y-62164494D01*
X189399502Y-62054180D01*
X189435812Y-61934482D01*
X189448072Y-61810000D01*
X189445000Y-61245750D01*
X189286250Y-61087000D01*
X188087000Y-61087000D01*
X188087000Y-61107000D01*
X187833000Y-61107000D01*
X187833000Y-61087000D01*
X186633750Y-61087000D01*
X186475000Y-61245750D01*
X186471928Y-61810000D01*
X184550000Y-61810000D01*
X184550000Y-61620061D01*
X184510226Y-61420102D01*
X184432205Y-61231744D01*
X184318937Y-61062226D01*
X184174774Y-60918063D01*
X184005256Y-60804795D01*
X183816898Y-60726774D01*
X183616939Y-60687000D01*
X183413061Y-60687000D01*
X183213102Y-60726774D01*
X183024744Y-60804795D01*
X182855226Y-60918063D01*
X182711063Y-61062226D01*
X182597795Y-61231744D01*
X182519774Y-61420102D01*
X182480000Y-61620061D01*
X174422901Y-61620061D01*
X174400624Y-61605176D01*
X174194067Y-61519617D01*
X173974788Y-61476000D01*
X173751212Y-61476000D01*
X173531933Y-61519617D01*
X173325376Y-61605176D01*
X173139480Y-61729388D01*
X172981388Y-61887480D01*
X172857176Y-62073376D01*
X172771617Y-62279933D01*
X172728000Y-62499212D01*
X156039319Y-62499212D01*
X155886632Y-62346525D01*
X155712240Y-62230000D01*
X155886632Y-62113475D01*
X156093475Y-61906632D01*
X156255990Y-61663411D01*
X156367932Y-61393158D01*
X156425000Y-61106260D01*
X156425000Y-60813740D01*
X156406595Y-60721212D01*
X156853000Y-60721212D01*
X156853000Y-60944788D01*
X156896617Y-61164067D01*
X156982176Y-61370624D01*
X157106388Y-61556520D01*
X157264480Y-61714612D01*
X157450376Y-61838824D01*
X157656933Y-61924383D01*
X157876212Y-61968000D01*
X158099788Y-61968000D01*
X158319067Y-61924383D01*
X158525624Y-61838824D01*
X158711520Y-61714612D01*
X158869612Y-61556520D01*
X158993824Y-61370624D01*
X159079383Y-61164067D01*
X159123000Y-60944788D01*
X159123000Y-60845424D01*
X159156061Y-60852000D01*
X159359939Y-60852000D01*
X159559898Y-60812226D01*
X159748256Y-60734205D01*
X159917774Y-60620937D01*
X160061937Y-60476774D01*
X160175205Y-60307256D01*
X160253226Y-60118898D01*
X160293000Y-59918939D01*
X160293000Y-59715061D01*
X160253226Y-59515102D01*
X160175205Y-59326744D01*
X160061937Y-59157226D01*
X159917774Y-59013063D01*
X159748256Y-58899795D01*
X159559898Y-58821774D01*
X159359939Y-58782000D01*
X159156061Y-58782000D01*
X158956102Y-58821774D01*
X158767744Y-58899795D01*
X158598226Y-59013063D01*
X158454063Y-59157226D01*
X158340795Y-59326744D01*
X158262774Y-59515102D01*
X158223000Y-59715061D01*
X158223000Y-59722508D01*
X158099788Y-59698000D01*
X157876212Y-59698000D01*
X157656933Y-59741617D01*
X157450376Y-59827176D01*
X157264480Y-59951388D01*
X157106388Y-60109480D01*
X156982176Y-60295376D01*
X156896617Y-60501933D01*
X156853000Y-60721212D01*
X156406595Y-60721212D01*
X156367932Y-60526842D01*
X156255990Y-60256589D01*
X156093475Y-60013368D01*
X155886632Y-59806525D01*
X155712240Y-59690000D01*
X155886632Y-59573475D01*
X156093475Y-59366632D01*
X156255990Y-59123411D01*
X156367932Y-58853158D01*
X156425000Y-58566260D01*
X156425000Y-58273740D01*
X156367932Y-57986842D01*
X156255990Y-57716589D01*
X156093475Y-57473368D01*
X155886632Y-57266525D01*
X155712240Y-57150000D01*
X155886632Y-57033475D01*
X156093475Y-56826632D01*
X156255990Y-56583411D01*
X156367932Y-56313158D01*
X156425000Y-56026260D01*
X156425000Y-55733740D01*
X156367932Y-55446842D01*
X156255990Y-55176589D01*
X156093475Y-54933368D01*
X155886632Y-54726525D01*
X155712240Y-54610000D01*
X155886632Y-54493475D01*
X156093475Y-54286632D01*
X156255990Y-54043411D01*
X156326550Y-53873061D01*
X157715000Y-53873061D01*
X157715000Y-54076939D01*
X157754774Y-54276898D01*
X157832795Y-54465256D01*
X157946063Y-54634774D01*
X158090226Y-54778937D01*
X158259744Y-54892205D01*
X158448102Y-54970226D01*
X158648061Y-55010000D01*
X158851939Y-55010000D01*
X159051898Y-54970226D01*
X159240256Y-54892205D01*
X159409774Y-54778937D01*
X159553937Y-54634774D01*
X159667205Y-54465256D01*
X159745226Y-54276898D01*
X159785000Y-54076939D01*
X159785000Y-54000061D01*
X165335000Y-54000061D01*
X165335000Y-54203939D01*
X165374774Y-54403898D01*
X165452795Y-54592256D01*
X165566063Y-54761774D01*
X165710226Y-54905937D01*
X165879744Y-55019205D01*
X166068102Y-55097226D01*
X166268061Y-55137000D01*
X166471939Y-55137000D01*
X166671898Y-55097226D01*
X166860256Y-55019205D01*
X167029774Y-54905937D01*
X167173937Y-54761774D01*
X167287205Y-54592256D01*
X167365226Y-54403898D01*
X167405000Y-54203939D01*
X167405000Y-54000061D01*
X167365226Y-53800102D01*
X167287205Y-53611744D01*
X167173937Y-53442226D01*
X167029774Y-53298063D01*
X166860256Y-53184795D01*
X166671898Y-53106774D01*
X166471939Y-53067000D01*
X166268061Y-53067000D01*
X166068102Y-53106774D01*
X165879744Y-53184795D01*
X165710226Y-53298063D01*
X165566063Y-53442226D01*
X165452795Y-53611744D01*
X165374774Y-53800102D01*
X165335000Y-54000061D01*
X159785000Y-54000061D01*
X159785000Y-53873061D01*
X159745226Y-53673102D01*
X159667205Y-53484744D01*
X159553937Y-53315226D01*
X159409774Y-53171063D01*
X159240256Y-53057795D01*
X159051898Y-52979774D01*
X158851939Y-52940000D01*
X158648061Y-52940000D01*
X158448102Y-52979774D01*
X158259744Y-53057795D01*
X158090226Y-53171063D01*
X157946063Y-53315226D01*
X157832795Y-53484744D01*
X157754774Y-53673102D01*
X157715000Y-53873061D01*
X156326550Y-53873061D01*
X156367932Y-53773158D01*
X156425000Y-53486260D01*
X156425000Y-53193740D01*
X156367932Y-52906842D01*
X156255990Y-52636589D01*
X156093475Y-52393368D01*
X155922168Y-52222061D01*
X156445000Y-52222061D01*
X156445000Y-52425939D01*
X156484774Y-52625898D01*
X156562795Y-52814256D01*
X156676063Y-52983774D01*
X156820226Y-53127937D01*
X156989744Y-53241205D01*
X157178102Y-53319226D01*
X157378061Y-53359000D01*
X157581939Y-53359000D01*
X157781898Y-53319226D01*
X157970256Y-53241205D01*
X158139774Y-53127937D01*
X158283937Y-52983774D01*
X158397205Y-52814256D01*
X158475226Y-52625898D01*
X158515000Y-52425939D01*
X158515000Y-52222061D01*
X158475226Y-52022102D01*
X158397205Y-51833744D01*
X158283937Y-51664226D01*
X158139774Y-51520063D01*
X157970256Y-51406795D01*
X157781898Y-51328774D01*
X157581939Y-51289000D01*
X157378061Y-51289000D01*
X157178102Y-51328774D01*
X156989744Y-51406795D01*
X156820226Y-51520063D01*
X156676063Y-51664226D01*
X156562795Y-51833744D01*
X156484774Y-52022102D01*
X156445000Y-52222061D01*
X155922168Y-52222061D01*
X155886632Y-52186525D01*
X155712240Y-52070000D01*
X155886632Y-51953475D01*
X156093475Y-51746632D01*
X156255990Y-51503411D01*
X156367932Y-51233158D01*
X156425000Y-50946260D01*
X156425000Y-50825061D01*
X160572500Y-50825061D01*
X160572500Y-51028939D01*
X160612274Y-51228898D01*
X160690295Y-51417256D01*
X160803563Y-51586774D01*
X160947726Y-51730937D01*
X161117244Y-51844205D01*
X161305602Y-51922226D01*
X161505561Y-51962000D01*
X161709439Y-51962000D01*
X161909398Y-51922226D01*
X162097756Y-51844205D01*
X162267274Y-51730937D01*
X162369500Y-51628711D01*
X162471726Y-51730937D01*
X162641244Y-51844205D01*
X162829602Y-51922226D01*
X163029561Y-51962000D01*
X163233439Y-51962000D01*
X163433398Y-51922226D01*
X163621756Y-51844205D01*
X163791274Y-51730937D01*
X163935437Y-51586774D01*
X164048705Y-51417256D01*
X164126726Y-51228898D01*
X164166500Y-51028939D01*
X164166500Y-50825061D01*
X164126726Y-50625102D01*
X164048705Y-50436744D01*
X163935437Y-50267226D01*
X163791274Y-50123063D01*
X163621756Y-50009795D01*
X163433398Y-49931774D01*
X163233439Y-49892000D01*
X163029561Y-49892000D01*
X162829602Y-49931774D01*
X162641244Y-50009795D01*
X162471726Y-50123063D01*
X162369500Y-50225289D01*
X162267274Y-50123063D01*
X162097756Y-50009795D01*
X161909398Y-49931774D01*
X161709439Y-49892000D01*
X161505561Y-49892000D01*
X161305602Y-49931774D01*
X161117244Y-50009795D01*
X160947726Y-50123063D01*
X160803563Y-50267226D01*
X160690295Y-50436744D01*
X160612274Y-50625102D01*
X160572500Y-50825061D01*
X156425000Y-50825061D01*
X156425000Y-50653740D01*
X156367932Y-50366842D01*
X156255990Y-50096589D01*
X156093475Y-49853368D01*
X155886632Y-49646525D01*
X155712240Y-49530000D01*
X155886632Y-49413475D01*
X156093475Y-49206632D01*
X156255990Y-48963411D01*
X156367932Y-48693158D01*
X156425000Y-48406260D01*
X156425000Y-48113740D01*
X156367932Y-47826842D01*
X156255990Y-47556589D01*
X156093475Y-47313368D01*
X155961620Y-47181513D01*
X156034180Y-47159502D01*
X156144494Y-47100537D01*
X156241185Y-47021185D01*
X156320537Y-46924494D01*
X156379502Y-46814180D01*
X156415812Y-46694482D01*
X156428072Y-46570000D01*
X156428072Y-45618061D01*
X166605000Y-45618061D01*
X166605000Y-45821939D01*
X166644774Y-46021898D01*
X166722795Y-46210256D01*
X166836063Y-46379774D01*
X166980226Y-46523937D01*
X167149744Y-46637205D01*
X167338102Y-46715226D01*
X167386000Y-46724753D01*
X167386000Y-52705000D01*
X167388440Y-52729776D01*
X167395667Y-52753601D01*
X167407403Y-52775557D01*
X167423197Y-52794803D01*
X167442443Y-52810597D01*
X167464399Y-52822333D01*
X167488224Y-52829560D01*
X167513000Y-52832000D01*
X170434000Y-52832000D01*
X170434000Y-57948288D01*
X170356933Y-57963617D01*
X170150376Y-58049176D01*
X169964480Y-58173388D01*
X169806388Y-58331480D01*
X169682176Y-58517376D01*
X169596617Y-58723933D01*
X169553000Y-58943212D01*
X169553000Y-59166788D01*
X169596617Y-59386067D01*
X169682176Y-59592624D01*
X169806388Y-59778520D01*
X169964480Y-59936612D01*
X170150376Y-60060824D01*
X170356933Y-60146383D01*
X170576212Y-60190000D01*
X170799788Y-60190000D01*
X171019067Y-60146383D01*
X171225624Y-60060824D01*
X171411520Y-59936612D01*
X171569612Y-59778520D01*
X171577000Y-59767463D01*
X171584388Y-59778520D01*
X171742480Y-59936612D01*
X171928376Y-60060824D01*
X172134933Y-60146383D01*
X172354212Y-60190000D01*
X172577788Y-60190000D01*
X172797067Y-60146383D01*
X172884903Y-60110000D01*
X186471928Y-60110000D01*
X186475000Y-60674250D01*
X186633750Y-60833000D01*
X187833000Y-60833000D01*
X187833000Y-59633750D01*
X188087000Y-59633750D01*
X188087000Y-60833000D01*
X189286250Y-60833000D01*
X189445000Y-60674250D01*
X189448072Y-60110000D01*
X189435812Y-59985518D01*
X189399502Y-59865820D01*
X189340537Y-59755506D01*
X189261185Y-59658815D01*
X189164494Y-59579463D01*
X189054180Y-59520498D01*
X188934482Y-59484188D01*
X188810000Y-59471928D01*
X188245750Y-59475000D01*
X188087000Y-59633750D01*
X187833000Y-59633750D01*
X187674250Y-59475000D01*
X187110000Y-59471928D01*
X186985518Y-59484188D01*
X186865820Y-59520498D01*
X186755506Y-59579463D01*
X186658815Y-59658815D01*
X186579463Y-59755506D01*
X186520498Y-59865820D01*
X186484188Y-59985518D01*
X186471928Y-60110000D01*
X172884903Y-60110000D01*
X173003624Y-60060824D01*
X173189520Y-59936612D01*
X173347612Y-59778520D01*
X173471824Y-59592624D01*
X173557383Y-59386067D01*
X173601000Y-59166788D01*
X173601000Y-58953061D01*
X183750000Y-58953061D01*
X183750000Y-59156939D01*
X183789774Y-59356898D01*
X183867795Y-59545256D01*
X183981063Y-59714774D01*
X184125226Y-59858937D01*
X184294744Y-59972205D01*
X184483102Y-60050226D01*
X184683061Y-60090000D01*
X184886939Y-60090000D01*
X185086898Y-60050226D01*
X185275256Y-59972205D01*
X185444774Y-59858937D01*
X185588937Y-59714774D01*
X185702205Y-59545256D01*
X185780226Y-59356898D01*
X185820000Y-59156939D01*
X185820000Y-58953061D01*
X185780226Y-58753102D01*
X185702205Y-58564744D01*
X185588937Y-58395226D01*
X185444774Y-58251063D01*
X185275256Y-58137795D01*
X185086898Y-58059774D01*
X184886939Y-58020000D01*
X184683061Y-58020000D01*
X184483102Y-58059774D01*
X184294744Y-58137795D01*
X184125226Y-58251063D01*
X183981063Y-58395226D01*
X183867795Y-58564744D01*
X183789774Y-58753102D01*
X183750000Y-58953061D01*
X173601000Y-58953061D01*
X173601000Y-58943212D01*
X173557383Y-58723933D01*
X173471824Y-58517376D01*
X173347612Y-58331480D01*
X173309132Y-58293000D01*
X173355000Y-58293000D01*
X173379776Y-58290560D01*
X173403601Y-58283333D01*
X173425557Y-58271597D01*
X173444803Y-58255803D01*
X173460597Y-58236557D01*
X173472333Y-58214601D01*
X173479560Y-58190776D01*
X173482000Y-58166000D01*
X173482000Y-56794061D01*
X177908000Y-56794061D01*
X177908000Y-56997939D01*
X177947774Y-57197898D01*
X178025795Y-57386256D01*
X178139063Y-57555774D01*
X178283226Y-57699937D01*
X178452744Y-57813205D01*
X178641102Y-57891226D01*
X178841061Y-57931000D01*
X179044939Y-57931000D01*
X179244898Y-57891226D01*
X179433256Y-57813205D01*
X179602774Y-57699937D01*
X179746937Y-57555774D01*
X179860205Y-57386256D01*
X179938226Y-57197898D01*
X179968030Y-57048061D01*
X189465000Y-57048061D01*
X189465000Y-57251939D01*
X189504774Y-57451898D01*
X189582795Y-57640256D01*
X189696063Y-57809774D01*
X189840226Y-57953937D01*
X190009744Y-58067205D01*
X190198102Y-58145226D01*
X190398061Y-58185000D01*
X190601939Y-58185000D01*
X190801898Y-58145226D01*
X190990256Y-58067205D01*
X191159774Y-57953937D01*
X191303937Y-57809774D01*
X191417205Y-57640256D01*
X191495226Y-57451898D01*
X191535000Y-57251939D01*
X191535000Y-57048061D01*
X191495226Y-56848102D01*
X191417205Y-56659744D01*
X191303937Y-56490226D01*
X191159774Y-56346063D01*
X190990256Y-56232795D01*
X190801898Y-56154774D01*
X190601939Y-56115000D01*
X190398061Y-56115000D01*
X190198102Y-56154774D01*
X190009744Y-56232795D01*
X189840226Y-56346063D01*
X189696063Y-56490226D01*
X189582795Y-56659744D01*
X189504774Y-56848102D01*
X189465000Y-57048061D01*
X179968030Y-57048061D01*
X179978000Y-56997939D01*
X179978000Y-56794061D01*
X179938226Y-56594102D01*
X179860205Y-56405744D01*
X179746937Y-56236226D01*
X179602774Y-56092063D01*
X179433256Y-55978795D01*
X179244898Y-55900774D01*
X179044939Y-55861000D01*
X178841061Y-55861000D01*
X178641102Y-55900774D01*
X178452744Y-55978795D01*
X178283226Y-56092063D01*
X178139063Y-56236226D01*
X178025795Y-56405744D01*
X177947774Y-56594102D01*
X177908000Y-56794061D01*
X173482000Y-56794061D01*
X173482000Y-54508061D01*
X176511000Y-54508061D01*
X176511000Y-54711939D01*
X176550774Y-54911898D01*
X176628795Y-55100256D01*
X176742063Y-55269774D01*
X176886226Y-55413937D01*
X177055744Y-55527205D01*
X177244102Y-55605226D01*
X177444061Y-55645000D01*
X177647939Y-55645000D01*
X177847898Y-55605226D01*
X178036256Y-55527205D01*
X178205774Y-55413937D01*
X178308000Y-55311711D01*
X178410226Y-55413937D01*
X178579744Y-55527205D01*
X178768102Y-55605226D01*
X178968061Y-55645000D01*
X179171939Y-55645000D01*
X179371898Y-55605226D01*
X179560256Y-55527205D01*
X179729774Y-55413937D01*
X179873937Y-55269774D01*
X179987205Y-55100256D01*
X180065226Y-54911898D01*
X180105000Y-54711939D01*
X180105000Y-54508061D01*
X180065226Y-54308102D01*
X179987205Y-54119744D01*
X179873937Y-53950226D01*
X179729774Y-53806063D01*
X179560256Y-53692795D01*
X179371898Y-53614774D01*
X179171939Y-53575000D01*
X178968061Y-53575000D01*
X178768102Y-53614774D01*
X178579744Y-53692795D01*
X178410226Y-53806063D01*
X178308000Y-53908289D01*
X178205774Y-53806063D01*
X178036256Y-53692795D01*
X177847898Y-53614774D01*
X177647939Y-53575000D01*
X177444061Y-53575000D01*
X177244102Y-53614774D01*
X177055744Y-53692795D01*
X176886226Y-53806063D01*
X176742063Y-53950226D01*
X176628795Y-54119744D01*
X176550774Y-54308102D01*
X176511000Y-54508061D01*
X173482000Y-54508061D01*
X173482000Y-52832000D01*
X177292000Y-52832000D01*
X177316776Y-52829560D01*
X177340601Y-52822333D01*
X177362557Y-52810597D01*
X177381803Y-52794803D01*
X177397597Y-52775557D01*
X177409333Y-52753601D01*
X177416560Y-52729776D01*
X177419000Y-52705000D01*
X177419000Y-51968061D01*
X178035000Y-51968061D01*
X178035000Y-52171939D01*
X178074774Y-52371898D01*
X178152795Y-52560256D01*
X178266063Y-52729774D01*
X178410226Y-52873937D01*
X178579744Y-52987205D01*
X178768102Y-53065226D01*
X178968061Y-53105000D01*
X179171939Y-53105000D01*
X179371898Y-53065226D01*
X179560256Y-52987205D01*
X179729774Y-52873937D01*
X179873937Y-52729774D01*
X179987205Y-52560256D01*
X180065226Y-52371898D01*
X180105000Y-52171939D01*
X180105000Y-51968061D01*
X180065226Y-51768102D01*
X179987205Y-51579744D01*
X179873937Y-51410226D01*
X179729774Y-51266063D01*
X179560256Y-51152795D01*
X179371898Y-51074774D01*
X179171939Y-51035000D01*
X178968061Y-51035000D01*
X178768102Y-51074774D01*
X178579744Y-51152795D01*
X178410226Y-51266063D01*
X178266063Y-51410226D01*
X178152795Y-51579744D01*
X178074774Y-51768102D01*
X178035000Y-51968061D01*
X177419000Y-51968061D01*
X177419000Y-50952061D01*
X182861000Y-50952061D01*
X182861000Y-51155939D01*
X182900774Y-51355898D01*
X182978795Y-51544256D01*
X183092063Y-51713774D01*
X183236226Y-51857937D01*
X183405744Y-51971205D01*
X183594102Y-52049226D01*
X183794061Y-52089000D01*
X183994275Y-52089000D01*
X183916774Y-52276102D01*
X183877000Y-52476061D01*
X183877000Y-52679939D01*
X183916774Y-52879898D01*
X183994795Y-53068256D01*
X184108063Y-53237774D01*
X184252226Y-53381937D01*
X184421744Y-53495205D01*
X184610102Y-53573226D01*
X184810061Y-53613000D01*
X185013939Y-53613000D01*
X185213898Y-53573226D01*
X185402256Y-53495205D01*
X185571774Y-53381937D01*
X185715937Y-53237774D01*
X185829205Y-53068256D01*
X185907226Y-52879898D01*
X185947000Y-52679939D01*
X185947000Y-52476061D01*
X185907226Y-52276102D01*
X185829205Y-52087744D01*
X185715937Y-51918226D01*
X185571774Y-51774063D01*
X185402256Y-51660795D01*
X185213898Y-51582774D01*
X185013939Y-51543000D01*
X184813725Y-51543000D01*
X184891226Y-51355898D01*
X184931000Y-51155939D01*
X184931000Y-50952061D01*
X184891226Y-50752102D01*
X184813205Y-50563744D01*
X184699937Y-50394226D01*
X184555774Y-50250063D01*
X184386256Y-50136795D01*
X184197898Y-50058774D01*
X183997939Y-50019000D01*
X183794061Y-50019000D01*
X183594102Y-50058774D01*
X183405744Y-50136795D01*
X183236226Y-50250063D01*
X183092063Y-50394226D01*
X182978795Y-50563744D01*
X182900774Y-50752102D01*
X182861000Y-50952061D01*
X177419000Y-50952061D01*
X177419000Y-49428061D01*
X178035000Y-49428061D01*
X178035000Y-49631939D01*
X178074774Y-49831898D01*
X178152795Y-50020256D01*
X178266063Y-50189774D01*
X178410226Y-50333937D01*
X178579744Y-50447205D01*
X178768102Y-50525226D01*
X178968061Y-50565000D01*
X179171939Y-50565000D01*
X179371898Y-50525226D01*
X179560256Y-50447205D01*
X179729774Y-50333937D01*
X179873937Y-50189774D01*
X179987205Y-50020256D01*
X180065226Y-49831898D01*
X180105000Y-49631939D01*
X180105000Y-49428061D01*
X180065226Y-49228102D01*
X179987205Y-49039744D01*
X179873937Y-48870226D01*
X179729774Y-48726063D01*
X179560256Y-48612795D01*
X179371898Y-48534774D01*
X179171939Y-48495000D01*
X178968061Y-48495000D01*
X178768102Y-48534774D01*
X178579744Y-48612795D01*
X178410226Y-48726063D01*
X178266063Y-48870226D01*
X178152795Y-49039744D01*
X178074774Y-49228102D01*
X178035000Y-49428061D01*
X177419000Y-49428061D01*
X177419000Y-46682461D01*
X177498102Y-46715226D01*
X177698061Y-46755000D01*
X177901939Y-46755000D01*
X178068039Y-46721961D01*
X178035000Y-46888061D01*
X178035000Y-47091939D01*
X178074774Y-47291898D01*
X178152795Y-47480256D01*
X178266063Y-47649774D01*
X178410226Y-47793937D01*
X178579744Y-47907205D01*
X178768102Y-47985226D01*
X178968061Y-48025000D01*
X179171939Y-48025000D01*
X179371898Y-47985226D01*
X179560256Y-47907205D01*
X179729774Y-47793937D01*
X179873937Y-47649774D01*
X179987205Y-47480256D01*
X180065226Y-47291898D01*
X180105000Y-47091939D01*
X180105000Y-46888061D01*
X180065226Y-46688102D01*
X179987205Y-46499744D01*
X179873937Y-46330226D01*
X179729774Y-46186063D01*
X179639975Y-46126061D01*
X182099000Y-46126061D01*
X182099000Y-46329939D01*
X182138774Y-46529898D01*
X182216795Y-46718256D01*
X182330063Y-46887774D01*
X182474226Y-47031937D01*
X182643744Y-47145205D01*
X182832102Y-47223226D01*
X182833738Y-47223551D01*
X182711063Y-47346226D01*
X182597795Y-47515744D01*
X182519774Y-47704102D01*
X182480000Y-47904061D01*
X182480000Y-48107939D01*
X182519774Y-48307898D01*
X182597795Y-48496256D01*
X182711063Y-48665774D01*
X182855226Y-48809937D01*
X183024744Y-48923205D01*
X183213102Y-49001226D01*
X183413061Y-49041000D01*
X183616939Y-49041000D01*
X183816898Y-49001226D01*
X184005256Y-48923205D01*
X184174774Y-48809937D01*
X184318937Y-48665774D01*
X184432205Y-48496256D01*
X184510226Y-48307898D01*
X184550000Y-48107939D01*
X184550000Y-47904061D01*
X184510226Y-47704102D01*
X184432205Y-47515744D01*
X184318937Y-47346226D01*
X184174774Y-47202063D01*
X184005256Y-47088795D01*
X183816898Y-47010774D01*
X183815262Y-47010449D01*
X183937937Y-46887774D01*
X184051205Y-46718256D01*
X184129226Y-46529898D01*
X184169000Y-46329939D01*
X184169000Y-46126061D01*
X184129226Y-45926102D01*
X184051205Y-45737744D01*
X183937937Y-45568226D01*
X183793774Y-45424063D01*
X183624256Y-45310795D01*
X183435898Y-45232774D01*
X183235939Y-45193000D01*
X183032061Y-45193000D01*
X182832102Y-45232774D01*
X182643744Y-45310795D01*
X182474226Y-45424063D01*
X182330063Y-45568226D01*
X182216795Y-45737744D01*
X182138774Y-45926102D01*
X182099000Y-46126061D01*
X179639975Y-46126061D01*
X179560256Y-46072795D01*
X179371898Y-45994774D01*
X179171939Y-45955000D01*
X178968061Y-45955000D01*
X178801961Y-45988039D01*
X178835000Y-45821939D01*
X178835000Y-45618061D01*
X178795226Y-45418102D01*
X178717205Y-45229744D01*
X178603937Y-45060226D01*
X178459774Y-44916063D01*
X178290256Y-44802795D01*
X178101898Y-44724774D01*
X177901939Y-44685000D01*
X177698061Y-44685000D01*
X177498102Y-44724774D01*
X177309744Y-44802795D01*
X177140226Y-44916063D01*
X176996063Y-45060226D01*
X176882795Y-45229744D01*
X176804774Y-45418102D01*
X176765000Y-45618061D01*
X176765000Y-45821939D01*
X176804774Y-46021898D01*
X176882795Y-46210256D01*
X176996063Y-46379774D01*
X177098289Y-46482000D01*
X173421711Y-46482000D01*
X173523937Y-46379774D01*
X173637205Y-46210256D01*
X173715226Y-46021898D01*
X173755000Y-45821939D01*
X173755000Y-45618061D01*
X173715226Y-45418102D01*
X173637205Y-45229744D01*
X173523937Y-45060226D01*
X173379774Y-44916063D01*
X173210256Y-44802795D01*
X173021898Y-44724774D01*
X172821939Y-44685000D01*
X172618061Y-44685000D01*
X172418102Y-44724774D01*
X172229744Y-44802795D01*
X172060226Y-44916063D01*
X171916063Y-45060226D01*
X171802795Y-45229744D01*
X171724774Y-45418102D01*
X171685000Y-45618061D01*
X171685000Y-45821939D01*
X171724774Y-46021898D01*
X171802795Y-46210256D01*
X171916063Y-46379774D01*
X172018289Y-46482000D01*
X168341711Y-46482000D01*
X168443937Y-46379774D01*
X168557205Y-46210256D01*
X168635226Y-46021898D01*
X168675000Y-45821939D01*
X168675000Y-45618061D01*
X168635226Y-45418102D01*
X168557205Y-45229744D01*
X168443937Y-45060226D01*
X168299774Y-44916063D01*
X168130256Y-44802795D01*
X167941898Y-44724774D01*
X167741939Y-44685000D01*
X167538061Y-44685000D01*
X167338102Y-44724774D01*
X167149744Y-44802795D01*
X166980226Y-44916063D01*
X166836063Y-45060226D01*
X166722795Y-45229744D01*
X166644774Y-45418102D01*
X166605000Y-45618061D01*
X156428072Y-45618061D01*
X156428072Y-44870000D01*
X156415812Y-44745518D01*
X156379502Y-44625820D01*
X156320537Y-44515506D01*
X156241185Y-44418815D01*
X156144494Y-44339463D01*
X156034180Y-44280498D01*
X155914482Y-44244188D01*
X155790000Y-44231928D01*
X154090000Y-44231928D01*
X153965518Y-44244188D01*
X153845820Y-44280498D01*
X153735506Y-44339463D01*
X153638815Y-44418815D01*
X153559463Y-44515506D01*
X153500498Y-44625820D01*
X153464188Y-44745518D01*
X153451928Y-44870000D01*
X149943381Y-44870000D01*
X149034380Y-43961000D01*
X149199939Y-43961000D01*
X149399898Y-43921226D01*
X149588256Y-43843205D01*
X149757774Y-43729937D01*
X149901937Y-43585774D01*
X150015205Y-43416256D01*
X150093226Y-43227898D01*
X150133000Y-43027939D01*
X150133000Y-42824061D01*
X150603000Y-42824061D01*
X150603000Y-43027939D01*
X150642774Y-43227898D01*
X150720795Y-43416256D01*
X150834063Y-43585774D01*
X150978226Y-43729937D01*
X151147744Y-43843205D01*
X151336102Y-43921226D01*
X151536061Y-43961000D01*
X151739939Y-43961000D01*
X151939898Y-43921226D01*
X152128256Y-43843205D01*
X152297774Y-43729937D01*
X152441937Y-43585774D01*
X152555205Y-43416256D01*
X152633226Y-43227898D01*
X152673000Y-43027939D01*
X152673000Y-42824061D01*
X152633226Y-42624102D01*
X152555205Y-42435744D01*
X152441937Y-42266226D01*
X152297774Y-42122063D01*
X152128256Y-42008795D01*
X151939898Y-41930774D01*
X151739939Y-41891000D01*
X151536061Y-41891000D01*
X151336102Y-41930774D01*
X151147744Y-42008795D01*
X150978226Y-42122063D01*
X150834063Y-42266226D01*
X150720795Y-42435744D01*
X150642774Y-42624102D01*
X150603000Y-42824061D01*
X150133000Y-42824061D01*
X150093226Y-42624102D01*
X150015205Y-42435744D01*
X149901937Y-42266226D01*
X149757774Y-42122063D01*
X149588256Y-42008795D01*
X149399898Y-41930774D01*
X149255240Y-41902000D01*
X149336788Y-41902000D01*
X149556067Y-41858383D01*
X149762624Y-41772824D01*
X149948520Y-41648612D01*
X149987000Y-41610132D01*
X150025480Y-41648612D01*
X150211376Y-41772824D01*
X150417933Y-41858383D01*
X150637212Y-41902000D01*
X150860788Y-41902000D01*
X151080067Y-41858383D01*
X151286624Y-41772824D01*
X151472520Y-41648612D01*
X151630612Y-41490520D01*
X151754824Y-41304624D01*
X151840383Y-41098067D01*
X151884000Y-40878788D01*
X151884000Y-40655212D01*
X151840383Y-40435933D01*
X151754824Y-40229376D01*
X151630612Y-40043480D01*
X151472520Y-39885388D01*
X151286624Y-39761176D01*
X151080067Y-39675617D01*
X150860788Y-39632000D01*
X150637212Y-39632000D01*
X150417933Y-39675617D01*
X150211376Y-39761176D01*
X150025480Y-39885388D01*
X149987000Y-39923868D01*
X149948520Y-39885388D01*
X149762624Y-39761176D01*
X149556067Y-39675617D01*
X149336788Y-39632000D01*
X149113212Y-39632000D01*
X148893933Y-39675617D01*
X148687376Y-39761176D01*
X148501480Y-39885388D01*
X148343388Y-40043480D01*
X148219176Y-40229376D01*
X148133617Y-40435933D01*
X148090000Y-40655212D01*
X148090000Y-40878788D01*
X148133617Y-41098067D01*
X148219176Y-41304624D01*
X148343388Y-41490520D01*
X148501480Y-41648612D01*
X148687376Y-41772824D01*
X148893933Y-41858383D01*
X149057911Y-41891000D01*
X148996061Y-41891000D01*
X148796102Y-41930774D01*
X148607744Y-42008795D01*
X148438226Y-42122063D01*
X148294063Y-42266226D01*
X148180795Y-42435744D01*
X148102774Y-42624102D01*
X148063000Y-42824061D01*
X148063000Y-42989620D01*
X147980000Y-42906620D01*
X147980000Y-37250000D01*
X148371928Y-37250000D01*
X148371928Y-38950000D01*
X148384188Y-39074482D01*
X148420498Y-39194180D01*
X148479463Y-39304494D01*
X148558815Y-39401185D01*
X148655506Y-39480537D01*
X148765820Y-39539502D01*
X148885518Y-39575812D01*
X149010000Y-39588072D01*
X150710000Y-39588072D01*
X150834482Y-39575812D01*
X150954180Y-39539502D01*
X151064494Y-39480537D01*
X151161185Y-39401185D01*
X151240537Y-39304494D01*
X151299502Y-39194180D01*
X151335812Y-39074482D01*
X151348072Y-38950000D01*
X151348072Y-37250000D01*
X153451928Y-37250000D01*
X153451928Y-38950000D01*
X153464188Y-39074482D01*
X153500498Y-39194180D01*
X153559463Y-39304494D01*
X153638815Y-39401185D01*
X153735506Y-39480537D01*
X153845820Y-39539502D01*
X153918380Y-39561513D01*
X153786525Y-39693368D01*
X153624010Y-39936589D01*
X153512068Y-40206842D01*
X153455000Y-40493740D01*
X153455000Y-40786260D01*
X153512068Y-41073158D01*
X153624010Y-41343411D01*
X153786525Y-41586632D01*
X153993368Y-41793475D01*
X154236589Y-41955990D01*
X154506842Y-42067932D01*
X154793740Y-42125000D01*
X155086260Y-42125000D01*
X155373158Y-42067932D01*
X155643411Y-41955990D01*
X155886632Y-41793475D01*
X156093475Y-41586632D01*
X156255990Y-41343411D01*
X156367932Y-41073158D01*
X156425000Y-40786260D01*
X156425000Y-40493740D01*
X156367932Y-40206842D01*
X156255990Y-39936589D01*
X156227007Y-39893212D01*
X156472000Y-39893212D01*
X156472000Y-40116788D01*
X156515617Y-40336067D01*
X156601176Y-40542624D01*
X156666241Y-40640000D01*
X156601176Y-40737376D01*
X156515617Y-40943933D01*
X156472000Y-41163212D01*
X156472000Y-41386788D01*
X156515617Y-41606067D01*
X156601176Y-41812624D01*
X156666241Y-41910000D01*
X156601176Y-42007376D01*
X156515617Y-42213933D01*
X156472000Y-42433212D01*
X156472000Y-42656788D01*
X156515617Y-42876067D01*
X156601176Y-43082624D01*
X156725388Y-43268520D01*
X156883480Y-43426612D01*
X157069376Y-43550824D01*
X157275933Y-43636383D01*
X157495212Y-43680000D01*
X157718788Y-43680000D01*
X157938067Y-43636383D01*
X158144624Y-43550824D01*
X158330520Y-43426612D01*
X158488612Y-43268520D01*
X158612824Y-43082624D01*
X158614714Y-43078061D01*
X158985000Y-43078061D01*
X158985000Y-43281939D01*
X159024774Y-43481898D01*
X159102795Y-43670256D01*
X159216063Y-43839774D01*
X159360226Y-43983937D01*
X159529744Y-44097205D01*
X159718102Y-44175226D01*
X159918061Y-44215000D01*
X160121939Y-44215000D01*
X160321898Y-44175226D01*
X160510256Y-44097205D01*
X160679774Y-43983937D01*
X160823937Y-43839774D01*
X160937205Y-43670256D01*
X161015226Y-43481898D01*
X161055000Y-43281939D01*
X161055000Y-43078061D01*
X164065000Y-43078061D01*
X164065000Y-43281939D01*
X164104774Y-43481898D01*
X164182795Y-43670256D01*
X164296063Y-43839774D01*
X164440226Y-43983937D01*
X164609744Y-44097205D01*
X164798102Y-44175226D01*
X164998061Y-44215000D01*
X165201939Y-44215000D01*
X165401898Y-44175226D01*
X165590256Y-44097205D01*
X165759774Y-43983937D01*
X165903937Y-43839774D01*
X166017205Y-43670256D01*
X166095226Y-43481898D01*
X166135000Y-43281939D01*
X166135000Y-43078061D01*
X166605000Y-43078061D01*
X166605000Y-43281939D01*
X166644774Y-43481898D01*
X166722795Y-43670256D01*
X166836063Y-43839774D01*
X166980226Y-43983937D01*
X167149744Y-44097205D01*
X167338102Y-44175226D01*
X167538061Y-44215000D01*
X167741939Y-44215000D01*
X167941898Y-44175226D01*
X168130256Y-44097205D01*
X168299774Y-43983937D01*
X168443937Y-43839774D01*
X168557205Y-43670256D01*
X168635226Y-43481898D01*
X168675000Y-43281939D01*
X168675000Y-43078061D01*
X171685000Y-43078061D01*
X171685000Y-43281939D01*
X171724774Y-43481898D01*
X171802795Y-43670256D01*
X171916063Y-43839774D01*
X172060226Y-43983937D01*
X172229744Y-44097205D01*
X172418102Y-44175226D01*
X172618061Y-44215000D01*
X172821939Y-44215000D01*
X173021898Y-44175226D01*
X173210256Y-44097205D01*
X173379774Y-43983937D01*
X173523937Y-43839774D01*
X173637205Y-43670256D01*
X173715226Y-43481898D01*
X173755000Y-43281939D01*
X173755000Y-43078061D01*
X176765000Y-43078061D01*
X176765000Y-43281939D01*
X176804774Y-43481898D01*
X176882795Y-43670256D01*
X176996063Y-43839774D01*
X177140226Y-43983937D01*
X177309744Y-44097205D01*
X177498102Y-44175226D01*
X177698061Y-44215000D01*
X177901939Y-44215000D01*
X178101898Y-44175226D01*
X178290256Y-44097205D01*
X178459774Y-43983937D01*
X178603937Y-43839774D01*
X178717205Y-43670256D01*
X178795226Y-43481898D01*
X178835000Y-43281939D01*
X178835000Y-43078061D01*
X178795226Y-42878102D01*
X178717205Y-42689744D01*
X178603937Y-42520226D01*
X178459774Y-42376063D01*
X178369975Y-42316061D01*
X182480000Y-42316061D01*
X182480000Y-42519939D01*
X182519774Y-42719898D01*
X182597795Y-42908256D01*
X182711063Y-43077774D01*
X182855226Y-43221937D01*
X183024744Y-43335205D01*
X183213102Y-43413226D01*
X183413061Y-43453000D01*
X183616939Y-43453000D01*
X183816898Y-43413226D01*
X184005256Y-43335205D01*
X184174774Y-43221937D01*
X184318937Y-43077774D01*
X184432205Y-42908256D01*
X184510226Y-42719898D01*
X184550000Y-42519939D01*
X184550000Y-42316061D01*
X184510226Y-42116102D01*
X184432205Y-41927744D01*
X184318937Y-41758226D01*
X184174774Y-41614063D01*
X184005256Y-41500795D01*
X183816898Y-41422774D01*
X183616939Y-41383000D01*
X183413061Y-41383000D01*
X183213102Y-41422774D01*
X183024744Y-41500795D01*
X182855226Y-41614063D01*
X182711063Y-41758226D01*
X182597795Y-41927744D01*
X182519774Y-42116102D01*
X182480000Y-42316061D01*
X178369975Y-42316061D01*
X178290256Y-42262795D01*
X178101898Y-42184774D01*
X177901939Y-42145000D01*
X177698061Y-42145000D01*
X177498102Y-42184774D01*
X177309744Y-42262795D01*
X177140226Y-42376063D01*
X176996063Y-42520226D01*
X176882795Y-42689744D01*
X176804774Y-42878102D01*
X176765000Y-43078061D01*
X173755000Y-43078061D01*
X173715226Y-42878102D01*
X173637205Y-42689744D01*
X173523937Y-42520226D01*
X173379774Y-42376063D01*
X173210256Y-42262795D01*
X173021898Y-42184774D01*
X172821939Y-42145000D01*
X172618061Y-42145000D01*
X172418102Y-42184774D01*
X172229744Y-42262795D01*
X172060226Y-42376063D01*
X171916063Y-42520226D01*
X171802795Y-42689744D01*
X171724774Y-42878102D01*
X171685000Y-43078061D01*
X168675000Y-43078061D01*
X168635226Y-42878102D01*
X168557205Y-42689744D01*
X168443937Y-42520226D01*
X168299774Y-42376063D01*
X168130256Y-42262795D01*
X167941898Y-42184774D01*
X167741939Y-42145000D01*
X167538061Y-42145000D01*
X167338102Y-42184774D01*
X167149744Y-42262795D01*
X166980226Y-42376063D01*
X166836063Y-42520226D01*
X166722795Y-42689744D01*
X166644774Y-42878102D01*
X166605000Y-43078061D01*
X166135000Y-43078061D01*
X166095226Y-42878102D01*
X166017205Y-42689744D01*
X165903937Y-42520226D01*
X165759774Y-42376063D01*
X165590256Y-42262795D01*
X165401898Y-42184774D01*
X165201939Y-42145000D01*
X164998061Y-42145000D01*
X164798102Y-42184774D01*
X164609744Y-42262795D01*
X164440226Y-42376063D01*
X164296063Y-42520226D01*
X164182795Y-42689744D01*
X164104774Y-42878102D01*
X164065000Y-43078061D01*
X161055000Y-43078061D01*
X161015226Y-42878102D01*
X160937205Y-42689744D01*
X160823937Y-42520226D01*
X160679774Y-42376063D01*
X160510256Y-42262795D01*
X160321898Y-42184774D01*
X160121939Y-42145000D01*
X159918061Y-42145000D01*
X159718102Y-42184774D01*
X159529744Y-42262795D01*
X159360226Y-42376063D01*
X159216063Y-42520226D01*
X159102795Y-42689744D01*
X159024774Y-42878102D01*
X158985000Y-43078061D01*
X158614714Y-43078061D01*
X158698383Y-42876067D01*
X158742000Y-42656788D01*
X158742000Y-42433212D01*
X158698383Y-42213933D01*
X158612824Y-42007376D01*
X158547759Y-41910000D01*
X158612824Y-41812624D01*
X158698383Y-41606067D01*
X158742000Y-41386788D01*
X158742000Y-41163212D01*
X158698383Y-40943933D01*
X158612824Y-40737376D01*
X158547759Y-40640000D01*
X158612824Y-40542624D01*
X158614714Y-40538061D01*
X161525000Y-40538061D01*
X161525000Y-40741939D01*
X161564774Y-40941898D01*
X161642795Y-41130256D01*
X161756063Y-41299774D01*
X161900226Y-41443937D01*
X162069744Y-41557205D01*
X162258102Y-41635226D01*
X162458061Y-41675000D01*
X162661939Y-41675000D01*
X162861898Y-41635226D01*
X163050256Y-41557205D01*
X163219774Y-41443937D01*
X163363937Y-41299774D01*
X163477205Y-41130256D01*
X163555226Y-40941898D01*
X163595000Y-40741939D01*
X163595000Y-40538061D01*
X171685000Y-40538061D01*
X171685000Y-40741939D01*
X171724774Y-40941898D01*
X171802795Y-41130256D01*
X171916063Y-41299774D01*
X172060226Y-41443937D01*
X172229744Y-41557205D01*
X172418102Y-41635226D01*
X172618061Y-41675000D01*
X172821939Y-41675000D01*
X173021898Y-41635226D01*
X173210256Y-41557205D01*
X173379774Y-41443937D01*
X173523937Y-41299774D01*
X173637205Y-41130256D01*
X173715226Y-40941898D01*
X173755000Y-40741939D01*
X173755000Y-40538061D01*
X173715226Y-40338102D01*
X173637205Y-40149744D01*
X173523937Y-39980226D01*
X173383272Y-39839561D01*
X174225000Y-39839561D01*
X174225000Y-40043439D01*
X174264774Y-40243398D01*
X174342795Y-40431756D01*
X174456063Y-40601274D01*
X174600226Y-40745437D01*
X174769744Y-40858705D01*
X174958102Y-40936726D01*
X175158061Y-40976500D01*
X175361939Y-40976500D01*
X175561898Y-40936726D01*
X175750256Y-40858705D01*
X175919774Y-40745437D01*
X176063937Y-40601274D01*
X176106174Y-40538061D01*
X178035000Y-40538061D01*
X178035000Y-40741939D01*
X178074774Y-40941898D01*
X178152795Y-41130256D01*
X178266063Y-41299774D01*
X178410226Y-41443937D01*
X178579744Y-41557205D01*
X178768102Y-41635226D01*
X178968061Y-41675000D01*
X179171939Y-41675000D01*
X179371898Y-41635226D01*
X179560256Y-41557205D01*
X179729774Y-41443937D01*
X179873937Y-41299774D01*
X179987205Y-41130256D01*
X180065226Y-40941898D01*
X180105000Y-40741939D01*
X180105000Y-40538061D01*
X180065226Y-40338102D01*
X179987205Y-40149744D01*
X179873937Y-39980226D01*
X179729774Y-39836063D01*
X179560256Y-39722795D01*
X179371898Y-39644774D01*
X179171939Y-39605000D01*
X178968061Y-39605000D01*
X178768102Y-39644774D01*
X178579744Y-39722795D01*
X178410226Y-39836063D01*
X178266063Y-39980226D01*
X178152795Y-40149744D01*
X178074774Y-40338102D01*
X178035000Y-40538061D01*
X176106174Y-40538061D01*
X176177205Y-40431756D01*
X176255226Y-40243398D01*
X176295000Y-40043439D01*
X176295000Y-39839561D01*
X176255226Y-39639602D01*
X176206539Y-39522061D01*
X182480000Y-39522061D01*
X182480000Y-39725939D01*
X182519774Y-39925898D01*
X182597795Y-40114256D01*
X182711063Y-40283774D01*
X182855226Y-40427937D01*
X183024744Y-40541205D01*
X183213102Y-40619226D01*
X183413061Y-40659000D01*
X183616939Y-40659000D01*
X183816898Y-40619226D01*
X184005256Y-40541205D01*
X184174774Y-40427937D01*
X184318937Y-40283774D01*
X184432205Y-40114256D01*
X184510226Y-39925898D01*
X184550000Y-39725939D01*
X184550000Y-39522061D01*
X184510226Y-39322102D01*
X184432205Y-39133744D01*
X184318937Y-38964226D01*
X184174774Y-38820063D01*
X184005256Y-38706795D01*
X183816898Y-38628774D01*
X183616939Y-38589000D01*
X183413061Y-38589000D01*
X183213102Y-38628774D01*
X183024744Y-38706795D01*
X182855226Y-38820063D01*
X182711063Y-38964226D01*
X182597795Y-39133744D01*
X182519774Y-39322102D01*
X182480000Y-39522061D01*
X176206539Y-39522061D01*
X176177205Y-39451244D01*
X176063937Y-39281726D01*
X175919774Y-39137563D01*
X175750256Y-39024295D01*
X175561898Y-38946274D01*
X175361939Y-38906500D01*
X175158061Y-38906500D01*
X174958102Y-38946274D01*
X174769744Y-39024295D01*
X174600226Y-39137563D01*
X174456063Y-39281726D01*
X174342795Y-39451244D01*
X174264774Y-39639602D01*
X174225000Y-39839561D01*
X173383272Y-39839561D01*
X173379774Y-39836063D01*
X173210256Y-39722795D01*
X173021898Y-39644774D01*
X172821939Y-39605000D01*
X172618061Y-39605000D01*
X172418102Y-39644774D01*
X172229744Y-39722795D01*
X172060226Y-39836063D01*
X171916063Y-39980226D01*
X171802795Y-40149744D01*
X171724774Y-40338102D01*
X171685000Y-40538061D01*
X163595000Y-40538061D01*
X163555226Y-40338102D01*
X163477205Y-40149744D01*
X163363937Y-39980226D01*
X163219774Y-39836063D01*
X163050256Y-39722795D01*
X162861898Y-39644774D01*
X162661939Y-39605000D01*
X162458061Y-39605000D01*
X162258102Y-39644774D01*
X162069744Y-39722795D01*
X161900226Y-39836063D01*
X161756063Y-39980226D01*
X161642795Y-40149744D01*
X161564774Y-40338102D01*
X161525000Y-40538061D01*
X158614714Y-40538061D01*
X158698383Y-40336067D01*
X158742000Y-40116788D01*
X158742000Y-39893212D01*
X158698383Y-39673933D01*
X158612824Y-39467376D01*
X158488612Y-39281480D01*
X158330520Y-39123388D01*
X158144624Y-38999176D01*
X157938067Y-38913617D01*
X157718788Y-38870000D01*
X157495212Y-38870000D01*
X157275933Y-38913617D01*
X157069376Y-38999176D01*
X156883480Y-39123388D01*
X156725388Y-39281480D01*
X156601176Y-39467376D01*
X156515617Y-39673933D01*
X156472000Y-39893212D01*
X156227007Y-39893212D01*
X156093475Y-39693368D01*
X155961620Y-39561513D01*
X156034180Y-39539502D01*
X156144494Y-39480537D01*
X156241185Y-39401185D01*
X156320537Y-39304494D01*
X156379502Y-39194180D01*
X156415812Y-39074482D01*
X156428072Y-38950000D01*
X156428072Y-37998061D01*
X178035000Y-37998061D01*
X178035000Y-38201939D01*
X178074774Y-38401898D01*
X178152795Y-38590256D01*
X178266063Y-38759774D01*
X178410226Y-38903937D01*
X178579744Y-39017205D01*
X178768102Y-39095226D01*
X178968061Y-39135000D01*
X179171939Y-39135000D01*
X179371898Y-39095226D01*
X179560256Y-39017205D01*
X179729774Y-38903937D01*
X179873937Y-38759774D01*
X179987205Y-38590256D01*
X180065226Y-38401898D01*
X180105000Y-38201939D01*
X180105000Y-37998061D01*
X180575000Y-37998061D01*
X180575000Y-38201939D01*
X180614774Y-38401898D01*
X180692795Y-38590256D01*
X180806063Y-38759774D01*
X180950226Y-38903937D01*
X181119744Y-39017205D01*
X181308102Y-39095226D01*
X181508061Y-39135000D01*
X181711939Y-39135000D01*
X181911898Y-39095226D01*
X182100256Y-39017205D01*
X182269774Y-38903937D01*
X182413937Y-38759774D01*
X182527205Y-38590256D01*
X182605226Y-38401898D01*
X182645000Y-38201939D01*
X182645000Y-37998061D01*
X182605226Y-37798102D01*
X182527205Y-37609744D01*
X182413937Y-37440226D01*
X182269774Y-37296063D01*
X182200836Y-37250000D01*
X186471928Y-37250000D01*
X186471928Y-38950000D01*
X186484188Y-39074482D01*
X186520498Y-39194180D01*
X186579463Y-39304494D01*
X186658815Y-39401185D01*
X186755506Y-39480537D01*
X186865820Y-39539502D01*
X186938380Y-39561513D01*
X186806525Y-39693368D01*
X186644010Y-39936589D01*
X186532068Y-40206842D01*
X186475000Y-40493740D01*
X186475000Y-40786260D01*
X186532068Y-41073158D01*
X186644010Y-41343411D01*
X186806525Y-41586632D01*
X187013368Y-41793475D01*
X187187760Y-41910000D01*
X187013368Y-42026525D01*
X186806525Y-42233368D01*
X186644010Y-42476589D01*
X186532068Y-42746842D01*
X186475000Y-43033740D01*
X186475000Y-43326260D01*
X186532068Y-43613158D01*
X186644010Y-43883411D01*
X186806525Y-44126632D01*
X187013368Y-44333475D01*
X187187760Y-44450000D01*
X187013368Y-44566525D01*
X186806525Y-44773368D01*
X186644010Y-45016589D01*
X186532068Y-45286842D01*
X186475000Y-45573740D01*
X186475000Y-45866260D01*
X186532068Y-46153158D01*
X186644010Y-46423411D01*
X186806525Y-46666632D01*
X187013368Y-46873475D01*
X187187760Y-46990000D01*
X187013368Y-47106525D01*
X186806525Y-47313368D01*
X186644010Y-47556589D01*
X186532068Y-47826842D01*
X186475000Y-48113740D01*
X186475000Y-48406260D01*
X186532068Y-48693158D01*
X186644010Y-48963411D01*
X186806525Y-49206632D01*
X187013368Y-49413475D01*
X187187760Y-49530000D01*
X187013368Y-49646525D01*
X186806525Y-49853368D01*
X186644010Y-50096589D01*
X186532068Y-50366842D01*
X186475000Y-50653740D01*
X186475000Y-50946260D01*
X186532068Y-51233158D01*
X186644010Y-51503411D01*
X186806525Y-51746632D01*
X187013368Y-51953475D01*
X187187760Y-52070000D01*
X187013368Y-52186525D01*
X186806525Y-52393368D01*
X186644010Y-52636589D01*
X186532068Y-52906842D01*
X186475000Y-53193740D01*
X186475000Y-53486260D01*
X186532068Y-53773158D01*
X186644010Y-54043411D01*
X186806525Y-54286632D01*
X187013368Y-54493475D01*
X187256589Y-54655990D01*
X187526842Y-54767932D01*
X187813740Y-54825000D01*
X188106260Y-54825000D01*
X188393158Y-54767932D01*
X188663411Y-54655990D01*
X188906632Y-54493475D01*
X189113475Y-54286632D01*
X189275990Y-54043411D01*
X189387932Y-53773158D01*
X189445000Y-53486260D01*
X189445000Y-53193740D01*
X189387932Y-52906842D01*
X189275990Y-52636589D01*
X189113475Y-52393368D01*
X188906632Y-52186525D01*
X188732240Y-52070000D01*
X188906632Y-51953475D01*
X189113475Y-51746632D01*
X189275990Y-51503411D01*
X189387932Y-51233158D01*
X189445000Y-50946260D01*
X189445000Y-50653740D01*
X189387932Y-50366842D01*
X189275990Y-50096589D01*
X189113475Y-49853368D01*
X188906632Y-49646525D01*
X188732240Y-49530000D01*
X188906632Y-49413475D01*
X189113475Y-49206632D01*
X189275990Y-48963411D01*
X189387932Y-48693158D01*
X189445000Y-48406260D01*
X189445000Y-48113740D01*
X189387932Y-47826842D01*
X189275990Y-47556589D01*
X189113475Y-47313368D01*
X188906632Y-47106525D01*
X188732240Y-46990000D01*
X188906632Y-46873475D01*
X189113475Y-46666632D01*
X189275990Y-46423411D01*
X189387932Y-46153158D01*
X189445000Y-45866260D01*
X189445000Y-45573740D01*
X189387932Y-45286842D01*
X189275990Y-45016589D01*
X189113475Y-44773368D01*
X188906632Y-44566525D01*
X188732240Y-44450000D01*
X188906632Y-44333475D01*
X189113475Y-44126632D01*
X189275990Y-43883411D01*
X189387932Y-43613158D01*
X189445000Y-43326260D01*
X189445000Y-43033740D01*
X189387932Y-42746842D01*
X189275990Y-42476589D01*
X189113475Y-42233368D01*
X188906632Y-42026525D01*
X188732240Y-41910000D01*
X188906632Y-41793475D01*
X189113475Y-41586632D01*
X189275990Y-41343411D01*
X189387932Y-41073158D01*
X189445000Y-40786260D01*
X189445000Y-40493740D01*
X189387932Y-40206842D01*
X189275990Y-39936589D01*
X189113475Y-39693368D01*
X188981620Y-39561513D01*
X189054180Y-39539502D01*
X189164494Y-39480537D01*
X189261185Y-39401185D01*
X189340537Y-39304494D01*
X189399502Y-39194180D01*
X189435812Y-39074482D01*
X189448072Y-38950000D01*
X189448072Y-37250000D01*
X191551928Y-37250000D01*
X191551928Y-38950000D01*
X191564188Y-39074482D01*
X191600498Y-39194180D01*
X191659463Y-39304494D01*
X191738815Y-39401185D01*
X191835506Y-39480537D01*
X191945820Y-39539502D01*
X192065518Y-39575812D01*
X192190000Y-39588072D01*
X193890000Y-39588072D01*
X194014482Y-39575812D01*
X194134180Y-39539502D01*
X194244494Y-39480537D01*
X194341185Y-39401185D01*
X194420537Y-39304494D01*
X194479502Y-39194180D01*
X194515812Y-39074482D01*
X194528072Y-38950000D01*
X194528072Y-37250000D01*
X194515812Y-37125518D01*
X194479502Y-37005820D01*
X194420537Y-36895506D01*
X194341185Y-36798815D01*
X194244494Y-36719463D01*
X194134180Y-36660498D01*
X194014482Y-36624188D01*
X193890000Y-36611928D01*
X192190000Y-36611928D01*
X192065518Y-36624188D01*
X191945820Y-36660498D01*
X191835506Y-36719463D01*
X191738815Y-36798815D01*
X191659463Y-36895506D01*
X191600498Y-37005820D01*
X191564188Y-37125518D01*
X191551928Y-37250000D01*
X189448072Y-37250000D01*
X189435812Y-37125518D01*
X189399502Y-37005820D01*
X189340537Y-36895506D01*
X189261185Y-36798815D01*
X189164494Y-36719463D01*
X189054180Y-36660498D01*
X188934482Y-36624188D01*
X188810000Y-36611928D01*
X187110000Y-36611928D01*
X186985518Y-36624188D01*
X186865820Y-36660498D01*
X186755506Y-36719463D01*
X186658815Y-36798815D01*
X186579463Y-36895506D01*
X186520498Y-37005820D01*
X186484188Y-37125518D01*
X186471928Y-37250000D01*
X182200836Y-37250000D01*
X182100256Y-37182795D01*
X181911898Y-37104774D01*
X181711939Y-37065000D01*
X181508061Y-37065000D01*
X181308102Y-37104774D01*
X181119744Y-37182795D01*
X180950226Y-37296063D01*
X180806063Y-37440226D01*
X180692795Y-37609744D01*
X180614774Y-37798102D01*
X180575000Y-37998061D01*
X180105000Y-37998061D01*
X180065226Y-37798102D01*
X179987205Y-37609744D01*
X179873937Y-37440226D01*
X179729774Y-37296063D01*
X179560256Y-37182795D01*
X179371898Y-37104774D01*
X179171939Y-37065000D01*
X178968061Y-37065000D01*
X178768102Y-37104774D01*
X178579744Y-37182795D01*
X178410226Y-37296063D01*
X178266063Y-37440226D01*
X178152795Y-37609744D01*
X178074774Y-37798102D01*
X178035000Y-37998061D01*
X156428072Y-37998061D01*
X156428072Y-37250000D01*
X156415812Y-37125518D01*
X156379502Y-37005820D01*
X156320537Y-36895506D01*
X156241185Y-36798815D01*
X156144494Y-36719463D01*
X156034180Y-36660498D01*
X155914482Y-36624188D01*
X155790000Y-36611928D01*
X154090000Y-36611928D01*
X153965518Y-36624188D01*
X153845820Y-36660498D01*
X153735506Y-36719463D01*
X153638815Y-36798815D01*
X153559463Y-36895506D01*
X153500498Y-37005820D01*
X153464188Y-37125518D01*
X153451928Y-37250000D01*
X151348072Y-37250000D01*
X151335812Y-37125518D01*
X151299502Y-37005820D01*
X151240537Y-36895506D01*
X151161185Y-36798815D01*
X151064494Y-36719463D01*
X150954180Y-36660498D01*
X150834482Y-36624188D01*
X150710000Y-36611928D01*
X149010000Y-36611928D01*
X148885518Y-36624188D01*
X148765820Y-36660498D01*
X148655506Y-36719463D01*
X148558815Y-36798815D01*
X148479463Y-36895506D01*
X148420498Y-37005820D01*
X148384188Y-37125518D01*
X148371928Y-37250000D01*
X147980000Y-37250000D01*
X147980000Y-36862279D01*
X147994722Y-36712131D01*
X148028953Y-36598754D01*
X148084555Y-36494181D01*
X148159407Y-36402404D01*
X148250664Y-36326909D01*
X148354844Y-36270581D01*
X148467976Y-36235560D01*
X148616022Y-36220000D01*
X194277721Y-36220000D01*
X194427869Y-36234722D01*
%TA.AperFunction,Conductor*%
D15*
G36*
X194427869Y-36234722D02*
G01*
X194541246Y-36268953D01*
X194645819Y-36324555D01*
X194737596Y-36399407D01*
X194813091Y-36490664D01*
X194869419Y-36594844D01*
X194904440Y-36707976D01*
X194920000Y-36856022D01*
X194920000Y-39865550D01*
X194768067Y-39802617D01*
X194548788Y-39759000D01*
X194325212Y-39759000D01*
X194105933Y-39802617D01*
X193899376Y-39888176D01*
X193713480Y-40012388D01*
X193611500Y-40114368D01*
X193509520Y-40012388D01*
X193323624Y-39888176D01*
X193117067Y-39802617D01*
X192897788Y-39759000D01*
X192674212Y-39759000D01*
X192454933Y-39802617D01*
X192248376Y-39888176D01*
X192062480Y-40012388D01*
X191904388Y-40170480D01*
X191780176Y-40356376D01*
X191694617Y-40562933D01*
X191651000Y-40782212D01*
X191651000Y-41005788D01*
X191694617Y-41225067D01*
X191780176Y-41431624D01*
X191904388Y-41617520D01*
X192062480Y-41775612D01*
X192248376Y-41899824D01*
X192454933Y-41985383D01*
X192674212Y-42029000D01*
X192897788Y-42029000D01*
X193117067Y-41985383D01*
X193323624Y-41899824D01*
X193509520Y-41775612D01*
X193611500Y-41673632D01*
X193655489Y-41717621D01*
X193565744Y-41754795D01*
X193396226Y-41868063D01*
X193252063Y-42012226D01*
X193138795Y-42181744D01*
X193060774Y-42370102D01*
X193021000Y-42570061D01*
X193021000Y-42773939D01*
X193060774Y-42973898D01*
X193138795Y-43162256D01*
X193252063Y-43331774D01*
X193396226Y-43475937D01*
X193565744Y-43589205D01*
X193754102Y-43667226D01*
X193954061Y-43707000D01*
X194119619Y-43707000D01*
X192596236Y-45230384D01*
X192571052Y-45251052D01*
X192550386Y-45276234D01*
X192488575Y-45351550D01*
X192453003Y-45418102D01*
X192427290Y-45466208D01*
X192389550Y-45590618D01*
X192380000Y-45687582D01*
X192380000Y-45687591D01*
X192376808Y-45720000D01*
X192380000Y-45752409D01*
X192380001Y-76167581D01*
X192376808Y-76200000D01*
X192380001Y-76232418D01*
X192380001Y-76232419D01*
X192389551Y-76329383D01*
X192394671Y-76346260D01*
X192427290Y-76453792D01*
X192488575Y-76568450D01*
X192550386Y-76643766D01*
X192550388Y-76643768D01*
X192571053Y-76668948D01*
X192596232Y-76689612D01*
X194172897Y-78266278D01*
X194040788Y-78240000D01*
X193817212Y-78240000D01*
X193597933Y-78283617D01*
X193391376Y-78369176D01*
X193205480Y-78493388D01*
X193047388Y-78651480D01*
X192923176Y-78837376D01*
X192837617Y-79043933D01*
X192794000Y-79263212D01*
X192794000Y-79486788D01*
X192837617Y-79706067D01*
X192923176Y-79912624D01*
X193047388Y-80098520D01*
X193205480Y-80256612D01*
X193216537Y-80264000D01*
X193205480Y-80271388D01*
X193047388Y-80429480D01*
X192923176Y-80615376D01*
X192837617Y-80821933D01*
X192794000Y-81041212D01*
X192794000Y-81264788D01*
X192837617Y-81484067D01*
X192923176Y-81690624D01*
X193047388Y-81876520D01*
X193205480Y-82034612D01*
X193391376Y-82158824D01*
X193597933Y-82244383D01*
X193817212Y-82288000D01*
X194040788Y-82288000D01*
X194260067Y-82244383D01*
X194466624Y-82158824D01*
X194652520Y-82034612D01*
X194810612Y-81876520D01*
X194920000Y-81712809D01*
X194920001Y-85057711D01*
X194905278Y-85207869D01*
X194871047Y-85321246D01*
X194815446Y-85425817D01*
X194740594Y-85517595D01*
X194649335Y-85593091D01*
X194545160Y-85649419D01*
X194432024Y-85684440D01*
X194283979Y-85700000D01*
X158952195Y-85700000D01*
X159032205Y-85580256D01*
X159110226Y-85391898D01*
X159150000Y-85191939D01*
X159150000Y-84988061D01*
X159110226Y-84788102D01*
X159032205Y-84599744D01*
X158918937Y-84430226D01*
X158774774Y-84286063D01*
X158605256Y-84172795D01*
X158416898Y-84094774D01*
X158216939Y-84055000D01*
X158013061Y-84055000D01*
X157813102Y-84094774D01*
X157624744Y-84172795D01*
X157455226Y-84286063D01*
X157311063Y-84430226D01*
X157197795Y-84599744D01*
X157119774Y-84788102D01*
X157080000Y-84988061D01*
X157080000Y-85191939D01*
X157119774Y-85391898D01*
X157197795Y-85580256D01*
X157277805Y-85700000D01*
X148622279Y-85700000D01*
X148472131Y-85685278D01*
X148358754Y-85651047D01*
X148254183Y-85595446D01*
X148162405Y-85520594D01*
X148086909Y-85429335D01*
X148030581Y-85325160D01*
X147995560Y-85212024D01*
X147980000Y-85063979D01*
X147980000Y-82970000D01*
X148371928Y-82970000D01*
X148371928Y-84670000D01*
X148384188Y-84794482D01*
X148420498Y-84914180D01*
X148479463Y-85024494D01*
X148558815Y-85121185D01*
X148655506Y-85200537D01*
X148765820Y-85259502D01*
X148885518Y-85295812D01*
X149010000Y-85308072D01*
X150710000Y-85308072D01*
X150834482Y-85295812D01*
X150954180Y-85259502D01*
X151064494Y-85200537D01*
X151161185Y-85121185D01*
X151240537Y-85024494D01*
X151299502Y-84914180D01*
X151335812Y-84794482D01*
X151348072Y-84670000D01*
X151348072Y-82970000D01*
X151335812Y-82845518D01*
X151299502Y-82725820D01*
X151240537Y-82615506D01*
X151161185Y-82518815D01*
X151064494Y-82439463D01*
X150954180Y-82380498D01*
X150834482Y-82344188D01*
X150710000Y-82331928D01*
X149010000Y-82331928D01*
X148885518Y-82344188D01*
X148765820Y-82380498D01*
X148655506Y-82439463D01*
X148558815Y-82518815D01*
X148479463Y-82615506D01*
X148420498Y-82725820D01*
X148384188Y-82845518D01*
X148371928Y-82970000D01*
X147980000Y-82970000D01*
X147980000Y-82021132D01*
X147993480Y-82034612D01*
X148179376Y-82158824D01*
X148385933Y-82244383D01*
X148605212Y-82288000D01*
X148828788Y-82288000D01*
X149048067Y-82244383D01*
X149254624Y-82158824D01*
X149440520Y-82034612D01*
X149598612Y-81876520D01*
X149606000Y-81865463D01*
X149613388Y-81876520D01*
X149771480Y-82034612D01*
X149957376Y-82158824D01*
X150163933Y-82244383D01*
X150383212Y-82288000D01*
X150606788Y-82288000D01*
X150826067Y-82244383D01*
X151032624Y-82158824D01*
X151218520Y-82034612D01*
X151376612Y-81876520D01*
X151500824Y-81690624D01*
X151586383Y-81484067D01*
X151630000Y-81264788D01*
X151630000Y-81041212D01*
X151586383Y-80821933D01*
X151500824Y-80615376D01*
X151376612Y-80429480D01*
X151218520Y-80271388D01*
X151032624Y-80147176D01*
X150826067Y-80061617D01*
X150606788Y-80018000D01*
X150383212Y-80018000D01*
X150163933Y-80061617D01*
X149957376Y-80147176D01*
X149771480Y-80271388D01*
X149613388Y-80429480D01*
X149606000Y-80440537D01*
X149598612Y-80429480D01*
X149440520Y-80271388D01*
X149254624Y-80147176D01*
X149048067Y-80061617D01*
X148828788Y-80018000D01*
X148605212Y-80018000D01*
X148385933Y-80061617D01*
X148179376Y-80147176D01*
X147993480Y-80271388D01*
X147980000Y-80284868D01*
X147980000Y-79013380D01*
X148063000Y-78930380D01*
X148063000Y-79095939D01*
X148102774Y-79295898D01*
X148180795Y-79484256D01*
X148294063Y-79653774D01*
X148438226Y-79797937D01*
X148607744Y-79911205D01*
X148796102Y-79989226D01*
X148996061Y-80029000D01*
X149199939Y-80029000D01*
X149399898Y-79989226D01*
X149588256Y-79911205D01*
X149757774Y-79797937D01*
X149901937Y-79653774D01*
X150015205Y-79484256D01*
X150093226Y-79295898D01*
X150133000Y-79095939D01*
X150133000Y-78892061D01*
X150093226Y-78692102D01*
X150015205Y-78503744D01*
X149901937Y-78334226D01*
X149757774Y-78190063D01*
X149588256Y-78076795D01*
X149399898Y-77998774D01*
X149199939Y-77959000D01*
X149034380Y-77959000D01*
X150303770Y-76689611D01*
X150328948Y-76668948D01*
X150349615Y-76643766D01*
X150411424Y-76568451D01*
X150411425Y-76568450D01*
X150472710Y-76453793D01*
X150510450Y-76329383D01*
X150520000Y-76232419D01*
X150520000Y-76232410D01*
X150523192Y-76200001D01*
X150520000Y-76167592D01*
X150520000Y-45752408D01*
X150523192Y-45719999D01*
X150520000Y-45687590D01*
X150520000Y-45687581D01*
X150510450Y-45590617D01*
X150472710Y-45466207D01*
X150411425Y-45351550D01*
X150358320Y-45286842D01*
X150349613Y-45276232D01*
X150349612Y-45276231D01*
X150328948Y-45251052D01*
X150303769Y-45230388D01*
X149943381Y-44870000D01*
X153451928Y-44870000D01*
X153451928Y-46570000D01*
X153464188Y-46694482D01*
X153500498Y-46814180D01*
X153559463Y-46924494D01*
X153638815Y-47021185D01*
X153735506Y-47100537D01*
X153845820Y-47159502D01*
X153918380Y-47181513D01*
X153786525Y-47313368D01*
X153624010Y-47556589D01*
X153512068Y-47826842D01*
X153455000Y-48113740D01*
X153455000Y-48406260D01*
X153512068Y-48693158D01*
X153624010Y-48963411D01*
X153786525Y-49206632D01*
X153993368Y-49413475D01*
X154167760Y-49530000D01*
X153993368Y-49646525D01*
X153786525Y-49853368D01*
X153624010Y-50096589D01*
X153512068Y-50366842D01*
X153455000Y-50653740D01*
X153455000Y-50946260D01*
X153512068Y-51233158D01*
X153624010Y-51503411D01*
X153786525Y-51746632D01*
X153993368Y-51953475D01*
X154167760Y-52070000D01*
X153993368Y-52186525D01*
X153786525Y-52393368D01*
X153624010Y-52636589D01*
X153512068Y-52906842D01*
X153455000Y-53193740D01*
X153455000Y-53486260D01*
X153512068Y-53773158D01*
X153624010Y-54043411D01*
X153786525Y-54286632D01*
X153993368Y-54493475D01*
X154167760Y-54610000D01*
X153993368Y-54726525D01*
X153786525Y-54933368D01*
X153624010Y-55176589D01*
X153512068Y-55446842D01*
X153455000Y-55733740D01*
X153455000Y-56026260D01*
X153512068Y-56313158D01*
X153624010Y-56583411D01*
X153786525Y-56826632D01*
X153993368Y-57033475D01*
X154167760Y-57150000D01*
X153993368Y-57266525D01*
X153786525Y-57473368D01*
X153624010Y-57716589D01*
X153512068Y-57986842D01*
X153455000Y-58273740D01*
X153455000Y-58566260D01*
X153512068Y-58853158D01*
X153624010Y-59123411D01*
X153786525Y-59366632D01*
X153993368Y-59573475D01*
X154167760Y-59690000D01*
X153993368Y-59806525D01*
X153786525Y-60013368D01*
X153624010Y-60256589D01*
X153512068Y-60526842D01*
X153455000Y-60813740D01*
X153455000Y-61106260D01*
X153512068Y-61393158D01*
X153624010Y-61663411D01*
X153786525Y-61906632D01*
X153993368Y-62113475D01*
X154167760Y-62230000D01*
X153993368Y-62346525D01*
X153786525Y-62553368D01*
X153624010Y-62796589D01*
X153512068Y-63066842D01*
X153455000Y-63353740D01*
X153455000Y-63646260D01*
X153512068Y-63933158D01*
X153624010Y-64203411D01*
X153786525Y-64446632D01*
X153993368Y-64653475D01*
X154167760Y-64770000D01*
X153993368Y-64886525D01*
X153786525Y-65093368D01*
X153624010Y-65336589D01*
X153512068Y-65606842D01*
X153455000Y-65893740D01*
X153455000Y-66186260D01*
X153512068Y-66473158D01*
X153624010Y-66743411D01*
X153786525Y-66986632D01*
X153993368Y-67193475D01*
X154167760Y-67310000D01*
X153993368Y-67426525D01*
X153786525Y-67633368D01*
X153624010Y-67876589D01*
X153512068Y-68146842D01*
X153455000Y-68433740D01*
X153455000Y-68726260D01*
X153512068Y-69013158D01*
X153624010Y-69283411D01*
X153786525Y-69526632D01*
X153993368Y-69733475D01*
X154167760Y-69850000D01*
X153993368Y-69966525D01*
X153786525Y-70173368D01*
X153624010Y-70416589D01*
X153512068Y-70686842D01*
X153455000Y-70973740D01*
X153455000Y-71266260D01*
X153512068Y-71553158D01*
X153624010Y-71823411D01*
X153786525Y-72066632D01*
X153993368Y-72273475D01*
X154167760Y-72390000D01*
X153993368Y-72506525D01*
X153786525Y-72713368D01*
X153624010Y-72956589D01*
X153512068Y-73226842D01*
X153455000Y-73513740D01*
X153455000Y-73806260D01*
X153512068Y-74093158D01*
X153624010Y-74363411D01*
X153786525Y-74606632D01*
X153993368Y-74813475D01*
X154167760Y-74930000D01*
X153993368Y-75046525D01*
X153786525Y-75253368D01*
X153624010Y-75496589D01*
X153512068Y-75766842D01*
X153455000Y-76053740D01*
X153455000Y-76346260D01*
X153512068Y-76633158D01*
X153624010Y-76903411D01*
X153786525Y-77146632D01*
X153993368Y-77353475D01*
X154167760Y-77470000D01*
X153993368Y-77586525D01*
X153786525Y-77793368D01*
X153624010Y-78036589D01*
X153512068Y-78306842D01*
X153455000Y-78593740D01*
X153455000Y-78886260D01*
X153512068Y-79173158D01*
X153624010Y-79443411D01*
X153786525Y-79686632D01*
X153993368Y-79893475D01*
X154167760Y-80010000D01*
X153993368Y-80126525D01*
X153786525Y-80333368D01*
X153624010Y-80576589D01*
X153512068Y-80846842D01*
X153455000Y-81133740D01*
X153455000Y-81426260D01*
X153512068Y-81713158D01*
X153624010Y-81983411D01*
X153786525Y-82226632D01*
X153993368Y-82433475D01*
X154167760Y-82550000D01*
X153993368Y-82666525D01*
X153786525Y-82873368D01*
X153624010Y-83116589D01*
X153512068Y-83386842D01*
X153455000Y-83673740D01*
X153455000Y-83966260D01*
X153512068Y-84253158D01*
X153624010Y-84523411D01*
X153786525Y-84766632D01*
X153993368Y-84973475D01*
X154236589Y-85135990D01*
X154506842Y-85247932D01*
X154793740Y-85305000D01*
X155086260Y-85305000D01*
X155373158Y-85247932D01*
X155643411Y-85135990D01*
X155886632Y-84973475D01*
X156093475Y-84766632D01*
X156255990Y-84523411D01*
X156367932Y-84253158D01*
X156425000Y-83966260D01*
X156425000Y-83962212D01*
X184031000Y-83962212D01*
X184031000Y-84185788D01*
X184074617Y-84405067D01*
X184160176Y-84611624D01*
X184284388Y-84797520D01*
X184442480Y-84955612D01*
X184628376Y-85079824D01*
X184834933Y-85165383D01*
X185054212Y-85209000D01*
X185277788Y-85209000D01*
X185497067Y-85165383D01*
X185703624Y-85079824D01*
X185889520Y-84955612D01*
X186047612Y-84797520D01*
X186171824Y-84611624D01*
X186257383Y-84405067D01*
X186301000Y-84185788D01*
X186301000Y-83962212D01*
X186257383Y-83742933D01*
X186171824Y-83536376D01*
X186047612Y-83350480D01*
X185889520Y-83192388D01*
X185703624Y-83068176D01*
X185497067Y-82982617D01*
X185277788Y-82939000D01*
X185054212Y-82939000D01*
X184834933Y-82982617D01*
X184628376Y-83068176D01*
X184442480Y-83192388D01*
X184284388Y-83350480D01*
X184160176Y-83536376D01*
X184074617Y-83742933D01*
X184031000Y-83962212D01*
X156425000Y-83962212D01*
X156425000Y-83673740D01*
X156367932Y-83386842D01*
X156255990Y-83116589D01*
X156093475Y-82873368D01*
X155886632Y-82666525D01*
X155712240Y-82550000D01*
X155886632Y-82433475D01*
X156093475Y-82226632D01*
X156255990Y-81983411D01*
X156367932Y-81713158D01*
X156425000Y-81426260D01*
X156425000Y-81133740D01*
X156367932Y-80846842D01*
X156255990Y-80576589D01*
X156158043Y-80430000D01*
X158531928Y-80430000D01*
X158531928Y-82130000D01*
X158544188Y-82254482D01*
X158580498Y-82374180D01*
X158639463Y-82484494D01*
X158718815Y-82581185D01*
X158815506Y-82660537D01*
X158925820Y-82719502D01*
X159045518Y-82755812D01*
X159170000Y-82768072D01*
X160870000Y-82768072D01*
X160994482Y-82755812D01*
X161114180Y-82719502D01*
X161224494Y-82660537D01*
X161321185Y-82581185D01*
X161400537Y-82484494D01*
X161459502Y-82374180D01*
X161481513Y-82301620D01*
X161613368Y-82433475D01*
X161856589Y-82595990D01*
X162126842Y-82707932D01*
X162413740Y-82765000D01*
X162706260Y-82765000D01*
X162993158Y-82707932D01*
X163263411Y-82595990D01*
X163506632Y-82433475D01*
X163713475Y-82226632D01*
X163830000Y-82052240D01*
X163946525Y-82226632D01*
X164153368Y-82433475D01*
X164396589Y-82595990D01*
X164666842Y-82707932D01*
X164953740Y-82765000D01*
X165246260Y-82765000D01*
X165533158Y-82707932D01*
X165803411Y-82595990D01*
X166046632Y-82433475D01*
X166253475Y-82226632D01*
X166370000Y-82052240D01*
X166486525Y-82226632D01*
X166693368Y-82433475D01*
X166936589Y-82595990D01*
X167206842Y-82707932D01*
X167493740Y-82765000D01*
X167786260Y-82765000D01*
X168073158Y-82707932D01*
X168343411Y-82595990D01*
X168586632Y-82433475D01*
X168793475Y-82226632D01*
X168910000Y-82052240D01*
X169026525Y-82226632D01*
X169233368Y-82433475D01*
X169476589Y-82595990D01*
X169746842Y-82707932D01*
X170033740Y-82765000D01*
X170326260Y-82765000D01*
X170613158Y-82707932D01*
X170883411Y-82595990D01*
X171126632Y-82433475D01*
X171333475Y-82226632D01*
X171450000Y-82052240D01*
X171566525Y-82226632D01*
X171773368Y-82433475D01*
X172016589Y-82595990D01*
X172286842Y-82707932D01*
X172573740Y-82765000D01*
X172866260Y-82765000D01*
X173153158Y-82707932D01*
X173423411Y-82595990D01*
X173666632Y-82433475D01*
X173873475Y-82226632D01*
X173990000Y-82052240D01*
X174106525Y-82226632D01*
X174313368Y-82433475D01*
X174556589Y-82595990D01*
X174826842Y-82707932D01*
X175113740Y-82765000D01*
X175406260Y-82765000D01*
X175693158Y-82707932D01*
X175963411Y-82595990D01*
X176206632Y-82433475D01*
X176413475Y-82226632D01*
X176530000Y-82052240D01*
X176646525Y-82226632D01*
X176853368Y-82433475D01*
X177096589Y-82595990D01*
X177366842Y-82707932D01*
X177653740Y-82765000D01*
X177946260Y-82765000D01*
X178233158Y-82707932D01*
X178503411Y-82595990D01*
X178746632Y-82433475D01*
X178953475Y-82226632D01*
X179070000Y-82052240D01*
X179186525Y-82226632D01*
X179393368Y-82433475D01*
X179636589Y-82595990D01*
X179906842Y-82707932D01*
X180193740Y-82765000D01*
X180486260Y-82765000D01*
X180773158Y-82707932D01*
X181043411Y-82595990D01*
X181286632Y-82433475D01*
X181493475Y-82226632D01*
X181610000Y-82052240D01*
X181726525Y-82226632D01*
X181933368Y-82433475D01*
X182176589Y-82595990D01*
X182446842Y-82707932D01*
X182733740Y-82765000D01*
X183026260Y-82765000D01*
X183313158Y-82707932D01*
X183583411Y-82595990D01*
X183826632Y-82433475D01*
X184033475Y-82226632D01*
X184195990Y-81983411D01*
X184307932Y-81713158D01*
X184365000Y-81426260D01*
X184365000Y-81133740D01*
X184307932Y-80846842D01*
X184195990Y-80576589D01*
X184033475Y-80333368D01*
X183826632Y-80126525D01*
X183583411Y-79964010D01*
X183313158Y-79852068D01*
X183026260Y-79795000D01*
X182733740Y-79795000D01*
X182446842Y-79852068D01*
X182176589Y-79964010D01*
X181933368Y-80126525D01*
X181726525Y-80333368D01*
X181610000Y-80507760D01*
X181493475Y-80333368D01*
X181286632Y-80126525D01*
X181043411Y-79964010D01*
X180773158Y-79852068D01*
X180486260Y-79795000D01*
X180193740Y-79795000D01*
X179906842Y-79852068D01*
X179636589Y-79964010D01*
X179393368Y-80126525D01*
X179186525Y-80333368D01*
X179070000Y-80507760D01*
X178953475Y-80333368D01*
X178746632Y-80126525D01*
X178503411Y-79964010D01*
X178233158Y-79852068D01*
X177946260Y-79795000D01*
X177653740Y-79795000D01*
X177366842Y-79852068D01*
X177096589Y-79964010D01*
X176853368Y-80126525D01*
X176646525Y-80333368D01*
X176530000Y-80507760D01*
X176413475Y-80333368D01*
X176206632Y-80126525D01*
X175963411Y-79964010D01*
X175693158Y-79852068D01*
X175406260Y-79795000D01*
X175113740Y-79795000D01*
X174826842Y-79852068D01*
X174556589Y-79964010D01*
X174313368Y-80126525D01*
X174106525Y-80333368D01*
X173990000Y-80507760D01*
X173873475Y-80333368D01*
X173666632Y-80126525D01*
X173423411Y-79964010D01*
X173153158Y-79852068D01*
X173050118Y-79831572D01*
X173051067Y-79831383D01*
X173257624Y-79745824D01*
X173443520Y-79621612D01*
X173601612Y-79463520D01*
X173725824Y-79277624D01*
X173811383Y-79071067D01*
X173855000Y-78851788D01*
X173855000Y-78628212D01*
X173811383Y-78408933D01*
X173725824Y-78202376D01*
X173601612Y-78016480D01*
X173443520Y-77858388D01*
X173257624Y-77734176D01*
X173051067Y-77648617D01*
X172831788Y-77605000D01*
X172608212Y-77605000D01*
X172388933Y-77648617D01*
X172182376Y-77734176D01*
X171996480Y-77858388D01*
X171838388Y-78016480D01*
X171714176Y-78202376D01*
X171628617Y-78408933D01*
X171585000Y-78628212D01*
X171585000Y-78851788D01*
X171628617Y-79071067D01*
X171714176Y-79277624D01*
X171838388Y-79463520D01*
X171996480Y-79621612D01*
X172182376Y-79745824D01*
X172388933Y-79831383D01*
X172389882Y-79831572D01*
X172286842Y-79852068D01*
X172016589Y-79964010D01*
X171773368Y-80126525D01*
X171566525Y-80333368D01*
X171450000Y-80507760D01*
X171333475Y-80333368D01*
X171126632Y-80126525D01*
X170883411Y-79964010D01*
X170613158Y-79852068D01*
X170326260Y-79795000D01*
X170033740Y-79795000D01*
X169746842Y-79852068D01*
X169476589Y-79964010D01*
X169233368Y-80126525D01*
X169026525Y-80333368D01*
X168910000Y-80507760D01*
X168793475Y-80333368D01*
X168586632Y-80126525D01*
X168343411Y-79964010D01*
X168073158Y-79852068D01*
X167786260Y-79795000D01*
X167493740Y-79795000D01*
X167206842Y-79852068D01*
X166936589Y-79964010D01*
X166693368Y-80126525D01*
X166486525Y-80333368D01*
X166370000Y-80507760D01*
X166253475Y-80333368D01*
X166046632Y-80126525D01*
X165803411Y-79964010D01*
X165533158Y-79852068D01*
X165246260Y-79795000D01*
X164953740Y-79795000D01*
X164666842Y-79852068D01*
X164396589Y-79964010D01*
X164153368Y-80126525D01*
X163946525Y-80333368D01*
X163830000Y-80507760D01*
X163713475Y-80333368D01*
X163506632Y-80126525D01*
X163263411Y-79964010D01*
X162993158Y-79852068D01*
X162706260Y-79795000D01*
X162413740Y-79795000D01*
X162126842Y-79852068D01*
X161856589Y-79964010D01*
X161613368Y-80126525D01*
X161481513Y-80258380D01*
X161459502Y-80185820D01*
X161400537Y-80075506D01*
X161321185Y-79978815D01*
X161224494Y-79899463D01*
X161114180Y-79840498D01*
X160994482Y-79804188D01*
X160870000Y-79791928D01*
X159170000Y-79791928D01*
X159045518Y-79804188D01*
X158925820Y-79840498D01*
X158815506Y-79899463D01*
X158718815Y-79978815D01*
X158639463Y-80075506D01*
X158580498Y-80185820D01*
X158544188Y-80305518D01*
X158531928Y-80430000D01*
X156158043Y-80430000D01*
X156093475Y-80333368D01*
X155886632Y-80126525D01*
X155712240Y-80010000D01*
X155886632Y-79893475D01*
X156093475Y-79686632D01*
X156255990Y-79443411D01*
X156367932Y-79173158D01*
X156425000Y-78886260D01*
X156425000Y-78638061D01*
X158985000Y-78638061D01*
X158985000Y-78841939D01*
X159024774Y-79041898D01*
X159102795Y-79230256D01*
X159216063Y-79399774D01*
X159360226Y-79543937D01*
X159529744Y-79657205D01*
X159718102Y-79735226D01*
X159918061Y-79775000D01*
X160121939Y-79775000D01*
X160321898Y-79735226D01*
X160510256Y-79657205D01*
X160679774Y-79543937D01*
X160823937Y-79399774D01*
X160937205Y-79230256D01*
X161015226Y-79041898D01*
X161055000Y-78841939D01*
X161055000Y-78638061D01*
X161015226Y-78438102D01*
X160937205Y-78249744D01*
X160823937Y-78080226D01*
X160679774Y-77936063D01*
X160510256Y-77822795D01*
X160321898Y-77744774D01*
X160121939Y-77705000D01*
X159918061Y-77705000D01*
X159718102Y-77744774D01*
X159529744Y-77822795D01*
X159360226Y-77936063D01*
X159216063Y-78080226D01*
X159102795Y-78249744D01*
X159024774Y-78438102D01*
X158985000Y-78638061D01*
X156425000Y-78638061D01*
X156425000Y-78593740D01*
X156367932Y-78306842D01*
X156255990Y-78036589D01*
X156093475Y-77793368D01*
X155886632Y-77586525D01*
X155712240Y-77470000D01*
X155864802Y-77368061D01*
X178162000Y-77368061D01*
X178162000Y-77571939D01*
X178201774Y-77771898D01*
X178279795Y-77960256D01*
X178393063Y-78129774D01*
X178537226Y-78273937D01*
X178706744Y-78387205D01*
X178895102Y-78465226D01*
X179095061Y-78505000D01*
X179298939Y-78505000D01*
X179498898Y-78465226D01*
X179687256Y-78387205D01*
X179856774Y-78273937D01*
X180000937Y-78129774D01*
X180114205Y-77960256D01*
X180192226Y-77771898D01*
X180232000Y-77571939D01*
X180232000Y-77368061D01*
X180198961Y-77201961D01*
X180365061Y-77235000D01*
X180568939Y-77235000D01*
X180768898Y-77195226D01*
X180957256Y-77117205D01*
X181126774Y-77003937D01*
X181270937Y-76859774D01*
X181384205Y-76690256D01*
X181462226Y-76501898D01*
X181502000Y-76301939D01*
X181502000Y-76098061D01*
X181462226Y-75898102D01*
X181384205Y-75709744D01*
X181270937Y-75540226D01*
X181126774Y-75396063D01*
X180957256Y-75282795D01*
X180768898Y-75204774D01*
X180568939Y-75165000D01*
X180365061Y-75165000D01*
X180165102Y-75204774D01*
X179976744Y-75282795D01*
X179807226Y-75396063D01*
X179663063Y-75540226D01*
X179549795Y-75709744D01*
X179471774Y-75898102D01*
X179432000Y-76098061D01*
X179432000Y-76301939D01*
X179465039Y-76468039D01*
X179298939Y-76435000D01*
X179095061Y-76435000D01*
X178895102Y-76474774D01*
X178706744Y-76552795D01*
X178537226Y-76666063D01*
X178393063Y-76810226D01*
X178279795Y-76979744D01*
X178201774Y-77168102D01*
X178162000Y-77368061D01*
X155864802Y-77368061D01*
X155886632Y-77353475D01*
X156093475Y-77146632D01*
X156255990Y-76903411D01*
X156367932Y-76633158D01*
X156425000Y-76346260D01*
X156425000Y-76098061D01*
X161525000Y-76098061D01*
X161525000Y-76301939D01*
X161564774Y-76501898D01*
X161642795Y-76690256D01*
X161756063Y-76859774D01*
X161900226Y-77003937D01*
X162069744Y-77117205D01*
X162258102Y-77195226D01*
X162458061Y-77235000D01*
X162661939Y-77235000D01*
X162861898Y-77195226D01*
X163050256Y-77117205D01*
X163219774Y-77003937D01*
X163363937Y-76859774D01*
X163477205Y-76690256D01*
X163555226Y-76501898D01*
X163595000Y-76301939D01*
X163595000Y-76098061D01*
X163555226Y-75898102D01*
X163477205Y-75709744D01*
X163363937Y-75540226D01*
X163219774Y-75396063D01*
X163050256Y-75282795D01*
X162861898Y-75204774D01*
X162661939Y-75165000D01*
X162458061Y-75165000D01*
X162258102Y-75204774D01*
X162069744Y-75282795D01*
X161900226Y-75396063D01*
X161756063Y-75540226D01*
X161642795Y-75709744D01*
X161564774Y-75898102D01*
X161525000Y-76098061D01*
X156425000Y-76098061D01*
X156425000Y-76053740D01*
X156367932Y-75766842D01*
X156255990Y-75496589D01*
X156093475Y-75253368D01*
X155886632Y-75046525D01*
X155712240Y-74930000D01*
X155886632Y-74813475D01*
X156093475Y-74606632D01*
X156255990Y-74363411D01*
X156273946Y-74320061D01*
X156953000Y-74320061D01*
X156953000Y-74523939D01*
X156992774Y-74723898D01*
X157070795Y-74912256D01*
X157184063Y-75081774D01*
X157328226Y-75225937D01*
X157497744Y-75339205D01*
X157686102Y-75417226D01*
X157886061Y-75457000D01*
X158089939Y-75457000D01*
X158289898Y-75417226D01*
X158478256Y-75339205D01*
X158647774Y-75225937D01*
X158791937Y-75081774D01*
X158905205Y-74912256D01*
X158940079Y-74828061D01*
X181845000Y-74828061D01*
X181845000Y-75031939D01*
X181884774Y-75231898D01*
X181962795Y-75420256D01*
X182076063Y-75589774D01*
X182220226Y-75733937D01*
X182389744Y-75847205D01*
X182578102Y-75925226D01*
X182778061Y-75965000D01*
X182981939Y-75965000D01*
X183181898Y-75925226D01*
X183370256Y-75847205D01*
X183539774Y-75733937D01*
X183683937Y-75589774D01*
X183797205Y-75420256D01*
X183875226Y-75231898D01*
X183915000Y-75031939D01*
X183915000Y-74828061D01*
X183875226Y-74628102D01*
X183797205Y-74439744D01*
X183683937Y-74270226D01*
X183539774Y-74126063D01*
X183370256Y-74012795D01*
X183181898Y-73934774D01*
X182981939Y-73895000D01*
X182778061Y-73895000D01*
X182578102Y-73934774D01*
X182389744Y-74012795D01*
X182220226Y-74126063D01*
X182076063Y-74270226D01*
X181962795Y-74439744D01*
X181884774Y-74628102D01*
X181845000Y-74828061D01*
X158940079Y-74828061D01*
X158983226Y-74723898D01*
X159023000Y-74523939D01*
X159023000Y-74320061D01*
X158983226Y-74120102D01*
X158905205Y-73931744D01*
X158791937Y-73762226D01*
X158647774Y-73618063D01*
X158478256Y-73504795D01*
X158289898Y-73426774D01*
X158089939Y-73387000D01*
X157886061Y-73387000D01*
X157686102Y-73426774D01*
X157497744Y-73504795D01*
X157328226Y-73618063D01*
X157184063Y-73762226D01*
X157070795Y-73931744D01*
X156992774Y-74120102D01*
X156953000Y-74320061D01*
X156273946Y-74320061D01*
X156367932Y-74093158D01*
X156425000Y-73806260D01*
X156425000Y-73513740D01*
X156367932Y-73226842D01*
X156255990Y-72956589D01*
X156093475Y-72713368D01*
X155886632Y-72506525D01*
X155712240Y-72390000D01*
X155864802Y-72288061D01*
X161525000Y-72288061D01*
X161525000Y-72491939D01*
X161564774Y-72691898D01*
X161642795Y-72880256D01*
X161756063Y-73049774D01*
X161900226Y-73193937D01*
X162069744Y-73307205D01*
X162258102Y-73385226D01*
X162458061Y-73425000D01*
X162661939Y-73425000D01*
X162861898Y-73385226D01*
X163050256Y-73307205D01*
X163219774Y-73193937D01*
X163363937Y-73049774D01*
X163477205Y-72880256D01*
X163555226Y-72691898D01*
X163595000Y-72491939D01*
X163595000Y-72288061D01*
X165335000Y-72288061D01*
X165335000Y-72491939D01*
X165374774Y-72691898D01*
X165452795Y-72880256D01*
X165566063Y-73049774D01*
X165710226Y-73193937D01*
X165879744Y-73307205D01*
X166068102Y-73385226D01*
X166268061Y-73425000D01*
X166471939Y-73425000D01*
X166671898Y-73385226D01*
X166860256Y-73307205D01*
X167029774Y-73193937D01*
X167173937Y-73049774D01*
X167287205Y-72880256D01*
X167365226Y-72691898D01*
X167405000Y-72491939D01*
X167405000Y-72288061D01*
X172955000Y-72288061D01*
X172955000Y-72491939D01*
X172994774Y-72691898D01*
X173072795Y-72880256D01*
X173186063Y-73049774D01*
X173330226Y-73193937D01*
X173499744Y-73307205D01*
X173688102Y-73385226D01*
X173888061Y-73425000D01*
X174091939Y-73425000D01*
X174291898Y-73385226D01*
X174480256Y-73307205D01*
X174649774Y-73193937D01*
X174793937Y-73049774D01*
X174907205Y-72880256D01*
X174985226Y-72691898D01*
X174989768Y-72669061D01*
X183877000Y-72669061D01*
X183877000Y-72872939D01*
X183916774Y-73072898D01*
X183994795Y-73261256D01*
X184108063Y-73430774D01*
X184252226Y-73574937D01*
X184421744Y-73688205D01*
X184610102Y-73766226D01*
X184810061Y-73806000D01*
X185013939Y-73806000D01*
X185213898Y-73766226D01*
X185402256Y-73688205D01*
X185571774Y-73574937D01*
X185715937Y-73430774D01*
X185829205Y-73261256D01*
X185907226Y-73072898D01*
X185947000Y-72872939D01*
X185947000Y-72669061D01*
X185907226Y-72469102D01*
X185829205Y-72280744D01*
X185715937Y-72111226D01*
X185574711Y-71970000D01*
X186471928Y-71970000D01*
X186484188Y-72094482D01*
X186520498Y-72214180D01*
X186579463Y-72324494D01*
X186658815Y-72421185D01*
X186755506Y-72500537D01*
X186865820Y-72559502D01*
X186938380Y-72581513D01*
X186806525Y-72713368D01*
X186644010Y-72956589D01*
X186532068Y-73226842D01*
X186475000Y-73513740D01*
X186475000Y-73806260D01*
X186532068Y-74093158D01*
X186644010Y-74363411D01*
X186806525Y-74606632D01*
X187013368Y-74813475D01*
X187187760Y-74930000D01*
X187013368Y-75046525D01*
X186806525Y-75253368D01*
X186644010Y-75496589D01*
X186532068Y-75766842D01*
X186475000Y-76053740D01*
X186475000Y-76346260D01*
X186532068Y-76633158D01*
X186644010Y-76903411D01*
X186806525Y-77146632D01*
X187013368Y-77353475D01*
X187187760Y-77470000D01*
X187013368Y-77586525D01*
X186806525Y-77793368D01*
X186644010Y-78036589D01*
X186532068Y-78306842D01*
X186475000Y-78593740D01*
X186475000Y-78886260D01*
X186532068Y-79173158D01*
X186644010Y-79443411D01*
X186806525Y-79686632D01*
X187013368Y-79893475D01*
X187187760Y-80010000D01*
X187013368Y-80126525D01*
X186806525Y-80333368D01*
X186644010Y-80576589D01*
X186532068Y-80846842D01*
X186475000Y-81133740D01*
X186475000Y-81426260D01*
X186532068Y-81713158D01*
X186644010Y-81983411D01*
X186806525Y-82226632D01*
X187013368Y-82433475D01*
X187187760Y-82550000D01*
X187013368Y-82666525D01*
X186806525Y-82873368D01*
X186644010Y-83116589D01*
X186532068Y-83386842D01*
X186475000Y-83673740D01*
X186475000Y-83966260D01*
X186532068Y-84253158D01*
X186644010Y-84523411D01*
X186806525Y-84766632D01*
X187013368Y-84973475D01*
X187256589Y-85135990D01*
X187526842Y-85247932D01*
X187813740Y-85305000D01*
X188106260Y-85305000D01*
X188393158Y-85247932D01*
X188663411Y-85135990D01*
X188906632Y-84973475D01*
X189113475Y-84766632D01*
X189275990Y-84523411D01*
X189387932Y-84253158D01*
X189445000Y-83966260D01*
X189445000Y-83673740D01*
X189387932Y-83386842D01*
X189275990Y-83116589D01*
X189178043Y-82970000D01*
X191551928Y-82970000D01*
X191551928Y-84670000D01*
X191564188Y-84794482D01*
X191600498Y-84914180D01*
X191659463Y-85024494D01*
X191738815Y-85121185D01*
X191835506Y-85200537D01*
X191945820Y-85259502D01*
X192065518Y-85295812D01*
X192190000Y-85308072D01*
X193890000Y-85308072D01*
X194014482Y-85295812D01*
X194134180Y-85259502D01*
X194244494Y-85200537D01*
X194341185Y-85121185D01*
X194420537Y-85024494D01*
X194479502Y-84914180D01*
X194515812Y-84794482D01*
X194528072Y-84670000D01*
X194528072Y-82970000D01*
X194515812Y-82845518D01*
X194479502Y-82725820D01*
X194420537Y-82615506D01*
X194341185Y-82518815D01*
X194244494Y-82439463D01*
X194134180Y-82380498D01*
X194014482Y-82344188D01*
X193890000Y-82331928D01*
X192190000Y-82331928D01*
X192065518Y-82344188D01*
X191945820Y-82380498D01*
X191835506Y-82439463D01*
X191738815Y-82518815D01*
X191659463Y-82615506D01*
X191600498Y-82725820D01*
X191564188Y-82845518D01*
X191551928Y-82970000D01*
X189178043Y-82970000D01*
X189113475Y-82873368D01*
X188906632Y-82666525D01*
X188732240Y-82550000D01*
X188906632Y-82433475D01*
X189113475Y-82226632D01*
X189275990Y-81983411D01*
X189387932Y-81713158D01*
X189445000Y-81426260D01*
X189445000Y-81133740D01*
X189387932Y-80846842D01*
X189275990Y-80576589D01*
X189113475Y-80333368D01*
X188906632Y-80126525D01*
X188732240Y-80010000D01*
X188906632Y-79893475D01*
X189113475Y-79686632D01*
X189275990Y-79443411D01*
X189387932Y-79173158D01*
X189445000Y-78886260D01*
X189445000Y-78593740D01*
X189387932Y-78306842D01*
X189275990Y-78036589D01*
X189113475Y-77793368D01*
X188906632Y-77586525D01*
X188732240Y-77470000D01*
X188906632Y-77353475D01*
X189113475Y-77146632D01*
X189275990Y-76903411D01*
X189387932Y-76633158D01*
X189445000Y-76346260D01*
X189445000Y-76053740D01*
X189387932Y-75766842D01*
X189275990Y-75496589D01*
X189113475Y-75253368D01*
X188906632Y-75046525D01*
X188732240Y-74930000D01*
X188906632Y-74813475D01*
X189113475Y-74606632D01*
X189275990Y-74363411D01*
X189387932Y-74093158D01*
X189445000Y-73806260D01*
X189445000Y-73513740D01*
X189387932Y-73226842D01*
X189275990Y-72956589D01*
X189113475Y-72713368D01*
X188981620Y-72581513D01*
X189054180Y-72559502D01*
X189164494Y-72500537D01*
X189261185Y-72421185D01*
X189340537Y-72324494D01*
X189399502Y-72214180D01*
X189435812Y-72094482D01*
X189448072Y-71970000D01*
X189445000Y-71405750D01*
X189286250Y-71247000D01*
X188087000Y-71247000D01*
X188087000Y-71267000D01*
X187833000Y-71267000D01*
X187833000Y-71247000D01*
X186633750Y-71247000D01*
X186475000Y-71405750D01*
X186471928Y-71970000D01*
X185574711Y-71970000D01*
X185571774Y-71967063D01*
X185402256Y-71853795D01*
X185213898Y-71775774D01*
X185013939Y-71736000D01*
X184810061Y-71736000D01*
X184610102Y-71775774D01*
X184421744Y-71853795D01*
X184252226Y-71967063D01*
X184108063Y-72111226D01*
X183994795Y-72280744D01*
X183916774Y-72469102D01*
X183877000Y-72669061D01*
X174989768Y-72669061D01*
X175025000Y-72491939D01*
X175025000Y-72288061D01*
X174985226Y-72088102D01*
X174907205Y-71899744D01*
X174793937Y-71730226D01*
X174649774Y-71586063D01*
X174480256Y-71472795D01*
X174291898Y-71394774D01*
X174091939Y-71355000D01*
X173888061Y-71355000D01*
X173688102Y-71394774D01*
X173499744Y-71472795D01*
X173330226Y-71586063D01*
X173186063Y-71730226D01*
X173072795Y-71899744D01*
X172994774Y-72088102D01*
X172955000Y-72288061D01*
X167405000Y-72288061D01*
X167365226Y-72088102D01*
X167287205Y-71899744D01*
X167173937Y-71730226D01*
X167029774Y-71586063D01*
X166860256Y-71472795D01*
X166671898Y-71394774D01*
X166471939Y-71355000D01*
X166268061Y-71355000D01*
X166068102Y-71394774D01*
X165879744Y-71472795D01*
X165710226Y-71586063D01*
X165566063Y-71730226D01*
X165452795Y-71899744D01*
X165374774Y-72088102D01*
X165335000Y-72288061D01*
X163595000Y-72288061D01*
X163555226Y-72088102D01*
X163477205Y-71899744D01*
X163363937Y-71730226D01*
X163219774Y-71586063D01*
X163050256Y-71472795D01*
X162861898Y-71394774D01*
X162661939Y-71355000D01*
X162458061Y-71355000D01*
X162258102Y-71394774D01*
X162069744Y-71472795D01*
X161900226Y-71586063D01*
X161756063Y-71730226D01*
X161642795Y-71899744D01*
X161564774Y-72088102D01*
X161525000Y-72288061D01*
X155864802Y-72288061D01*
X155886632Y-72273475D01*
X156093475Y-72066632D01*
X156255990Y-71823411D01*
X156367932Y-71553158D01*
X156425000Y-71266260D01*
X156425000Y-70973740D01*
X156367932Y-70686842D01*
X156255990Y-70416589D01*
X156093475Y-70173368D01*
X155886632Y-69966525D01*
X155712240Y-69850000D01*
X155886632Y-69733475D01*
X156093475Y-69526632D01*
X156255990Y-69283411D01*
X156367932Y-69013158D01*
X156425000Y-68726260D01*
X156425000Y-68478061D01*
X161525000Y-68478061D01*
X161525000Y-68681939D01*
X161564774Y-68881898D01*
X161642795Y-69070256D01*
X161756063Y-69239774D01*
X161900226Y-69383937D01*
X162069744Y-69497205D01*
X162258102Y-69575226D01*
X162458061Y-69615000D01*
X162661939Y-69615000D01*
X162861898Y-69575226D01*
X163050256Y-69497205D01*
X163219774Y-69383937D01*
X163363937Y-69239774D01*
X163477205Y-69070256D01*
X163555226Y-68881898D01*
X163595000Y-68681939D01*
X163595000Y-68478061D01*
X165335000Y-68478061D01*
X165335000Y-68681939D01*
X165374774Y-68881898D01*
X165452795Y-69070256D01*
X165566063Y-69239774D01*
X165710226Y-69383937D01*
X165879744Y-69497205D01*
X166068102Y-69575226D01*
X166268061Y-69615000D01*
X166471939Y-69615000D01*
X166671898Y-69575226D01*
X166860256Y-69497205D01*
X167029774Y-69383937D01*
X167046650Y-69367061D01*
X177019000Y-69367061D01*
X177019000Y-69570939D01*
X177058774Y-69770898D01*
X177136795Y-69959256D01*
X177250063Y-70128774D01*
X177394226Y-70272937D01*
X177563744Y-70386205D01*
X177752102Y-70464226D01*
X177952061Y-70504000D01*
X178155939Y-70504000D01*
X178249211Y-70485447D01*
X178152795Y-70629744D01*
X178074774Y-70818102D01*
X178035000Y-71018061D01*
X178035000Y-71221939D01*
X178074774Y-71421898D01*
X178152795Y-71610256D01*
X178266063Y-71779774D01*
X178410226Y-71923937D01*
X178579744Y-72037205D01*
X178768102Y-72115226D01*
X178968061Y-72155000D01*
X179171939Y-72155000D01*
X179371898Y-72115226D01*
X179560256Y-72037205D01*
X179729774Y-71923937D01*
X179873937Y-71779774D01*
X179987205Y-71610256D01*
X180065226Y-71421898D01*
X180105000Y-71221939D01*
X180105000Y-71018061D01*
X180065226Y-70818102D01*
X179987205Y-70629744D01*
X179907236Y-70510061D01*
X181718000Y-70510061D01*
X181718000Y-70713939D01*
X181757774Y-70913898D01*
X181835795Y-71102256D01*
X181949063Y-71271774D01*
X182093226Y-71415937D01*
X182262744Y-71529205D01*
X182451102Y-71607226D01*
X182651061Y-71647000D01*
X182854939Y-71647000D01*
X183054898Y-71607226D01*
X183243256Y-71529205D01*
X183412774Y-71415937D01*
X183556937Y-71271774D01*
X183670205Y-71102256D01*
X183748226Y-70913898D01*
X183788000Y-70713939D01*
X183788000Y-70510061D01*
X183748226Y-70310102D01*
X183731616Y-70270000D01*
X186471928Y-70270000D01*
X186475000Y-70834250D01*
X186633750Y-70993000D01*
X187833000Y-70993000D01*
X187833000Y-69793750D01*
X188087000Y-69793750D01*
X188087000Y-70993000D01*
X189286250Y-70993000D01*
X189445000Y-70834250D01*
X189448072Y-70270000D01*
X189435812Y-70145518D01*
X189399502Y-70025820D01*
X189340537Y-69915506D01*
X189261185Y-69818815D01*
X189164494Y-69739463D01*
X189054180Y-69680498D01*
X188934482Y-69644188D01*
X188810000Y-69631928D01*
X188245750Y-69635000D01*
X188087000Y-69793750D01*
X187833000Y-69793750D01*
X187674250Y-69635000D01*
X187110000Y-69631928D01*
X186985518Y-69644188D01*
X186865820Y-69680498D01*
X186755506Y-69739463D01*
X186658815Y-69818815D01*
X186579463Y-69915506D01*
X186520498Y-70025820D01*
X186484188Y-70145518D01*
X186471928Y-70270000D01*
X183731616Y-70270000D01*
X183670205Y-70121744D01*
X183556937Y-69952226D01*
X183412774Y-69808063D01*
X183243256Y-69694795D01*
X183054898Y-69616774D01*
X182854939Y-69577000D01*
X182651061Y-69577000D01*
X182451102Y-69616774D01*
X182262744Y-69694795D01*
X182093226Y-69808063D01*
X181949063Y-69952226D01*
X181835795Y-70121744D01*
X181757774Y-70310102D01*
X181718000Y-70510061D01*
X179907236Y-70510061D01*
X179873937Y-70460226D01*
X179729774Y-70316063D01*
X179560256Y-70202795D01*
X179371898Y-70124774D01*
X179171939Y-70085000D01*
X178968061Y-70085000D01*
X178874789Y-70103553D01*
X178971205Y-69959256D01*
X179049226Y-69770898D01*
X179089000Y-69570939D01*
X179089000Y-69367061D01*
X179049226Y-69167102D01*
X178971205Y-68978744D01*
X178857937Y-68809226D01*
X178713774Y-68665063D01*
X178544256Y-68551795D01*
X178366248Y-68478061D01*
X190100000Y-68478061D01*
X190100000Y-68681939D01*
X190139774Y-68881898D01*
X190217795Y-69070256D01*
X190331063Y-69239774D01*
X190475226Y-69383937D01*
X190644744Y-69497205D01*
X190833102Y-69575226D01*
X191033061Y-69615000D01*
X191236939Y-69615000D01*
X191436898Y-69575226D01*
X191625256Y-69497205D01*
X191794774Y-69383937D01*
X191938937Y-69239774D01*
X192052205Y-69070256D01*
X192130226Y-68881898D01*
X192170000Y-68681939D01*
X192170000Y-68478061D01*
X192130226Y-68278102D01*
X192052205Y-68089744D01*
X191938937Y-67920226D01*
X191794774Y-67776063D01*
X191625256Y-67662795D01*
X191436898Y-67584774D01*
X191236939Y-67545000D01*
X191033061Y-67545000D01*
X190833102Y-67584774D01*
X190644744Y-67662795D01*
X190475226Y-67776063D01*
X190331063Y-67920226D01*
X190217795Y-68089744D01*
X190139774Y-68278102D01*
X190100000Y-68478061D01*
X178366248Y-68478061D01*
X178355898Y-68473774D01*
X178155939Y-68434000D01*
X177952061Y-68434000D01*
X177752102Y-68473774D01*
X177563744Y-68551795D01*
X177394226Y-68665063D01*
X177250063Y-68809226D01*
X177136795Y-68978744D01*
X177058774Y-69167102D01*
X177019000Y-69367061D01*
X167046650Y-69367061D01*
X167173937Y-69239774D01*
X167287205Y-69070256D01*
X167365226Y-68881898D01*
X167405000Y-68681939D01*
X167405000Y-68478061D01*
X167365226Y-68278102D01*
X167287205Y-68089744D01*
X167173937Y-67920226D01*
X167029774Y-67776063D01*
X166939975Y-67716061D01*
X173717000Y-67716061D01*
X173717000Y-67919939D01*
X173756774Y-68119898D01*
X173834795Y-68308256D01*
X173948063Y-68477774D01*
X174092226Y-68621937D01*
X174261744Y-68735205D01*
X174450102Y-68813226D01*
X174650061Y-68853000D01*
X174853939Y-68853000D01*
X175053898Y-68813226D01*
X175242256Y-68735205D01*
X175411774Y-68621937D01*
X175555937Y-68477774D01*
X175669205Y-68308256D01*
X175747226Y-68119898D01*
X175787000Y-67919939D01*
X175787000Y-67716061D01*
X175747226Y-67516102D01*
X175669205Y-67327744D01*
X175589236Y-67208061D01*
X183115000Y-67208061D01*
X183115000Y-67411939D01*
X183154774Y-67611898D01*
X183232795Y-67800256D01*
X183346063Y-67969774D01*
X183490226Y-68113937D01*
X183659744Y-68227205D01*
X183848102Y-68305226D01*
X184048061Y-68345000D01*
X184251939Y-68345000D01*
X184451898Y-68305226D01*
X184640256Y-68227205D01*
X184809774Y-68113937D01*
X184953937Y-67969774D01*
X185067205Y-67800256D01*
X185145226Y-67611898D01*
X185185000Y-67411939D01*
X185185000Y-67208061D01*
X185145226Y-67008102D01*
X185067205Y-66819744D01*
X184953937Y-66650226D01*
X184809774Y-66506063D01*
X184640256Y-66392795D01*
X184451898Y-66314774D01*
X184423936Y-66309212D01*
X186825000Y-66309212D01*
X186825000Y-66532788D01*
X186868617Y-66752067D01*
X186954176Y-66958624D01*
X187078388Y-67144520D01*
X187236480Y-67302612D01*
X187422376Y-67426824D01*
X187628933Y-67512383D01*
X187848212Y-67556000D01*
X188071788Y-67556000D01*
X188291067Y-67512383D01*
X188497624Y-67426824D01*
X188683520Y-67302612D01*
X188841612Y-67144520D01*
X188965824Y-66958624D01*
X189051383Y-66752067D01*
X189095000Y-66532788D01*
X189095000Y-66309212D01*
X189051383Y-66089933D01*
X188965824Y-65883376D01*
X188841612Y-65697480D01*
X188683520Y-65539388D01*
X188497624Y-65415176D01*
X188291067Y-65329617D01*
X188071788Y-65286000D01*
X187848212Y-65286000D01*
X187628933Y-65329617D01*
X187422376Y-65415176D01*
X187236480Y-65539388D01*
X187078388Y-65697480D01*
X186954176Y-65883376D01*
X186868617Y-66089933D01*
X186825000Y-66309212D01*
X184423936Y-66309212D01*
X184251939Y-66275000D01*
X184048061Y-66275000D01*
X183848102Y-66314774D01*
X183659744Y-66392795D01*
X183490226Y-66506063D01*
X183346063Y-66650226D01*
X183232795Y-66819744D01*
X183154774Y-67008102D01*
X183115000Y-67208061D01*
X175589236Y-67208061D01*
X175555937Y-67158226D01*
X175411774Y-67014063D01*
X175242256Y-66900795D01*
X175053898Y-66822774D01*
X174853939Y-66783000D01*
X174650061Y-66783000D01*
X174450102Y-66822774D01*
X174261744Y-66900795D01*
X174092226Y-67014063D01*
X173948063Y-67158226D01*
X173834795Y-67327744D01*
X173756774Y-67516102D01*
X173717000Y-67716061D01*
X166939975Y-67716061D01*
X166860256Y-67662795D01*
X166671898Y-67584774D01*
X166471939Y-67545000D01*
X166268061Y-67545000D01*
X166068102Y-67584774D01*
X165879744Y-67662795D01*
X165710226Y-67776063D01*
X165566063Y-67920226D01*
X165452795Y-68089744D01*
X165374774Y-68278102D01*
X165335000Y-68478061D01*
X163595000Y-68478061D01*
X163555226Y-68278102D01*
X163477205Y-68089744D01*
X163363937Y-67920226D01*
X163219774Y-67776063D01*
X163050256Y-67662795D01*
X162861898Y-67584774D01*
X162661939Y-67545000D01*
X162458061Y-67545000D01*
X162258102Y-67584774D01*
X162069744Y-67662795D01*
X161900226Y-67776063D01*
X161756063Y-67920226D01*
X161642795Y-68089744D01*
X161564774Y-68278102D01*
X161525000Y-68478061D01*
X156425000Y-68478061D01*
X156425000Y-68433740D01*
X156367932Y-68146842D01*
X156255990Y-67876589D01*
X156093475Y-67633368D01*
X155886632Y-67426525D01*
X155712240Y-67310000D01*
X155886632Y-67193475D01*
X156093475Y-66986632D01*
X156255990Y-66743411D01*
X156367932Y-66473158D01*
X156425000Y-66186260D01*
X156425000Y-65893740D01*
X156367932Y-65606842D01*
X156255990Y-65336589D01*
X156093475Y-65093368D01*
X155886632Y-64886525D01*
X155712240Y-64770000D01*
X155886632Y-64653475D01*
X155935546Y-64604561D01*
X162858500Y-64604561D01*
X162858500Y-64808439D01*
X162898274Y-65008398D01*
X162976295Y-65196756D01*
X163089563Y-65366274D01*
X163233726Y-65510437D01*
X163403244Y-65623705D01*
X163591602Y-65701726D01*
X163791561Y-65741500D01*
X163995439Y-65741500D01*
X164195398Y-65701726D01*
X164383756Y-65623705D01*
X164553274Y-65510437D01*
X164697437Y-65366274D01*
X164810705Y-65196756D01*
X164888726Y-65008398D01*
X164928500Y-64808439D01*
X164928500Y-64604561D01*
X164888726Y-64404602D01*
X164810705Y-64216244D01*
X164697437Y-64046726D01*
X164553274Y-63902563D01*
X164383756Y-63789295D01*
X164195398Y-63711274D01*
X163995439Y-63671500D01*
X163791561Y-63671500D01*
X163591602Y-63711274D01*
X163403244Y-63789295D01*
X163233726Y-63902563D01*
X163089563Y-64046726D01*
X162976295Y-64216244D01*
X162898274Y-64404602D01*
X162858500Y-64604561D01*
X155935546Y-64604561D01*
X156093475Y-64446632D01*
X156255990Y-64203411D01*
X156367932Y-63933158D01*
X156425000Y-63646260D01*
X156425000Y-63353740D01*
X156367932Y-63066842D01*
X156255990Y-62796589D01*
X156093475Y-62553368D01*
X156039319Y-62499212D01*
X172728000Y-62499212D01*
X172728000Y-62722788D01*
X172771617Y-62942067D01*
X172857176Y-63148624D01*
X172981388Y-63334520D01*
X173139480Y-63492612D01*
X173325376Y-63616824D01*
X173531933Y-63702383D01*
X173751212Y-63746000D01*
X173974788Y-63746000D01*
X174194067Y-63702383D01*
X174400624Y-63616824D01*
X174586520Y-63492612D01*
X174690920Y-63388212D01*
X184158000Y-63388212D01*
X184158000Y-63611788D01*
X184201617Y-63831067D01*
X184287176Y-64037624D01*
X184411388Y-64223520D01*
X184569480Y-64381612D01*
X184755376Y-64505824D01*
X184961933Y-64591383D01*
X185181212Y-64635000D01*
X185404788Y-64635000D01*
X185624067Y-64591383D01*
X185830624Y-64505824D01*
X186016520Y-64381612D01*
X186174612Y-64223520D01*
X186298824Y-64037624D01*
X186384383Y-63831067D01*
X186428000Y-63611788D01*
X186428000Y-63388212D01*
X186384383Y-63168933D01*
X186298824Y-62962376D01*
X186174612Y-62776480D01*
X186016520Y-62618388D01*
X185830624Y-62494176D01*
X185624067Y-62408617D01*
X185404788Y-62365000D01*
X185181212Y-62365000D01*
X184961933Y-62408617D01*
X184755376Y-62494176D01*
X184569480Y-62618388D01*
X184411388Y-62776480D01*
X184287176Y-62962376D01*
X184201617Y-63168933D01*
X184158000Y-63388212D01*
X174690920Y-63388212D01*
X174744612Y-63334520D01*
X174868824Y-63148624D01*
X174954383Y-62942067D01*
X174998000Y-62722788D01*
X174998000Y-62499212D01*
X174954383Y-62279933D01*
X174868824Y-62073376D01*
X174744612Y-61887480D01*
X174586520Y-61729388D01*
X174422901Y-61620061D01*
X182480000Y-61620061D01*
X182480000Y-61823939D01*
X182519774Y-62023898D01*
X182597795Y-62212256D01*
X182711063Y-62381774D01*
X182855226Y-62525937D01*
X183024744Y-62639205D01*
X183213102Y-62717226D01*
X183413061Y-62757000D01*
X183616939Y-62757000D01*
X183816898Y-62717226D01*
X184005256Y-62639205D01*
X184174774Y-62525937D01*
X184318937Y-62381774D01*
X184432205Y-62212256D01*
X184510226Y-62023898D01*
X184550000Y-61823939D01*
X184550000Y-61810000D01*
X186471928Y-61810000D01*
X186484188Y-61934482D01*
X186520498Y-62054180D01*
X186579463Y-62164494D01*
X186658815Y-62261185D01*
X186755506Y-62340537D01*
X186865820Y-62399502D01*
X186938380Y-62421513D01*
X186806525Y-62553368D01*
X186644010Y-62796589D01*
X186532068Y-63066842D01*
X186475000Y-63353740D01*
X186475000Y-63646260D01*
X186532068Y-63933158D01*
X186644010Y-64203411D01*
X186806525Y-64446632D01*
X187013368Y-64653475D01*
X187256589Y-64815990D01*
X187526842Y-64927932D01*
X187813740Y-64985000D01*
X188106260Y-64985000D01*
X188393158Y-64927932D01*
X188663411Y-64815990D01*
X188906632Y-64653475D01*
X189113475Y-64446632D01*
X189275990Y-64203411D01*
X189387932Y-63933158D01*
X189445000Y-63646260D01*
X189445000Y-63353740D01*
X189387932Y-63066842D01*
X189275990Y-62796589D01*
X189113475Y-62553368D01*
X188981620Y-62421513D01*
X189054180Y-62399502D01*
X189164494Y-62340537D01*
X189261185Y-62261185D01*
X189340537Y-62164494D01*
X189399502Y-62054180D01*
X189435812Y-61934482D01*
X189448072Y-61810000D01*
X189445000Y-61245750D01*
X189286250Y-61087000D01*
X188087000Y-61087000D01*
X188087000Y-61107000D01*
X187833000Y-61107000D01*
X187833000Y-61087000D01*
X186633750Y-61087000D01*
X186475000Y-61245750D01*
X186471928Y-61810000D01*
X184550000Y-61810000D01*
X184550000Y-61620061D01*
X184510226Y-61420102D01*
X184432205Y-61231744D01*
X184318937Y-61062226D01*
X184174774Y-60918063D01*
X184005256Y-60804795D01*
X183816898Y-60726774D01*
X183616939Y-60687000D01*
X183413061Y-60687000D01*
X183213102Y-60726774D01*
X183024744Y-60804795D01*
X182855226Y-60918063D01*
X182711063Y-61062226D01*
X182597795Y-61231744D01*
X182519774Y-61420102D01*
X182480000Y-61620061D01*
X174422901Y-61620061D01*
X174400624Y-61605176D01*
X174194067Y-61519617D01*
X173974788Y-61476000D01*
X173751212Y-61476000D01*
X173531933Y-61519617D01*
X173325376Y-61605176D01*
X173139480Y-61729388D01*
X172981388Y-61887480D01*
X172857176Y-62073376D01*
X172771617Y-62279933D01*
X172728000Y-62499212D01*
X156039319Y-62499212D01*
X155886632Y-62346525D01*
X155712240Y-62230000D01*
X155886632Y-62113475D01*
X156093475Y-61906632D01*
X156255990Y-61663411D01*
X156367932Y-61393158D01*
X156425000Y-61106260D01*
X156425000Y-60813740D01*
X156406595Y-60721212D01*
X156853000Y-60721212D01*
X156853000Y-60944788D01*
X156896617Y-61164067D01*
X156982176Y-61370624D01*
X157106388Y-61556520D01*
X157264480Y-61714612D01*
X157450376Y-61838824D01*
X157656933Y-61924383D01*
X157876212Y-61968000D01*
X158099788Y-61968000D01*
X158319067Y-61924383D01*
X158525624Y-61838824D01*
X158711520Y-61714612D01*
X158869612Y-61556520D01*
X158993824Y-61370624D01*
X159079383Y-61164067D01*
X159123000Y-60944788D01*
X159123000Y-60845424D01*
X159156061Y-60852000D01*
X159359939Y-60852000D01*
X159559898Y-60812226D01*
X159748256Y-60734205D01*
X159917774Y-60620937D01*
X160061937Y-60476774D01*
X160175205Y-60307256D01*
X160253226Y-60118898D01*
X160293000Y-59918939D01*
X160293000Y-59715061D01*
X160253226Y-59515102D01*
X160175205Y-59326744D01*
X160061937Y-59157226D01*
X159917774Y-59013063D01*
X159748256Y-58899795D01*
X159559898Y-58821774D01*
X159359939Y-58782000D01*
X159156061Y-58782000D01*
X158956102Y-58821774D01*
X158767744Y-58899795D01*
X158598226Y-59013063D01*
X158454063Y-59157226D01*
X158340795Y-59326744D01*
X158262774Y-59515102D01*
X158223000Y-59715061D01*
X158223000Y-59722508D01*
X158099788Y-59698000D01*
X157876212Y-59698000D01*
X157656933Y-59741617D01*
X157450376Y-59827176D01*
X157264480Y-59951388D01*
X157106388Y-60109480D01*
X156982176Y-60295376D01*
X156896617Y-60501933D01*
X156853000Y-60721212D01*
X156406595Y-60721212D01*
X156367932Y-60526842D01*
X156255990Y-60256589D01*
X156093475Y-60013368D01*
X155886632Y-59806525D01*
X155712240Y-59690000D01*
X155886632Y-59573475D01*
X156093475Y-59366632D01*
X156255990Y-59123411D01*
X156367932Y-58853158D01*
X156425000Y-58566260D01*
X156425000Y-58273740D01*
X156367932Y-57986842D01*
X156255990Y-57716589D01*
X156093475Y-57473368D01*
X155886632Y-57266525D01*
X155712240Y-57150000D01*
X155886632Y-57033475D01*
X156093475Y-56826632D01*
X156255990Y-56583411D01*
X156367932Y-56313158D01*
X156425000Y-56026260D01*
X156425000Y-55733740D01*
X156367932Y-55446842D01*
X156255990Y-55176589D01*
X156093475Y-54933368D01*
X155886632Y-54726525D01*
X155712240Y-54610000D01*
X155886632Y-54493475D01*
X156093475Y-54286632D01*
X156255990Y-54043411D01*
X156326550Y-53873061D01*
X157715000Y-53873061D01*
X157715000Y-54076939D01*
X157754774Y-54276898D01*
X157832795Y-54465256D01*
X157946063Y-54634774D01*
X158090226Y-54778937D01*
X158259744Y-54892205D01*
X158448102Y-54970226D01*
X158648061Y-55010000D01*
X158851939Y-55010000D01*
X159051898Y-54970226D01*
X159240256Y-54892205D01*
X159409774Y-54778937D01*
X159553937Y-54634774D01*
X159667205Y-54465256D01*
X159745226Y-54276898D01*
X159785000Y-54076939D01*
X159785000Y-54000061D01*
X165335000Y-54000061D01*
X165335000Y-54203939D01*
X165374774Y-54403898D01*
X165452795Y-54592256D01*
X165566063Y-54761774D01*
X165710226Y-54905937D01*
X165879744Y-55019205D01*
X166068102Y-55097226D01*
X166268061Y-55137000D01*
X166471939Y-55137000D01*
X166671898Y-55097226D01*
X166860256Y-55019205D01*
X167029774Y-54905937D01*
X167173937Y-54761774D01*
X167287205Y-54592256D01*
X167365226Y-54403898D01*
X167405000Y-54203939D01*
X167405000Y-54000061D01*
X167365226Y-53800102D01*
X167287205Y-53611744D01*
X167173937Y-53442226D01*
X167029774Y-53298063D01*
X166860256Y-53184795D01*
X166671898Y-53106774D01*
X166471939Y-53067000D01*
X166268061Y-53067000D01*
X166068102Y-53106774D01*
X165879744Y-53184795D01*
X165710226Y-53298063D01*
X165566063Y-53442226D01*
X165452795Y-53611744D01*
X165374774Y-53800102D01*
X165335000Y-54000061D01*
X159785000Y-54000061D01*
X159785000Y-53873061D01*
X159745226Y-53673102D01*
X159667205Y-53484744D01*
X159553937Y-53315226D01*
X159409774Y-53171063D01*
X159240256Y-53057795D01*
X159051898Y-52979774D01*
X158851939Y-52940000D01*
X158648061Y-52940000D01*
X158448102Y-52979774D01*
X158259744Y-53057795D01*
X158090226Y-53171063D01*
X157946063Y-53315226D01*
X157832795Y-53484744D01*
X157754774Y-53673102D01*
X157715000Y-53873061D01*
X156326550Y-53873061D01*
X156367932Y-53773158D01*
X156425000Y-53486260D01*
X156425000Y-53193740D01*
X156367932Y-52906842D01*
X156255990Y-52636589D01*
X156093475Y-52393368D01*
X155922168Y-52222061D01*
X156445000Y-52222061D01*
X156445000Y-52425939D01*
X156484774Y-52625898D01*
X156562795Y-52814256D01*
X156676063Y-52983774D01*
X156820226Y-53127937D01*
X156989744Y-53241205D01*
X157178102Y-53319226D01*
X157378061Y-53359000D01*
X157581939Y-53359000D01*
X157781898Y-53319226D01*
X157970256Y-53241205D01*
X158139774Y-53127937D01*
X158283937Y-52983774D01*
X158397205Y-52814256D01*
X158475226Y-52625898D01*
X158515000Y-52425939D01*
X158515000Y-52222061D01*
X158475226Y-52022102D01*
X158397205Y-51833744D01*
X158283937Y-51664226D01*
X158139774Y-51520063D01*
X157970256Y-51406795D01*
X157781898Y-51328774D01*
X157581939Y-51289000D01*
X157378061Y-51289000D01*
X157178102Y-51328774D01*
X156989744Y-51406795D01*
X156820226Y-51520063D01*
X156676063Y-51664226D01*
X156562795Y-51833744D01*
X156484774Y-52022102D01*
X156445000Y-52222061D01*
X155922168Y-52222061D01*
X155886632Y-52186525D01*
X155712240Y-52070000D01*
X155886632Y-51953475D01*
X156093475Y-51746632D01*
X156255990Y-51503411D01*
X156367932Y-51233158D01*
X156425000Y-50946260D01*
X156425000Y-50825061D01*
X160572500Y-50825061D01*
X160572500Y-51028939D01*
X160612274Y-51228898D01*
X160690295Y-51417256D01*
X160803563Y-51586774D01*
X160947726Y-51730937D01*
X161117244Y-51844205D01*
X161305602Y-51922226D01*
X161505561Y-51962000D01*
X161709439Y-51962000D01*
X161909398Y-51922226D01*
X162097756Y-51844205D01*
X162267274Y-51730937D01*
X162369500Y-51628711D01*
X162471726Y-51730937D01*
X162641244Y-51844205D01*
X162829602Y-51922226D01*
X163029561Y-51962000D01*
X163233439Y-51962000D01*
X163433398Y-51922226D01*
X163621756Y-51844205D01*
X163791274Y-51730937D01*
X163935437Y-51586774D01*
X164048705Y-51417256D01*
X164126726Y-51228898D01*
X164166500Y-51028939D01*
X164166500Y-50825061D01*
X164126726Y-50625102D01*
X164048705Y-50436744D01*
X163935437Y-50267226D01*
X163791274Y-50123063D01*
X163621756Y-50009795D01*
X163433398Y-49931774D01*
X163233439Y-49892000D01*
X163029561Y-49892000D01*
X162829602Y-49931774D01*
X162641244Y-50009795D01*
X162471726Y-50123063D01*
X162369500Y-50225289D01*
X162267274Y-50123063D01*
X162097756Y-50009795D01*
X161909398Y-49931774D01*
X161709439Y-49892000D01*
X161505561Y-49892000D01*
X161305602Y-49931774D01*
X161117244Y-50009795D01*
X160947726Y-50123063D01*
X160803563Y-50267226D01*
X160690295Y-50436744D01*
X160612274Y-50625102D01*
X160572500Y-50825061D01*
X156425000Y-50825061D01*
X156425000Y-50653740D01*
X156367932Y-50366842D01*
X156255990Y-50096589D01*
X156093475Y-49853368D01*
X155886632Y-49646525D01*
X155712240Y-49530000D01*
X155886632Y-49413475D01*
X156093475Y-49206632D01*
X156255990Y-48963411D01*
X156367932Y-48693158D01*
X156425000Y-48406260D01*
X156425000Y-48113740D01*
X156367932Y-47826842D01*
X156255990Y-47556589D01*
X156093475Y-47313368D01*
X155961620Y-47181513D01*
X156034180Y-47159502D01*
X156144494Y-47100537D01*
X156241185Y-47021185D01*
X156320537Y-46924494D01*
X156379502Y-46814180D01*
X156415812Y-46694482D01*
X156428072Y-46570000D01*
X156428072Y-45618061D01*
X166605000Y-45618061D01*
X166605000Y-45821939D01*
X166644774Y-46021898D01*
X166722795Y-46210256D01*
X166836063Y-46379774D01*
X166980226Y-46523937D01*
X167149744Y-46637205D01*
X167338102Y-46715226D01*
X167386000Y-46724753D01*
X167386000Y-52705000D01*
X167388440Y-52729776D01*
X167395667Y-52753601D01*
X167407403Y-52775557D01*
X167423197Y-52794803D01*
X167442443Y-52810597D01*
X167464399Y-52822333D01*
X167488224Y-52829560D01*
X167513000Y-52832000D01*
X170434000Y-52832000D01*
X170434000Y-57948288D01*
X170356933Y-57963617D01*
X170150376Y-58049176D01*
X169964480Y-58173388D01*
X169806388Y-58331480D01*
X169682176Y-58517376D01*
X169596617Y-58723933D01*
X169553000Y-58943212D01*
X169553000Y-59166788D01*
X169596617Y-59386067D01*
X169682176Y-59592624D01*
X169806388Y-59778520D01*
X169964480Y-59936612D01*
X170150376Y-60060824D01*
X170356933Y-60146383D01*
X170576212Y-60190000D01*
X170799788Y-60190000D01*
X171019067Y-60146383D01*
X171225624Y-60060824D01*
X171411520Y-59936612D01*
X171569612Y-59778520D01*
X171577000Y-59767463D01*
X171584388Y-59778520D01*
X171742480Y-59936612D01*
X171928376Y-60060824D01*
X172134933Y-60146383D01*
X172354212Y-60190000D01*
X172577788Y-60190000D01*
X172797067Y-60146383D01*
X172884903Y-60110000D01*
X186471928Y-60110000D01*
X186475000Y-60674250D01*
X186633750Y-60833000D01*
X187833000Y-60833000D01*
X187833000Y-59633750D01*
X188087000Y-59633750D01*
X188087000Y-60833000D01*
X189286250Y-60833000D01*
X189445000Y-60674250D01*
X189448072Y-60110000D01*
X189435812Y-59985518D01*
X189399502Y-59865820D01*
X189340537Y-59755506D01*
X189261185Y-59658815D01*
X189164494Y-59579463D01*
X189054180Y-59520498D01*
X188934482Y-59484188D01*
X188810000Y-59471928D01*
X188245750Y-59475000D01*
X188087000Y-59633750D01*
X187833000Y-59633750D01*
X187674250Y-59475000D01*
X187110000Y-59471928D01*
X186985518Y-59484188D01*
X186865820Y-59520498D01*
X186755506Y-59579463D01*
X186658815Y-59658815D01*
X186579463Y-59755506D01*
X186520498Y-59865820D01*
X186484188Y-59985518D01*
X186471928Y-60110000D01*
X172884903Y-60110000D01*
X173003624Y-60060824D01*
X173189520Y-59936612D01*
X173347612Y-59778520D01*
X173471824Y-59592624D01*
X173557383Y-59386067D01*
X173601000Y-59166788D01*
X173601000Y-58953061D01*
X183750000Y-58953061D01*
X183750000Y-59156939D01*
X183789774Y-59356898D01*
X183867795Y-59545256D01*
X183981063Y-59714774D01*
X184125226Y-59858937D01*
X184294744Y-59972205D01*
X184483102Y-60050226D01*
X184683061Y-60090000D01*
X184886939Y-60090000D01*
X185086898Y-60050226D01*
X185275256Y-59972205D01*
X185444774Y-59858937D01*
X185588937Y-59714774D01*
X185702205Y-59545256D01*
X185780226Y-59356898D01*
X185820000Y-59156939D01*
X185820000Y-58953061D01*
X185780226Y-58753102D01*
X185702205Y-58564744D01*
X185588937Y-58395226D01*
X185444774Y-58251063D01*
X185275256Y-58137795D01*
X185086898Y-58059774D01*
X184886939Y-58020000D01*
X184683061Y-58020000D01*
X184483102Y-58059774D01*
X184294744Y-58137795D01*
X184125226Y-58251063D01*
X183981063Y-58395226D01*
X183867795Y-58564744D01*
X183789774Y-58753102D01*
X183750000Y-58953061D01*
X173601000Y-58953061D01*
X173601000Y-58943212D01*
X173557383Y-58723933D01*
X173471824Y-58517376D01*
X173347612Y-58331480D01*
X173309132Y-58293000D01*
X173355000Y-58293000D01*
X173379776Y-58290560D01*
X173403601Y-58283333D01*
X173425557Y-58271597D01*
X173444803Y-58255803D01*
X173460597Y-58236557D01*
X173472333Y-58214601D01*
X173479560Y-58190776D01*
X173482000Y-58166000D01*
X173482000Y-56794061D01*
X177908000Y-56794061D01*
X177908000Y-56997939D01*
X177947774Y-57197898D01*
X178025795Y-57386256D01*
X178139063Y-57555774D01*
X178283226Y-57699937D01*
X178452744Y-57813205D01*
X178641102Y-57891226D01*
X178841061Y-57931000D01*
X179044939Y-57931000D01*
X179244898Y-57891226D01*
X179433256Y-57813205D01*
X179602774Y-57699937D01*
X179746937Y-57555774D01*
X179860205Y-57386256D01*
X179938226Y-57197898D01*
X179968030Y-57048061D01*
X189465000Y-57048061D01*
X189465000Y-57251939D01*
X189504774Y-57451898D01*
X189582795Y-57640256D01*
X189696063Y-57809774D01*
X189840226Y-57953937D01*
X190009744Y-58067205D01*
X190198102Y-58145226D01*
X190398061Y-58185000D01*
X190601939Y-58185000D01*
X190801898Y-58145226D01*
X190990256Y-58067205D01*
X191159774Y-57953937D01*
X191303937Y-57809774D01*
X191417205Y-57640256D01*
X191495226Y-57451898D01*
X191535000Y-57251939D01*
X191535000Y-57048061D01*
X191495226Y-56848102D01*
X191417205Y-56659744D01*
X191303937Y-56490226D01*
X191159774Y-56346063D01*
X190990256Y-56232795D01*
X190801898Y-56154774D01*
X190601939Y-56115000D01*
X190398061Y-56115000D01*
X190198102Y-56154774D01*
X190009744Y-56232795D01*
X189840226Y-56346063D01*
X189696063Y-56490226D01*
X189582795Y-56659744D01*
X189504774Y-56848102D01*
X189465000Y-57048061D01*
X179968030Y-57048061D01*
X179978000Y-56997939D01*
X179978000Y-56794061D01*
X179938226Y-56594102D01*
X179860205Y-56405744D01*
X179746937Y-56236226D01*
X179602774Y-56092063D01*
X179433256Y-55978795D01*
X179244898Y-55900774D01*
X179044939Y-55861000D01*
X178841061Y-55861000D01*
X178641102Y-55900774D01*
X178452744Y-55978795D01*
X178283226Y-56092063D01*
X178139063Y-56236226D01*
X178025795Y-56405744D01*
X177947774Y-56594102D01*
X177908000Y-56794061D01*
X173482000Y-56794061D01*
X173482000Y-54508061D01*
X176511000Y-54508061D01*
X176511000Y-54711939D01*
X176550774Y-54911898D01*
X176628795Y-55100256D01*
X176742063Y-55269774D01*
X176886226Y-55413937D01*
X177055744Y-55527205D01*
X177244102Y-55605226D01*
X177444061Y-55645000D01*
X177647939Y-55645000D01*
X177847898Y-55605226D01*
X178036256Y-55527205D01*
X178205774Y-55413937D01*
X178308000Y-55311711D01*
X178410226Y-55413937D01*
X178579744Y-55527205D01*
X178768102Y-55605226D01*
X178968061Y-55645000D01*
X179171939Y-55645000D01*
X179371898Y-55605226D01*
X179560256Y-55527205D01*
X179729774Y-55413937D01*
X179873937Y-55269774D01*
X179987205Y-55100256D01*
X180065226Y-54911898D01*
X180105000Y-54711939D01*
X180105000Y-54508061D01*
X180065226Y-54308102D01*
X179987205Y-54119744D01*
X179873937Y-53950226D01*
X179729774Y-53806063D01*
X179560256Y-53692795D01*
X179371898Y-53614774D01*
X179171939Y-53575000D01*
X178968061Y-53575000D01*
X178768102Y-53614774D01*
X178579744Y-53692795D01*
X178410226Y-53806063D01*
X178308000Y-53908289D01*
X178205774Y-53806063D01*
X178036256Y-53692795D01*
X177847898Y-53614774D01*
X177647939Y-53575000D01*
X177444061Y-53575000D01*
X177244102Y-53614774D01*
X177055744Y-53692795D01*
X176886226Y-53806063D01*
X176742063Y-53950226D01*
X176628795Y-54119744D01*
X176550774Y-54308102D01*
X176511000Y-54508061D01*
X173482000Y-54508061D01*
X173482000Y-52832000D01*
X177292000Y-52832000D01*
X177316776Y-52829560D01*
X177340601Y-52822333D01*
X177362557Y-52810597D01*
X177381803Y-52794803D01*
X177397597Y-52775557D01*
X177409333Y-52753601D01*
X177416560Y-52729776D01*
X177419000Y-52705000D01*
X177419000Y-51968061D01*
X178035000Y-51968061D01*
X178035000Y-52171939D01*
X178074774Y-52371898D01*
X178152795Y-52560256D01*
X178266063Y-52729774D01*
X178410226Y-52873937D01*
X178579744Y-52987205D01*
X178768102Y-53065226D01*
X178968061Y-53105000D01*
X179171939Y-53105000D01*
X179371898Y-53065226D01*
X179560256Y-52987205D01*
X179729774Y-52873937D01*
X179873937Y-52729774D01*
X179987205Y-52560256D01*
X180065226Y-52371898D01*
X180105000Y-52171939D01*
X180105000Y-51968061D01*
X180065226Y-51768102D01*
X179987205Y-51579744D01*
X179873937Y-51410226D01*
X179729774Y-51266063D01*
X179560256Y-51152795D01*
X179371898Y-51074774D01*
X179171939Y-51035000D01*
X178968061Y-51035000D01*
X178768102Y-51074774D01*
X178579744Y-51152795D01*
X178410226Y-51266063D01*
X178266063Y-51410226D01*
X178152795Y-51579744D01*
X178074774Y-51768102D01*
X178035000Y-51968061D01*
X177419000Y-51968061D01*
X177419000Y-50952061D01*
X182861000Y-50952061D01*
X182861000Y-51155939D01*
X182900774Y-51355898D01*
X182978795Y-51544256D01*
X183092063Y-51713774D01*
X183236226Y-51857937D01*
X183405744Y-51971205D01*
X183594102Y-52049226D01*
X183794061Y-52089000D01*
X183994275Y-52089000D01*
X183916774Y-52276102D01*
X183877000Y-52476061D01*
X183877000Y-52679939D01*
X183916774Y-52879898D01*
X183994795Y-53068256D01*
X184108063Y-53237774D01*
X184252226Y-53381937D01*
X184421744Y-53495205D01*
X184610102Y-53573226D01*
X184810061Y-53613000D01*
X185013939Y-53613000D01*
X185213898Y-53573226D01*
X185402256Y-53495205D01*
X185571774Y-53381937D01*
X185715937Y-53237774D01*
X185829205Y-53068256D01*
X185907226Y-52879898D01*
X185947000Y-52679939D01*
X185947000Y-52476061D01*
X185907226Y-52276102D01*
X185829205Y-52087744D01*
X185715937Y-51918226D01*
X185571774Y-51774063D01*
X185402256Y-51660795D01*
X185213898Y-51582774D01*
X185013939Y-51543000D01*
X184813725Y-51543000D01*
X184891226Y-51355898D01*
X184931000Y-51155939D01*
X184931000Y-50952061D01*
X184891226Y-50752102D01*
X184813205Y-50563744D01*
X184699937Y-50394226D01*
X184555774Y-50250063D01*
X184386256Y-50136795D01*
X184197898Y-50058774D01*
X183997939Y-50019000D01*
X183794061Y-50019000D01*
X183594102Y-50058774D01*
X183405744Y-50136795D01*
X183236226Y-50250063D01*
X183092063Y-50394226D01*
X182978795Y-50563744D01*
X182900774Y-50752102D01*
X182861000Y-50952061D01*
X177419000Y-50952061D01*
X177419000Y-49428061D01*
X178035000Y-49428061D01*
X178035000Y-49631939D01*
X178074774Y-49831898D01*
X178152795Y-50020256D01*
X178266063Y-50189774D01*
X178410226Y-50333937D01*
X178579744Y-50447205D01*
X178768102Y-50525226D01*
X178968061Y-50565000D01*
X179171939Y-50565000D01*
X179371898Y-50525226D01*
X179560256Y-50447205D01*
X179729774Y-50333937D01*
X179873937Y-50189774D01*
X179987205Y-50020256D01*
X180065226Y-49831898D01*
X180105000Y-49631939D01*
X180105000Y-49428061D01*
X180065226Y-49228102D01*
X179987205Y-49039744D01*
X179873937Y-48870226D01*
X179729774Y-48726063D01*
X179560256Y-48612795D01*
X179371898Y-48534774D01*
X179171939Y-48495000D01*
X178968061Y-48495000D01*
X178768102Y-48534774D01*
X178579744Y-48612795D01*
X178410226Y-48726063D01*
X178266063Y-48870226D01*
X178152795Y-49039744D01*
X178074774Y-49228102D01*
X178035000Y-49428061D01*
X177419000Y-49428061D01*
X177419000Y-46682461D01*
X177498102Y-46715226D01*
X177698061Y-46755000D01*
X177901939Y-46755000D01*
X178068039Y-46721961D01*
X178035000Y-46888061D01*
X178035000Y-47091939D01*
X178074774Y-47291898D01*
X178152795Y-47480256D01*
X178266063Y-47649774D01*
X178410226Y-47793937D01*
X178579744Y-47907205D01*
X178768102Y-47985226D01*
X178968061Y-48025000D01*
X179171939Y-48025000D01*
X179371898Y-47985226D01*
X179560256Y-47907205D01*
X179729774Y-47793937D01*
X179873937Y-47649774D01*
X179987205Y-47480256D01*
X180065226Y-47291898D01*
X180105000Y-47091939D01*
X180105000Y-46888061D01*
X180065226Y-46688102D01*
X179987205Y-46499744D01*
X179873937Y-46330226D01*
X179729774Y-46186063D01*
X179639975Y-46126061D01*
X182099000Y-46126061D01*
X182099000Y-46329939D01*
X182138774Y-46529898D01*
X182216795Y-46718256D01*
X182330063Y-46887774D01*
X182474226Y-47031937D01*
X182643744Y-47145205D01*
X182832102Y-47223226D01*
X182833738Y-47223551D01*
X182711063Y-47346226D01*
X182597795Y-47515744D01*
X182519774Y-47704102D01*
X182480000Y-47904061D01*
X182480000Y-48107939D01*
X182519774Y-48307898D01*
X182597795Y-48496256D01*
X182711063Y-48665774D01*
X182855226Y-48809937D01*
X183024744Y-48923205D01*
X183213102Y-49001226D01*
X183413061Y-49041000D01*
X183616939Y-49041000D01*
X183816898Y-49001226D01*
X184005256Y-48923205D01*
X184174774Y-48809937D01*
X184318937Y-48665774D01*
X184432205Y-48496256D01*
X184510226Y-48307898D01*
X184550000Y-48107939D01*
X184550000Y-47904061D01*
X184510226Y-47704102D01*
X184432205Y-47515744D01*
X184318937Y-47346226D01*
X184174774Y-47202063D01*
X184005256Y-47088795D01*
X183816898Y-47010774D01*
X183815262Y-47010449D01*
X183937937Y-46887774D01*
X184051205Y-46718256D01*
X184129226Y-46529898D01*
X184169000Y-46329939D01*
X184169000Y-46126061D01*
X184129226Y-45926102D01*
X184051205Y-45737744D01*
X183937937Y-45568226D01*
X183793774Y-45424063D01*
X183624256Y-45310795D01*
X183435898Y-45232774D01*
X183235939Y-45193000D01*
X183032061Y-45193000D01*
X182832102Y-45232774D01*
X182643744Y-45310795D01*
X182474226Y-45424063D01*
X182330063Y-45568226D01*
X182216795Y-45737744D01*
X182138774Y-45926102D01*
X182099000Y-46126061D01*
X179639975Y-46126061D01*
X179560256Y-46072795D01*
X179371898Y-45994774D01*
X179171939Y-45955000D01*
X178968061Y-45955000D01*
X178801961Y-45988039D01*
X178835000Y-45821939D01*
X178835000Y-45618061D01*
X178795226Y-45418102D01*
X178717205Y-45229744D01*
X178603937Y-45060226D01*
X178459774Y-44916063D01*
X178290256Y-44802795D01*
X178101898Y-44724774D01*
X177901939Y-44685000D01*
X177698061Y-44685000D01*
X177498102Y-44724774D01*
X177309744Y-44802795D01*
X177140226Y-44916063D01*
X176996063Y-45060226D01*
X176882795Y-45229744D01*
X176804774Y-45418102D01*
X176765000Y-45618061D01*
X176765000Y-45821939D01*
X176804774Y-46021898D01*
X176882795Y-46210256D01*
X176996063Y-46379774D01*
X177098289Y-46482000D01*
X173421711Y-46482000D01*
X173523937Y-46379774D01*
X173637205Y-46210256D01*
X173715226Y-46021898D01*
X173755000Y-45821939D01*
X173755000Y-45618061D01*
X173715226Y-45418102D01*
X173637205Y-45229744D01*
X173523937Y-45060226D01*
X173379774Y-44916063D01*
X173210256Y-44802795D01*
X173021898Y-44724774D01*
X172821939Y-44685000D01*
X172618061Y-44685000D01*
X172418102Y-44724774D01*
X172229744Y-44802795D01*
X172060226Y-44916063D01*
X171916063Y-45060226D01*
X171802795Y-45229744D01*
X171724774Y-45418102D01*
X171685000Y-45618061D01*
X171685000Y-45821939D01*
X171724774Y-46021898D01*
X171802795Y-46210256D01*
X171916063Y-46379774D01*
X172018289Y-46482000D01*
X168341711Y-46482000D01*
X168443937Y-46379774D01*
X168557205Y-46210256D01*
X168635226Y-46021898D01*
X168675000Y-45821939D01*
X168675000Y-45618061D01*
X168635226Y-45418102D01*
X168557205Y-45229744D01*
X168443937Y-45060226D01*
X168299774Y-44916063D01*
X168130256Y-44802795D01*
X167941898Y-44724774D01*
X167741939Y-44685000D01*
X167538061Y-44685000D01*
X167338102Y-44724774D01*
X167149744Y-44802795D01*
X166980226Y-44916063D01*
X166836063Y-45060226D01*
X166722795Y-45229744D01*
X166644774Y-45418102D01*
X166605000Y-45618061D01*
X156428072Y-45618061D01*
X156428072Y-44870000D01*
X156415812Y-44745518D01*
X156379502Y-44625820D01*
X156320537Y-44515506D01*
X156241185Y-44418815D01*
X156144494Y-44339463D01*
X156034180Y-44280498D01*
X155914482Y-44244188D01*
X155790000Y-44231928D01*
X154090000Y-44231928D01*
X153965518Y-44244188D01*
X153845820Y-44280498D01*
X153735506Y-44339463D01*
X153638815Y-44418815D01*
X153559463Y-44515506D01*
X153500498Y-44625820D01*
X153464188Y-44745518D01*
X153451928Y-44870000D01*
X149943381Y-44870000D01*
X149034380Y-43961000D01*
X149199939Y-43961000D01*
X149399898Y-43921226D01*
X149588256Y-43843205D01*
X149757774Y-43729937D01*
X149901937Y-43585774D01*
X150015205Y-43416256D01*
X150093226Y-43227898D01*
X150133000Y-43027939D01*
X150133000Y-42824061D01*
X150603000Y-42824061D01*
X150603000Y-43027939D01*
X150642774Y-43227898D01*
X150720795Y-43416256D01*
X150834063Y-43585774D01*
X150978226Y-43729937D01*
X151147744Y-43843205D01*
X151336102Y-43921226D01*
X151536061Y-43961000D01*
X151739939Y-43961000D01*
X151939898Y-43921226D01*
X152128256Y-43843205D01*
X152297774Y-43729937D01*
X152441937Y-43585774D01*
X152555205Y-43416256D01*
X152633226Y-43227898D01*
X152673000Y-43027939D01*
X152673000Y-42824061D01*
X152633226Y-42624102D01*
X152555205Y-42435744D01*
X152441937Y-42266226D01*
X152297774Y-42122063D01*
X152128256Y-42008795D01*
X151939898Y-41930774D01*
X151739939Y-41891000D01*
X151536061Y-41891000D01*
X151336102Y-41930774D01*
X151147744Y-42008795D01*
X150978226Y-42122063D01*
X150834063Y-42266226D01*
X150720795Y-42435744D01*
X150642774Y-42624102D01*
X150603000Y-42824061D01*
X150133000Y-42824061D01*
X150093226Y-42624102D01*
X150015205Y-42435744D01*
X149901937Y-42266226D01*
X149757774Y-42122063D01*
X149588256Y-42008795D01*
X149399898Y-41930774D01*
X149255240Y-41902000D01*
X149336788Y-41902000D01*
X149556067Y-41858383D01*
X149762624Y-41772824D01*
X149948520Y-41648612D01*
X149987000Y-41610132D01*
X150025480Y-41648612D01*
X150211376Y-41772824D01*
X150417933Y-41858383D01*
X150637212Y-41902000D01*
X150860788Y-41902000D01*
X151080067Y-41858383D01*
X151286624Y-41772824D01*
X151472520Y-41648612D01*
X151630612Y-41490520D01*
X151754824Y-41304624D01*
X151840383Y-41098067D01*
X151884000Y-40878788D01*
X151884000Y-40655212D01*
X151840383Y-40435933D01*
X151754824Y-40229376D01*
X151630612Y-40043480D01*
X151472520Y-39885388D01*
X151286624Y-39761176D01*
X151080067Y-39675617D01*
X150860788Y-39632000D01*
X150637212Y-39632000D01*
X150417933Y-39675617D01*
X150211376Y-39761176D01*
X150025480Y-39885388D01*
X149987000Y-39923868D01*
X149948520Y-39885388D01*
X149762624Y-39761176D01*
X149556067Y-39675617D01*
X149336788Y-39632000D01*
X149113212Y-39632000D01*
X148893933Y-39675617D01*
X148687376Y-39761176D01*
X148501480Y-39885388D01*
X148343388Y-40043480D01*
X148219176Y-40229376D01*
X148133617Y-40435933D01*
X148090000Y-40655212D01*
X148090000Y-40878788D01*
X148133617Y-41098067D01*
X148219176Y-41304624D01*
X148343388Y-41490520D01*
X148501480Y-41648612D01*
X148687376Y-41772824D01*
X148893933Y-41858383D01*
X149057911Y-41891000D01*
X148996061Y-41891000D01*
X148796102Y-41930774D01*
X148607744Y-42008795D01*
X148438226Y-42122063D01*
X148294063Y-42266226D01*
X148180795Y-42435744D01*
X148102774Y-42624102D01*
X148063000Y-42824061D01*
X148063000Y-42989620D01*
X147980000Y-42906620D01*
X147980000Y-37250000D01*
X148371928Y-37250000D01*
X148371928Y-38950000D01*
X148384188Y-39074482D01*
X148420498Y-39194180D01*
X148479463Y-39304494D01*
X148558815Y-39401185D01*
X148655506Y-39480537D01*
X148765820Y-39539502D01*
X148885518Y-39575812D01*
X149010000Y-39588072D01*
X150710000Y-39588072D01*
X150834482Y-39575812D01*
X150954180Y-39539502D01*
X151064494Y-39480537D01*
X151161185Y-39401185D01*
X151240537Y-39304494D01*
X151299502Y-39194180D01*
X151335812Y-39074482D01*
X151348072Y-38950000D01*
X151348072Y-37250000D01*
X153451928Y-37250000D01*
X153451928Y-38950000D01*
X153464188Y-39074482D01*
X153500498Y-39194180D01*
X153559463Y-39304494D01*
X153638815Y-39401185D01*
X153735506Y-39480537D01*
X153845820Y-39539502D01*
X153918380Y-39561513D01*
X153786525Y-39693368D01*
X153624010Y-39936589D01*
X153512068Y-40206842D01*
X153455000Y-40493740D01*
X153455000Y-40786260D01*
X153512068Y-41073158D01*
X153624010Y-41343411D01*
X153786525Y-41586632D01*
X153993368Y-41793475D01*
X154236589Y-41955990D01*
X154506842Y-42067932D01*
X154793740Y-42125000D01*
X155086260Y-42125000D01*
X155373158Y-42067932D01*
X155643411Y-41955990D01*
X155886632Y-41793475D01*
X156093475Y-41586632D01*
X156255990Y-41343411D01*
X156367932Y-41073158D01*
X156425000Y-40786260D01*
X156425000Y-40493740D01*
X156367932Y-40206842D01*
X156255990Y-39936589D01*
X156227007Y-39893212D01*
X156472000Y-39893212D01*
X156472000Y-40116788D01*
X156515617Y-40336067D01*
X156601176Y-40542624D01*
X156666241Y-40640000D01*
X156601176Y-40737376D01*
X156515617Y-40943933D01*
X156472000Y-41163212D01*
X156472000Y-41386788D01*
X156515617Y-41606067D01*
X156601176Y-41812624D01*
X156666241Y-41910000D01*
X156601176Y-42007376D01*
X156515617Y-42213933D01*
X156472000Y-42433212D01*
X156472000Y-42656788D01*
X156515617Y-42876067D01*
X156601176Y-43082624D01*
X156725388Y-43268520D01*
X156883480Y-43426612D01*
X157069376Y-43550824D01*
X157275933Y-43636383D01*
X157495212Y-43680000D01*
X157718788Y-43680000D01*
X157938067Y-43636383D01*
X158144624Y-43550824D01*
X158330520Y-43426612D01*
X158488612Y-43268520D01*
X158612824Y-43082624D01*
X158614714Y-43078061D01*
X158985000Y-43078061D01*
X158985000Y-43281939D01*
X159024774Y-43481898D01*
X159102795Y-43670256D01*
X159216063Y-43839774D01*
X159360226Y-43983937D01*
X159529744Y-44097205D01*
X159718102Y-44175226D01*
X159918061Y-44215000D01*
X160121939Y-44215000D01*
X160321898Y-44175226D01*
X160510256Y-44097205D01*
X160679774Y-43983937D01*
X160823937Y-43839774D01*
X160937205Y-43670256D01*
X161015226Y-43481898D01*
X161055000Y-43281939D01*
X161055000Y-43078061D01*
X164065000Y-43078061D01*
X164065000Y-43281939D01*
X164104774Y-43481898D01*
X164182795Y-43670256D01*
X164296063Y-43839774D01*
X164440226Y-43983937D01*
X164609744Y-44097205D01*
X164798102Y-44175226D01*
X164998061Y-44215000D01*
X165201939Y-44215000D01*
X165401898Y-44175226D01*
X165590256Y-44097205D01*
X165759774Y-43983937D01*
X165903937Y-43839774D01*
X166017205Y-43670256D01*
X166095226Y-43481898D01*
X166135000Y-43281939D01*
X166135000Y-43078061D01*
X166605000Y-43078061D01*
X166605000Y-43281939D01*
X166644774Y-43481898D01*
X166722795Y-43670256D01*
X166836063Y-43839774D01*
X166980226Y-43983937D01*
X167149744Y-44097205D01*
X167338102Y-44175226D01*
X167538061Y-44215000D01*
X167741939Y-44215000D01*
X167941898Y-44175226D01*
X168130256Y-44097205D01*
X168299774Y-43983937D01*
X168443937Y-43839774D01*
X168557205Y-43670256D01*
X168635226Y-43481898D01*
X168675000Y-43281939D01*
X168675000Y-43078061D01*
X171685000Y-43078061D01*
X171685000Y-43281939D01*
X171724774Y-43481898D01*
X171802795Y-43670256D01*
X171916063Y-43839774D01*
X172060226Y-43983937D01*
X172229744Y-44097205D01*
X172418102Y-44175226D01*
X172618061Y-44215000D01*
X172821939Y-44215000D01*
X173021898Y-44175226D01*
X173210256Y-44097205D01*
X173379774Y-43983937D01*
X173523937Y-43839774D01*
X173637205Y-43670256D01*
X173715226Y-43481898D01*
X173755000Y-43281939D01*
X173755000Y-43078061D01*
X176765000Y-43078061D01*
X176765000Y-43281939D01*
X176804774Y-43481898D01*
X176882795Y-43670256D01*
X176996063Y-43839774D01*
X177140226Y-43983937D01*
X177309744Y-44097205D01*
X177498102Y-44175226D01*
X177698061Y-44215000D01*
X177901939Y-44215000D01*
X178101898Y-44175226D01*
X178290256Y-44097205D01*
X178459774Y-43983937D01*
X178603937Y-43839774D01*
X178717205Y-43670256D01*
X178795226Y-43481898D01*
X178835000Y-43281939D01*
X178835000Y-43078061D01*
X178795226Y-42878102D01*
X178717205Y-42689744D01*
X178603937Y-42520226D01*
X178459774Y-42376063D01*
X178369975Y-42316061D01*
X182480000Y-42316061D01*
X182480000Y-42519939D01*
X182519774Y-42719898D01*
X182597795Y-42908256D01*
X182711063Y-43077774D01*
X182855226Y-43221937D01*
X183024744Y-43335205D01*
X183213102Y-43413226D01*
X183413061Y-43453000D01*
X183616939Y-43453000D01*
X183816898Y-43413226D01*
X184005256Y-43335205D01*
X184174774Y-43221937D01*
X184318937Y-43077774D01*
X184432205Y-42908256D01*
X184510226Y-42719898D01*
X184550000Y-42519939D01*
X184550000Y-42316061D01*
X184510226Y-42116102D01*
X184432205Y-41927744D01*
X184318937Y-41758226D01*
X184174774Y-41614063D01*
X184005256Y-41500795D01*
X183816898Y-41422774D01*
X183616939Y-41383000D01*
X183413061Y-41383000D01*
X183213102Y-41422774D01*
X183024744Y-41500795D01*
X182855226Y-41614063D01*
X182711063Y-41758226D01*
X182597795Y-41927744D01*
X182519774Y-42116102D01*
X182480000Y-42316061D01*
X178369975Y-42316061D01*
X178290256Y-42262795D01*
X178101898Y-42184774D01*
X177901939Y-42145000D01*
X177698061Y-42145000D01*
X177498102Y-42184774D01*
X177309744Y-42262795D01*
X177140226Y-42376063D01*
X176996063Y-42520226D01*
X176882795Y-42689744D01*
X176804774Y-42878102D01*
X176765000Y-43078061D01*
X173755000Y-43078061D01*
X173715226Y-42878102D01*
X173637205Y-42689744D01*
X173523937Y-42520226D01*
X173379774Y-42376063D01*
X173210256Y-42262795D01*
X173021898Y-42184774D01*
X172821939Y-42145000D01*
X172618061Y-42145000D01*
X172418102Y-42184774D01*
X172229744Y-42262795D01*
X172060226Y-42376063D01*
X171916063Y-42520226D01*
X171802795Y-42689744D01*
X171724774Y-42878102D01*
X171685000Y-43078061D01*
X168675000Y-43078061D01*
X168635226Y-42878102D01*
X168557205Y-42689744D01*
X168443937Y-42520226D01*
X168299774Y-42376063D01*
X168130256Y-42262795D01*
X167941898Y-42184774D01*
X167741939Y-42145000D01*
X167538061Y-42145000D01*
X167338102Y-42184774D01*
X167149744Y-42262795D01*
X166980226Y-42376063D01*
X166836063Y-42520226D01*
X166722795Y-42689744D01*
X166644774Y-42878102D01*
X166605000Y-43078061D01*
X166135000Y-43078061D01*
X166095226Y-42878102D01*
X166017205Y-42689744D01*
X165903937Y-42520226D01*
X165759774Y-42376063D01*
X165590256Y-42262795D01*
X165401898Y-42184774D01*
X165201939Y-42145000D01*
X164998061Y-42145000D01*
X164798102Y-42184774D01*
X164609744Y-42262795D01*
X164440226Y-42376063D01*
X164296063Y-42520226D01*
X164182795Y-42689744D01*
X164104774Y-42878102D01*
X164065000Y-43078061D01*
X161055000Y-43078061D01*
X161015226Y-42878102D01*
X160937205Y-42689744D01*
X160823937Y-42520226D01*
X160679774Y-42376063D01*
X160510256Y-42262795D01*
X160321898Y-42184774D01*
X160121939Y-42145000D01*
X159918061Y-42145000D01*
X159718102Y-42184774D01*
X159529744Y-42262795D01*
X159360226Y-42376063D01*
X159216063Y-42520226D01*
X159102795Y-42689744D01*
X159024774Y-42878102D01*
X158985000Y-43078061D01*
X158614714Y-43078061D01*
X158698383Y-42876067D01*
X158742000Y-42656788D01*
X158742000Y-42433212D01*
X158698383Y-42213933D01*
X158612824Y-42007376D01*
X158547759Y-41910000D01*
X158612824Y-41812624D01*
X158698383Y-41606067D01*
X158742000Y-41386788D01*
X158742000Y-41163212D01*
X158698383Y-40943933D01*
X158612824Y-40737376D01*
X158547759Y-40640000D01*
X158612824Y-40542624D01*
X158614714Y-40538061D01*
X161525000Y-40538061D01*
X161525000Y-40741939D01*
X161564774Y-40941898D01*
X161642795Y-41130256D01*
X161756063Y-41299774D01*
X161900226Y-41443937D01*
X162069744Y-41557205D01*
X162258102Y-41635226D01*
X162458061Y-41675000D01*
X162661939Y-41675000D01*
X162861898Y-41635226D01*
X163050256Y-41557205D01*
X163219774Y-41443937D01*
X163363937Y-41299774D01*
X163477205Y-41130256D01*
X163555226Y-40941898D01*
X163595000Y-40741939D01*
X163595000Y-40538061D01*
X171685000Y-40538061D01*
X171685000Y-40741939D01*
X171724774Y-40941898D01*
X171802795Y-41130256D01*
X171916063Y-41299774D01*
X172060226Y-41443937D01*
X172229744Y-41557205D01*
X172418102Y-41635226D01*
X172618061Y-41675000D01*
X172821939Y-41675000D01*
X173021898Y-41635226D01*
X173210256Y-41557205D01*
X173379774Y-41443937D01*
X173523937Y-41299774D01*
X173637205Y-41130256D01*
X173715226Y-40941898D01*
X173755000Y-40741939D01*
X173755000Y-40538061D01*
X173715226Y-40338102D01*
X173637205Y-40149744D01*
X173523937Y-39980226D01*
X173383272Y-39839561D01*
X174225000Y-39839561D01*
X174225000Y-40043439D01*
X174264774Y-40243398D01*
X174342795Y-40431756D01*
X174456063Y-40601274D01*
X174600226Y-40745437D01*
X174769744Y-40858705D01*
X174958102Y-40936726D01*
X175158061Y-40976500D01*
X175361939Y-40976500D01*
X175561898Y-40936726D01*
X175750256Y-40858705D01*
X175919774Y-40745437D01*
X176063937Y-40601274D01*
X176106174Y-40538061D01*
X178035000Y-40538061D01*
X178035000Y-40741939D01*
X178074774Y-40941898D01*
X178152795Y-41130256D01*
X178266063Y-41299774D01*
X178410226Y-41443937D01*
X178579744Y-41557205D01*
X178768102Y-41635226D01*
X178968061Y-41675000D01*
X179171939Y-41675000D01*
X179371898Y-41635226D01*
X179560256Y-41557205D01*
X179729774Y-41443937D01*
X179873937Y-41299774D01*
X179987205Y-41130256D01*
X180065226Y-40941898D01*
X180105000Y-40741939D01*
X180105000Y-40538061D01*
X180065226Y-40338102D01*
X179987205Y-40149744D01*
X179873937Y-39980226D01*
X179729774Y-39836063D01*
X179560256Y-39722795D01*
X179371898Y-39644774D01*
X179171939Y-39605000D01*
X178968061Y-39605000D01*
X178768102Y-39644774D01*
X178579744Y-39722795D01*
X178410226Y-39836063D01*
X178266063Y-39980226D01*
X178152795Y-40149744D01*
X178074774Y-40338102D01*
X178035000Y-40538061D01*
X176106174Y-40538061D01*
X176177205Y-40431756D01*
X176255226Y-40243398D01*
X176295000Y-40043439D01*
X176295000Y-39839561D01*
X176255226Y-39639602D01*
X176206539Y-39522061D01*
X182480000Y-39522061D01*
X182480000Y-39725939D01*
X182519774Y-39925898D01*
X182597795Y-40114256D01*
X182711063Y-40283774D01*
X182855226Y-40427937D01*
X183024744Y-40541205D01*
X183213102Y-40619226D01*
X183413061Y-40659000D01*
X183616939Y-40659000D01*
X183816898Y-40619226D01*
X184005256Y-40541205D01*
X184174774Y-40427937D01*
X184318937Y-40283774D01*
X184432205Y-40114256D01*
X184510226Y-39925898D01*
X184550000Y-39725939D01*
X184550000Y-39522061D01*
X184510226Y-39322102D01*
X184432205Y-39133744D01*
X184318937Y-38964226D01*
X184174774Y-38820063D01*
X184005256Y-38706795D01*
X183816898Y-38628774D01*
X183616939Y-38589000D01*
X183413061Y-38589000D01*
X183213102Y-38628774D01*
X183024744Y-38706795D01*
X182855226Y-38820063D01*
X182711063Y-38964226D01*
X182597795Y-39133744D01*
X182519774Y-39322102D01*
X182480000Y-39522061D01*
X176206539Y-39522061D01*
X176177205Y-39451244D01*
X176063937Y-39281726D01*
X175919774Y-39137563D01*
X175750256Y-39024295D01*
X175561898Y-38946274D01*
X175361939Y-38906500D01*
X175158061Y-38906500D01*
X174958102Y-38946274D01*
X174769744Y-39024295D01*
X174600226Y-39137563D01*
X174456063Y-39281726D01*
X174342795Y-39451244D01*
X174264774Y-39639602D01*
X174225000Y-39839561D01*
X173383272Y-39839561D01*
X173379774Y-39836063D01*
X173210256Y-39722795D01*
X173021898Y-39644774D01*
X172821939Y-39605000D01*
X172618061Y-39605000D01*
X172418102Y-39644774D01*
X172229744Y-39722795D01*
X172060226Y-39836063D01*
X171916063Y-39980226D01*
X171802795Y-40149744D01*
X171724774Y-40338102D01*
X171685000Y-40538061D01*
X163595000Y-40538061D01*
X163555226Y-40338102D01*
X163477205Y-40149744D01*
X163363937Y-39980226D01*
X163219774Y-39836063D01*
X163050256Y-39722795D01*
X162861898Y-39644774D01*
X162661939Y-39605000D01*
X162458061Y-39605000D01*
X162258102Y-39644774D01*
X162069744Y-39722795D01*
X161900226Y-39836063D01*
X161756063Y-39980226D01*
X161642795Y-40149744D01*
X161564774Y-40338102D01*
X161525000Y-40538061D01*
X158614714Y-40538061D01*
X158698383Y-40336067D01*
X158742000Y-40116788D01*
X158742000Y-39893212D01*
X158698383Y-39673933D01*
X158612824Y-39467376D01*
X158488612Y-39281480D01*
X158330520Y-39123388D01*
X158144624Y-38999176D01*
X157938067Y-38913617D01*
X157718788Y-38870000D01*
X157495212Y-38870000D01*
X157275933Y-38913617D01*
X157069376Y-38999176D01*
X156883480Y-39123388D01*
X156725388Y-39281480D01*
X156601176Y-39467376D01*
X156515617Y-39673933D01*
X156472000Y-39893212D01*
X156227007Y-39893212D01*
X156093475Y-39693368D01*
X155961620Y-39561513D01*
X156034180Y-39539502D01*
X156144494Y-39480537D01*
X156241185Y-39401185D01*
X156320537Y-39304494D01*
X156379502Y-39194180D01*
X156415812Y-39074482D01*
X156428072Y-38950000D01*
X156428072Y-37998061D01*
X178035000Y-37998061D01*
X178035000Y-38201939D01*
X178074774Y-38401898D01*
X178152795Y-38590256D01*
X178266063Y-38759774D01*
X178410226Y-38903937D01*
X178579744Y-39017205D01*
X178768102Y-39095226D01*
X178968061Y-39135000D01*
X179171939Y-39135000D01*
X179371898Y-39095226D01*
X179560256Y-39017205D01*
X179729774Y-38903937D01*
X179873937Y-38759774D01*
X179987205Y-38590256D01*
X180065226Y-38401898D01*
X180105000Y-38201939D01*
X180105000Y-37998061D01*
X180575000Y-37998061D01*
X180575000Y-38201939D01*
X180614774Y-38401898D01*
X180692795Y-38590256D01*
X180806063Y-38759774D01*
X180950226Y-38903937D01*
X181119744Y-39017205D01*
X181308102Y-39095226D01*
X181508061Y-39135000D01*
X181711939Y-39135000D01*
X181911898Y-39095226D01*
X182100256Y-39017205D01*
X182269774Y-38903937D01*
X182413937Y-38759774D01*
X182527205Y-38590256D01*
X182605226Y-38401898D01*
X182645000Y-38201939D01*
X182645000Y-37998061D01*
X182605226Y-37798102D01*
X182527205Y-37609744D01*
X182413937Y-37440226D01*
X182269774Y-37296063D01*
X182200836Y-37250000D01*
X186471928Y-37250000D01*
X186471928Y-38950000D01*
X186484188Y-39074482D01*
X186520498Y-39194180D01*
X186579463Y-39304494D01*
X186658815Y-39401185D01*
X186755506Y-39480537D01*
X186865820Y-39539502D01*
X186938380Y-39561513D01*
X186806525Y-39693368D01*
X186644010Y-39936589D01*
X186532068Y-40206842D01*
X186475000Y-40493740D01*
X186475000Y-40786260D01*
X186532068Y-41073158D01*
X186644010Y-41343411D01*
X186806525Y-41586632D01*
X187013368Y-41793475D01*
X187187760Y-41910000D01*
X187013368Y-42026525D01*
X186806525Y-42233368D01*
X186644010Y-42476589D01*
X186532068Y-42746842D01*
X186475000Y-43033740D01*
X186475000Y-43326260D01*
X186532068Y-43613158D01*
X186644010Y-43883411D01*
X186806525Y-44126632D01*
X187013368Y-44333475D01*
X187187760Y-44450000D01*
X187013368Y-44566525D01*
X186806525Y-44773368D01*
X186644010Y-45016589D01*
X186532068Y-45286842D01*
X186475000Y-45573740D01*
X186475000Y-45866260D01*
X186532068Y-46153158D01*
X186644010Y-46423411D01*
X186806525Y-46666632D01*
X187013368Y-46873475D01*
X187187760Y-46990000D01*
X187013368Y-47106525D01*
X186806525Y-47313368D01*
X186644010Y-47556589D01*
X186532068Y-47826842D01*
X186475000Y-48113740D01*
X186475000Y-48406260D01*
X186532068Y-48693158D01*
X186644010Y-48963411D01*
X186806525Y-49206632D01*
X187013368Y-49413475D01*
X187187760Y-49530000D01*
X187013368Y-49646525D01*
X186806525Y-49853368D01*
X186644010Y-50096589D01*
X186532068Y-50366842D01*
X186475000Y-50653740D01*
X186475000Y-50946260D01*
X186532068Y-51233158D01*
X186644010Y-51503411D01*
X186806525Y-51746632D01*
X187013368Y-51953475D01*
X187187760Y-52070000D01*
X187013368Y-52186525D01*
X186806525Y-52393368D01*
X186644010Y-52636589D01*
X186532068Y-52906842D01*
X186475000Y-53193740D01*
X186475000Y-53486260D01*
X186532068Y-53773158D01*
X186644010Y-54043411D01*
X186806525Y-54286632D01*
X187013368Y-54493475D01*
X187256589Y-54655990D01*
X187526842Y-54767932D01*
X187813740Y-54825000D01*
X188106260Y-54825000D01*
X188393158Y-54767932D01*
X188663411Y-54655990D01*
X188906632Y-54493475D01*
X189113475Y-54286632D01*
X189275990Y-54043411D01*
X189387932Y-53773158D01*
X189445000Y-53486260D01*
X189445000Y-53193740D01*
X189387932Y-52906842D01*
X189275990Y-52636589D01*
X189113475Y-52393368D01*
X188906632Y-52186525D01*
X188732240Y-52070000D01*
X188906632Y-51953475D01*
X189113475Y-51746632D01*
X189275990Y-51503411D01*
X189387932Y-51233158D01*
X189445000Y-50946260D01*
X189445000Y-50653740D01*
X189387932Y-50366842D01*
X189275990Y-50096589D01*
X189113475Y-49853368D01*
X188906632Y-49646525D01*
X188732240Y-49530000D01*
X188906632Y-49413475D01*
X189113475Y-49206632D01*
X189275990Y-48963411D01*
X189387932Y-48693158D01*
X189445000Y-48406260D01*
X189445000Y-48113740D01*
X189387932Y-47826842D01*
X189275990Y-47556589D01*
X189113475Y-47313368D01*
X188906632Y-47106525D01*
X188732240Y-46990000D01*
X188906632Y-46873475D01*
X189113475Y-46666632D01*
X189275990Y-46423411D01*
X189387932Y-46153158D01*
X189445000Y-45866260D01*
X189445000Y-45573740D01*
X189387932Y-45286842D01*
X189275990Y-45016589D01*
X189113475Y-44773368D01*
X188906632Y-44566525D01*
X188732240Y-44450000D01*
X188906632Y-44333475D01*
X189113475Y-44126632D01*
X189275990Y-43883411D01*
X189387932Y-43613158D01*
X189445000Y-43326260D01*
X189445000Y-43033740D01*
X189387932Y-42746842D01*
X189275990Y-42476589D01*
X189113475Y-42233368D01*
X188906632Y-42026525D01*
X188732240Y-41910000D01*
X188906632Y-41793475D01*
X189113475Y-41586632D01*
X189275990Y-41343411D01*
X189387932Y-41073158D01*
X189445000Y-40786260D01*
X189445000Y-40493740D01*
X189387932Y-40206842D01*
X189275990Y-39936589D01*
X189113475Y-39693368D01*
X188981620Y-39561513D01*
X189054180Y-39539502D01*
X189164494Y-39480537D01*
X189261185Y-39401185D01*
X189340537Y-39304494D01*
X189399502Y-39194180D01*
X189435812Y-39074482D01*
X189448072Y-38950000D01*
X189448072Y-37250000D01*
X191551928Y-37250000D01*
X191551928Y-38950000D01*
X191564188Y-39074482D01*
X191600498Y-39194180D01*
X191659463Y-39304494D01*
X191738815Y-39401185D01*
X191835506Y-39480537D01*
X191945820Y-39539502D01*
X192065518Y-39575812D01*
X192190000Y-39588072D01*
X193890000Y-39588072D01*
X194014482Y-39575812D01*
X194134180Y-39539502D01*
X194244494Y-39480537D01*
X194341185Y-39401185D01*
X194420537Y-39304494D01*
X194479502Y-39194180D01*
X194515812Y-39074482D01*
X194528072Y-38950000D01*
X194528072Y-37250000D01*
X194515812Y-37125518D01*
X194479502Y-37005820D01*
X194420537Y-36895506D01*
X194341185Y-36798815D01*
X194244494Y-36719463D01*
X194134180Y-36660498D01*
X194014482Y-36624188D01*
X193890000Y-36611928D01*
X192190000Y-36611928D01*
X192065518Y-36624188D01*
X191945820Y-36660498D01*
X191835506Y-36719463D01*
X191738815Y-36798815D01*
X191659463Y-36895506D01*
X191600498Y-37005820D01*
X191564188Y-37125518D01*
X191551928Y-37250000D01*
X189448072Y-37250000D01*
X189435812Y-37125518D01*
X189399502Y-37005820D01*
X189340537Y-36895506D01*
X189261185Y-36798815D01*
X189164494Y-36719463D01*
X189054180Y-36660498D01*
X188934482Y-36624188D01*
X188810000Y-36611928D01*
X187110000Y-36611928D01*
X186985518Y-36624188D01*
X186865820Y-36660498D01*
X186755506Y-36719463D01*
X186658815Y-36798815D01*
X186579463Y-36895506D01*
X186520498Y-37005820D01*
X186484188Y-37125518D01*
X186471928Y-37250000D01*
X182200836Y-37250000D01*
X182100256Y-37182795D01*
X181911898Y-37104774D01*
X181711939Y-37065000D01*
X181508061Y-37065000D01*
X181308102Y-37104774D01*
X181119744Y-37182795D01*
X180950226Y-37296063D01*
X180806063Y-37440226D01*
X180692795Y-37609744D01*
X180614774Y-37798102D01*
X180575000Y-37998061D01*
X180105000Y-37998061D01*
X180065226Y-37798102D01*
X179987205Y-37609744D01*
X179873937Y-37440226D01*
X179729774Y-37296063D01*
X179560256Y-37182795D01*
X179371898Y-37104774D01*
X179171939Y-37065000D01*
X178968061Y-37065000D01*
X178768102Y-37104774D01*
X178579744Y-37182795D01*
X178410226Y-37296063D01*
X178266063Y-37440226D01*
X178152795Y-37609744D01*
X178074774Y-37798102D01*
X178035000Y-37998061D01*
X156428072Y-37998061D01*
X156428072Y-37250000D01*
X156415812Y-37125518D01*
X156379502Y-37005820D01*
X156320537Y-36895506D01*
X156241185Y-36798815D01*
X156144494Y-36719463D01*
X156034180Y-36660498D01*
X155914482Y-36624188D01*
X155790000Y-36611928D01*
X154090000Y-36611928D01*
X153965518Y-36624188D01*
X153845820Y-36660498D01*
X153735506Y-36719463D01*
X153638815Y-36798815D01*
X153559463Y-36895506D01*
X153500498Y-37005820D01*
X153464188Y-37125518D01*
X153451928Y-37250000D01*
X151348072Y-37250000D01*
X151335812Y-37125518D01*
X151299502Y-37005820D01*
X151240537Y-36895506D01*
X151161185Y-36798815D01*
X151064494Y-36719463D01*
X150954180Y-36660498D01*
X150834482Y-36624188D01*
X150710000Y-36611928D01*
X149010000Y-36611928D01*
X148885518Y-36624188D01*
X148765820Y-36660498D01*
X148655506Y-36719463D01*
X148558815Y-36798815D01*
X148479463Y-36895506D01*
X148420498Y-37005820D01*
X148384188Y-37125518D01*
X148371928Y-37250000D01*
X147980000Y-37250000D01*
X147980000Y-36862279D01*
X147994722Y-36712131D01*
X148028953Y-36598754D01*
X148084555Y-36494181D01*
X148159407Y-36402404D01*
X148250664Y-36326909D01*
X148354844Y-36270581D01*
X148467976Y-36235560D01*
X148616022Y-36220000D01*
X194277721Y-36220000D01*
X194427869Y-36234722D01*
G37*
%TD.AperFunction*%
%TD*%
M02*
