%TF.GenerationSoftware,KiCad,Pcbnew,(5.1.10-1-10_14)*%
%TF.CreationDate,2022-01-24T14:54:24+11:00*%
%TF.ProjectId,STM32L431CBT6_BO,53544d33-324c-4343-9331-434254365f42,rev?*%
%TF.SameCoordinates,Original*%
%TF.FileFunction,Legend,Top*%
%TF.FilePolarity,Positive*%
%FSLAX46Y46*%
G04 Gerber Fmt 4.6, Leading zero omitted, Abs format (unit mm)*
G04 Created by KiCad (PCBNEW (5.1.10-1-10_14)) date 2022-01-24 14:54:24*
%MOMM*%
%LPD*%
G01*
G04 APERTURE LIST*
%ADD10C,0.150000*%
%ADD11C,0.375000*%
%ADD12C,0.120000*%
%ADD13C,0.010000*%
G04 APERTURE END LIST*
D10*
X164719047Y-36647428D02*
X165480952Y-36647428D01*
X165100000Y-37028380D02*
X165100000Y-36266476D01*
X172888857Y-73999285D02*
X172888857Y-73392142D01*
X172924571Y-73320714D01*
X172960285Y-73285000D01*
X173031714Y-73249285D01*
X173138857Y-73249285D01*
X173210285Y-73285000D01*
X173246000Y-73320714D01*
X173281714Y-73392142D01*
X173281714Y-73499285D01*
X173174571Y-73499285D01*
X173103142Y-73535000D01*
X173067428Y-73606428D01*
X173067428Y-73642142D01*
X173103142Y-73713571D01*
X173174571Y-73749285D01*
X173281714Y-73749285D01*
X173353142Y-73785000D01*
X173388857Y-73856428D01*
X173388857Y-73892142D01*
X173353142Y-73963571D01*
X173281714Y-73999285D01*
X173138857Y-73999285D01*
X173067428Y-73963571D01*
X173710285Y-73999285D02*
X173710285Y-73499285D01*
X173710285Y-73642142D02*
X173746000Y-73570714D01*
X173781714Y-73535000D01*
X173853142Y-73499285D01*
X173924571Y-73499285D01*
X174281714Y-73999285D02*
X174210285Y-73963571D01*
X174174571Y-73927857D01*
X174138857Y-73856428D01*
X174138857Y-73642142D01*
X174174571Y-73570714D01*
X174210285Y-73535000D01*
X174281714Y-73499285D01*
X174388857Y-73499285D01*
X174460285Y-73535000D01*
X174496000Y-73570714D01*
X174531714Y-73642142D01*
X174531714Y-73856428D01*
X174496000Y-73927857D01*
X174460285Y-73963571D01*
X174388857Y-73999285D01*
X174281714Y-73999285D01*
X174853142Y-73499285D02*
X174853142Y-73999285D01*
X174853142Y-73570714D02*
X174888857Y-73535000D01*
X174960285Y-73499285D01*
X175067428Y-73499285D01*
X175138857Y-73535000D01*
X175174571Y-73606428D01*
X175174571Y-73999285D01*
X175531714Y-73499285D02*
X175531714Y-73999285D01*
X175531714Y-73570714D02*
X175567428Y-73535000D01*
X175638857Y-73499285D01*
X175746000Y-73499285D01*
X175817428Y-73535000D01*
X175853142Y-73606428D01*
X175853142Y-73999285D01*
D11*
X163745191Y-76299142D02*
X164093406Y-76370571D01*
X164688644Y-76370571D01*
X164935668Y-76299142D01*
X165063644Y-76227714D01*
X165200549Y-76084857D01*
X165218406Y-75942000D01*
X165117215Y-75799142D01*
X165007096Y-75727714D01*
X164777930Y-75656285D01*
X164310668Y-75584857D01*
X164081501Y-75513428D01*
X163971382Y-75442000D01*
X163870191Y-75299142D01*
X163888049Y-75156285D01*
X164024953Y-75013428D01*
X164152930Y-74942000D01*
X164399953Y-74870571D01*
X164995191Y-74870571D01*
X165343406Y-74942000D01*
X166066620Y-74870571D02*
X167495191Y-74870571D01*
X166593406Y-76370571D02*
X166780906Y-74870571D01*
X168141025Y-76370571D02*
X168328525Y-74870571D01*
X169027930Y-75942000D01*
X169995191Y-74870571D01*
X169807691Y-76370571D01*
X170947572Y-74870571D02*
X172495191Y-74870571D01*
X171590430Y-75442000D01*
X171947572Y-75442000D01*
X172176739Y-75513428D01*
X172286858Y-75584857D01*
X172388049Y-75727714D01*
X172343406Y-76084857D01*
X172206501Y-76227714D01*
X172078525Y-76299142D01*
X171831501Y-76370571D01*
X171117215Y-76370571D01*
X170888049Y-76299142D01*
X170777930Y-76227714D01*
X173429715Y-75013428D02*
X173557691Y-74942000D01*
X173804715Y-74870571D01*
X174399953Y-74870571D01*
X174629120Y-74942000D01*
X174739239Y-75013428D01*
X174840430Y-75156285D01*
X174822572Y-75299142D01*
X174676739Y-75513428D01*
X173141025Y-76370571D01*
X174688644Y-76370571D01*
X176950549Y-76370571D02*
X175760072Y-76370571D01*
X175947572Y-74870571D01*
X178980311Y-75370571D02*
X178855311Y-76370571D01*
X178456501Y-74799142D02*
X177727334Y-75870571D01*
X179274953Y-75870571D01*
D10*
X174148761Y-55221190D02*
X174148761Y-55411666D01*
X174196380Y-55411666D02*
X174196380Y-55221190D01*
X174244000Y-55173571D02*
X174244000Y-55459285D01*
X174291619Y-55411666D02*
X174291619Y-55221190D01*
X174339238Y-55221190D02*
X174339238Y-55411666D01*
X174148761Y-55364047D02*
X174244000Y-55459285D01*
X174339238Y-55364047D01*
X174148761Y-55268809D02*
X174244000Y-55173571D01*
X174339238Y-55268809D01*
X174148761Y-55221190D02*
X174244000Y-55173571D01*
X174339238Y-55221190D01*
X174386857Y-55316428D01*
X174339238Y-55411666D01*
X174244000Y-55459285D01*
X174148761Y-55411666D01*
X174101142Y-55316428D01*
X174148761Y-55221190D01*
X169792857Y-37101428D02*
X169792857Y-36501428D01*
X170021428Y-36501428D01*
X170078571Y-36530000D01*
X170107142Y-36558571D01*
X170135714Y-36615714D01*
X170135714Y-36701428D01*
X170107142Y-36758571D01*
X170078571Y-36787142D01*
X170021428Y-36815714D01*
X169792857Y-36815714D01*
X170335714Y-36501428D02*
X170478571Y-37101428D01*
X170592857Y-36672857D01*
X170707142Y-37101428D01*
X170850000Y-36501428D01*
X171421428Y-37101428D02*
X171221428Y-36815714D01*
X171078571Y-37101428D02*
X171078571Y-36501428D01*
X171307142Y-36501428D01*
X171364285Y-36530000D01*
X171392857Y-36558571D01*
X171421428Y-36615714D01*
X171421428Y-36701428D01*
X171392857Y-36758571D01*
X171364285Y-36787142D01*
X171307142Y-36815714D01*
X171078571Y-36815714D01*
X172250000Y-36501428D02*
X172364285Y-36501428D01*
X172421428Y-36530000D01*
X172478571Y-36587142D01*
X172507142Y-36701428D01*
X172507142Y-36901428D01*
X172478571Y-37015714D01*
X172421428Y-37072857D01*
X172364285Y-37101428D01*
X172250000Y-37101428D01*
X172192857Y-37072857D01*
X172135714Y-37015714D01*
X172107142Y-36901428D01*
X172107142Y-36701428D01*
X172135714Y-36587142D01*
X172192857Y-36530000D01*
X172250000Y-36501428D01*
X172764285Y-37101428D02*
X172764285Y-36501428D01*
X173107142Y-37101428D01*
X173107142Y-36501428D01*
X151942857Y-40467000D02*
X151885714Y-40438428D01*
X151800000Y-40438428D01*
X151714285Y-40467000D01*
X151657142Y-40524142D01*
X151628571Y-40581285D01*
X151600000Y-40695571D01*
X151600000Y-40781285D01*
X151628571Y-40895571D01*
X151657142Y-40952714D01*
X151714285Y-41009857D01*
X151800000Y-41038428D01*
X151857142Y-41038428D01*
X151942857Y-41009857D01*
X151971428Y-40981285D01*
X151971428Y-40781285D01*
X151857142Y-40781285D01*
X152228571Y-41038428D02*
X152228571Y-40438428D01*
X152571428Y-41038428D01*
X152571428Y-40438428D01*
X152857142Y-41038428D02*
X152857142Y-40438428D01*
X153000000Y-40438428D01*
X153085714Y-40467000D01*
X153142857Y-40524142D01*
X153171428Y-40581285D01*
X153200000Y-40695571D01*
X153200000Y-40781285D01*
X153171428Y-40895571D01*
X153142857Y-40952714D01*
X153085714Y-41009857D01*
X153000000Y-41038428D01*
X152857142Y-41038428D01*
X151958714Y-38498428D02*
X151958714Y-37898428D01*
X152244428Y-38498428D02*
X152244428Y-37898428D01*
X152587285Y-38498428D01*
X152587285Y-37898428D01*
X151530142Y-36882428D02*
X151901571Y-36882428D01*
X151701571Y-37111000D01*
X151787285Y-37111000D01*
X151844428Y-37139571D01*
X151873000Y-37168142D01*
X151901571Y-37225285D01*
X151901571Y-37368142D01*
X151873000Y-37425285D01*
X151844428Y-37453857D01*
X151787285Y-37482428D01*
X151615857Y-37482428D01*
X151558714Y-37453857D01*
X151530142Y-37425285D01*
X152073000Y-36882428D02*
X152273000Y-37482428D01*
X152473000Y-36882428D01*
X152615857Y-36882428D02*
X152987285Y-36882428D01*
X152787285Y-37111000D01*
X152873000Y-37111000D01*
X152930142Y-37139571D01*
X152958714Y-37168142D01*
X152987285Y-37225285D01*
X152987285Y-37368142D01*
X152958714Y-37425285D01*
X152930142Y-37453857D01*
X152873000Y-37482428D01*
X152701571Y-37482428D01*
X152644428Y-37453857D01*
X152615857Y-37425285D01*
X190839285Y-39028571D02*
X190089285Y-39028571D01*
X190089285Y-38742857D01*
X190125000Y-38671428D01*
X190160714Y-38635714D01*
X190232142Y-38600000D01*
X190339285Y-38600000D01*
X190410714Y-38635714D01*
X190446428Y-38671428D01*
X190482142Y-38742857D01*
X190482142Y-39028571D01*
X190446428Y-38028571D02*
X190482142Y-37921428D01*
X190517857Y-37885714D01*
X190589285Y-37850000D01*
X190696428Y-37850000D01*
X190767857Y-37885714D01*
X190803571Y-37921428D01*
X190839285Y-37992857D01*
X190839285Y-38278571D01*
X190089285Y-38278571D01*
X190089285Y-38028571D01*
X190125000Y-37957142D01*
X190160714Y-37921428D01*
X190232142Y-37885714D01*
X190303571Y-37885714D01*
X190375000Y-37921428D01*
X190410714Y-37957142D01*
X190446428Y-38028571D01*
X190446428Y-38278571D01*
X190839285Y-37492857D02*
X190839285Y-37350000D01*
X190803571Y-37278571D01*
X190767857Y-37242857D01*
X190660714Y-37171428D01*
X190517857Y-37135714D01*
X190232142Y-37135714D01*
X190160714Y-37171428D01*
X190125000Y-37207142D01*
X190089285Y-37278571D01*
X190089285Y-37421428D01*
X190125000Y-37492857D01*
X190160714Y-37528571D01*
X190232142Y-37564285D01*
X190410714Y-37564285D01*
X190482142Y-37528571D01*
X190517857Y-37492857D01*
X190553571Y-37421428D01*
X190553571Y-37278571D01*
X190517857Y-37207142D01*
X190482142Y-37171428D01*
X190410714Y-37135714D01*
X189952428Y-41106285D02*
X189952428Y-40356285D01*
X190238142Y-40356285D01*
X190309571Y-40392000D01*
X190345285Y-40427714D01*
X190381000Y-40499142D01*
X190381000Y-40606285D01*
X190345285Y-40677714D01*
X190309571Y-40713428D01*
X190238142Y-40749142D01*
X189952428Y-40749142D01*
X190952428Y-40713428D02*
X191059571Y-40749142D01*
X191095285Y-40784857D01*
X191131000Y-40856285D01*
X191131000Y-40963428D01*
X191095285Y-41034857D01*
X191059571Y-41070571D01*
X190988142Y-41106285D01*
X190702428Y-41106285D01*
X190702428Y-40356285D01*
X190952428Y-40356285D01*
X191023857Y-40392000D01*
X191059571Y-40427714D01*
X191095285Y-40499142D01*
X191095285Y-40570571D01*
X191059571Y-40642000D01*
X191023857Y-40677714D01*
X190952428Y-40713428D01*
X190702428Y-40713428D01*
X191559571Y-40677714D02*
X191488142Y-40642000D01*
X191452428Y-40606285D01*
X191416714Y-40534857D01*
X191416714Y-40499142D01*
X191452428Y-40427714D01*
X191488142Y-40392000D01*
X191559571Y-40356285D01*
X191702428Y-40356285D01*
X191773857Y-40392000D01*
X191809571Y-40427714D01*
X191845285Y-40499142D01*
X191845285Y-40534857D01*
X191809571Y-40606285D01*
X191773857Y-40642000D01*
X191702428Y-40677714D01*
X191559571Y-40677714D01*
X191488142Y-40713428D01*
X191452428Y-40749142D01*
X191416714Y-40820571D01*
X191416714Y-40963428D01*
X191452428Y-41034857D01*
X191488142Y-41070571D01*
X191559571Y-41106285D01*
X191702428Y-41106285D01*
X191773857Y-41070571D01*
X191809571Y-41034857D01*
X191845285Y-40963428D01*
X191845285Y-40820571D01*
X191809571Y-40749142D01*
X191773857Y-40713428D01*
X191702428Y-40677714D01*
X190371142Y-43126428D02*
X190478285Y-43162142D01*
X190514000Y-43197857D01*
X190549714Y-43269285D01*
X190549714Y-43376428D01*
X190514000Y-43447857D01*
X190478285Y-43483571D01*
X190406857Y-43519285D01*
X190121142Y-43519285D01*
X190121142Y-42769285D01*
X190371142Y-42769285D01*
X190442571Y-42805000D01*
X190478285Y-42840714D01*
X190514000Y-42912142D01*
X190514000Y-42983571D01*
X190478285Y-43055000D01*
X190442571Y-43090714D01*
X190371142Y-43126428D01*
X190121142Y-43126428D01*
X191014000Y-42769285D02*
X191156857Y-42769285D01*
X191228285Y-42805000D01*
X191299714Y-42876428D01*
X191335428Y-43019285D01*
X191335428Y-43269285D01*
X191299714Y-43412142D01*
X191228285Y-43483571D01*
X191156857Y-43519285D01*
X191014000Y-43519285D01*
X190942571Y-43483571D01*
X190871142Y-43412142D01*
X190835428Y-43269285D01*
X190835428Y-43019285D01*
X190871142Y-42876428D01*
X190942571Y-42805000D01*
X191014000Y-42769285D01*
X191799714Y-42769285D02*
X191942571Y-42769285D01*
X192014000Y-42805000D01*
X192085428Y-42876428D01*
X192121142Y-43019285D01*
X192121142Y-43269285D01*
X192085428Y-43412142D01*
X192014000Y-43483571D01*
X191942571Y-43519285D01*
X191799714Y-43519285D01*
X191728285Y-43483571D01*
X191656857Y-43412142D01*
X191621142Y-43269285D01*
X191621142Y-43019285D01*
X191656857Y-42876428D01*
X191728285Y-42805000D01*
X191799714Y-42769285D01*
X192335428Y-42769285D02*
X192764000Y-42769285D01*
X192549714Y-43519285D02*
X192549714Y-42769285D01*
D12*
X185293000Y-48895000D02*
X185928000Y-48895000D01*
X185293000Y-48514000D02*
X185293000Y-48895000D01*
X185293000Y-45212000D02*
X185928000Y-45212000D01*
X185293000Y-45593000D02*
X185293000Y-45212000D01*
D10*
X185632285Y-48079285D02*
X184882285Y-48079285D01*
X184953714Y-47757857D02*
X184918000Y-47722142D01*
X184882285Y-47650714D01*
X184882285Y-47472142D01*
X184918000Y-47400714D01*
X184953714Y-47365000D01*
X185025142Y-47329285D01*
X185096571Y-47329285D01*
X185203714Y-47365000D01*
X185632285Y-47793571D01*
X185632285Y-47329285D01*
X185560857Y-46579285D02*
X185596571Y-46615000D01*
X185632285Y-46722142D01*
X185632285Y-46793571D01*
X185596571Y-46900714D01*
X185525142Y-46972142D01*
X185453714Y-47007857D01*
X185310857Y-47043571D01*
X185203714Y-47043571D01*
X185060857Y-47007857D01*
X184989428Y-46972142D01*
X184918000Y-46900714D01*
X184882285Y-46793571D01*
X184882285Y-46722142D01*
X184918000Y-46615000D01*
X184953714Y-46579285D01*
X185632285Y-45865000D02*
X185632285Y-46293571D01*
X185632285Y-46079285D02*
X184882285Y-46079285D01*
X184989428Y-46150714D01*
X185060857Y-46222142D01*
X185096571Y-46293571D01*
X190047714Y-46251761D02*
X190190571Y-46299380D01*
X190428666Y-46299380D01*
X190523904Y-46251761D01*
X190571523Y-46204142D01*
X190619142Y-46108904D01*
X190619142Y-46013666D01*
X190571523Y-45918428D01*
X190523904Y-45870809D01*
X190428666Y-45823190D01*
X190238190Y-45775571D01*
X190142952Y-45727952D01*
X190095333Y-45680333D01*
X190047714Y-45585095D01*
X190047714Y-45489857D01*
X190095333Y-45394619D01*
X190142952Y-45347000D01*
X190238190Y-45299380D01*
X190476285Y-45299380D01*
X190619142Y-45347000D01*
X191047714Y-46299380D02*
X191047714Y-45299380D01*
X191285809Y-45299380D01*
X191428666Y-45347000D01*
X191523904Y-45442238D01*
X191571523Y-45537476D01*
X191619142Y-45727952D01*
X191619142Y-45870809D01*
X191571523Y-46061285D01*
X191523904Y-46156523D01*
X191428666Y-46251761D01*
X191285809Y-46299380D01*
X191047714Y-46299380D01*
X192000095Y-46013666D02*
X192476285Y-46013666D01*
X191904857Y-46299380D02*
X192238190Y-45299380D01*
X192571523Y-46299380D01*
X190071523Y-48664761D02*
X190214380Y-48712380D01*
X190452476Y-48712380D01*
X190547714Y-48664761D01*
X190595333Y-48617142D01*
X190642952Y-48521904D01*
X190642952Y-48426666D01*
X190595333Y-48331428D01*
X190547714Y-48283809D01*
X190452476Y-48236190D01*
X190262000Y-48188571D01*
X190166761Y-48140952D01*
X190119142Y-48093333D01*
X190071523Y-47998095D01*
X190071523Y-47902857D01*
X190119142Y-47807619D01*
X190166761Y-47760000D01*
X190262000Y-47712380D01*
X190500095Y-47712380D01*
X190642952Y-47760000D01*
X191642952Y-48617142D02*
X191595333Y-48664761D01*
X191452476Y-48712380D01*
X191357238Y-48712380D01*
X191214380Y-48664761D01*
X191119142Y-48569523D01*
X191071523Y-48474285D01*
X191023904Y-48283809D01*
X191023904Y-48140952D01*
X191071523Y-47950476D01*
X191119142Y-47855238D01*
X191214380Y-47760000D01*
X191357238Y-47712380D01*
X191452476Y-47712380D01*
X191595333Y-47760000D01*
X191642952Y-47807619D01*
X192547714Y-48712380D02*
X192071523Y-48712380D01*
X192071523Y-47712380D01*
X190150904Y-51379380D02*
X190150904Y-50379380D01*
X190531857Y-50379380D01*
X190627095Y-50427000D01*
X190674714Y-50474619D01*
X190722333Y-50569857D01*
X190722333Y-50712714D01*
X190674714Y-50807952D01*
X190627095Y-50855571D01*
X190531857Y-50903190D01*
X190150904Y-50903190D01*
X191484238Y-50855571D02*
X191627095Y-50903190D01*
X191674714Y-50950809D01*
X191722333Y-51046047D01*
X191722333Y-51188904D01*
X191674714Y-51284142D01*
X191627095Y-51331761D01*
X191531857Y-51379380D01*
X191150904Y-51379380D01*
X191150904Y-50379380D01*
X191484238Y-50379380D01*
X191579476Y-50427000D01*
X191627095Y-50474619D01*
X191674714Y-50569857D01*
X191674714Y-50665095D01*
X191627095Y-50760333D01*
X191579476Y-50807952D01*
X191484238Y-50855571D01*
X191150904Y-50855571D01*
X192627095Y-50379380D02*
X192150904Y-50379380D01*
X192103285Y-50855571D01*
X192150904Y-50807952D01*
X192246142Y-50760333D01*
X192484238Y-50760333D01*
X192579476Y-50807952D01*
X192627095Y-50855571D01*
X192674714Y-50950809D01*
X192674714Y-51188904D01*
X192627095Y-51284142D01*
X192579476Y-51331761D01*
X192484238Y-51379380D01*
X192246142Y-51379380D01*
X192150904Y-51331761D01*
X192103285Y-51284142D01*
X190023904Y-54046380D02*
X190023904Y-53046380D01*
X190404857Y-53046380D01*
X190500095Y-53094000D01*
X190547714Y-53141619D01*
X190595333Y-53236857D01*
X190595333Y-53379714D01*
X190547714Y-53474952D01*
X190500095Y-53522571D01*
X190404857Y-53570190D01*
X190023904Y-53570190D01*
X191357238Y-53522571D02*
X191500095Y-53570190D01*
X191547714Y-53617809D01*
X191595333Y-53713047D01*
X191595333Y-53855904D01*
X191547714Y-53951142D01*
X191500095Y-53998761D01*
X191404857Y-54046380D01*
X191023904Y-54046380D01*
X191023904Y-53046380D01*
X191357238Y-53046380D01*
X191452476Y-53094000D01*
X191500095Y-53141619D01*
X191547714Y-53236857D01*
X191547714Y-53332095D01*
X191500095Y-53427333D01*
X191452476Y-53474952D01*
X191357238Y-53522571D01*
X191023904Y-53522571D01*
X192452476Y-53379714D02*
X192452476Y-54046380D01*
X192214380Y-52998761D02*
X191976285Y-53713047D01*
X192595333Y-53713047D01*
X190436571Y-63379000D02*
X190365142Y-63343285D01*
X190258000Y-63343285D01*
X190150857Y-63379000D01*
X190079428Y-63450428D01*
X190043714Y-63521857D01*
X190008000Y-63664714D01*
X190008000Y-63771857D01*
X190043714Y-63914714D01*
X190079428Y-63986142D01*
X190150857Y-64057571D01*
X190258000Y-64093285D01*
X190329428Y-64093285D01*
X190436571Y-64057571D01*
X190472285Y-64021857D01*
X190472285Y-63771857D01*
X190329428Y-63771857D01*
X190793714Y-64093285D02*
X190793714Y-63343285D01*
X191222285Y-64093285D01*
X191222285Y-63343285D01*
X191579428Y-64093285D02*
X191579428Y-63343285D01*
X191758000Y-63343285D01*
X191865142Y-63379000D01*
X191936571Y-63450428D01*
X191972285Y-63521857D01*
X192008000Y-63664714D01*
X192008000Y-63771857D01*
X191972285Y-63914714D01*
X191936571Y-63986142D01*
X191865142Y-64057571D01*
X191758000Y-64093285D01*
X191579428Y-64093285D01*
X190008000Y-59911785D02*
X190258000Y-60661785D01*
X190508000Y-59911785D01*
X190758000Y-60661785D02*
X190758000Y-59911785D01*
X190936571Y-59911785D01*
X191043714Y-59947500D01*
X191115142Y-60018928D01*
X191150857Y-60090357D01*
X191186571Y-60233214D01*
X191186571Y-60340357D01*
X191150857Y-60483214D01*
X191115142Y-60554642D01*
X191043714Y-60626071D01*
X190936571Y-60661785D01*
X190758000Y-60661785D01*
X191508000Y-60661785D02*
X191508000Y-59911785D01*
X191686571Y-59911785D01*
X191793714Y-59947500D01*
X191865142Y-60018928D01*
X191900857Y-60090357D01*
X191936571Y-60233214D01*
X191936571Y-60340357D01*
X191900857Y-60483214D01*
X191865142Y-60554642D01*
X191793714Y-60626071D01*
X191686571Y-60661785D01*
X191508000Y-60661785D01*
X190258000Y-61186785D02*
X190400857Y-61186785D01*
X190472285Y-61222500D01*
X190543714Y-61293928D01*
X190579428Y-61436785D01*
X190579428Y-61686785D01*
X190543714Y-61829642D01*
X190472285Y-61901071D01*
X190400857Y-61936785D01*
X190258000Y-61936785D01*
X190186571Y-61901071D01*
X190115142Y-61829642D01*
X190079428Y-61686785D01*
X190079428Y-61436785D01*
X190115142Y-61293928D01*
X190186571Y-61222500D01*
X190258000Y-61186785D01*
X190900857Y-61186785D02*
X190900857Y-61793928D01*
X190936571Y-61865357D01*
X190972285Y-61901071D01*
X191043714Y-61936785D01*
X191186571Y-61936785D01*
X191258000Y-61901071D01*
X191293714Y-61865357D01*
X191329428Y-61793928D01*
X191329428Y-61186785D01*
X191579428Y-61186785D02*
X192008000Y-61186785D01*
X191793714Y-61936785D02*
X191793714Y-61186785D01*
X189925428Y-84224761D02*
X190011142Y-84272380D01*
X190154000Y-84272380D01*
X190211142Y-84224761D01*
X190239714Y-84177142D01*
X190268285Y-84081904D01*
X190268285Y-83986666D01*
X190239714Y-83891428D01*
X190211142Y-83843809D01*
X190154000Y-83796190D01*
X190039714Y-83748571D01*
X189982571Y-83700952D01*
X189954000Y-83653333D01*
X189925428Y-83558095D01*
X189925428Y-83462857D01*
X189954000Y-83367619D01*
X189982571Y-83320000D01*
X190039714Y-83272380D01*
X190182571Y-83272380D01*
X190268285Y-83320000D01*
X190468285Y-83272380D02*
X190611142Y-84272380D01*
X190725428Y-83558095D01*
X190839714Y-84272380D01*
X190982571Y-83272380D01*
X191325428Y-83272380D02*
X191439714Y-83272380D01*
X191496857Y-83320000D01*
X191554000Y-83415238D01*
X191582571Y-83605714D01*
X191582571Y-83939047D01*
X191554000Y-84129523D01*
X191496857Y-84224761D01*
X191439714Y-84272380D01*
X191325428Y-84272380D01*
X191268285Y-84224761D01*
X191211142Y-84129523D01*
X191182571Y-83939047D01*
X191182571Y-83605714D01*
X191211142Y-83415238D01*
X191268285Y-83320000D01*
X191325428Y-83272380D01*
X190029857Y-81859380D02*
X190029857Y-80859380D01*
X190458428Y-81859380D01*
X190458428Y-80859380D01*
X191244142Y-81859380D02*
X190994142Y-81383190D01*
X190815571Y-81859380D02*
X190815571Y-80859380D01*
X191101285Y-80859380D01*
X191172714Y-80907000D01*
X191208428Y-80954619D01*
X191244142Y-81049857D01*
X191244142Y-81192714D01*
X191208428Y-81287952D01*
X191172714Y-81335571D01*
X191101285Y-81383190D01*
X190815571Y-81383190D01*
X191529857Y-81811761D02*
X191637000Y-81859380D01*
X191815571Y-81859380D01*
X191887000Y-81811761D01*
X191922714Y-81764142D01*
X191958428Y-81668904D01*
X191958428Y-81573666D01*
X191922714Y-81478428D01*
X191887000Y-81430809D01*
X191815571Y-81383190D01*
X191672714Y-81335571D01*
X191601285Y-81287952D01*
X191565571Y-81240333D01*
X191529857Y-81145095D01*
X191529857Y-81049857D01*
X191565571Y-80954619D01*
X191601285Y-80907000D01*
X191672714Y-80859380D01*
X191851285Y-80859380D01*
X191958428Y-80907000D01*
X192172714Y-80859380D02*
X192601285Y-80859380D01*
X192387000Y-81859380D02*
X192387000Y-80859380D01*
X189990571Y-79271761D02*
X190076285Y-79319380D01*
X190219142Y-79319380D01*
X190276285Y-79271761D01*
X190304857Y-79224142D01*
X190333428Y-79128904D01*
X190333428Y-79033666D01*
X190304857Y-78938428D01*
X190276285Y-78890809D01*
X190219142Y-78843190D01*
X190104857Y-78795571D01*
X190047714Y-78747952D01*
X190019142Y-78700333D01*
X189990571Y-78605095D01*
X189990571Y-78509857D01*
X190019142Y-78414619D01*
X190047714Y-78367000D01*
X190104857Y-78319380D01*
X190247714Y-78319380D01*
X190333428Y-78367000D01*
X190533428Y-78319380D02*
X190676285Y-79319380D01*
X190790571Y-78605095D01*
X190904857Y-79319380D01*
X191047714Y-78319380D01*
X191276285Y-79319380D02*
X191276285Y-78319380D01*
X191419142Y-78319380D01*
X191504857Y-78367000D01*
X191562000Y-78462238D01*
X191590571Y-78557476D01*
X191619142Y-78747952D01*
X191619142Y-78890809D01*
X191590571Y-79081285D01*
X191562000Y-79176523D01*
X191504857Y-79271761D01*
X191419142Y-79319380D01*
X191276285Y-79319380D01*
X191876285Y-79319380D02*
X191876285Y-78319380D01*
X192276285Y-78319380D02*
X192390571Y-78319380D01*
X192447714Y-78367000D01*
X192504857Y-78462238D01*
X192533428Y-78652714D01*
X192533428Y-78986047D01*
X192504857Y-79176523D01*
X192447714Y-79271761D01*
X192390571Y-79319380D01*
X192276285Y-79319380D01*
X192219142Y-79271761D01*
X192162000Y-79176523D01*
X192133428Y-78986047D01*
X192133428Y-78652714D01*
X192162000Y-78462238D01*
X192219142Y-78367000D01*
X192276285Y-78319380D01*
X190563571Y-75827000D02*
X190492142Y-75779380D01*
X190385000Y-75779380D01*
X190277857Y-75827000D01*
X190206428Y-75922238D01*
X190170714Y-76017476D01*
X190135000Y-76207952D01*
X190135000Y-76350809D01*
X190170714Y-76541285D01*
X190206428Y-76636523D01*
X190277857Y-76731761D01*
X190385000Y-76779380D01*
X190456428Y-76779380D01*
X190563571Y-76731761D01*
X190599285Y-76684142D01*
X190599285Y-76350809D01*
X190456428Y-76350809D01*
X190920714Y-76779380D02*
X190920714Y-75779380D01*
X191349285Y-76779380D01*
X191349285Y-75779380D01*
X191706428Y-76779380D02*
X191706428Y-75779380D01*
X191885000Y-75779380D01*
X191992142Y-75827000D01*
X192063571Y-75922238D01*
X192099285Y-76017476D01*
X192135000Y-76207952D01*
X192135000Y-76350809D01*
X192099285Y-76541285D01*
X192063571Y-76636523D01*
X191992142Y-76731761D01*
X191885000Y-76779380D01*
X191706428Y-76779380D01*
X190031857Y-74191761D02*
X190117571Y-74239380D01*
X190260428Y-74239380D01*
X190317571Y-74191761D01*
X190346142Y-74144142D01*
X190374714Y-74048904D01*
X190374714Y-73953666D01*
X190346142Y-73858428D01*
X190317571Y-73810809D01*
X190260428Y-73763190D01*
X190146142Y-73715571D01*
X190089000Y-73667952D01*
X190060428Y-73620333D01*
X190031857Y-73525095D01*
X190031857Y-73429857D01*
X190060428Y-73334619D01*
X190089000Y-73287000D01*
X190146142Y-73239380D01*
X190289000Y-73239380D01*
X190374714Y-73287000D01*
X190574714Y-73239380D02*
X190717571Y-74239380D01*
X190831857Y-73525095D01*
X190946142Y-74239380D01*
X191089000Y-73239380D01*
X191660428Y-74144142D02*
X191631857Y-74191761D01*
X191546142Y-74239380D01*
X191489000Y-74239380D01*
X191403285Y-74191761D01*
X191346142Y-74096523D01*
X191317571Y-74001285D01*
X191289000Y-73810809D01*
X191289000Y-73667952D01*
X191317571Y-73477476D01*
X191346142Y-73382238D01*
X191403285Y-73287000D01*
X191489000Y-73239380D01*
X191546142Y-73239380D01*
X191631857Y-73287000D01*
X191660428Y-73334619D01*
X192203285Y-74239380D02*
X191917571Y-74239380D01*
X191917571Y-73239380D01*
X192403285Y-74239380D02*
X192403285Y-73239380D01*
X192746142Y-74239380D02*
X192489000Y-73667952D01*
X192746142Y-73239380D02*
X192403285Y-73810809D01*
X190262000Y-70699380D02*
X190512000Y-71699380D01*
X190762000Y-70699380D01*
X191012000Y-71699380D02*
X191012000Y-70699380D01*
X191190571Y-70699380D01*
X191297714Y-70747000D01*
X191369142Y-70842238D01*
X191404857Y-70937476D01*
X191440571Y-71127952D01*
X191440571Y-71270809D01*
X191404857Y-71461285D01*
X191369142Y-71556523D01*
X191297714Y-71651761D01*
X191190571Y-71699380D01*
X191012000Y-71699380D01*
X191762000Y-71699380D02*
X191762000Y-70699380D01*
X191940571Y-70699380D01*
X192047714Y-70747000D01*
X192119142Y-70842238D01*
X192154857Y-70937476D01*
X192190571Y-71127952D01*
X192190571Y-71270809D01*
X192154857Y-71461285D01*
X192119142Y-71556523D01*
X192047714Y-71651761D01*
X191940571Y-71699380D01*
X191762000Y-71699380D01*
X183459380Y-85941142D02*
X182459380Y-85941142D01*
X182459380Y-85655428D01*
X182507000Y-85584000D01*
X182554619Y-85548285D01*
X182649857Y-85512571D01*
X182792714Y-85512571D01*
X182887952Y-85548285D01*
X182935571Y-85584000D01*
X182983190Y-85655428D01*
X182983190Y-85941142D01*
X183173666Y-85226857D02*
X183173666Y-84869714D01*
X183459380Y-85298285D02*
X182459380Y-85048285D01*
X183459380Y-84798285D01*
X183459380Y-84155428D02*
X183459380Y-84584000D01*
X183459380Y-84369714D02*
X182459380Y-84369714D01*
X182602238Y-84441142D01*
X182697476Y-84512571D01*
X182745095Y-84584000D01*
X182554619Y-83869714D02*
X182507000Y-83834000D01*
X182459380Y-83762571D01*
X182459380Y-83584000D01*
X182507000Y-83512571D01*
X182554619Y-83476857D01*
X182649857Y-83441142D01*
X182745095Y-83441142D01*
X182887952Y-83476857D01*
X183459380Y-83905428D01*
X183459380Y-83441142D01*
X180792380Y-85941142D02*
X179792380Y-85941142D01*
X179792380Y-85655428D01*
X179840000Y-85584000D01*
X179887619Y-85548285D01*
X179982857Y-85512571D01*
X180125714Y-85512571D01*
X180220952Y-85548285D01*
X180268571Y-85584000D01*
X180316190Y-85655428D01*
X180316190Y-85941142D01*
X180506666Y-85226857D02*
X180506666Y-84869714D01*
X180792380Y-85298285D02*
X179792380Y-85048285D01*
X180792380Y-84798285D01*
X180792380Y-84155428D02*
X180792380Y-84584000D01*
X180792380Y-84369714D02*
X179792380Y-84369714D01*
X179935238Y-84441142D01*
X180030476Y-84512571D01*
X180078095Y-84584000D01*
X180792380Y-83441142D02*
X180792380Y-83869714D01*
X180792380Y-83655428D02*
X179792380Y-83655428D01*
X179935238Y-83726857D01*
X180030476Y-83798285D01*
X180078095Y-83869714D01*
X177601571Y-79079285D02*
X177351571Y-78722142D01*
X177173000Y-79079285D02*
X177173000Y-78329285D01*
X177458714Y-78329285D01*
X177530142Y-78365000D01*
X177565857Y-78400714D01*
X177601571Y-78472142D01*
X177601571Y-78579285D01*
X177565857Y-78650714D01*
X177530142Y-78686428D01*
X177458714Y-78722142D01*
X177173000Y-78722142D01*
X177851571Y-79079285D02*
X178244428Y-78579285D01*
X177851571Y-78579285D02*
X178244428Y-79079285D01*
X174615142Y-78202285D02*
X175043714Y-78202285D01*
X174829428Y-78952285D02*
X174829428Y-78202285D01*
X175222285Y-78952285D02*
X175615142Y-78452285D01*
X175222285Y-78452285D02*
X175615142Y-78952285D01*
D12*
X178689000Y-84455000D02*
X178689000Y-83566000D01*
X178308000Y-84455000D02*
X178689000Y-84455000D01*
X174244000Y-84455000D02*
X174244000Y-83566000D01*
X174625000Y-84455000D02*
X174244000Y-84455000D01*
D10*
X174976428Y-84171285D02*
X174976428Y-84778428D01*
X175012142Y-84849857D01*
X175047857Y-84885571D01*
X175119285Y-84921285D01*
X175262142Y-84921285D01*
X175333571Y-84885571D01*
X175369285Y-84849857D01*
X175405000Y-84778428D01*
X175405000Y-84171285D01*
X175726428Y-84707000D02*
X176083571Y-84707000D01*
X175655000Y-84921285D02*
X175905000Y-84171285D01*
X176155000Y-84921285D01*
X176833571Y-84921285D02*
X176583571Y-84564142D01*
X176405000Y-84921285D02*
X176405000Y-84171285D01*
X176690714Y-84171285D01*
X176762142Y-84207000D01*
X176797857Y-84242714D01*
X176833571Y-84314142D01*
X176833571Y-84421285D01*
X176797857Y-84492714D01*
X176762142Y-84528428D01*
X176690714Y-84564142D01*
X176405000Y-84564142D01*
X177047857Y-84171285D02*
X177476428Y-84171285D01*
X177262142Y-84921285D02*
X177262142Y-84171285D01*
X178119285Y-84921285D02*
X177690714Y-84921285D01*
X177905000Y-84921285D02*
X177905000Y-84171285D01*
X177833571Y-84278428D01*
X177762142Y-84349857D01*
X177690714Y-84385571D01*
D12*
X152400000Y-85217000D02*
X152908000Y-85217000D01*
X152400000Y-84963000D02*
X152400000Y-85217000D01*
X152400000Y-84709000D02*
X152400000Y-84963000D01*
X152400000Y-80391000D02*
X152908000Y-80391000D01*
X152400000Y-80772000D02*
X152400000Y-80391000D01*
D10*
X151989285Y-84357571D02*
X152596428Y-84357571D01*
X152667857Y-84321857D01*
X152703571Y-84286142D01*
X152739285Y-84214714D01*
X152739285Y-84071857D01*
X152703571Y-84000428D01*
X152667857Y-83964714D01*
X152596428Y-83929000D01*
X151989285Y-83929000D01*
X152525000Y-83607571D02*
X152525000Y-83250428D01*
X152739285Y-83679000D02*
X151989285Y-83429000D01*
X152739285Y-83179000D01*
X152739285Y-82500428D02*
X152382142Y-82750428D01*
X152739285Y-82929000D02*
X151989285Y-82929000D01*
X151989285Y-82643285D01*
X152025000Y-82571857D01*
X152060714Y-82536142D01*
X152132142Y-82500428D01*
X152239285Y-82500428D01*
X152310714Y-82536142D01*
X152346428Y-82571857D01*
X152382142Y-82643285D01*
X152382142Y-82929000D01*
X151989285Y-82286142D02*
X151989285Y-81857571D01*
X152739285Y-82071857D02*
X151989285Y-82071857D01*
X151989285Y-81679000D02*
X151989285Y-81214714D01*
X152275000Y-81464714D01*
X152275000Y-81357571D01*
X152310714Y-81286142D01*
X152346428Y-81250428D01*
X152417857Y-81214714D01*
X152596428Y-81214714D01*
X152667857Y-81250428D01*
X152703571Y-81286142D01*
X152739285Y-81357571D01*
X152739285Y-81571857D01*
X152703571Y-81643285D01*
X152667857Y-81679000D01*
X172347000Y-85280428D02*
X172299380Y-85351857D01*
X172299380Y-85459000D01*
X172347000Y-85566142D01*
X172442238Y-85637571D01*
X172537476Y-85673285D01*
X172727952Y-85709000D01*
X172870809Y-85709000D01*
X173061285Y-85673285D01*
X173156523Y-85637571D01*
X173251761Y-85566142D01*
X173299380Y-85459000D01*
X173299380Y-85387571D01*
X173251761Y-85280428D01*
X173204142Y-85244714D01*
X172870809Y-85244714D01*
X172870809Y-85387571D01*
X173299380Y-84923285D02*
X172299380Y-84923285D01*
X173299380Y-84494714D01*
X172299380Y-84494714D01*
X173299380Y-84137571D02*
X172299380Y-84137571D01*
X172299380Y-83959000D01*
X172347000Y-83851857D01*
X172442238Y-83780428D01*
X172537476Y-83744714D01*
X172727952Y-83709000D01*
X172870809Y-83709000D01*
X173061285Y-83744714D01*
X173156523Y-83780428D01*
X173251761Y-83851857D01*
X173299380Y-83959000D01*
X173299380Y-84137571D01*
X170759380Y-85875666D02*
X169759380Y-85875666D01*
X169759380Y-85494714D01*
X169807000Y-85399476D01*
X169854619Y-85351857D01*
X169949857Y-85304238D01*
X170092714Y-85304238D01*
X170187952Y-85351857D01*
X170235571Y-85399476D01*
X170283190Y-85494714D01*
X170283190Y-85875666D01*
X170473666Y-84923285D02*
X170473666Y-84447095D01*
X170759380Y-85018523D02*
X169759380Y-84685190D01*
X170759380Y-84351857D01*
X170187952Y-83875666D02*
X170140333Y-83970904D01*
X170092714Y-84018523D01*
X169997476Y-84066142D01*
X169949857Y-84066142D01*
X169854619Y-84018523D01*
X169807000Y-83970904D01*
X169759380Y-83875666D01*
X169759380Y-83685190D01*
X169807000Y-83589952D01*
X169854619Y-83542333D01*
X169949857Y-83494714D01*
X169997476Y-83494714D01*
X170092714Y-83542333D01*
X170140333Y-83589952D01*
X170187952Y-83685190D01*
X170187952Y-83875666D01*
X170235571Y-83970904D01*
X170283190Y-84018523D01*
X170378428Y-84066142D01*
X170568904Y-84066142D01*
X170664142Y-84018523D01*
X170711761Y-83970904D01*
X170759380Y-83875666D01*
X170759380Y-83685190D01*
X170711761Y-83589952D01*
X170664142Y-83542333D01*
X170568904Y-83494714D01*
X170378428Y-83494714D01*
X170283190Y-83542333D01*
X170235571Y-83589952D01*
X170187952Y-83685190D01*
X167849785Y-85994714D02*
X167099785Y-85994714D01*
X167099785Y-85709000D01*
X167135500Y-85637571D01*
X167171214Y-85601857D01*
X167242642Y-85566142D01*
X167349785Y-85566142D01*
X167421214Y-85601857D01*
X167456928Y-85637571D01*
X167492642Y-85709000D01*
X167492642Y-85994714D01*
X167456928Y-84994714D02*
X167492642Y-84887571D01*
X167528357Y-84851857D01*
X167599785Y-84816142D01*
X167706928Y-84816142D01*
X167778357Y-84851857D01*
X167814071Y-84887571D01*
X167849785Y-84959000D01*
X167849785Y-85244714D01*
X167099785Y-85244714D01*
X167099785Y-84994714D01*
X167135500Y-84923285D01*
X167171214Y-84887571D01*
X167242642Y-84851857D01*
X167314071Y-84851857D01*
X167385500Y-84887571D01*
X167421214Y-84923285D01*
X167456928Y-84994714D01*
X167456928Y-85244714D01*
X167849785Y-84101857D02*
X167849785Y-84530428D01*
X167849785Y-84316142D02*
X167099785Y-84316142D01*
X167206928Y-84387571D01*
X167278357Y-84459000D01*
X167314071Y-84530428D01*
X167099785Y-83423285D02*
X167099785Y-83780428D01*
X167456928Y-83816142D01*
X167421214Y-83780428D01*
X167385500Y-83709000D01*
X167385500Y-83530428D01*
X167421214Y-83459000D01*
X167456928Y-83423285D01*
X167528357Y-83387571D01*
X167706928Y-83387571D01*
X167778357Y-83423285D01*
X167814071Y-83459000D01*
X167849785Y-83530428D01*
X167849785Y-83709000D01*
X167814071Y-83780428D01*
X167778357Y-83816142D01*
X165439285Y-85994714D02*
X164689285Y-85994714D01*
X164689285Y-85709000D01*
X164725000Y-85637571D01*
X164760714Y-85601857D01*
X164832142Y-85566142D01*
X164939285Y-85566142D01*
X165010714Y-85601857D01*
X165046428Y-85637571D01*
X165082142Y-85709000D01*
X165082142Y-85994714D01*
X165046428Y-84994714D02*
X165082142Y-84887571D01*
X165117857Y-84851857D01*
X165189285Y-84816142D01*
X165296428Y-84816142D01*
X165367857Y-84851857D01*
X165403571Y-84887571D01*
X165439285Y-84959000D01*
X165439285Y-85244714D01*
X164689285Y-85244714D01*
X164689285Y-84994714D01*
X164725000Y-84923285D01*
X164760714Y-84887571D01*
X164832142Y-84851857D01*
X164903571Y-84851857D01*
X164975000Y-84887571D01*
X165010714Y-84923285D01*
X165046428Y-84994714D01*
X165046428Y-85244714D01*
X165439285Y-84101857D02*
X165439285Y-84530428D01*
X165439285Y-84316142D02*
X164689285Y-84316142D01*
X164796428Y-84387571D01*
X164867857Y-84459000D01*
X164903571Y-84530428D01*
X164939285Y-83459000D02*
X165439285Y-83459000D01*
X164653571Y-83637571D02*
X165189285Y-83816142D01*
X165189285Y-83351857D01*
X163026285Y-85994714D02*
X162276285Y-85994714D01*
X162276285Y-85709000D01*
X162312000Y-85637571D01*
X162347714Y-85601857D01*
X162419142Y-85566142D01*
X162526285Y-85566142D01*
X162597714Y-85601857D01*
X162633428Y-85637571D01*
X162669142Y-85709000D01*
X162669142Y-85994714D01*
X162633428Y-84994714D02*
X162669142Y-84887571D01*
X162704857Y-84851857D01*
X162776285Y-84816142D01*
X162883428Y-84816142D01*
X162954857Y-84851857D01*
X162990571Y-84887571D01*
X163026285Y-84959000D01*
X163026285Y-85244714D01*
X162276285Y-85244714D01*
X162276285Y-84994714D01*
X162312000Y-84923285D01*
X162347714Y-84887571D01*
X162419142Y-84851857D01*
X162490571Y-84851857D01*
X162562000Y-84887571D01*
X162597714Y-84923285D01*
X162633428Y-84994714D01*
X162633428Y-85244714D01*
X163026285Y-84101857D02*
X163026285Y-84530428D01*
X163026285Y-84316142D02*
X162276285Y-84316142D01*
X162383428Y-84387571D01*
X162454857Y-84459000D01*
X162490571Y-84530428D01*
X162276285Y-83851857D02*
X162276285Y-83387571D01*
X162562000Y-83637571D01*
X162562000Y-83530428D01*
X162597714Y-83459000D01*
X162633428Y-83423285D01*
X162704857Y-83387571D01*
X162883428Y-83387571D01*
X162954857Y-83423285D01*
X162990571Y-83459000D01*
X163026285Y-83530428D01*
X163026285Y-83744714D01*
X162990571Y-83816142D01*
X162954857Y-83851857D01*
X160359285Y-85956928D02*
X159609285Y-85956928D01*
X159609285Y-85671214D01*
X159645000Y-85599785D01*
X159680714Y-85564071D01*
X159752142Y-85528357D01*
X159859285Y-85528357D01*
X159930714Y-85564071D01*
X159966428Y-85599785D01*
X160002142Y-85671214D01*
X160002142Y-85956928D01*
X159966428Y-84956928D02*
X160002142Y-84849785D01*
X160037857Y-84814071D01*
X160109285Y-84778357D01*
X160216428Y-84778357D01*
X160287857Y-84814071D01*
X160323571Y-84849785D01*
X160359285Y-84921214D01*
X160359285Y-85206928D01*
X159609285Y-85206928D01*
X159609285Y-84956928D01*
X159645000Y-84885500D01*
X159680714Y-84849785D01*
X159752142Y-84814071D01*
X159823571Y-84814071D01*
X159895000Y-84849785D01*
X159930714Y-84885500D01*
X159966428Y-84956928D01*
X159966428Y-85206928D01*
X160359285Y-84064071D02*
X160359285Y-84492642D01*
X160359285Y-84278357D02*
X159609285Y-84278357D01*
X159716428Y-84349785D01*
X159787857Y-84421214D01*
X159823571Y-84492642D01*
X159680714Y-83778357D02*
X159645000Y-83742642D01*
X159609285Y-83671214D01*
X159609285Y-83492642D01*
X159645000Y-83421214D01*
X159680714Y-83385500D01*
X159752142Y-83349785D01*
X159823571Y-83349785D01*
X159930714Y-83385500D01*
X160359285Y-83814071D01*
X160359285Y-83349785D01*
X157281571Y-84159285D02*
X157031571Y-83802142D01*
X156853000Y-84159285D02*
X156853000Y-83409285D01*
X157138714Y-83409285D01*
X157210142Y-83445000D01*
X157245857Y-83480714D01*
X157281571Y-83552142D01*
X157281571Y-83659285D01*
X157245857Y-83730714D01*
X157210142Y-83766428D01*
X157138714Y-83802142D01*
X156853000Y-83802142D01*
X157531571Y-84159285D02*
X157924428Y-83659285D01*
X157531571Y-83659285D02*
X157924428Y-84159285D01*
X156708142Y-80869285D02*
X157136714Y-80869285D01*
X156922428Y-81619285D02*
X156922428Y-80869285D01*
X157315285Y-81619285D02*
X157708142Y-81119285D01*
X157315285Y-81119285D02*
X157708142Y-81619285D01*
X150399904Y-79192380D02*
X150399904Y-78192380D01*
X150780857Y-78192380D01*
X150876095Y-78240000D01*
X150923714Y-78287619D01*
X150971333Y-78382857D01*
X150971333Y-78525714D01*
X150923714Y-78620952D01*
X150876095Y-78668571D01*
X150780857Y-78716190D01*
X150399904Y-78716190D01*
X151733238Y-78668571D02*
X151876095Y-78716190D01*
X151923714Y-78763809D01*
X151971333Y-78859047D01*
X151971333Y-79001904D01*
X151923714Y-79097142D01*
X151876095Y-79144761D01*
X151780857Y-79192380D01*
X151399904Y-79192380D01*
X151399904Y-78192380D01*
X151733238Y-78192380D01*
X151828476Y-78240000D01*
X151876095Y-78287619D01*
X151923714Y-78382857D01*
X151923714Y-78478095D01*
X151876095Y-78573333D01*
X151828476Y-78620952D01*
X151733238Y-78668571D01*
X151399904Y-78668571D01*
X152352285Y-78287619D02*
X152399904Y-78240000D01*
X152495142Y-78192380D01*
X152733238Y-78192380D01*
X152828476Y-78240000D01*
X152876095Y-78287619D01*
X152923714Y-78382857D01*
X152923714Y-78478095D01*
X152876095Y-78620952D01*
X152304666Y-79192380D01*
X152923714Y-79192380D01*
X150399904Y-76652380D02*
X150399904Y-75652380D01*
X150780857Y-75652380D01*
X150876095Y-75700000D01*
X150923714Y-75747619D01*
X150971333Y-75842857D01*
X150971333Y-75985714D01*
X150923714Y-76080952D01*
X150876095Y-76128571D01*
X150780857Y-76176190D01*
X150399904Y-76176190D01*
X151733238Y-76128571D02*
X151876095Y-76176190D01*
X151923714Y-76223809D01*
X151971333Y-76319047D01*
X151971333Y-76461904D01*
X151923714Y-76557142D01*
X151876095Y-76604761D01*
X151780857Y-76652380D01*
X151399904Y-76652380D01*
X151399904Y-75652380D01*
X151733238Y-75652380D01*
X151828476Y-75700000D01*
X151876095Y-75747619D01*
X151923714Y-75842857D01*
X151923714Y-75938095D01*
X151876095Y-76033333D01*
X151828476Y-76080952D01*
X151733238Y-76128571D01*
X151399904Y-76128571D01*
X152923714Y-76652380D02*
X152352285Y-76652380D01*
X152638000Y-76652380D02*
X152638000Y-75652380D01*
X152542761Y-75795238D01*
X152447523Y-75890476D01*
X152352285Y-75938095D01*
X150399904Y-74112380D02*
X150399904Y-73112380D01*
X150780857Y-73112380D01*
X150876095Y-73160000D01*
X150923714Y-73207619D01*
X150971333Y-73302857D01*
X150971333Y-73445714D01*
X150923714Y-73540952D01*
X150876095Y-73588571D01*
X150780857Y-73636190D01*
X150399904Y-73636190D01*
X151733238Y-73588571D02*
X151876095Y-73636190D01*
X151923714Y-73683809D01*
X151971333Y-73779047D01*
X151971333Y-73921904D01*
X151923714Y-74017142D01*
X151876095Y-74064761D01*
X151780857Y-74112380D01*
X151399904Y-74112380D01*
X151399904Y-73112380D01*
X151733238Y-73112380D01*
X151828476Y-73160000D01*
X151876095Y-73207619D01*
X151923714Y-73302857D01*
X151923714Y-73398095D01*
X151876095Y-73493333D01*
X151828476Y-73540952D01*
X151733238Y-73588571D01*
X151399904Y-73588571D01*
X152590380Y-73112380D02*
X152685619Y-73112380D01*
X152780857Y-73160000D01*
X152828476Y-73207619D01*
X152876095Y-73302857D01*
X152923714Y-73493333D01*
X152923714Y-73731428D01*
X152876095Y-73921904D01*
X152828476Y-74017142D01*
X152780857Y-74064761D01*
X152685619Y-74112380D01*
X152590380Y-74112380D01*
X152495142Y-74064761D01*
X152447523Y-74017142D01*
X152399904Y-73921904D01*
X152352285Y-73731428D01*
X152352285Y-73493333D01*
X152399904Y-73302857D01*
X152447523Y-73207619D01*
X152495142Y-73160000D01*
X152590380Y-73112380D01*
X150471333Y-71699380D02*
X150471333Y-70699380D01*
X150852285Y-70699380D01*
X150947523Y-70747000D01*
X150995142Y-70794619D01*
X151042761Y-70889857D01*
X151042761Y-71032714D01*
X150995142Y-71127952D01*
X150947523Y-71175571D01*
X150852285Y-71223190D01*
X150471333Y-71223190D01*
X151423714Y-71413666D02*
X151899904Y-71413666D01*
X151328476Y-71699380D02*
X151661809Y-70699380D01*
X151995142Y-71699380D01*
X152233238Y-70699380D02*
X152899904Y-70699380D01*
X152471333Y-71699380D01*
X150471333Y-69286380D02*
X150471333Y-68286380D01*
X150852285Y-68286380D01*
X150947523Y-68334000D01*
X150995142Y-68381619D01*
X151042761Y-68476857D01*
X151042761Y-68619714D01*
X150995142Y-68714952D01*
X150947523Y-68762571D01*
X150852285Y-68810190D01*
X150471333Y-68810190D01*
X151423714Y-69000666D02*
X151899904Y-69000666D01*
X151328476Y-69286380D02*
X151661809Y-68286380D01*
X151995142Y-69286380D01*
X152757047Y-68286380D02*
X152566571Y-68286380D01*
X152471333Y-68334000D01*
X152423714Y-68381619D01*
X152328476Y-68524476D01*
X152280857Y-68714952D01*
X152280857Y-69095904D01*
X152328476Y-69191142D01*
X152376095Y-69238761D01*
X152471333Y-69286380D01*
X152661809Y-69286380D01*
X152757047Y-69238761D01*
X152804666Y-69191142D01*
X152852285Y-69095904D01*
X152852285Y-68857809D01*
X152804666Y-68762571D01*
X152757047Y-68714952D01*
X152661809Y-68667333D01*
X152471333Y-68667333D01*
X152376095Y-68714952D01*
X152328476Y-68762571D01*
X152280857Y-68857809D01*
X150471333Y-66746380D02*
X150471333Y-65746380D01*
X150852285Y-65746380D01*
X150947523Y-65794000D01*
X150995142Y-65841619D01*
X151042761Y-65936857D01*
X151042761Y-66079714D01*
X150995142Y-66174952D01*
X150947523Y-66222571D01*
X150852285Y-66270190D01*
X150471333Y-66270190D01*
X151423714Y-66460666D02*
X151899904Y-66460666D01*
X151328476Y-66746380D02*
X151661809Y-65746380D01*
X151995142Y-66746380D01*
X152804666Y-65746380D02*
X152328476Y-65746380D01*
X152280857Y-66222571D01*
X152328476Y-66174952D01*
X152423714Y-66127333D01*
X152661809Y-66127333D01*
X152757047Y-66174952D01*
X152804666Y-66222571D01*
X152852285Y-66317809D01*
X152852285Y-66555904D01*
X152804666Y-66651142D01*
X152757047Y-66698761D01*
X152661809Y-66746380D01*
X152423714Y-66746380D01*
X152328476Y-66698761D01*
X152280857Y-66651142D01*
X151028476Y-63254000D02*
X150952285Y-63206380D01*
X150838000Y-63206380D01*
X150723714Y-63254000D01*
X150647523Y-63349238D01*
X150609428Y-63444476D01*
X150571333Y-63634952D01*
X150571333Y-63777809D01*
X150609428Y-63968285D01*
X150647523Y-64063523D01*
X150723714Y-64158761D01*
X150838000Y-64206380D01*
X150914190Y-64206380D01*
X151028476Y-64158761D01*
X151066571Y-64111142D01*
X151066571Y-63777809D01*
X150914190Y-63777809D01*
X151409428Y-64206380D02*
X151409428Y-63206380D01*
X151866571Y-64206380D01*
X151866571Y-63206380D01*
X152247523Y-64206380D02*
X152247523Y-63206380D01*
X152438000Y-63206380D01*
X152552285Y-63254000D01*
X152628476Y-63349238D01*
X152666571Y-63444476D01*
X152704666Y-63634952D01*
X152704666Y-63777809D01*
X152666571Y-63968285D01*
X152628476Y-64063523D01*
X152552285Y-64158761D01*
X152438000Y-64206380D01*
X152247523Y-64206380D01*
X150352285Y-48426666D02*
X150709428Y-48426666D01*
X150280857Y-48712380D02*
X150530857Y-47712380D01*
X150780857Y-48712380D01*
X151030857Y-48712380D02*
X151030857Y-47712380D01*
X151209428Y-47712380D01*
X151316571Y-47760000D01*
X151388000Y-47855238D01*
X151423714Y-47950476D01*
X151459428Y-48140952D01*
X151459428Y-48283809D01*
X151423714Y-48474285D01*
X151388000Y-48569523D01*
X151316571Y-48664761D01*
X151209428Y-48712380D01*
X151030857Y-48712380D01*
X152209428Y-48617142D02*
X152173714Y-48664761D01*
X152066571Y-48712380D01*
X151995142Y-48712380D01*
X151888000Y-48664761D01*
X151816571Y-48569523D01*
X151780857Y-48474285D01*
X151745142Y-48283809D01*
X151745142Y-48140952D01*
X151780857Y-47950476D01*
X151816571Y-47855238D01*
X151888000Y-47760000D01*
X151995142Y-47712380D01*
X152066571Y-47712380D01*
X152173714Y-47760000D01*
X152209428Y-47807619D01*
X152923714Y-48712380D02*
X152495142Y-48712380D01*
X152709428Y-48712380D02*
X152709428Y-47712380D01*
X152638000Y-47855238D01*
X152566571Y-47950476D01*
X152495142Y-47998095D01*
X150388000Y-61539380D02*
X150388000Y-60539380D01*
X150566571Y-60539380D01*
X150673714Y-60587000D01*
X150745142Y-60682238D01*
X150780857Y-60777476D01*
X150816571Y-60967952D01*
X150816571Y-61110809D01*
X150780857Y-61301285D01*
X150745142Y-61396523D01*
X150673714Y-61491761D01*
X150566571Y-61539380D01*
X150388000Y-61539380D01*
X151102285Y-61253666D02*
X151459428Y-61253666D01*
X151030857Y-61539380D02*
X151280857Y-60539380D01*
X151530857Y-61539380D01*
X152209428Y-61444142D02*
X152173714Y-61491761D01*
X152066571Y-61539380D01*
X151995142Y-61539380D01*
X151888000Y-61491761D01*
X151816571Y-61396523D01*
X151780857Y-61301285D01*
X151745142Y-61110809D01*
X151745142Y-60967952D01*
X151780857Y-60777476D01*
X151816571Y-60682238D01*
X151888000Y-60587000D01*
X151995142Y-60539380D01*
X152066571Y-60539380D01*
X152173714Y-60587000D01*
X152209428Y-60634619D01*
X152923714Y-61539380D02*
X152495142Y-61539380D01*
X152709428Y-61539380D02*
X152709428Y-60539380D01*
X152638000Y-60682238D01*
X152566571Y-60777476D01*
X152495142Y-60825095D01*
X150471333Y-58999380D02*
X150471333Y-57999380D01*
X150852285Y-57999380D01*
X150947523Y-58047000D01*
X150995142Y-58094619D01*
X151042761Y-58189857D01*
X151042761Y-58332714D01*
X150995142Y-58427952D01*
X150947523Y-58475571D01*
X150852285Y-58523190D01*
X150471333Y-58523190D01*
X151423714Y-58713666D02*
X151899904Y-58713666D01*
X151328476Y-58999380D02*
X151661809Y-57999380D01*
X151995142Y-58999380D01*
X152233238Y-57999380D02*
X152852285Y-57999380D01*
X152518952Y-58380333D01*
X152661809Y-58380333D01*
X152757047Y-58427952D01*
X152804666Y-58475571D01*
X152852285Y-58570809D01*
X152852285Y-58808904D01*
X152804666Y-58904142D01*
X152757047Y-58951761D01*
X152661809Y-58999380D01*
X152376095Y-58999380D01*
X152280857Y-58951761D01*
X152233238Y-58904142D01*
X150471333Y-56459380D02*
X150471333Y-55459380D01*
X150852285Y-55459380D01*
X150947523Y-55507000D01*
X150995142Y-55554619D01*
X151042761Y-55649857D01*
X151042761Y-55792714D01*
X150995142Y-55887952D01*
X150947523Y-55935571D01*
X150852285Y-55983190D01*
X150471333Y-55983190D01*
X151423714Y-56173666D02*
X151899904Y-56173666D01*
X151328476Y-56459380D02*
X151661809Y-55459380D01*
X151995142Y-56459380D01*
X152280857Y-55554619D02*
X152328476Y-55507000D01*
X152423714Y-55459380D01*
X152661809Y-55459380D01*
X152757047Y-55507000D01*
X152804666Y-55554619D01*
X152852285Y-55649857D01*
X152852285Y-55745095D01*
X152804666Y-55887952D01*
X152233238Y-56459380D01*
X152852285Y-56459380D01*
X150471333Y-53919380D02*
X150471333Y-52919380D01*
X150852285Y-52919380D01*
X150947523Y-52967000D01*
X150995142Y-53014619D01*
X151042761Y-53109857D01*
X151042761Y-53252714D01*
X150995142Y-53347952D01*
X150947523Y-53395571D01*
X150852285Y-53443190D01*
X150471333Y-53443190D01*
X151423714Y-53633666D02*
X151899904Y-53633666D01*
X151328476Y-53919380D02*
X151661809Y-52919380D01*
X151995142Y-53919380D01*
X152852285Y-53919380D02*
X152280857Y-53919380D01*
X152566571Y-53919380D02*
X152566571Y-52919380D01*
X152471333Y-53062238D01*
X152376095Y-53157476D01*
X152280857Y-53205095D01*
X151028476Y-50300000D02*
X150952285Y-50252380D01*
X150838000Y-50252380D01*
X150723714Y-50300000D01*
X150647523Y-50395238D01*
X150609428Y-50490476D01*
X150571333Y-50680952D01*
X150571333Y-50823809D01*
X150609428Y-51014285D01*
X150647523Y-51109523D01*
X150723714Y-51204761D01*
X150838000Y-51252380D01*
X150914190Y-51252380D01*
X151028476Y-51204761D01*
X151066571Y-51157142D01*
X151066571Y-50823809D01*
X150914190Y-50823809D01*
X151409428Y-51252380D02*
X151409428Y-50252380D01*
X151866571Y-51252380D01*
X151866571Y-50252380D01*
X152247523Y-51252380D02*
X152247523Y-50252380D01*
X152438000Y-50252380D01*
X152552285Y-50300000D01*
X152628476Y-50395238D01*
X152666571Y-50490476D01*
X152704666Y-50680952D01*
X152704666Y-50823809D01*
X152666571Y-51014285D01*
X152628476Y-51109523D01*
X152552285Y-51204761D01*
X152438000Y-51252380D01*
X152247523Y-51252380D01*
X150189571Y-45045380D02*
X150439571Y-46045380D01*
X150689571Y-45045380D01*
X150939571Y-46045380D02*
X150939571Y-45045380D01*
X151118142Y-45045380D01*
X151225285Y-45093000D01*
X151296714Y-45188238D01*
X151332428Y-45283476D01*
X151368142Y-45473952D01*
X151368142Y-45616809D01*
X151332428Y-45807285D01*
X151296714Y-45902523D01*
X151225285Y-45997761D01*
X151118142Y-46045380D01*
X150939571Y-46045380D01*
X151689571Y-46045380D02*
X151689571Y-45045380D01*
X151868142Y-45045380D01*
X151975285Y-45093000D01*
X152046714Y-45188238D01*
X152082428Y-45283476D01*
X152118142Y-45473952D01*
X152118142Y-45616809D01*
X152082428Y-45807285D01*
X152046714Y-45902523D01*
X151975285Y-45997761D01*
X151868142Y-46045380D01*
X151689571Y-46045380D01*
X152403857Y-45759666D02*
X152761000Y-45759666D01*
X152332428Y-46045380D02*
X152582428Y-45045380D01*
X152832428Y-46045380D01*
D13*
%TO.C,G\u002A\u002A\u002A*%
G36*
X172669129Y-68485282D02*
G01*
X172898697Y-68494131D01*
X173111474Y-68510639D01*
X173321954Y-68536072D01*
X173544633Y-68571698D01*
X173655182Y-68591864D01*
X173825128Y-68626355D01*
X173956624Y-68659757D01*
X174057140Y-68695148D01*
X174134142Y-68735607D01*
X174195101Y-68784210D01*
X174238228Y-68832142D01*
X174291993Y-68912932D01*
X174309253Y-68982249D01*
X174290365Y-69052155D01*
X174246801Y-69120194D01*
X174207952Y-69168454D01*
X174167314Y-69208148D01*
X174119059Y-69241347D01*
X174057359Y-69270120D01*
X173976387Y-69296536D01*
X173870315Y-69322666D01*
X173733315Y-69350578D01*
X173559559Y-69382343D01*
X173458909Y-69399998D01*
X173215832Y-69445194D01*
X173013620Y-69489583D01*
X172847052Y-69534848D01*
X172710906Y-69582676D01*
X172599961Y-69634752D01*
X172508994Y-69692763D01*
X172479036Y-69716333D01*
X172446780Y-69752376D01*
X172400109Y-69816686D01*
X172343861Y-69902013D01*
X172282873Y-70001103D01*
X172239996Y-70074692D01*
X172177667Y-70182112D01*
X172116373Y-70283939D01*
X172061193Y-70372006D01*
X172017204Y-70438143D01*
X171997053Y-70465462D01*
X171958071Y-70507862D01*
X171893204Y-70571623D01*
X171809171Y-70650428D01*
X171712693Y-70737965D01*
X171620942Y-70818849D01*
X171506738Y-70918777D01*
X171419984Y-70998693D01*
X171355847Y-71066528D01*
X171309495Y-71130214D01*
X171276097Y-71197682D01*
X171250819Y-71276865D01*
X171228830Y-71375695D01*
X171205554Y-71500686D01*
X171166809Y-71714232D01*
X171770605Y-72305534D01*
X171702570Y-72461668D01*
X171628074Y-72628343D01*
X171563268Y-72762262D01*
X171504811Y-72868158D01*
X171449364Y-72950766D01*
X171393588Y-73014818D01*
X171334143Y-73065048D01*
X171267689Y-73106189D01*
X171236739Y-73121968D01*
X171126087Y-73169765D01*
X171036865Y-73192250D01*
X170956744Y-73190774D01*
X170873395Y-73166690D01*
X170863823Y-73162851D01*
X170794644Y-73126917D01*
X170721172Y-73076900D01*
X170653323Y-73021170D01*
X170601013Y-72968097D01*
X170574157Y-72926049D01*
X170572546Y-72917005D01*
X170582871Y-72877016D01*
X170607697Y-72829707D01*
X170637793Y-72789573D01*
X170663933Y-72771107D01*
X170665502Y-72771000D01*
X170683564Y-72787430D01*
X170688000Y-72811510D01*
X170699334Y-72843122D01*
X170728602Y-72844828D01*
X170768706Y-72819556D01*
X170812544Y-72770236D01*
X170822194Y-72756129D01*
X170864876Y-72703229D01*
X170903418Y-72676740D01*
X170931300Y-72679043D01*
X170942000Y-72712385D01*
X170958109Y-72743900D01*
X171000581Y-72751087D01*
X171060630Y-72734964D01*
X171129471Y-72696552D01*
X171139273Y-72689482D01*
X171200526Y-72634701D01*
X171261070Y-72565350D01*
X171312752Y-72492673D01*
X171347415Y-72427910D01*
X171357420Y-72388771D01*
X171342616Y-72354246D01*
X171306586Y-72310215D01*
X171262315Y-72269668D01*
X171222786Y-72245594D01*
X171212173Y-72243462D01*
X171194100Y-72259576D01*
X171165462Y-72300748D01*
X171146834Y-72332393D01*
X171081884Y-72416610D01*
X170994864Y-72483337D01*
X170892757Y-72532269D01*
X170782548Y-72563104D01*
X170671221Y-72575538D01*
X170565760Y-72569268D01*
X170473149Y-72543991D01*
X170400372Y-72499403D01*
X170354413Y-72435203D01*
X170341637Y-72367352D01*
X170346905Y-72323526D01*
X170372355Y-72304580D01*
X170416682Y-72298430D01*
X170470547Y-72288226D01*
X170493857Y-72262311D01*
X170499034Y-72238577D01*
X170506959Y-72199859D01*
X170523451Y-72188319D01*
X170559109Y-72202604D01*
X170598811Y-72225836D01*
X170677060Y-72255140D01*
X170748777Y-72245979D01*
X170811814Y-72198792D01*
X170827176Y-72179437D01*
X170864994Y-72113395D01*
X170870823Y-72059632D01*
X170841602Y-72014913D01*
X170774266Y-71976001D01*
X170665755Y-71939660D01*
X170579513Y-71917720D01*
X170476479Y-71890330D01*
X170379958Y-71859380D01*
X170306450Y-71830319D01*
X170290177Y-71822141D01*
X170188441Y-71781811D01*
X170095421Y-71774482D01*
X170017811Y-71798370D01*
X169962304Y-71851688D01*
X169937983Y-71916085D01*
X169914576Y-72008586D01*
X169876566Y-72101242D01*
X169820706Y-72198617D01*
X169743751Y-72305277D01*
X169642456Y-72425785D01*
X169513576Y-72564708D01*
X169380866Y-72699730D01*
X169230306Y-72851841D01*
X169109348Y-72978210D01*
X169015779Y-73081422D01*
X168947384Y-73164061D01*
X168901951Y-73228710D01*
X168877267Y-73277953D01*
X168872976Y-73292667D01*
X168865767Y-73362204D01*
X168867761Y-73450224D01*
X168877444Y-73542486D01*
X168893301Y-73624751D01*
X168913818Y-73682782D01*
X168914628Y-73684244D01*
X168958454Y-73729828D01*
X169022108Y-73743198D01*
X169108489Y-73724577D01*
X169161284Y-73703261D01*
X169268842Y-73660201D01*
X169351553Y-73641195D01*
X169419492Y-73644727D01*
X169460248Y-73658278D01*
X169528053Y-73696665D01*
X169595669Y-73748884D01*
X169652575Y-73805047D01*
X169688250Y-73855268D01*
X169695091Y-73878951D01*
X169695091Y-73923195D01*
X169620046Y-73884478D01*
X169538642Y-73856703D01*
X169448420Y-73845688D01*
X169377807Y-73852985D01*
X169340735Y-73877606D01*
X169335784Y-73923449D01*
X169361533Y-73994413D01*
X169380630Y-74031667D01*
X169420720Y-74097224D01*
X169461655Y-74138207D01*
X169517716Y-74167426D01*
X169542483Y-74176856D01*
X169607882Y-74207402D01*
X169681283Y-74252022D01*
X169753716Y-74303750D01*
X169816214Y-74355615D01*
X169859809Y-74400651D01*
X169875532Y-74431887D01*
X169874868Y-74435123D01*
X169850035Y-74464270D01*
X169797821Y-74486390D01*
X169713532Y-74502386D01*
X169592476Y-74513158D01*
X169435880Y-74519460D01*
X169304551Y-74521080D01*
X169173953Y-74519671D01*
X169059247Y-74515573D01*
X168975999Y-74509173D01*
X168859435Y-74492988D01*
X168778439Y-74474127D01*
X168722440Y-74448184D01*
X168680870Y-74410758D01*
X168654637Y-74375278D01*
X168615306Y-74324600D01*
X168577613Y-74289340D01*
X168565758Y-74282583D01*
X168529134Y-74276739D01*
X168456899Y-74271444D01*
X168359627Y-74267293D01*
X168251909Y-74264928D01*
X168062307Y-74257009D01*
X167898909Y-74238879D01*
X167767307Y-74211524D01*
X167673094Y-74175934D01*
X167644603Y-74157666D01*
X167618018Y-74122498D01*
X167591609Y-74057314D01*
X167564040Y-73958465D01*
X167550668Y-73900986D01*
X167518542Y-73750696D01*
X167489111Y-73601930D01*
X167463281Y-73460335D01*
X167446897Y-73361376D01*
X167986364Y-73361376D01*
X167993988Y-73486338D01*
X168015758Y-73588808D01*
X168050022Y-73663221D01*
X168086793Y-73699704D01*
X168139949Y-73718923D01*
X168205249Y-73727540D01*
X168264044Y-73724662D01*
X168297381Y-73709818D01*
X168296071Y-73683582D01*
X168279597Y-73632659D01*
X168251565Y-73568164D01*
X168217835Y-73489747D01*
X168190780Y-73411616D01*
X168178415Y-73361512D01*
X168174364Y-73324170D01*
X168178288Y-73289756D01*
X168193834Y-73250499D01*
X168224653Y-73198628D01*
X168274392Y-73126373D01*
X168316140Y-73068196D01*
X168401255Y-72945926D01*
X168457883Y-72853839D01*
X168486006Y-72791348D01*
X168485606Y-72757866D01*
X168456666Y-72752809D01*
X168399168Y-72775590D01*
X168313095Y-72825623D01*
X168308944Y-72828255D01*
X168173705Y-72926400D01*
X168079002Y-73026507D01*
X168019803Y-73136891D01*
X167991079Y-73265867D01*
X167986364Y-73361376D01*
X167446897Y-73361376D01*
X167441959Y-73331557D01*
X167426050Y-73221244D01*
X167416462Y-73135043D01*
X167414100Y-73078600D01*
X167416082Y-73062706D01*
X167434746Y-73028255D01*
X167474831Y-72970539D01*
X167530351Y-72897745D01*
X167592164Y-72821817D01*
X167660393Y-72736893D01*
X167721926Y-72653706D01*
X167769422Y-72582576D01*
X167793479Y-72538839D01*
X167819240Y-72484900D01*
X167849177Y-72435140D01*
X167888753Y-72382987D01*
X167943432Y-72321871D01*
X168018679Y-72245221D01*
X168118951Y-72147437D01*
X168191868Y-72074635D01*
X168251912Y-72009999D01*
X168293130Y-71960277D01*
X168309568Y-71932219D01*
X168309637Y-71931284D01*
X168286934Y-71882404D01*
X168219134Y-71827394D01*
X168106696Y-71766524D01*
X167950080Y-71700065D01*
X167859317Y-71666248D01*
X167751771Y-71625304D01*
X167644486Y-71580623D01*
X167555465Y-71539824D01*
X167530656Y-71527181D01*
X167438616Y-71480645D01*
X167334441Y-71431547D01*
X167276656Y-71405979D01*
X167129141Y-71350368D01*
X166942573Y-71291816D01*
X166723780Y-71231827D01*
X166479592Y-71171905D01*
X166216837Y-71113552D01*
X165942345Y-71058274D01*
X165662945Y-71007574D01*
X165385465Y-70962956D01*
X165116733Y-70925924D01*
X165071754Y-70920412D01*
X164947168Y-70909104D01*
X164785240Y-70899951D01*
X164594743Y-70892993D01*
X164384450Y-70888271D01*
X164163132Y-70885826D01*
X163939563Y-70885698D01*
X163722514Y-70887929D01*
X163520759Y-70892558D01*
X163343070Y-70899628D01*
X163198220Y-70909178D01*
X163171909Y-70911589D01*
X162865583Y-70943069D01*
X162578469Y-70976134D01*
X162299368Y-71012383D01*
X162017078Y-71053419D01*
X161720400Y-71100842D01*
X161398134Y-71156252D01*
X161158062Y-71199419D01*
X160997824Y-71228249D01*
X160850322Y-71254033D01*
X160722236Y-71275665D01*
X160620249Y-71292035D01*
X160551040Y-71302037D01*
X160523062Y-71304706D01*
X160503177Y-71298291D01*
X160523189Y-71281339D01*
X160578988Y-71255156D01*
X160666461Y-71221049D01*
X160781498Y-71180324D01*
X160919986Y-71134290D01*
X161077815Y-71084251D01*
X161250873Y-71031516D01*
X161435049Y-70977390D01*
X161626230Y-70923182D01*
X161820306Y-70870197D01*
X162013165Y-70819742D01*
X162179000Y-70778378D01*
X162518358Y-70699244D01*
X162852469Y-70628500D01*
X163186170Y-70565607D01*
X163524295Y-70510029D01*
X163871682Y-70461227D01*
X164233167Y-70418665D01*
X164613584Y-70381804D01*
X165017771Y-70350109D01*
X165450563Y-70323040D01*
X165916796Y-70300061D01*
X166421306Y-70280634D01*
X166751000Y-70270266D01*
X167027765Y-70261825D01*
X167263482Y-70253613D01*
X167463277Y-70245183D01*
X167632276Y-70236088D01*
X167775605Y-70225883D01*
X167898392Y-70214120D01*
X168005763Y-70200354D01*
X168102843Y-70184137D01*
X168194760Y-70165024D01*
X168286639Y-70142567D01*
X168320876Y-70133529D01*
X168685308Y-70045345D01*
X169037792Y-69980804D01*
X169392616Y-69938077D01*
X169764067Y-69915335D01*
X170064546Y-69910291D01*
X170225146Y-69910436D01*
X170347453Y-69911439D01*
X170439354Y-69913938D01*
X170508735Y-69918573D01*
X170563485Y-69925982D01*
X170611491Y-69936806D01*
X170660639Y-69951682D01*
X170688000Y-69960803D01*
X170839132Y-70005750D01*
X170958300Y-70026350D01*
X171050100Y-70022136D01*
X171119126Y-69992640D01*
X171169970Y-69937395D01*
X171185175Y-69910170D01*
X171197651Y-69870766D01*
X171213237Y-69799897D01*
X171230575Y-69704992D01*
X171248303Y-69593479D01*
X171264521Y-69476959D01*
X171287577Y-69307070D01*
X171308869Y-69170580D01*
X171329804Y-69061906D01*
X171351790Y-68975461D01*
X171376234Y-68905660D01*
X171404543Y-68846920D01*
X171435924Y-68796815D01*
X171534288Y-68676134D01*
X171640530Y-68589734D01*
X171761044Y-68532838D01*
X171807909Y-68518978D01*
X171866009Y-68506073D01*
X171930857Y-68496558D01*
X172010407Y-68489954D01*
X172112614Y-68485781D01*
X172245431Y-68483561D01*
X172408273Y-68482824D01*
X172669129Y-68485282D01*
G37*
X172669129Y-68485282D02*
X172898697Y-68494131D01*
X173111474Y-68510639D01*
X173321954Y-68536072D01*
X173544633Y-68571698D01*
X173655182Y-68591864D01*
X173825128Y-68626355D01*
X173956624Y-68659757D01*
X174057140Y-68695148D01*
X174134142Y-68735607D01*
X174195101Y-68784210D01*
X174238228Y-68832142D01*
X174291993Y-68912932D01*
X174309253Y-68982249D01*
X174290365Y-69052155D01*
X174246801Y-69120194D01*
X174207952Y-69168454D01*
X174167314Y-69208148D01*
X174119059Y-69241347D01*
X174057359Y-69270120D01*
X173976387Y-69296536D01*
X173870315Y-69322666D01*
X173733315Y-69350578D01*
X173559559Y-69382343D01*
X173458909Y-69399998D01*
X173215832Y-69445194D01*
X173013620Y-69489583D01*
X172847052Y-69534848D01*
X172710906Y-69582676D01*
X172599961Y-69634752D01*
X172508994Y-69692763D01*
X172479036Y-69716333D01*
X172446780Y-69752376D01*
X172400109Y-69816686D01*
X172343861Y-69902013D01*
X172282873Y-70001103D01*
X172239996Y-70074692D01*
X172177667Y-70182112D01*
X172116373Y-70283939D01*
X172061193Y-70372006D01*
X172017204Y-70438143D01*
X171997053Y-70465462D01*
X171958071Y-70507862D01*
X171893204Y-70571623D01*
X171809171Y-70650428D01*
X171712693Y-70737965D01*
X171620942Y-70818849D01*
X171506738Y-70918777D01*
X171419984Y-70998693D01*
X171355847Y-71066528D01*
X171309495Y-71130214D01*
X171276097Y-71197682D01*
X171250819Y-71276865D01*
X171228830Y-71375695D01*
X171205554Y-71500686D01*
X171166809Y-71714232D01*
X171770605Y-72305534D01*
X171702570Y-72461668D01*
X171628074Y-72628343D01*
X171563268Y-72762262D01*
X171504811Y-72868158D01*
X171449364Y-72950766D01*
X171393588Y-73014818D01*
X171334143Y-73065048D01*
X171267689Y-73106189D01*
X171236739Y-73121968D01*
X171126087Y-73169765D01*
X171036865Y-73192250D01*
X170956744Y-73190774D01*
X170873395Y-73166690D01*
X170863823Y-73162851D01*
X170794644Y-73126917D01*
X170721172Y-73076900D01*
X170653323Y-73021170D01*
X170601013Y-72968097D01*
X170574157Y-72926049D01*
X170572546Y-72917005D01*
X170582871Y-72877016D01*
X170607697Y-72829707D01*
X170637793Y-72789573D01*
X170663933Y-72771107D01*
X170665502Y-72771000D01*
X170683564Y-72787430D01*
X170688000Y-72811510D01*
X170699334Y-72843122D01*
X170728602Y-72844828D01*
X170768706Y-72819556D01*
X170812544Y-72770236D01*
X170822194Y-72756129D01*
X170864876Y-72703229D01*
X170903418Y-72676740D01*
X170931300Y-72679043D01*
X170942000Y-72712385D01*
X170958109Y-72743900D01*
X171000581Y-72751087D01*
X171060630Y-72734964D01*
X171129471Y-72696552D01*
X171139273Y-72689482D01*
X171200526Y-72634701D01*
X171261070Y-72565350D01*
X171312752Y-72492673D01*
X171347415Y-72427910D01*
X171357420Y-72388771D01*
X171342616Y-72354246D01*
X171306586Y-72310215D01*
X171262315Y-72269668D01*
X171222786Y-72245594D01*
X171212173Y-72243462D01*
X171194100Y-72259576D01*
X171165462Y-72300748D01*
X171146834Y-72332393D01*
X171081884Y-72416610D01*
X170994864Y-72483337D01*
X170892757Y-72532269D01*
X170782548Y-72563104D01*
X170671221Y-72575538D01*
X170565760Y-72569268D01*
X170473149Y-72543991D01*
X170400372Y-72499403D01*
X170354413Y-72435203D01*
X170341637Y-72367352D01*
X170346905Y-72323526D01*
X170372355Y-72304580D01*
X170416682Y-72298430D01*
X170470547Y-72288226D01*
X170493857Y-72262311D01*
X170499034Y-72238577D01*
X170506959Y-72199859D01*
X170523451Y-72188319D01*
X170559109Y-72202604D01*
X170598811Y-72225836D01*
X170677060Y-72255140D01*
X170748777Y-72245979D01*
X170811814Y-72198792D01*
X170827176Y-72179437D01*
X170864994Y-72113395D01*
X170870823Y-72059632D01*
X170841602Y-72014913D01*
X170774266Y-71976001D01*
X170665755Y-71939660D01*
X170579513Y-71917720D01*
X170476479Y-71890330D01*
X170379958Y-71859380D01*
X170306450Y-71830319D01*
X170290177Y-71822141D01*
X170188441Y-71781811D01*
X170095421Y-71774482D01*
X170017811Y-71798370D01*
X169962304Y-71851688D01*
X169937983Y-71916085D01*
X169914576Y-72008586D01*
X169876566Y-72101242D01*
X169820706Y-72198617D01*
X169743751Y-72305277D01*
X169642456Y-72425785D01*
X169513576Y-72564708D01*
X169380866Y-72699730D01*
X169230306Y-72851841D01*
X169109348Y-72978210D01*
X169015779Y-73081422D01*
X168947384Y-73164061D01*
X168901951Y-73228710D01*
X168877267Y-73277953D01*
X168872976Y-73292667D01*
X168865767Y-73362204D01*
X168867761Y-73450224D01*
X168877444Y-73542486D01*
X168893301Y-73624751D01*
X168913818Y-73682782D01*
X168914628Y-73684244D01*
X168958454Y-73729828D01*
X169022108Y-73743198D01*
X169108489Y-73724577D01*
X169161284Y-73703261D01*
X169268842Y-73660201D01*
X169351553Y-73641195D01*
X169419492Y-73644727D01*
X169460248Y-73658278D01*
X169528053Y-73696665D01*
X169595669Y-73748884D01*
X169652575Y-73805047D01*
X169688250Y-73855268D01*
X169695091Y-73878951D01*
X169695091Y-73923195D01*
X169620046Y-73884478D01*
X169538642Y-73856703D01*
X169448420Y-73845688D01*
X169377807Y-73852985D01*
X169340735Y-73877606D01*
X169335784Y-73923449D01*
X169361533Y-73994413D01*
X169380630Y-74031667D01*
X169420720Y-74097224D01*
X169461655Y-74138207D01*
X169517716Y-74167426D01*
X169542483Y-74176856D01*
X169607882Y-74207402D01*
X169681283Y-74252022D01*
X169753716Y-74303750D01*
X169816214Y-74355615D01*
X169859809Y-74400651D01*
X169875532Y-74431887D01*
X169874868Y-74435123D01*
X169850035Y-74464270D01*
X169797821Y-74486390D01*
X169713532Y-74502386D01*
X169592476Y-74513158D01*
X169435880Y-74519460D01*
X169304551Y-74521080D01*
X169173953Y-74519671D01*
X169059247Y-74515573D01*
X168975999Y-74509173D01*
X168859435Y-74492988D01*
X168778439Y-74474127D01*
X168722440Y-74448184D01*
X168680870Y-74410758D01*
X168654637Y-74375278D01*
X168615306Y-74324600D01*
X168577613Y-74289340D01*
X168565758Y-74282583D01*
X168529134Y-74276739D01*
X168456899Y-74271444D01*
X168359627Y-74267293D01*
X168251909Y-74264928D01*
X168062307Y-74257009D01*
X167898909Y-74238879D01*
X167767307Y-74211524D01*
X167673094Y-74175934D01*
X167644603Y-74157666D01*
X167618018Y-74122498D01*
X167591609Y-74057314D01*
X167564040Y-73958465D01*
X167550668Y-73900986D01*
X167518542Y-73750696D01*
X167489111Y-73601930D01*
X167463281Y-73460335D01*
X167446897Y-73361376D01*
X167986364Y-73361376D01*
X167993988Y-73486338D01*
X168015758Y-73588808D01*
X168050022Y-73663221D01*
X168086793Y-73699704D01*
X168139949Y-73718923D01*
X168205249Y-73727540D01*
X168264044Y-73724662D01*
X168297381Y-73709818D01*
X168296071Y-73683582D01*
X168279597Y-73632659D01*
X168251565Y-73568164D01*
X168217835Y-73489747D01*
X168190780Y-73411616D01*
X168178415Y-73361512D01*
X168174364Y-73324170D01*
X168178288Y-73289756D01*
X168193834Y-73250499D01*
X168224653Y-73198628D01*
X168274392Y-73126373D01*
X168316140Y-73068196D01*
X168401255Y-72945926D01*
X168457883Y-72853839D01*
X168486006Y-72791348D01*
X168485606Y-72757866D01*
X168456666Y-72752809D01*
X168399168Y-72775590D01*
X168313095Y-72825623D01*
X168308944Y-72828255D01*
X168173705Y-72926400D01*
X168079002Y-73026507D01*
X168019803Y-73136891D01*
X167991079Y-73265867D01*
X167986364Y-73361376D01*
X167446897Y-73361376D01*
X167441959Y-73331557D01*
X167426050Y-73221244D01*
X167416462Y-73135043D01*
X167414100Y-73078600D01*
X167416082Y-73062706D01*
X167434746Y-73028255D01*
X167474831Y-72970539D01*
X167530351Y-72897745D01*
X167592164Y-72821817D01*
X167660393Y-72736893D01*
X167721926Y-72653706D01*
X167769422Y-72582576D01*
X167793479Y-72538839D01*
X167819240Y-72484900D01*
X167849177Y-72435140D01*
X167888753Y-72382987D01*
X167943432Y-72321871D01*
X168018679Y-72245221D01*
X168118951Y-72147437D01*
X168191868Y-72074635D01*
X168251912Y-72009999D01*
X168293130Y-71960277D01*
X168309568Y-71932219D01*
X168309637Y-71931284D01*
X168286934Y-71882404D01*
X168219134Y-71827394D01*
X168106696Y-71766524D01*
X167950080Y-71700065D01*
X167859317Y-71666248D01*
X167751771Y-71625304D01*
X167644486Y-71580623D01*
X167555465Y-71539824D01*
X167530656Y-71527181D01*
X167438616Y-71480645D01*
X167334441Y-71431547D01*
X167276656Y-71405979D01*
X167129141Y-71350368D01*
X166942573Y-71291816D01*
X166723780Y-71231827D01*
X166479592Y-71171905D01*
X166216837Y-71113552D01*
X165942345Y-71058274D01*
X165662945Y-71007574D01*
X165385465Y-70962956D01*
X165116733Y-70925924D01*
X165071754Y-70920412D01*
X164947168Y-70909104D01*
X164785240Y-70899951D01*
X164594743Y-70892993D01*
X164384450Y-70888271D01*
X164163132Y-70885826D01*
X163939563Y-70885698D01*
X163722514Y-70887929D01*
X163520759Y-70892558D01*
X163343070Y-70899628D01*
X163198220Y-70909178D01*
X163171909Y-70911589D01*
X162865583Y-70943069D01*
X162578469Y-70976134D01*
X162299368Y-71012383D01*
X162017078Y-71053419D01*
X161720400Y-71100842D01*
X161398134Y-71156252D01*
X161158062Y-71199419D01*
X160997824Y-71228249D01*
X160850322Y-71254033D01*
X160722236Y-71275665D01*
X160620249Y-71292035D01*
X160551040Y-71302037D01*
X160523062Y-71304706D01*
X160503177Y-71298291D01*
X160523189Y-71281339D01*
X160578988Y-71255156D01*
X160666461Y-71221049D01*
X160781498Y-71180324D01*
X160919986Y-71134290D01*
X161077815Y-71084251D01*
X161250873Y-71031516D01*
X161435049Y-70977390D01*
X161626230Y-70923182D01*
X161820306Y-70870197D01*
X162013165Y-70819742D01*
X162179000Y-70778378D01*
X162518358Y-70699244D01*
X162852469Y-70628500D01*
X163186170Y-70565607D01*
X163524295Y-70510029D01*
X163871682Y-70461227D01*
X164233167Y-70418665D01*
X164613584Y-70381804D01*
X165017771Y-70350109D01*
X165450563Y-70323040D01*
X165916796Y-70300061D01*
X166421306Y-70280634D01*
X166751000Y-70270266D01*
X167027765Y-70261825D01*
X167263482Y-70253613D01*
X167463277Y-70245183D01*
X167632276Y-70236088D01*
X167775605Y-70225883D01*
X167898392Y-70214120D01*
X168005763Y-70200354D01*
X168102843Y-70184137D01*
X168194760Y-70165024D01*
X168286639Y-70142567D01*
X168320876Y-70133529D01*
X168685308Y-70045345D01*
X169037792Y-69980804D01*
X169392616Y-69938077D01*
X169764067Y-69915335D01*
X170064546Y-69910291D01*
X170225146Y-69910436D01*
X170347453Y-69911439D01*
X170439354Y-69913938D01*
X170508735Y-69918573D01*
X170563485Y-69925982D01*
X170611491Y-69936806D01*
X170660639Y-69951682D01*
X170688000Y-69960803D01*
X170839132Y-70005750D01*
X170958300Y-70026350D01*
X171050100Y-70022136D01*
X171119126Y-69992640D01*
X171169970Y-69937395D01*
X171185175Y-69910170D01*
X171197651Y-69870766D01*
X171213237Y-69799897D01*
X171230575Y-69704992D01*
X171248303Y-69593479D01*
X171264521Y-69476959D01*
X171287577Y-69307070D01*
X171308869Y-69170580D01*
X171329804Y-69061906D01*
X171351790Y-68975461D01*
X171376234Y-68905660D01*
X171404543Y-68846920D01*
X171435924Y-68796815D01*
X171534288Y-68676134D01*
X171640530Y-68589734D01*
X171761044Y-68532838D01*
X171807909Y-68518978D01*
X171866009Y-68506073D01*
X171930857Y-68496558D01*
X172010407Y-68489954D01*
X172112614Y-68485781D01*
X172245431Y-68483561D01*
X172408273Y-68482824D01*
X172669129Y-68485282D01*
D12*
%TO.C,C6*%
X168712335Y-53615000D02*
X168480665Y-53615000D01*
X168712335Y-54335000D02*
X168480665Y-54335000D01*
%TO.C,C10*%
X168296000Y-49771375D02*
X168296000Y-49539705D01*
X169016000Y-49771375D02*
X169016000Y-49539705D01*
%TO.C,C5*%
X178162171Y-68177078D02*
X177955318Y-68383931D01*
X177440922Y-67455829D02*
X177234069Y-67662682D01*
%TO.C,J6*%
X184210000Y-82610000D02*
X184210000Y-79950000D01*
X161290000Y-82610000D02*
X184210000Y-82610000D01*
X161290000Y-79950000D02*
X184210000Y-79950000D01*
X161290000Y-82610000D02*
X161290000Y-79950000D01*
X160020000Y-82610000D02*
X158690000Y-82610000D01*
X158690000Y-82610000D02*
X158690000Y-81280000D01*
%TO.C,C1*%
X175711665Y-54250000D02*
X175943335Y-54250000D01*
X175711665Y-54970000D02*
X175943335Y-54970000D01*
%TO.C,C2*%
X177463534Y-57322651D02*
X177627349Y-57486466D01*
X177972651Y-56813534D02*
X178136466Y-56977349D01*
%TO.C,C3*%
X164927349Y-64705183D02*
X164763534Y-64541368D01*
X165436466Y-64196066D02*
X165272651Y-64032251D01*
%TO.C,C4*%
X175956066Y-66104817D02*
X175792251Y-66268632D01*
X176465183Y-66613934D02*
X176301368Y-66777749D01*
%TO.C,C7*%
X164129767Y-51788000D02*
X163837233Y-51788000D01*
X164129767Y-52808000D02*
X163837233Y-52808000D01*
%TO.C,C8*%
X181031335Y-77830000D02*
X180799665Y-77830000D01*
X181031335Y-77110000D02*
X180799665Y-77110000D01*
%TO.C,C9*%
X175789000Y-49540085D02*
X175789000Y-49771755D01*
X176509000Y-49540085D02*
X176509000Y-49771755D01*
%TO.C,D1*%
X163160000Y-39100000D02*
X159260000Y-39100000D01*
X163160000Y-37100000D02*
X159260000Y-37100000D01*
X163160000Y-39100000D02*
X163160000Y-37100000D01*
%TO.C,D2*%
X180621000Y-63321000D02*
X180621000Y-65781000D01*
X180621000Y-65781000D02*
X182091000Y-65781000D01*
X182091000Y-65781000D02*
X182091000Y-63321000D01*
%TO.C,D3*%
X173110000Y-37365000D02*
X170650000Y-37365000D01*
X173110000Y-38835000D02*
X173110000Y-37365000D01*
X170650000Y-38835000D02*
X173110000Y-38835000D01*
%TO.C,F1*%
X166146267Y-37590000D02*
X165803733Y-37590000D01*
X166146267Y-38610000D02*
X165803733Y-38610000D01*
%TO.C,FB1*%
X163120000Y-48028242D02*
X163120000Y-47207758D01*
X162000000Y-48028242D02*
X162000000Y-47207758D01*
%TO.C,J1*%
X153610000Y-36770000D02*
X154940000Y-36770000D01*
X153610000Y-38100000D02*
X153610000Y-36770000D01*
X153610000Y-39370000D02*
X156270000Y-39370000D01*
X156270000Y-39370000D02*
X156270000Y-41970000D01*
X153610000Y-39370000D02*
X153610000Y-41970000D01*
X153610000Y-41970000D02*
X156270000Y-41970000D01*
%TO.C,J2*%
X186630000Y-64830000D02*
X189290000Y-64830000D01*
X186630000Y-62230000D02*
X186630000Y-64830000D01*
X189290000Y-62230000D02*
X189290000Y-64830000D01*
X186630000Y-62230000D02*
X189290000Y-62230000D01*
X186630000Y-60960000D02*
X186630000Y-59630000D01*
X186630000Y-59630000D02*
X187960000Y-59630000D01*
%TO.C,J3*%
X186630000Y-36770000D02*
X187960000Y-36770000D01*
X186630000Y-38100000D02*
X186630000Y-36770000D01*
X186630000Y-39370000D02*
X189290000Y-39370000D01*
X189290000Y-39370000D02*
X189290000Y-54670000D01*
X186630000Y-39370000D02*
X186630000Y-54670000D01*
X186630000Y-54670000D02*
X189290000Y-54670000D01*
%TO.C,J4*%
X153610000Y-44390000D02*
X154940000Y-44390000D01*
X153610000Y-45720000D02*
X153610000Y-44390000D01*
X153610000Y-46990000D02*
X156270000Y-46990000D01*
X156270000Y-46990000D02*
X156270000Y-85150000D01*
X153610000Y-46990000D02*
X153610000Y-85150000D01*
X153610000Y-85150000D02*
X156270000Y-85150000D01*
%TO.C,J5*%
X186630000Y-69790000D02*
X187960000Y-69790000D01*
X186630000Y-71120000D02*
X186630000Y-69790000D01*
X186630000Y-72390000D02*
X189290000Y-72390000D01*
X189290000Y-72390000D02*
X189290000Y-85150000D01*
X186630000Y-72390000D02*
X186630000Y-85150000D01*
X186630000Y-85150000D02*
X189290000Y-85150000D01*
%TO.C,R1*%
X183897000Y-44498879D02*
X183897000Y-44834121D01*
X184657000Y-44498879D02*
X184657000Y-44834121D01*
%TO.C,R2*%
X182992500Y-64389724D02*
X182992500Y-63880276D01*
X184037500Y-64389724D02*
X184037500Y-63880276D01*
%TO.C,R3*%
X171324000Y-54105121D02*
X171324000Y-53769879D01*
X172084000Y-54105121D02*
X172084000Y-53769879D01*
%TO.C,R4*%
X176007500Y-38757776D02*
X176007500Y-39267224D01*
X177052500Y-38757776D02*
X177052500Y-39267224D01*
%TO.C,U1*%
X174610000Y-57350000D02*
X174610000Y-56060000D01*
X175060000Y-57350000D02*
X174610000Y-57350000D01*
X175060000Y-57800000D02*
X175060000Y-57350000D01*
X175060000Y-64570000D02*
X174610000Y-64570000D01*
X175060000Y-64120000D02*
X175060000Y-64570000D01*
X167840000Y-57350000D02*
X168290000Y-57350000D01*
X167840000Y-57800000D02*
X167840000Y-57350000D01*
X167840000Y-64570000D02*
X168290000Y-64570000D01*
X167840000Y-64120000D02*
X167840000Y-64570000D01*
%TO.C,X1*%
X169713000Y-51900000D02*
X175113000Y-51900000D01*
X169713000Y-47400000D02*
X169713000Y-51900000D01*
%TD*%
M02*
