M48
; DRILL file {KiCad (5.1.10-1-10_14)} date Monday, January 24, 2022 at 02:53:53 PM
; FORMAT={3:3/ absolute / metric / suppress leading zeros}
; #@! TF.CreationDate,2022-01-24T14:53:53+11:00
; #@! TF.GenerationSoftware,Kicad,Pcbnew,(5.1.10-1-10_14)
FMAT,2
METRIC,TZ
T1C0.400
T2C0.800
T3C1.000
%
G90
G05
T1
X149098Y-42926
X149098Y-78994
X151638Y-42926
X157480Y-52324
X157988Y-74422
X158115Y-85090
X158750Y-53975
X159258Y-59817
X160020Y-43180
X160020Y-78740
X161607Y-50927
X162560Y-40640
X162560Y-68580
X162560Y-72390
X162560Y-76200
X163131Y-50927
X163894Y-64707
X164719Y-65532
X165100Y-43180
X166370Y-54102
X166370Y-68580
X166370Y-72390
X167640Y-43180
X167640Y-43180
X167640Y-45720
X168910Y-47879
X172720Y-40640
X172720Y-43180
X172720Y-43180
X172720Y-45720
X173990Y-72390
X174752Y-67818
X175260Y-39942
X175514Y-56007
X175895Y-51435
X177546Y-54610
X177546Y-65151
X177800Y-43180
X177800Y-45720
X178054Y-69469
X178308Y-55880
X178943Y-56896
X179070Y-38100
X179070Y-40640
X179070Y-46990
X179070Y-49530
X179070Y-52070
X179070Y-54610
X179070Y-71120
X179197Y-77470
X179959Y-67945
X180467Y-76200
X181610Y-38100
X182753Y-70612
X182880Y-74930
X183134Y-46228
X183515Y-39624
X183515Y-42418
X183515Y-48006
X183515Y-61722
X183896Y-51054
X184150Y-67310
X184785Y-59055
X184912Y-52578
X184912Y-72771
X190500Y-57150
X191135Y-68580
X194056Y-42672
T2
X148717Y-81153
X149225Y-40767
X150495Y-81153
X150749Y-40767
X157607Y-40005
X157607Y-41275
X157607Y-42545
X157988Y-60833
X160528Y-46482
X162687Y-44577
X164719Y-46482
X165481Y-39878
X166878Y-40767
X168275Y-39878
X170688Y-59055
X172466Y-59055
X172720Y-78740
X173863Y-62611
X185166Y-60960
X185166Y-84074
X185293Y-63500
X187960Y-57404
X187960Y-66421
X187960Y-68072
X192786Y-40894
X193929Y-79375
X193929Y-81153
X194437Y-40894
T3
X149860Y-38100
X149860Y-83820
X154940Y-38100
X154940Y-40640
X154940Y-45720
X154940Y-48260
X154940Y-50800
X154940Y-53340
X154940Y-55880
X154940Y-58420
X154940Y-60960
X154940Y-63500
X154940Y-66040
X154940Y-68580
X154940Y-71120
X154940Y-73660
X154940Y-76200
X154940Y-78740
X154940Y-81280
X154940Y-83820
X160020Y-81280
X162560Y-81280
X165100Y-81280
X167640Y-81280
X170180Y-81280
X172720Y-81280
X175260Y-81280
X177800Y-81280
X180340Y-81280
X182880Y-81280
X187960Y-38100
X187960Y-40640
X187960Y-43180
X187960Y-45720
X187960Y-48260
X187960Y-50800
X187960Y-53340
X187960Y-60960
X187960Y-63500
X187960Y-71120
X187960Y-73660
X187960Y-76200
X187960Y-78740
X187960Y-81280
X187960Y-83820
X193040Y-38100
X193040Y-83820
T0
M30
