%TF.GenerationSoftware,KiCad,Pcbnew,(5.1.10-1-10_14)*%
%TF.CreationDate,2022-01-24T14:54:24+11:00*%
%TF.ProjectId,STM32L431CBT6_BO,53544d33-324c-4343-9331-434254365f42,rev?*%
%TF.SameCoordinates,Original*%
%TF.FileFunction,Copper,L4,Bot*%
%TF.FilePolarity,Positive*%
%FSLAX46Y46*%
G04 Gerber Fmt 4.6, Leading zero omitted, Abs format (unit mm)*
G04 Created by KiCad (PCBNEW (5.1.10-1-10_14)) date 2022-01-24 14:54:24*
%MOMM*%
%LPD*%
G01*
G04 APERTURE LIST*
%TA.AperFunction,ComponentPad*%
%ADD10O,1.700000X1.700000*%
%TD*%
%TA.AperFunction,ComponentPad*%
%ADD11R,1.700000X1.700000*%
%TD*%
%TA.AperFunction,ViaPad*%
%ADD12C,0.800000*%
%TD*%
%TA.AperFunction,ViaPad*%
%ADD13C,1.000000*%
%TD*%
%TA.AperFunction,Conductor*%
%ADD14C,0.500000*%
%TD*%
%TA.AperFunction,Conductor*%
%ADD15C,0.254000*%
%TD*%
%TA.AperFunction,Conductor*%
%ADD16C,0.100000*%
%TD*%
G04 APERTURE END LIST*
D10*
%TO.P,J6,10*%
%TO.N,PA12*%
X182880000Y-81280000D03*
%TO.P,J6,9*%
%TO.N,PA11*%
X180340000Y-81280000D03*
%TO.P,J6,8*%
%TO.N,USART_Rx*%
X177800000Y-81280000D03*
%TO.P,J6,7*%
%TO.N,USART_Tx*%
X175260000Y-81280000D03*
%TO.P,J6,6*%
%TO.N,GND*%
X172720000Y-81280000D03*
%TO.P,J6,5*%
%TO.N,PA8*%
X170180000Y-81280000D03*
%TO.P,J6,4*%
%TO.N,PB15*%
X167640000Y-81280000D03*
%TO.P,J6,3*%
%TO.N,PB14*%
X165100000Y-81280000D03*
%TO.P,J6,2*%
%TO.N,PB13*%
X162560000Y-81280000D03*
D11*
%TO.P,J6,1*%
%TO.N,PB12*%
X160020000Y-81280000D03*
%TD*%
%TO.P,J9,1*%
%TO.N,GND*%
X193040000Y-83820000D03*
%TD*%
%TO.P,J1,1*%
%TO.N,Net-(D1-Pad2)*%
X154940000Y-38100000D03*
D10*
%TO.P,J1,2*%
%TO.N,GND*%
X154940000Y-40640000D03*
%TD*%
%TO.P,J2,2*%
%TO.N,GND*%
X187960000Y-63500000D03*
D11*
%TO.P,J2,1*%
%TO.N,+3V3*%
X187960000Y-60960000D03*
%TD*%
%TO.P,J3,1*%
%TO.N,PB9*%
X187960000Y-38100000D03*
D10*
%TO.P,J3,2*%
%TO.N,PB8*%
X187960000Y-40640000D03*
%TO.P,J3,3*%
%TO.N,BOOT*%
X187960000Y-43180000D03*
%TO.P,J3,4*%
%TO.N,I2C1_SDA*%
X187960000Y-45720000D03*
%TO.P,J3,5*%
%TO.N,I2C1_SCL*%
X187960000Y-48260000D03*
%TO.P,J3,6*%
%TO.N,PB5*%
X187960000Y-50800000D03*
%TO.P,J3,7*%
%TO.N,PB4*%
X187960000Y-53340000D03*
%TD*%
D11*
%TO.P,J4,1*%
%TO.N,+3.3VA*%
X154940000Y-45720000D03*
D10*
%TO.P,J4,2*%
%TO.N,ADC1_IN5*%
X154940000Y-48260000D03*
%TO.P,J4,3*%
%TO.N,GND*%
X154940000Y-50800000D03*
%TO.P,J4,4*%
%TO.N,PA1*%
X154940000Y-53340000D03*
%TO.P,J4,5*%
%TO.N,PA2*%
X154940000Y-55880000D03*
%TO.P,J4,6*%
%TO.N,PA3*%
X154940000Y-58420000D03*
%TO.P,J4,7*%
%TO.N,DAC1_OUT1*%
X154940000Y-60960000D03*
%TO.P,J4,8*%
%TO.N,GND*%
X154940000Y-63500000D03*
%TO.P,J4,9*%
%TO.N,PA5*%
X154940000Y-66040000D03*
%TO.P,J4,10*%
%TO.N,PA6*%
X154940000Y-68580000D03*
%TO.P,J4,11*%
%TO.N,PA7*%
X154940000Y-71120000D03*
%TO.P,J4,12*%
%TO.N,PB0*%
X154940000Y-73660000D03*
%TO.P,J4,13*%
%TO.N,PB1*%
X154940000Y-76200000D03*
%TO.P,J4,14*%
%TO.N,PB2*%
X154940000Y-78740000D03*
%TO.P,J4,15*%
%TO.N,USART3_Tx*%
X154940000Y-81280000D03*
%TO.P,J4,16*%
%TO.N,USART3_Rx*%
X154940000Y-83820000D03*
%TD*%
D11*
%TO.P,J5,1*%
%TO.N,+3V3*%
X187960000Y-71120000D03*
D10*
%TO.P,J5,2*%
%TO.N,SWCLK*%
X187960000Y-73660000D03*
%TO.P,J5,3*%
%TO.N,GND*%
X187960000Y-76200000D03*
%TO.P,J5,4*%
%TO.N,SWDIO*%
X187960000Y-78740000D03*
%TO.P,J5,5*%
%TO.N,NRST*%
X187960000Y-81280000D03*
%TO.P,J5,6*%
%TO.N,SWO*%
X187960000Y-83820000D03*
%TD*%
D11*
%TO.P,J7,1*%
%TO.N,GND*%
X193040000Y-38100000D03*
%TD*%
%TO.P,J8,1*%
%TO.N,GND*%
X149860000Y-38100000D03*
%TD*%
%TO.P,J10,1*%
%TO.N,GND*%
X149860000Y-83820000D03*
%TD*%
D12*
%TO.N,GND*%
X157480000Y-52324000D03*
X183134000Y-46228000D03*
%TO.N,+3V3*%
X178308000Y-55880000D03*
D13*
X166878000Y-40767000D03*
X168275000Y-39878000D03*
X165481000Y-39878000D03*
X162687000Y-44577000D03*
X160528000Y-46482000D03*
X164719000Y-46482000D03*
D12*
X175514000Y-56007000D03*
D13*
X185166000Y-60960000D03*
X187960000Y-57404000D03*
X187960000Y-68072000D03*
%TO.N,GND*%
X157988000Y-60833000D03*
X172720000Y-78740000D03*
X187960000Y-66421000D03*
X185293000Y-63500000D03*
X192786000Y-40894000D03*
X194437000Y-40894000D03*
X150495000Y-81153000D03*
X148717000Y-81153000D03*
X193929000Y-79375000D03*
X193929000Y-81153000D03*
%TO.N,SWO*%
X185166000Y-84074000D03*
D12*
%TO.N,NRST*%
X180467000Y-76200000D03*
%TO.N,GND*%
X179197000Y-77470000D03*
D13*
X170688000Y-59055000D03*
%TO.N,NRST*%
X172466000Y-59055000D03*
%TO.N,SWO*%
X173863000Y-62611000D03*
D12*
%TO.N,+3V3*%
X177546000Y-65151000D03*
X179959000Y-67945000D03*
X164719000Y-65532000D03*
D13*
%TO.N,GND*%
X149225000Y-40767000D03*
X150749000Y-40767000D03*
X157607000Y-40005000D03*
X157607000Y-42545000D03*
X157607000Y-41275000D03*
D12*
X161607500Y-50927000D03*
X175260000Y-39941500D03*
X163131500Y-50927000D03*
X163893500Y-64706500D03*
X183515000Y-61722000D03*
X174752000Y-67818000D03*
X178054000Y-69469000D03*
X178943000Y-56896000D03*
X166370000Y-54102000D03*
X177546000Y-54610000D03*
X175895000Y-51435000D03*
X168910000Y-47879000D03*
X184912000Y-72771000D03*
X167640000Y-43180000D03*
X172720000Y-43180000D03*
X177800000Y-43180000D03*
X172720000Y-40640000D03*
X179070000Y-40640000D03*
X181610000Y-38100000D03*
X179070000Y-38100000D03*
X179070000Y-46990000D03*
X179070000Y-49530000D03*
X179070000Y-52070000D03*
X179070000Y-54610000D03*
X172720000Y-43180000D03*
X172720000Y-45720000D03*
X177800000Y-45720000D03*
X167640000Y-45720000D03*
X162560000Y-40640000D03*
X160020000Y-43180000D03*
X165100000Y-43180000D03*
X167640000Y-43180000D03*
X158750000Y-53975000D03*
X159258000Y-59817000D03*
X162560000Y-68580000D03*
X166370000Y-68580000D03*
X166370000Y-72390000D03*
X162560000Y-72390000D03*
X162560000Y-76200000D03*
X160020000Y-78740000D03*
X149098000Y-78994000D03*
X173990000Y-72390000D03*
X179070000Y-71120000D03*
X182880000Y-74930000D03*
X182753000Y-70612000D03*
X158115000Y-85090000D03*
X191135000Y-68580000D03*
X184150000Y-67310000D03*
X184785000Y-59055000D03*
X190500000Y-57150000D03*
X183515000Y-48006000D03*
X183515000Y-42418000D03*
X183515000Y-39624000D03*
X194056000Y-42672000D03*
X149098000Y-42926000D03*
X151638000Y-42926000D03*
X183896000Y-51054000D03*
X184912000Y-52578000D03*
X157988000Y-74422000D03*
%TD*%
D14*
%TO.N,NRST*%
X172466000Y-68199000D02*
X172466000Y-59055000D01*
X180467000Y-76200000D02*
X172466000Y-68199000D01*
%TO.N,SWO*%
X173863000Y-62611000D02*
X173863000Y-63500000D01*
X185166000Y-74803000D02*
X185166000Y-84074000D01*
X173863000Y-63500000D02*
X185166000Y-74803000D01*
%TD*%
D15*
%TO.N,GND*%
X194427869Y-36234722D02*
X194541246Y-36268953D01*
X194645819Y-36324555D01*
X194737596Y-36399407D01*
X194813091Y-36490664D01*
X194869419Y-36594844D01*
X194904440Y-36707976D01*
X194920000Y-36856022D01*
X194920001Y-42906618D01*
X192596236Y-45230384D01*
X192571052Y-45251052D01*
X192550386Y-45276234D01*
X192488575Y-45351550D01*
X192467694Y-45390617D01*
X192427290Y-45466208D01*
X192389550Y-45590618D01*
X192380000Y-45687582D01*
X192380000Y-45687591D01*
X192376808Y-45720000D01*
X192380000Y-45752409D01*
X192380001Y-76167581D01*
X192376808Y-76200000D01*
X192380001Y-76232418D01*
X192380001Y-76232419D01*
X192389551Y-76329383D01*
X192394671Y-76346260D01*
X192427290Y-76453792D01*
X192488575Y-76568450D01*
X192550386Y-76643766D01*
X192550388Y-76643768D01*
X192571053Y-76668948D01*
X192596232Y-76689612D01*
X194920000Y-79013381D01*
X194920001Y-85057711D01*
X194905278Y-85207869D01*
X194871047Y-85321246D01*
X194815446Y-85425817D01*
X194740594Y-85517595D01*
X194649335Y-85593091D01*
X194545160Y-85649419D01*
X194432024Y-85684440D01*
X194283979Y-85700000D01*
X148622279Y-85700000D01*
X148472131Y-85685278D01*
X148358754Y-85651047D01*
X148254183Y-85595446D01*
X148162405Y-85520594D01*
X148086909Y-85429335D01*
X148030581Y-85325160D01*
X147995560Y-85212024D01*
X147980000Y-85063979D01*
X147980000Y-84670000D01*
X148371928Y-84670000D01*
X148384188Y-84794482D01*
X148420498Y-84914180D01*
X148479463Y-85024494D01*
X148558815Y-85121185D01*
X148655506Y-85200537D01*
X148765820Y-85259502D01*
X148885518Y-85295812D01*
X149010000Y-85308072D01*
X149574250Y-85305000D01*
X149733000Y-85146250D01*
X149733000Y-83947000D01*
X149987000Y-83947000D01*
X149987000Y-85146250D01*
X150145750Y-85305000D01*
X150710000Y-85308072D01*
X150834482Y-85295812D01*
X150954180Y-85259502D01*
X151064494Y-85200537D01*
X151161185Y-85121185D01*
X151240537Y-85024494D01*
X151299502Y-84914180D01*
X151335812Y-84794482D01*
X151348072Y-84670000D01*
X151345000Y-84105750D01*
X151186250Y-83947000D01*
X149987000Y-83947000D01*
X149733000Y-83947000D01*
X148533750Y-83947000D01*
X148375000Y-84105750D01*
X148371928Y-84670000D01*
X147980000Y-84670000D01*
X147980000Y-82970000D01*
X148371928Y-82970000D01*
X148375000Y-83534250D01*
X148533750Y-83693000D01*
X149733000Y-83693000D01*
X149733000Y-82493750D01*
X149987000Y-82493750D01*
X149987000Y-83693000D01*
X151186250Y-83693000D01*
X151345000Y-83534250D01*
X151348072Y-82970000D01*
X151335812Y-82845518D01*
X151299502Y-82725820D01*
X151240537Y-82615506D01*
X151161185Y-82518815D01*
X151064494Y-82439463D01*
X150954180Y-82380498D01*
X150834482Y-82344188D01*
X150710000Y-82331928D01*
X150145750Y-82335000D01*
X149987000Y-82493750D01*
X149733000Y-82493750D01*
X149574250Y-82335000D01*
X149010000Y-82331928D01*
X148885518Y-82344188D01*
X148765820Y-82380498D01*
X148655506Y-82439463D01*
X148558815Y-82518815D01*
X148479463Y-82615506D01*
X148420498Y-82725820D01*
X148384188Y-82845518D01*
X148371928Y-82970000D01*
X147980000Y-82970000D01*
X147980000Y-79013380D01*
X150303770Y-76689611D01*
X150328948Y-76668948D01*
X150349615Y-76643766D01*
X150411424Y-76568451D01*
X150411425Y-76568450D01*
X150472710Y-76453793D01*
X150510450Y-76329383D01*
X150520000Y-76232419D01*
X150520000Y-76232410D01*
X150523192Y-76200001D01*
X150520000Y-76167592D01*
X150520000Y-65893740D01*
X153455000Y-65893740D01*
X153455000Y-66186260D01*
X153512068Y-66473158D01*
X153624010Y-66743411D01*
X153786525Y-66986632D01*
X153993368Y-67193475D01*
X154167760Y-67310000D01*
X153993368Y-67426525D01*
X153786525Y-67633368D01*
X153624010Y-67876589D01*
X153512068Y-68146842D01*
X153455000Y-68433740D01*
X153455000Y-68726260D01*
X153512068Y-69013158D01*
X153624010Y-69283411D01*
X153786525Y-69526632D01*
X153993368Y-69733475D01*
X154167760Y-69850000D01*
X153993368Y-69966525D01*
X153786525Y-70173368D01*
X153624010Y-70416589D01*
X153512068Y-70686842D01*
X153455000Y-70973740D01*
X153455000Y-71266260D01*
X153512068Y-71553158D01*
X153624010Y-71823411D01*
X153786525Y-72066632D01*
X153993368Y-72273475D01*
X154167760Y-72390000D01*
X153993368Y-72506525D01*
X153786525Y-72713368D01*
X153624010Y-72956589D01*
X153512068Y-73226842D01*
X153455000Y-73513740D01*
X153455000Y-73806260D01*
X153512068Y-74093158D01*
X153624010Y-74363411D01*
X153786525Y-74606632D01*
X153993368Y-74813475D01*
X154167760Y-74930000D01*
X153993368Y-75046525D01*
X153786525Y-75253368D01*
X153624010Y-75496589D01*
X153512068Y-75766842D01*
X153455000Y-76053740D01*
X153455000Y-76346260D01*
X153512068Y-76633158D01*
X153624010Y-76903411D01*
X153786525Y-77146632D01*
X153993368Y-77353475D01*
X154167760Y-77470000D01*
X153993368Y-77586525D01*
X153786525Y-77793368D01*
X153624010Y-78036589D01*
X153512068Y-78306842D01*
X153455000Y-78593740D01*
X153455000Y-78886260D01*
X153512068Y-79173158D01*
X153624010Y-79443411D01*
X153786525Y-79686632D01*
X153993368Y-79893475D01*
X154167760Y-80010000D01*
X153993368Y-80126525D01*
X153786525Y-80333368D01*
X153624010Y-80576589D01*
X153512068Y-80846842D01*
X153455000Y-81133740D01*
X153455000Y-81426260D01*
X153512068Y-81713158D01*
X153624010Y-81983411D01*
X153786525Y-82226632D01*
X153993368Y-82433475D01*
X154167760Y-82550000D01*
X153993368Y-82666525D01*
X153786525Y-82873368D01*
X153624010Y-83116589D01*
X153512068Y-83386842D01*
X153455000Y-83673740D01*
X153455000Y-83966260D01*
X153512068Y-84253158D01*
X153624010Y-84523411D01*
X153786525Y-84766632D01*
X153993368Y-84973475D01*
X154236589Y-85135990D01*
X154506842Y-85247932D01*
X154793740Y-85305000D01*
X155086260Y-85305000D01*
X155373158Y-85247932D01*
X155643411Y-85135990D01*
X155886632Y-84973475D01*
X156093475Y-84766632D01*
X156255990Y-84523411D01*
X156367932Y-84253158D01*
X156425000Y-83966260D01*
X156425000Y-83673740D01*
X156367932Y-83386842D01*
X156255990Y-83116589D01*
X156093475Y-82873368D01*
X155886632Y-82666525D01*
X155712240Y-82550000D01*
X155886632Y-82433475D01*
X156093475Y-82226632D01*
X156255990Y-81983411D01*
X156367932Y-81713158D01*
X156425000Y-81426260D01*
X156425000Y-81133740D01*
X156367932Y-80846842D01*
X156255990Y-80576589D01*
X156158043Y-80430000D01*
X158531928Y-80430000D01*
X158531928Y-82130000D01*
X158544188Y-82254482D01*
X158580498Y-82374180D01*
X158639463Y-82484494D01*
X158718815Y-82581185D01*
X158815506Y-82660537D01*
X158925820Y-82719502D01*
X159045518Y-82755812D01*
X159170000Y-82768072D01*
X160870000Y-82768072D01*
X160994482Y-82755812D01*
X161114180Y-82719502D01*
X161224494Y-82660537D01*
X161321185Y-82581185D01*
X161400537Y-82484494D01*
X161459502Y-82374180D01*
X161481513Y-82301620D01*
X161613368Y-82433475D01*
X161856589Y-82595990D01*
X162126842Y-82707932D01*
X162413740Y-82765000D01*
X162706260Y-82765000D01*
X162993158Y-82707932D01*
X163263411Y-82595990D01*
X163506632Y-82433475D01*
X163713475Y-82226632D01*
X163830000Y-82052240D01*
X163946525Y-82226632D01*
X164153368Y-82433475D01*
X164396589Y-82595990D01*
X164666842Y-82707932D01*
X164953740Y-82765000D01*
X165246260Y-82765000D01*
X165533158Y-82707932D01*
X165803411Y-82595990D01*
X166046632Y-82433475D01*
X166253475Y-82226632D01*
X166370000Y-82052240D01*
X166486525Y-82226632D01*
X166693368Y-82433475D01*
X166936589Y-82595990D01*
X167206842Y-82707932D01*
X167493740Y-82765000D01*
X167786260Y-82765000D01*
X168073158Y-82707932D01*
X168343411Y-82595990D01*
X168586632Y-82433475D01*
X168793475Y-82226632D01*
X168910000Y-82052240D01*
X169026525Y-82226632D01*
X169233368Y-82433475D01*
X169476589Y-82595990D01*
X169746842Y-82707932D01*
X170033740Y-82765000D01*
X170326260Y-82765000D01*
X170613158Y-82707932D01*
X170883411Y-82595990D01*
X171126632Y-82433475D01*
X171333475Y-82226632D01*
X171455195Y-82044466D01*
X171524822Y-82161355D01*
X171719731Y-82377588D01*
X171953080Y-82551641D01*
X172215901Y-82676825D01*
X172363110Y-82721476D01*
X172593000Y-82600155D01*
X172593000Y-81407000D01*
X172573000Y-81407000D01*
X172573000Y-81153000D01*
X172593000Y-81153000D01*
X172593000Y-79959845D01*
X172363110Y-79838524D01*
X172215901Y-79883175D01*
X171953080Y-80008359D01*
X171719731Y-80182412D01*
X171524822Y-80398645D01*
X171455195Y-80515534D01*
X171333475Y-80333368D01*
X171126632Y-80126525D01*
X170883411Y-79964010D01*
X170613158Y-79852068D01*
X170326260Y-79795000D01*
X170033740Y-79795000D01*
X169746842Y-79852068D01*
X169476589Y-79964010D01*
X169233368Y-80126525D01*
X169026525Y-80333368D01*
X168910000Y-80507760D01*
X168793475Y-80333368D01*
X168586632Y-80126525D01*
X168343411Y-79964010D01*
X168073158Y-79852068D01*
X167786260Y-79795000D01*
X167493740Y-79795000D01*
X167206842Y-79852068D01*
X166936589Y-79964010D01*
X166693368Y-80126525D01*
X166486525Y-80333368D01*
X166370000Y-80507760D01*
X166253475Y-80333368D01*
X166046632Y-80126525D01*
X165803411Y-79964010D01*
X165533158Y-79852068D01*
X165246260Y-79795000D01*
X164953740Y-79795000D01*
X164666842Y-79852068D01*
X164396589Y-79964010D01*
X164153368Y-80126525D01*
X163946525Y-80333368D01*
X163830000Y-80507760D01*
X163713475Y-80333368D01*
X163506632Y-80126525D01*
X163263411Y-79964010D01*
X162993158Y-79852068D01*
X162706260Y-79795000D01*
X162413740Y-79795000D01*
X162126842Y-79852068D01*
X161856589Y-79964010D01*
X161613368Y-80126525D01*
X161481513Y-80258380D01*
X161459502Y-80185820D01*
X161400537Y-80075506D01*
X161321185Y-79978815D01*
X161224494Y-79899463D01*
X161114180Y-79840498D01*
X160994482Y-79804188D01*
X160870000Y-79791928D01*
X159170000Y-79791928D01*
X159045518Y-79804188D01*
X158925820Y-79840498D01*
X158815506Y-79899463D01*
X158718815Y-79978815D01*
X158639463Y-80075506D01*
X158580498Y-80185820D01*
X158544188Y-80305518D01*
X158531928Y-80430000D01*
X156158043Y-80430000D01*
X156093475Y-80333368D01*
X155886632Y-80126525D01*
X155712240Y-80010000D01*
X155886632Y-79893475D01*
X156093475Y-79686632D01*
X156255990Y-79443411D01*
X156367932Y-79173158D01*
X156425000Y-78886260D01*
X156425000Y-78593740D01*
X156367932Y-78306842D01*
X156255990Y-78036589D01*
X156093475Y-77793368D01*
X155886632Y-77586525D01*
X155712240Y-77470000D01*
X155886632Y-77353475D01*
X156093475Y-77146632D01*
X156255990Y-76903411D01*
X156367932Y-76633158D01*
X156425000Y-76346260D01*
X156425000Y-76053740D01*
X156367932Y-75766842D01*
X156255990Y-75496589D01*
X156093475Y-75253368D01*
X155886632Y-75046525D01*
X155712240Y-74930000D01*
X155886632Y-74813475D01*
X156093475Y-74606632D01*
X156255990Y-74363411D01*
X156367932Y-74093158D01*
X156425000Y-73806260D01*
X156425000Y-73513740D01*
X156367932Y-73226842D01*
X156255990Y-72956589D01*
X156093475Y-72713368D01*
X155886632Y-72506525D01*
X155712240Y-72390000D01*
X155886632Y-72273475D01*
X156093475Y-72066632D01*
X156255990Y-71823411D01*
X156367932Y-71553158D01*
X156425000Y-71266260D01*
X156425000Y-70973740D01*
X156367932Y-70686842D01*
X156255990Y-70416589D01*
X156093475Y-70173368D01*
X155886632Y-69966525D01*
X155712240Y-69850000D01*
X155886632Y-69733475D01*
X156093475Y-69526632D01*
X156255990Y-69283411D01*
X156367932Y-69013158D01*
X156425000Y-68726260D01*
X156425000Y-68433740D01*
X156367932Y-68146842D01*
X156255990Y-67876589D01*
X156093475Y-67633368D01*
X155886632Y-67426525D01*
X155712240Y-67310000D01*
X155886632Y-67193475D01*
X156093475Y-66986632D01*
X156255990Y-66743411D01*
X156367932Y-66473158D01*
X156425000Y-66186260D01*
X156425000Y-65893740D01*
X156367932Y-65606842D01*
X156294708Y-65430061D01*
X163684000Y-65430061D01*
X163684000Y-65633939D01*
X163723774Y-65833898D01*
X163801795Y-66022256D01*
X163915063Y-66191774D01*
X164059226Y-66335937D01*
X164228744Y-66449205D01*
X164417102Y-66527226D01*
X164617061Y-66567000D01*
X164820939Y-66567000D01*
X165020898Y-66527226D01*
X165209256Y-66449205D01*
X165378774Y-66335937D01*
X165522937Y-66191774D01*
X165636205Y-66022256D01*
X165714226Y-65833898D01*
X165754000Y-65633939D01*
X165754000Y-65430061D01*
X165714226Y-65230102D01*
X165636205Y-65041744D01*
X165522937Y-64872226D01*
X165378774Y-64728063D01*
X165209256Y-64614795D01*
X165020898Y-64536774D01*
X164820939Y-64497000D01*
X164617061Y-64497000D01*
X164417102Y-64536774D01*
X164228744Y-64614795D01*
X164059226Y-64728063D01*
X163915063Y-64872226D01*
X163801795Y-65041744D01*
X163723774Y-65230102D01*
X163684000Y-65430061D01*
X156294708Y-65430061D01*
X156255990Y-65336589D01*
X156093475Y-65093368D01*
X155886632Y-64886525D01*
X155704466Y-64764805D01*
X155821355Y-64695178D01*
X156037588Y-64500269D01*
X156211641Y-64266920D01*
X156336825Y-64004099D01*
X156381476Y-63856890D01*
X156260155Y-63627000D01*
X155067000Y-63627000D01*
X155067000Y-63647000D01*
X154813000Y-63647000D01*
X154813000Y-63627000D01*
X153619845Y-63627000D01*
X153498524Y-63856890D01*
X153543175Y-64004099D01*
X153668359Y-64266920D01*
X153842412Y-64500269D01*
X154058645Y-64695178D01*
X154175534Y-64764805D01*
X153993368Y-64886525D01*
X153786525Y-65093368D01*
X153624010Y-65336589D01*
X153512068Y-65606842D01*
X153455000Y-65893740D01*
X150520000Y-65893740D01*
X150520000Y-53193740D01*
X153455000Y-53193740D01*
X153455000Y-53486260D01*
X153512068Y-53773158D01*
X153624010Y-54043411D01*
X153786525Y-54286632D01*
X153993368Y-54493475D01*
X154167760Y-54610000D01*
X153993368Y-54726525D01*
X153786525Y-54933368D01*
X153624010Y-55176589D01*
X153512068Y-55446842D01*
X153455000Y-55733740D01*
X153455000Y-56026260D01*
X153512068Y-56313158D01*
X153624010Y-56583411D01*
X153786525Y-56826632D01*
X153993368Y-57033475D01*
X154167760Y-57150000D01*
X153993368Y-57266525D01*
X153786525Y-57473368D01*
X153624010Y-57716589D01*
X153512068Y-57986842D01*
X153455000Y-58273740D01*
X153455000Y-58566260D01*
X153512068Y-58853158D01*
X153624010Y-59123411D01*
X153786525Y-59366632D01*
X153993368Y-59573475D01*
X154167760Y-59690000D01*
X153993368Y-59806525D01*
X153786525Y-60013368D01*
X153624010Y-60256589D01*
X153512068Y-60526842D01*
X153455000Y-60813740D01*
X153455000Y-61106260D01*
X153512068Y-61393158D01*
X153624010Y-61663411D01*
X153786525Y-61906632D01*
X153993368Y-62113475D01*
X154175534Y-62235195D01*
X154058645Y-62304822D01*
X153842412Y-62499731D01*
X153668359Y-62733080D01*
X153543175Y-62995901D01*
X153498524Y-63143110D01*
X153619845Y-63373000D01*
X154813000Y-63373000D01*
X154813000Y-63353000D01*
X155067000Y-63353000D01*
X155067000Y-63373000D01*
X156260155Y-63373000D01*
X156381476Y-63143110D01*
X156336825Y-62995901D01*
X156211641Y-62733080D01*
X156037588Y-62499731D01*
X155821355Y-62304822D01*
X155704466Y-62235195D01*
X155886632Y-62113475D01*
X156093475Y-61906632D01*
X156255990Y-61663411D01*
X156367932Y-61393158D01*
X156425000Y-61106260D01*
X156425000Y-60813740D01*
X156367932Y-60526842D01*
X156255990Y-60256589D01*
X156093475Y-60013368D01*
X155886632Y-59806525D01*
X155712240Y-59690000D01*
X155886632Y-59573475D01*
X156093475Y-59366632D01*
X156255990Y-59123411D01*
X156367932Y-58853158D01*
X156425000Y-58566260D01*
X156425000Y-58273740D01*
X156367932Y-57986842D01*
X156255990Y-57716589D01*
X156093475Y-57473368D01*
X155886632Y-57266525D01*
X155712240Y-57150000D01*
X155886632Y-57033475D01*
X156093475Y-56826632D01*
X156255990Y-56583411D01*
X156367932Y-56313158D01*
X156425000Y-56026260D01*
X156425000Y-55733740D01*
X156367932Y-55446842D01*
X156255990Y-55176589D01*
X156093475Y-54933368D01*
X155886632Y-54726525D01*
X155712240Y-54610000D01*
X155886632Y-54493475D01*
X156093475Y-54286632D01*
X156255990Y-54043411D01*
X156367932Y-53773158D01*
X156425000Y-53486260D01*
X156425000Y-53193740D01*
X156367932Y-52906842D01*
X156255990Y-52636589D01*
X156093475Y-52393368D01*
X155886632Y-52186525D01*
X155704466Y-52064805D01*
X155821355Y-51995178D01*
X156037588Y-51800269D01*
X156211641Y-51566920D01*
X156336825Y-51304099D01*
X156381476Y-51156890D01*
X156260155Y-50927000D01*
X155067000Y-50927000D01*
X155067000Y-50947000D01*
X154813000Y-50947000D01*
X154813000Y-50927000D01*
X153619845Y-50927000D01*
X153498524Y-51156890D01*
X153543175Y-51304099D01*
X153668359Y-51566920D01*
X153842412Y-51800269D01*
X154058645Y-51995178D01*
X154175534Y-52064805D01*
X153993368Y-52186525D01*
X153786525Y-52393368D01*
X153624010Y-52636589D01*
X153512068Y-52906842D01*
X153455000Y-53193740D01*
X150520000Y-53193740D01*
X150520000Y-45752408D01*
X150523192Y-45719999D01*
X150520000Y-45687590D01*
X150520000Y-45687581D01*
X150510450Y-45590617D01*
X150472710Y-45466207D01*
X150411425Y-45351550D01*
X150358320Y-45286842D01*
X150349613Y-45276232D01*
X150349612Y-45276231D01*
X150328948Y-45251052D01*
X150303769Y-45230388D01*
X149943381Y-44870000D01*
X153451928Y-44870000D01*
X153451928Y-46570000D01*
X153464188Y-46694482D01*
X153500498Y-46814180D01*
X153559463Y-46924494D01*
X153638815Y-47021185D01*
X153735506Y-47100537D01*
X153845820Y-47159502D01*
X153918380Y-47181513D01*
X153786525Y-47313368D01*
X153624010Y-47556589D01*
X153512068Y-47826842D01*
X153455000Y-48113740D01*
X153455000Y-48406260D01*
X153512068Y-48693158D01*
X153624010Y-48963411D01*
X153786525Y-49206632D01*
X153993368Y-49413475D01*
X154175534Y-49535195D01*
X154058645Y-49604822D01*
X153842412Y-49799731D01*
X153668359Y-50033080D01*
X153543175Y-50295901D01*
X153498524Y-50443110D01*
X153619845Y-50673000D01*
X154813000Y-50673000D01*
X154813000Y-50653000D01*
X155067000Y-50653000D01*
X155067000Y-50673000D01*
X156260155Y-50673000D01*
X156381476Y-50443110D01*
X156336825Y-50295901D01*
X156211641Y-50033080D01*
X156037588Y-49799731D01*
X155821355Y-49604822D01*
X155704466Y-49535195D01*
X155886632Y-49413475D01*
X156093475Y-49206632D01*
X156255990Y-48963411D01*
X156367932Y-48693158D01*
X156425000Y-48406260D01*
X156425000Y-48113740D01*
X156367932Y-47826842D01*
X156255990Y-47556589D01*
X156093475Y-47313368D01*
X155961620Y-47181513D01*
X156034180Y-47159502D01*
X156144494Y-47100537D01*
X156241185Y-47021185D01*
X156320537Y-46924494D01*
X156379502Y-46814180D01*
X156415812Y-46694482D01*
X156428072Y-46570000D01*
X156428072Y-46370212D01*
X159393000Y-46370212D01*
X159393000Y-46593788D01*
X159436617Y-46813067D01*
X159522176Y-47019624D01*
X159646388Y-47205520D01*
X159804480Y-47363612D01*
X159990376Y-47487824D01*
X160196933Y-47573383D01*
X160416212Y-47617000D01*
X160639788Y-47617000D01*
X160859067Y-47573383D01*
X161065624Y-47487824D01*
X161251520Y-47363612D01*
X161409612Y-47205520D01*
X161533824Y-47019624D01*
X161619383Y-46813067D01*
X161663000Y-46593788D01*
X161663000Y-46370212D01*
X163584000Y-46370212D01*
X163584000Y-46593788D01*
X163627617Y-46813067D01*
X163713176Y-47019624D01*
X163837388Y-47205520D01*
X163995480Y-47363612D01*
X164181376Y-47487824D01*
X164387933Y-47573383D01*
X164607212Y-47617000D01*
X164830788Y-47617000D01*
X165050067Y-47573383D01*
X165256624Y-47487824D01*
X165442520Y-47363612D01*
X165600612Y-47205520D01*
X165724824Y-47019624D01*
X165810383Y-46813067D01*
X165850974Y-46609000D01*
X167386000Y-46609000D01*
X167386000Y-52705000D01*
X167388440Y-52729776D01*
X167395667Y-52753601D01*
X167407403Y-52775557D01*
X167423197Y-52794803D01*
X167442443Y-52810597D01*
X167464399Y-52822333D01*
X167488224Y-52829560D01*
X167513000Y-52832000D01*
X170434000Y-52832000D01*
X170434000Y-58166000D01*
X170436440Y-58190776D01*
X170443667Y-58214601D01*
X170455403Y-58236557D01*
X170471197Y-58255803D01*
X170490443Y-58271597D01*
X170512399Y-58283333D01*
X170536224Y-58290560D01*
X170561000Y-58293000D01*
X171622868Y-58293000D01*
X171584388Y-58331480D01*
X171460176Y-58517376D01*
X171374617Y-58723933D01*
X171331000Y-58943212D01*
X171331000Y-59166788D01*
X171374617Y-59386067D01*
X171460176Y-59592624D01*
X171581001Y-59773451D01*
X171581000Y-68155531D01*
X171576719Y-68199000D01*
X171581000Y-68242469D01*
X171581000Y-68242476D01*
X171593805Y-68372489D01*
X171644411Y-68539312D01*
X171726589Y-68693058D01*
X171837183Y-68827817D01*
X171870956Y-68855534D01*
X179460465Y-76445044D01*
X179471774Y-76501898D01*
X179549795Y-76690256D01*
X179663063Y-76859774D01*
X179807226Y-77003937D01*
X179976744Y-77117205D01*
X180165102Y-77195226D01*
X180365061Y-77235000D01*
X180568939Y-77235000D01*
X180768898Y-77195226D01*
X180957256Y-77117205D01*
X181126774Y-77003937D01*
X181270937Y-76859774D01*
X181384205Y-76690256D01*
X181462226Y-76501898D01*
X181502000Y-76301939D01*
X181502000Y-76098061D01*
X181462226Y-75898102D01*
X181384205Y-75709744D01*
X181270937Y-75540226D01*
X181126774Y-75396063D01*
X180957256Y-75282795D01*
X180768898Y-75204774D01*
X180712044Y-75193465D01*
X173351000Y-67832422D01*
X173351000Y-64239578D01*
X184281000Y-75169579D01*
X184281001Y-80781824D01*
X184195990Y-80576589D01*
X184033475Y-80333368D01*
X183826632Y-80126525D01*
X183583411Y-79964010D01*
X183313158Y-79852068D01*
X183026260Y-79795000D01*
X182733740Y-79795000D01*
X182446842Y-79852068D01*
X182176589Y-79964010D01*
X181933368Y-80126525D01*
X181726525Y-80333368D01*
X181610000Y-80507760D01*
X181493475Y-80333368D01*
X181286632Y-80126525D01*
X181043411Y-79964010D01*
X180773158Y-79852068D01*
X180486260Y-79795000D01*
X180193740Y-79795000D01*
X179906842Y-79852068D01*
X179636589Y-79964010D01*
X179393368Y-80126525D01*
X179186525Y-80333368D01*
X179070000Y-80507760D01*
X178953475Y-80333368D01*
X178746632Y-80126525D01*
X178503411Y-79964010D01*
X178233158Y-79852068D01*
X177946260Y-79795000D01*
X177653740Y-79795000D01*
X177366842Y-79852068D01*
X177096589Y-79964010D01*
X176853368Y-80126525D01*
X176646525Y-80333368D01*
X176530000Y-80507760D01*
X176413475Y-80333368D01*
X176206632Y-80126525D01*
X175963411Y-79964010D01*
X175693158Y-79852068D01*
X175406260Y-79795000D01*
X175113740Y-79795000D01*
X174826842Y-79852068D01*
X174556589Y-79964010D01*
X174313368Y-80126525D01*
X174106525Y-80333368D01*
X173984805Y-80515534D01*
X173915178Y-80398645D01*
X173720269Y-80182412D01*
X173486920Y-80008359D01*
X173224099Y-79883175D01*
X173076890Y-79838524D01*
X172847000Y-79959845D01*
X172847000Y-81153000D01*
X172867000Y-81153000D01*
X172867000Y-81407000D01*
X172847000Y-81407000D01*
X172847000Y-82600155D01*
X173076890Y-82721476D01*
X173224099Y-82676825D01*
X173486920Y-82551641D01*
X173720269Y-82377588D01*
X173915178Y-82161355D01*
X173984805Y-82044466D01*
X174106525Y-82226632D01*
X174313368Y-82433475D01*
X174556589Y-82595990D01*
X174826842Y-82707932D01*
X175113740Y-82765000D01*
X175406260Y-82765000D01*
X175693158Y-82707932D01*
X175963411Y-82595990D01*
X176206632Y-82433475D01*
X176413475Y-82226632D01*
X176530000Y-82052240D01*
X176646525Y-82226632D01*
X176853368Y-82433475D01*
X177096589Y-82595990D01*
X177366842Y-82707932D01*
X177653740Y-82765000D01*
X177946260Y-82765000D01*
X178233158Y-82707932D01*
X178503411Y-82595990D01*
X178746632Y-82433475D01*
X178953475Y-82226632D01*
X179070000Y-82052240D01*
X179186525Y-82226632D01*
X179393368Y-82433475D01*
X179636589Y-82595990D01*
X179906842Y-82707932D01*
X180193740Y-82765000D01*
X180486260Y-82765000D01*
X180773158Y-82707932D01*
X181043411Y-82595990D01*
X181286632Y-82433475D01*
X181493475Y-82226632D01*
X181610000Y-82052240D01*
X181726525Y-82226632D01*
X181933368Y-82433475D01*
X182176589Y-82595990D01*
X182446842Y-82707932D01*
X182733740Y-82765000D01*
X183026260Y-82765000D01*
X183313158Y-82707932D01*
X183583411Y-82595990D01*
X183826632Y-82433475D01*
X184033475Y-82226632D01*
X184195990Y-81983411D01*
X184281001Y-81778176D01*
X184281001Y-83355549D01*
X184160176Y-83536376D01*
X184074617Y-83742933D01*
X184031000Y-83962212D01*
X184031000Y-84185788D01*
X184074617Y-84405067D01*
X184160176Y-84611624D01*
X184284388Y-84797520D01*
X184442480Y-84955612D01*
X184628376Y-85079824D01*
X184834933Y-85165383D01*
X185054212Y-85209000D01*
X185277788Y-85209000D01*
X185497067Y-85165383D01*
X185703624Y-85079824D01*
X185889520Y-84955612D01*
X186047612Y-84797520D01*
X186171824Y-84611624D01*
X186257383Y-84405067D01*
X186301000Y-84185788D01*
X186301000Y-83962212D01*
X186257383Y-83742933D01*
X186171824Y-83536376D01*
X186051000Y-83355550D01*
X186051000Y-78593740D01*
X186475000Y-78593740D01*
X186475000Y-78886260D01*
X186532068Y-79173158D01*
X186644010Y-79443411D01*
X186806525Y-79686632D01*
X187013368Y-79893475D01*
X187187760Y-80010000D01*
X187013368Y-80126525D01*
X186806525Y-80333368D01*
X186644010Y-80576589D01*
X186532068Y-80846842D01*
X186475000Y-81133740D01*
X186475000Y-81426260D01*
X186532068Y-81713158D01*
X186644010Y-81983411D01*
X186806525Y-82226632D01*
X187013368Y-82433475D01*
X187187760Y-82550000D01*
X187013368Y-82666525D01*
X186806525Y-82873368D01*
X186644010Y-83116589D01*
X186532068Y-83386842D01*
X186475000Y-83673740D01*
X186475000Y-83966260D01*
X186532068Y-84253158D01*
X186644010Y-84523411D01*
X186806525Y-84766632D01*
X187013368Y-84973475D01*
X187256589Y-85135990D01*
X187526842Y-85247932D01*
X187813740Y-85305000D01*
X188106260Y-85305000D01*
X188393158Y-85247932D01*
X188663411Y-85135990D01*
X188906632Y-84973475D01*
X189113475Y-84766632D01*
X189178042Y-84670000D01*
X191551928Y-84670000D01*
X191564188Y-84794482D01*
X191600498Y-84914180D01*
X191659463Y-85024494D01*
X191738815Y-85121185D01*
X191835506Y-85200537D01*
X191945820Y-85259502D01*
X192065518Y-85295812D01*
X192190000Y-85308072D01*
X192754250Y-85305000D01*
X192913000Y-85146250D01*
X192913000Y-83947000D01*
X193167000Y-83947000D01*
X193167000Y-85146250D01*
X193325750Y-85305000D01*
X193890000Y-85308072D01*
X194014482Y-85295812D01*
X194134180Y-85259502D01*
X194244494Y-85200537D01*
X194341185Y-85121185D01*
X194420537Y-85024494D01*
X194479502Y-84914180D01*
X194515812Y-84794482D01*
X194528072Y-84670000D01*
X194525000Y-84105750D01*
X194366250Y-83947000D01*
X193167000Y-83947000D01*
X192913000Y-83947000D01*
X191713750Y-83947000D01*
X191555000Y-84105750D01*
X191551928Y-84670000D01*
X189178042Y-84670000D01*
X189275990Y-84523411D01*
X189387932Y-84253158D01*
X189445000Y-83966260D01*
X189445000Y-83673740D01*
X189387932Y-83386842D01*
X189275990Y-83116589D01*
X189178043Y-82970000D01*
X191551928Y-82970000D01*
X191555000Y-83534250D01*
X191713750Y-83693000D01*
X192913000Y-83693000D01*
X192913000Y-82493750D01*
X193167000Y-82493750D01*
X193167000Y-83693000D01*
X194366250Y-83693000D01*
X194525000Y-83534250D01*
X194528072Y-82970000D01*
X194515812Y-82845518D01*
X194479502Y-82725820D01*
X194420537Y-82615506D01*
X194341185Y-82518815D01*
X194244494Y-82439463D01*
X194134180Y-82380498D01*
X194014482Y-82344188D01*
X193890000Y-82331928D01*
X193325750Y-82335000D01*
X193167000Y-82493750D01*
X192913000Y-82493750D01*
X192754250Y-82335000D01*
X192190000Y-82331928D01*
X192065518Y-82344188D01*
X191945820Y-82380498D01*
X191835506Y-82439463D01*
X191738815Y-82518815D01*
X191659463Y-82615506D01*
X191600498Y-82725820D01*
X191564188Y-82845518D01*
X191551928Y-82970000D01*
X189178043Y-82970000D01*
X189113475Y-82873368D01*
X188906632Y-82666525D01*
X188732240Y-82550000D01*
X188906632Y-82433475D01*
X189113475Y-82226632D01*
X189275990Y-81983411D01*
X189387932Y-81713158D01*
X189445000Y-81426260D01*
X189445000Y-81133740D01*
X189387932Y-80846842D01*
X189275990Y-80576589D01*
X189113475Y-80333368D01*
X188906632Y-80126525D01*
X188732240Y-80010000D01*
X188906632Y-79893475D01*
X189113475Y-79686632D01*
X189275990Y-79443411D01*
X189387932Y-79173158D01*
X189445000Y-78886260D01*
X189445000Y-78593740D01*
X189387932Y-78306842D01*
X189275990Y-78036589D01*
X189113475Y-77793368D01*
X188906632Y-77586525D01*
X188724466Y-77464805D01*
X188841355Y-77395178D01*
X189057588Y-77200269D01*
X189231641Y-76966920D01*
X189356825Y-76704099D01*
X189401476Y-76556890D01*
X189280155Y-76327000D01*
X188087000Y-76327000D01*
X188087000Y-76347000D01*
X187833000Y-76347000D01*
X187833000Y-76327000D01*
X186639845Y-76327000D01*
X186518524Y-76556890D01*
X186563175Y-76704099D01*
X186688359Y-76966920D01*
X186862412Y-77200269D01*
X187078645Y-77395178D01*
X187195534Y-77464805D01*
X187013368Y-77586525D01*
X186806525Y-77793368D01*
X186644010Y-78036589D01*
X186532068Y-78306842D01*
X186475000Y-78593740D01*
X186051000Y-78593740D01*
X186051000Y-74846469D01*
X186055281Y-74803000D01*
X186051000Y-74759531D01*
X186051000Y-74759523D01*
X186038195Y-74629510D01*
X185987589Y-74462687D01*
X185905411Y-74308941D01*
X185794817Y-74174183D01*
X185761051Y-74146472D01*
X181884579Y-70270000D01*
X186471928Y-70270000D01*
X186471928Y-71970000D01*
X186484188Y-72094482D01*
X186520498Y-72214180D01*
X186579463Y-72324494D01*
X186658815Y-72421185D01*
X186755506Y-72500537D01*
X186865820Y-72559502D01*
X186938380Y-72581513D01*
X186806525Y-72713368D01*
X186644010Y-72956589D01*
X186532068Y-73226842D01*
X186475000Y-73513740D01*
X186475000Y-73806260D01*
X186532068Y-74093158D01*
X186644010Y-74363411D01*
X186806525Y-74606632D01*
X187013368Y-74813475D01*
X187195534Y-74935195D01*
X187078645Y-75004822D01*
X186862412Y-75199731D01*
X186688359Y-75433080D01*
X186563175Y-75695901D01*
X186518524Y-75843110D01*
X186639845Y-76073000D01*
X187833000Y-76073000D01*
X187833000Y-76053000D01*
X188087000Y-76053000D01*
X188087000Y-76073000D01*
X189280155Y-76073000D01*
X189401476Y-75843110D01*
X189356825Y-75695901D01*
X189231641Y-75433080D01*
X189057588Y-75199731D01*
X188841355Y-75004822D01*
X188724466Y-74935195D01*
X188906632Y-74813475D01*
X189113475Y-74606632D01*
X189275990Y-74363411D01*
X189387932Y-74093158D01*
X189445000Y-73806260D01*
X189445000Y-73513740D01*
X189387932Y-73226842D01*
X189275990Y-72956589D01*
X189113475Y-72713368D01*
X188981620Y-72581513D01*
X189054180Y-72559502D01*
X189164494Y-72500537D01*
X189261185Y-72421185D01*
X189340537Y-72324494D01*
X189399502Y-72214180D01*
X189435812Y-72094482D01*
X189448072Y-71970000D01*
X189448072Y-70270000D01*
X189435812Y-70145518D01*
X189399502Y-70025820D01*
X189340537Y-69915506D01*
X189261185Y-69818815D01*
X189164494Y-69739463D01*
X189054180Y-69680498D01*
X188934482Y-69644188D01*
X188810000Y-69631928D01*
X187110000Y-69631928D01*
X186985518Y-69644188D01*
X186865820Y-69680498D01*
X186755506Y-69739463D01*
X186658815Y-69818815D01*
X186579463Y-69915506D01*
X186520498Y-70025820D01*
X186484188Y-70145518D01*
X186471928Y-70270000D01*
X181884579Y-70270000D01*
X180465758Y-68851179D01*
X180618774Y-68748937D01*
X180762937Y-68604774D01*
X180876205Y-68435256D01*
X180954226Y-68246898D01*
X180994000Y-68046939D01*
X180994000Y-67960212D01*
X186825000Y-67960212D01*
X186825000Y-68183788D01*
X186868617Y-68403067D01*
X186954176Y-68609624D01*
X187078388Y-68795520D01*
X187236480Y-68953612D01*
X187422376Y-69077824D01*
X187628933Y-69163383D01*
X187848212Y-69207000D01*
X188071788Y-69207000D01*
X188291067Y-69163383D01*
X188497624Y-69077824D01*
X188683520Y-68953612D01*
X188841612Y-68795520D01*
X188965824Y-68609624D01*
X189051383Y-68403067D01*
X189095000Y-68183788D01*
X189095000Y-67960212D01*
X189051383Y-67740933D01*
X188965824Y-67534376D01*
X188841612Y-67348480D01*
X188683520Y-67190388D01*
X188497624Y-67066176D01*
X188291067Y-66980617D01*
X188071788Y-66937000D01*
X187848212Y-66937000D01*
X187628933Y-66980617D01*
X187422376Y-67066176D01*
X187236480Y-67190388D01*
X187078388Y-67348480D01*
X186954176Y-67534376D01*
X186868617Y-67740933D01*
X186825000Y-67960212D01*
X180994000Y-67960212D01*
X180994000Y-67843061D01*
X180954226Y-67643102D01*
X180876205Y-67454744D01*
X180762937Y-67285226D01*
X180618774Y-67141063D01*
X180449256Y-67027795D01*
X180260898Y-66949774D01*
X180060939Y-66910000D01*
X179857061Y-66910000D01*
X179657102Y-66949774D01*
X179468744Y-67027795D01*
X179299226Y-67141063D01*
X179155063Y-67285226D01*
X179052821Y-67438243D01*
X177775254Y-66160676D01*
X177847898Y-66146226D01*
X178036256Y-66068205D01*
X178205774Y-65954937D01*
X178349937Y-65810774D01*
X178463205Y-65641256D01*
X178541226Y-65452898D01*
X178581000Y-65252939D01*
X178581000Y-65049061D01*
X178541226Y-64849102D01*
X178463205Y-64660744D01*
X178349937Y-64491226D01*
X178205774Y-64347063D01*
X178036256Y-64233795D01*
X177847898Y-64155774D01*
X177647939Y-64116000D01*
X177444061Y-64116000D01*
X177244102Y-64155774D01*
X177055744Y-64233795D01*
X176886226Y-64347063D01*
X176742063Y-64491226D01*
X176628795Y-64660744D01*
X176550774Y-64849102D01*
X176536324Y-64921746D01*
X175471468Y-63856890D01*
X186518524Y-63856890D01*
X186563175Y-64004099D01*
X186688359Y-64266920D01*
X186862412Y-64500269D01*
X187078645Y-64695178D01*
X187328748Y-64844157D01*
X187603109Y-64941481D01*
X187833000Y-64820814D01*
X187833000Y-63627000D01*
X188087000Y-63627000D01*
X188087000Y-64820814D01*
X188316891Y-64941481D01*
X188591252Y-64844157D01*
X188841355Y-64695178D01*
X189057588Y-64500269D01*
X189231641Y-64266920D01*
X189356825Y-64004099D01*
X189401476Y-63856890D01*
X189280155Y-63627000D01*
X188087000Y-63627000D01*
X187833000Y-63627000D01*
X186639845Y-63627000D01*
X186518524Y-63856890D01*
X175471468Y-63856890D01*
X174826518Y-63211940D01*
X174868824Y-63148624D01*
X174954383Y-62942067D01*
X174998000Y-62722788D01*
X174998000Y-62499212D01*
X174954383Y-62279933D01*
X174868824Y-62073376D01*
X174744612Y-61887480D01*
X174586520Y-61729388D01*
X174400624Y-61605176D01*
X174194067Y-61519617D01*
X173974788Y-61476000D01*
X173751212Y-61476000D01*
X173531933Y-61519617D01*
X173351000Y-61594562D01*
X173351000Y-60848212D01*
X184031000Y-60848212D01*
X184031000Y-61071788D01*
X184074617Y-61291067D01*
X184160176Y-61497624D01*
X184284388Y-61683520D01*
X184442480Y-61841612D01*
X184628376Y-61965824D01*
X184834933Y-62051383D01*
X185054212Y-62095000D01*
X185277788Y-62095000D01*
X185497067Y-62051383D01*
X185703624Y-61965824D01*
X185889520Y-61841612D01*
X186047612Y-61683520D01*
X186171824Y-61497624D01*
X186257383Y-61291067D01*
X186301000Y-61071788D01*
X186301000Y-60848212D01*
X186257383Y-60628933D01*
X186171824Y-60422376D01*
X186047612Y-60236480D01*
X185921132Y-60110000D01*
X186471928Y-60110000D01*
X186471928Y-61810000D01*
X186484188Y-61934482D01*
X186520498Y-62054180D01*
X186579463Y-62164494D01*
X186658815Y-62261185D01*
X186755506Y-62340537D01*
X186865820Y-62399502D01*
X186946466Y-62423966D01*
X186862412Y-62499731D01*
X186688359Y-62733080D01*
X186563175Y-62995901D01*
X186518524Y-63143110D01*
X186639845Y-63373000D01*
X187833000Y-63373000D01*
X187833000Y-63353000D01*
X188087000Y-63353000D01*
X188087000Y-63373000D01*
X189280155Y-63373000D01*
X189401476Y-63143110D01*
X189356825Y-62995901D01*
X189231641Y-62733080D01*
X189057588Y-62499731D01*
X188973534Y-62423966D01*
X189054180Y-62399502D01*
X189164494Y-62340537D01*
X189261185Y-62261185D01*
X189340537Y-62164494D01*
X189399502Y-62054180D01*
X189435812Y-61934482D01*
X189448072Y-61810000D01*
X189448072Y-60110000D01*
X189435812Y-59985518D01*
X189399502Y-59865820D01*
X189340537Y-59755506D01*
X189261185Y-59658815D01*
X189164494Y-59579463D01*
X189054180Y-59520498D01*
X188934482Y-59484188D01*
X188810000Y-59471928D01*
X187110000Y-59471928D01*
X186985518Y-59484188D01*
X186865820Y-59520498D01*
X186755506Y-59579463D01*
X186658815Y-59658815D01*
X186579463Y-59755506D01*
X186520498Y-59865820D01*
X186484188Y-59985518D01*
X186471928Y-60110000D01*
X185921132Y-60110000D01*
X185889520Y-60078388D01*
X185703624Y-59954176D01*
X185497067Y-59868617D01*
X185277788Y-59825000D01*
X185054212Y-59825000D01*
X184834933Y-59868617D01*
X184628376Y-59954176D01*
X184442480Y-60078388D01*
X184284388Y-60236480D01*
X184160176Y-60422376D01*
X184074617Y-60628933D01*
X184031000Y-60848212D01*
X173351000Y-60848212D01*
X173351000Y-59773450D01*
X173471824Y-59592624D01*
X173557383Y-59386067D01*
X173601000Y-59166788D01*
X173601000Y-58943212D01*
X173557383Y-58723933D01*
X173471824Y-58517376D01*
X173347612Y-58331480D01*
X173309132Y-58293000D01*
X173355000Y-58293000D01*
X173379776Y-58290560D01*
X173403601Y-58283333D01*
X173425557Y-58271597D01*
X173444803Y-58255803D01*
X173460597Y-58236557D01*
X173472333Y-58214601D01*
X173479560Y-58190776D01*
X173482000Y-58166000D01*
X173482000Y-57292212D01*
X186825000Y-57292212D01*
X186825000Y-57515788D01*
X186868617Y-57735067D01*
X186954176Y-57941624D01*
X187078388Y-58127520D01*
X187236480Y-58285612D01*
X187422376Y-58409824D01*
X187628933Y-58495383D01*
X187848212Y-58539000D01*
X188071788Y-58539000D01*
X188291067Y-58495383D01*
X188497624Y-58409824D01*
X188683520Y-58285612D01*
X188841612Y-58127520D01*
X188965824Y-57941624D01*
X189051383Y-57735067D01*
X189095000Y-57515788D01*
X189095000Y-57292212D01*
X189051383Y-57072933D01*
X188965824Y-56866376D01*
X188841612Y-56680480D01*
X188683520Y-56522388D01*
X188497624Y-56398176D01*
X188291067Y-56312617D01*
X188071788Y-56269000D01*
X187848212Y-56269000D01*
X187628933Y-56312617D01*
X187422376Y-56398176D01*
X187236480Y-56522388D01*
X187078388Y-56680480D01*
X186954176Y-56866376D01*
X186868617Y-57072933D01*
X186825000Y-57292212D01*
X173482000Y-57292212D01*
X173482000Y-55905061D01*
X174479000Y-55905061D01*
X174479000Y-56108939D01*
X174518774Y-56308898D01*
X174596795Y-56497256D01*
X174710063Y-56666774D01*
X174854226Y-56810937D01*
X175023744Y-56924205D01*
X175212102Y-57002226D01*
X175412061Y-57042000D01*
X175615939Y-57042000D01*
X175815898Y-57002226D01*
X176004256Y-56924205D01*
X176173774Y-56810937D01*
X176317937Y-56666774D01*
X176431205Y-56497256D01*
X176509226Y-56308898D01*
X176549000Y-56108939D01*
X176549000Y-55905061D01*
X176523739Y-55778061D01*
X177273000Y-55778061D01*
X177273000Y-55981939D01*
X177312774Y-56181898D01*
X177390795Y-56370256D01*
X177504063Y-56539774D01*
X177648226Y-56683937D01*
X177817744Y-56797205D01*
X178006102Y-56875226D01*
X178206061Y-56915000D01*
X178409939Y-56915000D01*
X178609898Y-56875226D01*
X178798256Y-56797205D01*
X178967774Y-56683937D01*
X179111937Y-56539774D01*
X179225205Y-56370256D01*
X179303226Y-56181898D01*
X179343000Y-55981939D01*
X179343000Y-55778061D01*
X179303226Y-55578102D01*
X179225205Y-55389744D01*
X179111937Y-55220226D01*
X178967774Y-55076063D01*
X178798256Y-54962795D01*
X178609898Y-54884774D01*
X178409939Y-54845000D01*
X178206061Y-54845000D01*
X178006102Y-54884774D01*
X177817744Y-54962795D01*
X177648226Y-55076063D01*
X177504063Y-55220226D01*
X177390795Y-55389744D01*
X177312774Y-55578102D01*
X177273000Y-55778061D01*
X176523739Y-55778061D01*
X176509226Y-55705102D01*
X176431205Y-55516744D01*
X176317937Y-55347226D01*
X176173774Y-55203063D01*
X176004256Y-55089795D01*
X175815898Y-55011774D01*
X175615939Y-54972000D01*
X175412061Y-54972000D01*
X175212102Y-55011774D01*
X175023744Y-55089795D01*
X174854226Y-55203063D01*
X174710063Y-55347226D01*
X174596795Y-55516744D01*
X174518774Y-55705102D01*
X174479000Y-55905061D01*
X173482000Y-55905061D01*
X173482000Y-52832000D01*
X177292000Y-52832000D01*
X177316776Y-52829560D01*
X177340601Y-52822333D01*
X177362557Y-52810597D01*
X177381803Y-52794803D01*
X177397597Y-52775557D01*
X177409333Y-52753601D01*
X177416560Y-52729776D01*
X177419000Y-52705000D01*
X177419000Y-46609000D01*
X177416560Y-46584224D01*
X177409333Y-46560399D01*
X177397597Y-46538443D01*
X177381803Y-46519197D01*
X177362557Y-46503403D01*
X177340601Y-46491667D01*
X177316776Y-46484440D01*
X177292000Y-46482000D01*
X167513000Y-46482000D01*
X167488224Y-46484440D01*
X167464399Y-46491667D01*
X167442443Y-46503403D01*
X167423197Y-46519197D01*
X167407403Y-46538443D01*
X167395667Y-46560399D01*
X167388440Y-46584224D01*
X167386000Y-46609000D01*
X165850974Y-46609000D01*
X165854000Y-46593788D01*
X165854000Y-46370212D01*
X165810383Y-46150933D01*
X165724824Y-45944376D01*
X165600612Y-45758480D01*
X165442520Y-45600388D01*
X165256624Y-45476176D01*
X165050067Y-45390617D01*
X164830788Y-45347000D01*
X164607212Y-45347000D01*
X164387933Y-45390617D01*
X164181376Y-45476176D01*
X163995480Y-45600388D01*
X163837388Y-45758480D01*
X163713176Y-45944376D01*
X163627617Y-46150933D01*
X163584000Y-46370212D01*
X161663000Y-46370212D01*
X161619383Y-46150933D01*
X161533824Y-45944376D01*
X161409612Y-45758480D01*
X161251520Y-45600388D01*
X161065624Y-45476176D01*
X160859067Y-45390617D01*
X160639788Y-45347000D01*
X160416212Y-45347000D01*
X160196933Y-45390617D01*
X159990376Y-45476176D01*
X159804480Y-45600388D01*
X159646388Y-45758480D01*
X159522176Y-45944376D01*
X159436617Y-46150933D01*
X159393000Y-46370212D01*
X156428072Y-46370212D01*
X156428072Y-44870000D01*
X156415812Y-44745518D01*
X156379502Y-44625820D01*
X156320537Y-44515506D01*
X156279262Y-44465212D01*
X161552000Y-44465212D01*
X161552000Y-44688788D01*
X161595617Y-44908067D01*
X161681176Y-45114624D01*
X161805388Y-45300520D01*
X161963480Y-45458612D01*
X162149376Y-45582824D01*
X162355933Y-45668383D01*
X162575212Y-45712000D01*
X162798788Y-45712000D01*
X163018067Y-45668383D01*
X163224624Y-45582824D01*
X163410520Y-45458612D01*
X163568612Y-45300520D01*
X163692824Y-45114624D01*
X163778383Y-44908067D01*
X163822000Y-44688788D01*
X163822000Y-44465212D01*
X163778383Y-44245933D01*
X163692824Y-44039376D01*
X163568612Y-43853480D01*
X163410520Y-43695388D01*
X163224624Y-43571176D01*
X163018067Y-43485617D01*
X162798788Y-43442000D01*
X162575212Y-43442000D01*
X162355933Y-43485617D01*
X162149376Y-43571176D01*
X161963480Y-43695388D01*
X161805388Y-43853480D01*
X161681176Y-44039376D01*
X161595617Y-44245933D01*
X161552000Y-44465212D01*
X156279262Y-44465212D01*
X156241185Y-44418815D01*
X156144494Y-44339463D01*
X156034180Y-44280498D01*
X155914482Y-44244188D01*
X155790000Y-44231928D01*
X154090000Y-44231928D01*
X153965518Y-44244188D01*
X153845820Y-44280498D01*
X153735506Y-44339463D01*
X153638815Y-44418815D01*
X153559463Y-44515506D01*
X153500498Y-44625820D01*
X153464188Y-44745518D01*
X153451928Y-44870000D01*
X149943381Y-44870000D01*
X147980000Y-42906620D01*
X147980000Y-40996890D01*
X153498524Y-40996890D01*
X153543175Y-41144099D01*
X153668359Y-41406920D01*
X153842412Y-41640269D01*
X154058645Y-41835178D01*
X154308748Y-41984157D01*
X154583109Y-42081481D01*
X154813000Y-41960814D01*
X154813000Y-40767000D01*
X155067000Y-40767000D01*
X155067000Y-41960814D01*
X155296891Y-42081481D01*
X155571252Y-41984157D01*
X155821355Y-41835178D01*
X156037588Y-41640269D01*
X156211641Y-41406920D01*
X156336825Y-41144099D01*
X156381476Y-40996890D01*
X156260155Y-40767000D01*
X155067000Y-40767000D01*
X154813000Y-40767000D01*
X153619845Y-40767000D01*
X153498524Y-40996890D01*
X147980000Y-40996890D01*
X147980000Y-38950000D01*
X148371928Y-38950000D01*
X148384188Y-39074482D01*
X148420498Y-39194180D01*
X148479463Y-39304494D01*
X148558815Y-39401185D01*
X148655506Y-39480537D01*
X148765820Y-39539502D01*
X148885518Y-39575812D01*
X149010000Y-39588072D01*
X149574250Y-39585000D01*
X149733000Y-39426250D01*
X149733000Y-38227000D01*
X149987000Y-38227000D01*
X149987000Y-39426250D01*
X150145750Y-39585000D01*
X150710000Y-39588072D01*
X150834482Y-39575812D01*
X150954180Y-39539502D01*
X151064494Y-39480537D01*
X151161185Y-39401185D01*
X151240537Y-39304494D01*
X151299502Y-39194180D01*
X151335812Y-39074482D01*
X151348072Y-38950000D01*
X151345000Y-38385750D01*
X151186250Y-38227000D01*
X149987000Y-38227000D01*
X149733000Y-38227000D01*
X148533750Y-38227000D01*
X148375000Y-38385750D01*
X148371928Y-38950000D01*
X147980000Y-38950000D01*
X147980000Y-37250000D01*
X148371928Y-37250000D01*
X148375000Y-37814250D01*
X148533750Y-37973000D01*
X149733000Y-37973000D01*
X149733000Y-36773750D01*
X149987000Y-36773750D01*
X149987000Y-37973000D01*
X151186250Y-37973000D01*
X151345000Y-37814250D01*
X151348072Y-37250000D01*
X153451928Y-37250000D01*
X153451928Y-38950000D01*
X153464188Y-39074482D01*
X153500498Y-39194180D01*
X153559463Y-39304494D01*
X153638815Y-39401185D01*
X153735506Y-39480537D01*
X153845820Y-39539502D01*
X153926466Y-39563966D01*
X153842412Y-39639731D01*
X153668359Y-39873080D01*
X153543175Y-40135901D01*
X153498524Y-40283110D01*
X153619845Y-40513000D01*
X154813000Y-40513000D01*
X154813000Y-40493000D01*
X155067000Y-40493000D01*
X155067000Y-40513000D01*
X156260155Y-40513000D01*
X156381476Y-40283110D01*
X156336825Y-40135901D01*
X156211641Y-39873080D01*
X156131930Y-39766212D01*
X164346000Y-39766212D01*
X164346000Y-39989788D01*
X164389617Y-40209067D01*
X164475176Y-40415624D01*
X164599388Y-40601520D01*
X164757480Y-40759612D01*
X164943376Y-40883824D01*
X165149933Y-40969383D01*
X165369212Y-41013000D01*
X165592788Y-41013000D01*
X165762963Y-40979150D01*
X165786617Y-41098067D01*
X165872176Y-41304624D01*
X165996388Y-41490520D01*
X166154480Y-41648612D01*
X166340376Y-41772824D01*
X166546933Y-41858383D01*
X166766212Y-41902000D01*
X166989788Y-41902000D01*
X167209067Y-41858383D01*
X167415624Y-41772824D01*
X167601520Y-41648612D01*
X167759612Y-41490520D01*
X167883824Y-41304624D01*
X167969383Y-41098067D01*
X167993037Y-40979150D01*
X168163212Y-41013000D01*
X168386788Y-41013000D01*
X168606067Y-40969383D01*
X168812624Y-40883824D01*
X168998520Y-40759612D01*
X169156612Y-40601520D01*
X169280824Y-40415624D01*
X169366383Y-40209067D01*
X169410000Y-39989788D01*
X169410000Y-39766212D01*
X169366383Y-39546933D01*
X169280824Y-39340376D01*
X169156612Y-39154480D01*
X168998520Y-38996388D01*
X168812624Y-38872176D01*
X168606067Y-38786617D01*
X168386788Y-38743000D01*
X168163212Y-38743000D01*
X167943933Y-38786617D01*
X167737376Y-38872176D01*
X167551480Y-38996388D01*
X167393388Y-39154480D01*
X167269176Y-39340376D01*
X167183617Y-39546933D01*
X167159963Y-39665850D01*
X166989788Y-39632000D01*
X166766212Y-39632000D01*
X166596037Y-39665850D01*
X166572383Y-39546933D01*
X166486824Y-39340376D01*
X166362612Y-39154480D01*
X166204520Y-38996388D01*
X166018624Y-38872176D01*
X165812067Y-38786617D01*
X165592788Y-38743000D01*
X165369212Y-38743000D01*
X165149933Y-38786617D01*
X164943376Y-38872176D01*
X164757480Y-38996388D01*
X164599388Y-39154480D01*
X164475176Y-39340376D01*
X164389617Y-39546933D01*
X164346000Y-39766212D01*
X156131930Y-39766212D01*
X156037588Y-39639731D01*
X155953534Y-39563966D01*
X156034180Y-39539502D01*
X156144494Y-39480537D01*
X156241185Y-39401185D01*
X156320537Y-39304494D01*
X156379502Y-39194180D01*
X156415812Y-39074482D01*
X156428072Y-38950000D01*
X156428072Y-37250000D01*
X186471928Y-37250000D01*
X186471928Y-38950000D01*
X186484188Y-39074482D01*
X186520498Y-39194180D01*
X186579463Y-39304494D01*
X186658815Y-39401185D01*
X186755506Y-39480537D01*
X186865820Y-39539502D01*
X186938380Y-39561513D01*
X186806525Y-39693368D01*
X186644010Y-39936589D01*
X186532068Y-40206842D01*
X186475000Y-40493740D01*
X186475000Y-40786260D01*
X186532068Y-41073158D01*
X186644010Y-41343411D01*
X186806525Y-41586632D01*
X187013368Y-41793475D01*
X187187760Y-41910000D01*
X187013368Y-42026525D01*
X186806525Y-42233368D01*
X186644010Y-42476589D01*
X186532068Y-42746842D01*
X186475000Y-43033740D01*
X186475000Y-43326260D01*
X186532068Y-43613158D01*
X186644010Y-43883411D01*
X186806525Y-44126632D01*
X187013368Y-44333475D01*
X187187760Y-44450000D01*
X187013368Y-44566525D01*
X186806525Y-44773368D01*
X186644010Y-45016589D01*
X186532068Y-45286842D01*
X186475000Y-45573740D01*
X186475000Y-45866260D01*
X186532068Y-46153158D01*
X186644010Y-46423411D01*
X186806525Y-46666632D01*
X187013368Y-46873475D01*
X187187760Y-46990000D01*
X187013368Y-47106525D01*
X186806525Y-47313368D01*
X186644010Y-47556589D01*
X186532068Y-47826842D01*
X186475000Y-48113740D01*
X186475000Y-48406260D01*
X186532068Y-48693158D01*
X186644010Y-48963411D01*
X186806525Y-49206632D01*
X187013368Y-49413475D01*
X187187760Y-49530000D01*
X187013368Y-49646525D01*
X186806525Y-49853368D01*
X186644010Y-50096589D01*
X186532068Y-50366842D01*
X186475000Y-50653740D01*
X186475000Y-50946260D01*
X186532068Y-51233158D01*
X186644010Y-51503411D01*
X186806525Y-51746632D01*
X187013368Y-51953475D01*
X187187760Y-52070000D01*
X187013368Y-52186525D01*
X186806525Y-52393368D01*
X186644010Y-52636589D01*
X186532068Y-52906842D01*
X186475000Y-53193740D01*
X186475000Y-53486260D01*
X186532068Y-53773158D01*
X186644010Y-54043411D01*
X186806525Y-54286632D01*
X187013368Y-54493475D01*
X187256589Y-54655990D01*
X187526842Y-54767932D01*
X187813740Y-54825000D01*
X188106260Y-54825000D01*
X188393158Y-54767932D01*
X188663411Y-54655990D01*
X188906632Y-54493475D01*
X189113475Y-54286632D01*
X189275990Y-54043411D01*
X189387932Y-53773158D01*
X189445000Y-53486260D01*
X189445000Y-53193740D01*
X189387932Y-52906842D01*
X189275990Y-52636589D01*
X189113475Y-52393368D01*
X188906632Y-52186525D01*
X188732240Y-52070000D01*
X188906632Y-51953475D01*
X189113475Y-51746632D01*
X189275990Y-51503411D01*
X189387932Y-51233158D01*
X189445000Y-50946260D01*
X189445000Y-50653740D01*
X189387932Y-50366842D01*
X189275990Y-50096589D01*
X189113475Y-49853368D01*
X188906632Y-49646525D01*
X188732240Y-49530000D01*
X188906632Y-49413475D01*
X189113475Y-49206632D01*
X189275990Y-48963411D01*
X189387932Y-48693158D01*
X189445000Y-48406260D01*
X189445000Y-48113740D01*
X189387932Y-47826842D01*
X189275990Y-47556589D01*
X189113475Y-47313368D01*
X188906632Y-47106525D01*
X188732240Y-46990000D01*
X188906632Y-46873475D01*
X189113475Y-46666632D01*
X189275990Y-46423411D01*
X189387932Y-46153158D01*
X189445000Y-45866260D01*
X189445000Y-45573740D01*
X189387932Y-45286842D01*
X189275990Y-45016589D01*
X189113475Y-44773368D01*
X188906632Y-44566525D01*
X188732240Y-44450000D01*
X188906632Y-44333475D01*
X189113475Y-44126632D01*
X189275990Y-43883411D01*
X189387932Y-43613158D01*
X189445000Y-43326260D01*
X189445000Y-43033740D01*
X189387932Y-42746842D01*
X189275990Y-42476589D01*
X189113475Y-42233368D01*
X188906632Y-42026525D01*
X188732240Y-41910000D01*
X188906632Y-41793475D01*
X189113475Y-41586632D01*
X189275990Y-41343411D01*
X189387932Y-41073158D01*
X189445000Y-40786260D01*
X189445000Y-40493740D01*
X189387932Y-40206842D01*
X189275990Y-39936589D01*
X189113475Y-39693368D01*
X188981620Y-39561513D01*
X189054180Y-39539502D01*
X189164494Y-39480537D01*
X189261185Y-39401185D01*
X189340537Y-39304494D01*
X189399502Y-39194180D01*
X189435812Y-39074482D01*
X189448072Y-38950000D01*
X191551928Y-38950000D01*
X191564188Y-39074482D01*
X191600498Y-39194180D01*
X191659463Y-39304494D01*
X191738815Y-39401185D01*
X191835506Y-39480537D01*
X191945820Y-39539502D01*
X192065518Y-39575812D01*
X192190000Y-39588072D01*
X192754250Y-39585000D01*
X192913000Y-39426250D01*
X192913000Y-38227000D01*
X193167000Y-38227000D01*
X193167000Y-39426250D01*
X193325750Y-39585000D01*
X193890000Y-39588072D01*
X194014482Y-39575812D01*
X194134180Y-39539502D01*
X194244494Y-39480537D01*
X194341185Y-39401185D01*
X194420537Y-39304494D01*
X194479502Y-39194180D01*
X194515812Y-39074482D01*
X194528072Y-38950000D01*
X194525000Y-38385750D01*
X194366250Y-38227000D01*
X193167000Y-38227000D01*
X192913000Y-38227000D01*
X191713750Y-38227000D01*
X191555000Y-38385750D01*
X191551928Y-38950000D01*
X189448072Y-38950000D01*
X189448072Y-37250000D01*
X191551928Y-37250000D01*
X191555000Y-37814250D01*
X191713750Y-37973000D01*
X192913000Y-37973000D01*
X192913000Y-36773750D01*
X193167000Y-36773750D01*
X193167000Y-37973000D01*
X194366250Y-37973000D01*
X194525000Y-37814250D01*
X194528072Y-37250000D01*
X194515812Y-37125518D01*
X194479502Y-37005820D01*
X194420537Y-36895506D01*
X194341185Y-36798815D01*
X194244494Y-36719463D01*
X194134180Y-36660498D01*
X194014482Y-36624188D01*
X193890000Y-36611928D01*
X193325750Y-36615000D01*
X193167000Y-36773750D01*
X192913000Y-36773750D01*
X192754250Y-36615000D01*
X192190000Y-36611928D01*
X192065518Y-36624188D01*
X191945820Y-36660498D01*
X191835506Y-36719463D01*
X191738815Y-36798815D01*
X191659463Y-36895506D01*
X191600498Y-37005820D01*
X191564188Y-37125518D01*
X191551928Y-37250000D01*
X189448072Y-37250000D01*
X189435812Y-37125518D01*
X189399502Y-37005820D01*
X189340537Y-36895506D01*
X189261185Y-36798815D01*
X189164494Y-36719463D01*
X189054180Y-36660498D01*
X188934482Y-36624188D01*
X188810000Y-36611928D01*
X187110000Y-36611928D01*
X186985518Y-36624188D01*
X186865820Y-36660498D01*
X186755506Y-36719463D01*
X186658815Y-36798815D01*
X186579463Y-36895506D01*
X186520498Y-37005820D01*
X186484188Y-37125518D01*
X186471928Y-37250000D01*
X156428072Y-37250000D01*
X156415812Y-37125518D01*
X156379502Y-37005820D01*
X156320537Y-36895506D01*
X156241185Y-36798815D01*
X156144494Y-36719463D01*
X156034180Y-36660498D01*
X155914482Y-36624188D01*
X155790000Y-36611928D01*
X154090000Y-36611928D01*
X153965518Y-36624188D01*
X153845820Y-36660498D01*
X153735506Y-36719463D01*
X153638815Y-36798815D01*
X153559463Y-36895506D01*
X153500498Y-37005820D01*
X153464188Y-37125518D01*
X153451928Y-37250000D01*
X151348072Y-37250000D01*
X151335812Y-37125518D01*
X151299502Y-37005820D01*
X151240537Y-36895506D01*
X151161185Y-36798815D01*
X151064494Y-36719463D01*
X150954180Y-36660498D01*
X150834482Y-36624188D01*
X150710000Y-36611928D01*
X150145750Y-36615000D01*
X149987000Y-36773750D01*
X149733000Y-36773750D01*
X149574250Y-36615000D01*
X149010000Y-36611928D01*
X148885518Y-36624188D01*
X148765820Y-36660498D01*
X148655506Y-36719463D01*
X148558815Y-36798815D01*
X148479463Y-36895506D01*
X148420498Y-37005820D01*
X148384188Y-37125518D01*
X148371928Y-37250000D01*
X147980000Y-37250000D01*
X147980000Y-36862279D01*
X147994722Y-36712131D01*
X148028953Y-36598754D01*
X148084555Y-36494181D01*
X148159407Y-36402404D01*
X148250664Y-36326909D01*
X148354844Y-36270581D01*
X148467976Y-36235560D01*
X148616022Y-36220000D01*
X194277721Y-36220000D01*
X194427869Y-36234722D01*
%TA.AperFunction,Conductor*%
D16*
G36*
X194427869Y-36234722D02*
G01*
X194541246Y-36268953D01*
X194645819Y-36324555D01*
X194737596Y-36399407D01*
X194813091Y-36490664D01*
X194869419Y-36594844D01*
X194904440Y-36707976D01*
X194920000Y-36856022D01*
X194920001Y-42906618D01*
X192596236Y-45230384D01*
X192571052Y-45251052D01*
X192550386Y-45276234D01*
X192488575Y-45351550D01*
X192467694Y-45390617D01*
X192427290Y-45466208D01*
X192389550Y-45590618D01*
X192380000Y-45687582D01*
X192380000Y-45687591D01*
X192376808Y-45720000D01*
X192380000Y-45752409D01*
X192380001Y-76167581D01*
X192376808Y-76200000D01*
X192380001Y-76232418D01*
X192380001Y-76232419D01*
X192389551Y-76329383D01*
X192394671Y-76346260D01*
X192427290Y-76453792D01*
X192488575Y-76568450D01*
X192550386Y-76643766D01*
X192550388Y-76643768D01*
X192571053Y-76668948D01*
X192596232Y-76689612D01*
X194920000Y-79013381D01*
X194920001Y-85057711D01*
X194905278Y-85207869D01*
X194871047Y-85321246D01*
X194815446Y-85425817D01*
X194740594Y-85517595D01*
X194649335Y-85593091D01*
X194545160Y-85649419D01*
X194432024Y-85684440D01*
X194283979Y-85700000D01*
X148622279Y-85700000D01*
X148472131Y-85685278D01*
X148358754Y-85651047D01*
X148254183Y-85595446D01*
X148162405Y-85520594D01*
X148086909Y-85429335D01*
X148030581Y-85325160D01*
X147995560Y-85212024D01*
X147980000Y-85063979D01*
X147980000Y-84670000D01*
X148371928Y-84670000D01*
X148384188Y-84794482D01*
X148420498Y-84914180D01*
X148479463Y-85024494D01*
X148558815Y-85121185D01*
X148655506Y-85200537D01*
X148765820Y-85259502D01*
X148885518Y-85295812D01*
X149010000Y-85308072D01*
X149574250Y-85305000D01*
X149733000Y-85146250D01*
X149733000Y-83947000D01*
X149987000Y-83947000D01*
X149987000Y-85146250D01*
X150145750Y-85305000D01*
X150710000Y-85308072D01*
X150834482Y-85295812D01*
X150954180Y-85259502D01*
X151064494Y-85200537D01*
X151161185Y-85121185D01*
X151240537Y-85024494D01*
X151299502Y-84914180D01*
X151335812Y-84794482D01*
X151348072Y-84670000D01*
X151345000Y-84105750D01*
X151186250Y-83947000D01*
X149987000Y-83947000D01*
X149733000Y-83947000D01*
X148533750Y-83947000D01*
X148375000Y-84105750D01*
X148371928Y-84670000D01*
X147980000Y-84670000D01*
X147980000Y-82970000D01*
X148371928Y-82970000D01*
X148375000Y-83534250D01*
X148533750Y-83693000D01*
X149733000Y-83693000D01*
X149733000Y-82493750D01*
X149987000Y-82493750D01*
X149987000Y-83693000D01*
X151186250Y-83693000D01*
X151345000Y-83534250D01*
X151348072Y-82970000D01*
X151335812Y-82845518D01*
X151299502Y-82725820D01*
X151240537Y-82615506D01*
X151161185Y-82518815D01*
X151064494Y-82439463D01*
X150954180Y-82380498D01*
X150834482Y-82344188D01*
X150710000Y-82331928D01*
X150145750Y-82335000D01*
X149987000Y-82493750D01*
X149733000Y-82493750D01*
X149574250Y-82335000D01*
X149010000Y-82331928D01*
X148885518Y-82344188D01*
X148765820Y-82380498D01*
X148655506Y-82439463D01*
X148558815Y-82518815D01*
X148479463Y-82615506D01*
X148420498Y-82725820D01*
X148384188Y-82845518D01*
X148371928Y-82970000D01*
X147980000Y-82970000D01*
X147980000Y-79013380D01*
X150303770Y-76689611D01*
X150328948Y-76668948D01*
X150349615Y-76643766D01*
X150411424Y-76568451D01*
X150411425Y-76568450D01*
X150472710Y-76453793D01*
X150510450Y-76329383D01*
X150520000Y-76232419D01*
X150520000Y-76232410D01*
X150523192Y-76200001D01*
X150520000Y-76167592D01*
X150520000Y-65893740D01*
X153455000Y-65893740D01*
X153455000Y-66186260D01*
X153512068Y-66473158D01*
X153624010Y-66743411D01*
X153786525Y-66986632D01*
X153993368Y-67193475D01*
X154167760Y-67310000D01*
X153993368Y-67426525D01*
X153786525Y-67633368D01*
X153624010Y-67876589D01*
X153512068Y-68146842D01*
X153455000Y-68433740D01*
X153455000Y-68726260D01*
X153512068Y-69013158D01*
X153624010Y-69283411D01*
X153786525Y-69526632D01*
X153993368Y-69733475D01*
X154167760Y-69850000D01*
X153993368Y-69966525D01*
X153786525Y-70173368D01*
X153624010Y-70416589D01*
X153512068Y-70686842D01*
X153455000Y-70973740D01*
X153455000Y-71266260D01*
X153512068Y-71553158D01*
X153624010Y-71823411D01*
X153786525Y-72066632D01*
X153993368Y-72273475D01*
X154167760Y-72390000D01*
X153993368Y-72506525D01*
X153786525Y-72713368D01*
X153624010Y-72956589D01*
X153512068Y-73226842D01*
X153455000Y-73513740D01*
X153455000Y-73806260D01*
X153512068Y-74093158D01*
X153624010Y-74363411D01*
X153786525Y-74606632D01*
X153993368Y-74813475D01*
X154167760Y-74930000D01*
X153993368Y-75046525D01*
X153786525Y-75253368D01*
X153624010Y-75496589D01*
X153512068Y-75766842D01*
X153455000Y-76053740D01*
X153455000Y-76346260D01*
X153512068Y-76633158D01*
X153624010Y-76903411D01*
X153786525Y-77146632D01*
X153993368Y-77353475D01*
X154167760Y-77470000D01*
X153993368Y-77586525D01*
X153786525Y-77793368D01*
X153624010Y-78036589D01*
X153512068Y-78306842D01*
X153455000Y-78593740D01*
X153455000Y-78886260D01*
X153512068Y-79173158D01*
X153624010Y-79443411D01*
X153786525Y-79686632D01*
X153993368Y-79893475D01*
X154167760Y-80010000D01*
X153993368Y-80126525D01*
X153786525Y-80333368D01*
X153624010Y-80576589D01*
X153512068Y-80846842D01*
X153455000Y-81133740D01*
X153455000Y-81426260D01*
X153512068Y-81713158D01*
X153624010Y-81983411D01*
X153786525Y-82226632D01*
X153993368Y-82433475D01*
X154167760Y-82550000D01*
X153993368Y-82666525D01*
X153786525Y-82873368D01*
X153624010Y-83116589D01*
X153512068Y-83386842D01*
X153455000Y-83673740D01*
X153455000Y-83966260D01*
X153512068Y-84253158D01*
X153624010Y-84523411D01*
X153786525Y-84766632D01*
X153993368Y-84973475D01*
X154236589Y-85135990D01*
X154506842Y-85247932D01*
X154793740Y-85305000D01*
X155086260Y-85305000D01*
X155373158Y-85247932D01*
X155643411Y-85135990D01*
X155886632Y-84973475D01*
X156093475Y-84766632D01*
X156255990Y-84523411D01*
X156367932Y-84253158D01*
X156425000Y-83966260D01*
X156425000Y-83673740D01*
X156367932Y-83386842D01*
X156255990Y-83116589D01*
X156093475Y-82873368D01*
X155886632Y-82666525D01*
X155712240Y-82550000D01*
X155886632Y-82433475D01*
X156093475Y-82226632D01*
X156255990Y-81983411D01*
X156367932Y-81713158D01*
X156425000Y-81426260D01*
X156425000Y-81133740D01*
X156367932Y-80846842D01*
X156255990Y-80576589D01*
X156158043Y-80430000D01*
X158531928Y-80430000D01*
X158531928Y-82130000D01*
X158544188Y-82254482D01*
X158580498Y-82374180D01*
X158639463Y-82484494D01*
X158718815Y-82581185D01*
X158815506Y-82660537D01*
X158925820Y-82719502D01*
X159045518Y-82755812D01*
X159170000Y-82768072D01*
X160870000Y-82768072D01*
X160994482Y-82755812D01*
X161114180Y-82719502D01*
X161224494Y-82660537D01*
X161321185Y-82581185D01*
X161400537Y-82484494D01*
X161459502Y-82374180D01*
X161481513Y-82301620D01*
X161613368Y-82433475D01*
X161856589Y-82595990D01*
X162126842Y-82707932D01*
X162413740Y-82765000D01*
X162706260Y-82765000D01*
X162993158Y-82707932D01*
X163263411Y-82595990D01*
X163506632Y-82433475D01*
X163713475Y-82226632D01*
X163830000Y-82052240D01*
X163946525Y-82226632D01*
X164153368Y-82433475D01*
X164396589Y-82595990D01*
X164666842Y-82707932D01*
X164953740Y-82765000D01*
X165246260Y-82765000D01*
X165533158Y-82707932D01*
X165803411Y-82595990D01*
X166046632Y-82433475D01*
X166253475Y-82226632D01*
X166370000Y-82052240D01*
X166486525Y-82226632D01*
X166693368Y-82433475D01*
X166936589Y-82595990D01*
X167206842Y-82707932D01*
X167493740Y-82765000D01*
X167786260Y-82765000D01*
X168073158Y-82707932D01*
X168343411Y-82595990D01*
X168586632Y-82433475D01*
X168793475Y-82226632D01*
X168910000Y-82052240D01*
X169026525Y-82226632D01*
X169233368Y-82433475D01*
X169476589Y-82595990D01*
X169746842Y-82707932D01*
X170033740Y-82765000D01*
X170326260Y-82765000D01*
X170613158Y-82707932D01*
X170883411Y-82595990D01*
X171126632Y-82433475D01*
X171333475Y-82226632D01*
X171455195Y-82044466D01*
X171524822Y-82161355D01*
X171719731Y-82377588D01*
X171953080Y-82551641D01*
X172215901Y-82676825D01*
X172363110Y-82721476D01*
X172593000Y-82600155D01*
X172593000Y-81407000D01*
X172573000Y-81407000D01*
X172573000Y-81153000D01*
X172593000Y-81153000D01*
X172593000Y-79959845D01*
X172363110Y-79838524D01*
X172215901Y-79883175D01*
X171953080Y-80008359D01*
X171719731Y-80182412D01*
X171524822Y-80398645D01*
X171455195Y-80515534D01*
X171333475Y-80333368D01*
X171126632Y-80126525D01*
X170883411Y-79964010D01*
X170613158Y-79852068D01*
X170326260Y-79795000D01*
X170033740Y-79795000D01*
X169746842Y-79852068D01*
X169476589Y-79964010D01*
X169233368Y-80126525D01*
X169026525Y-80333368D01*
X168910000Y-80507760D01*
X168793475Y-80333368D01*
X168586632Y-80126525D01*
X168343411Y-79964010D01*
X168073158Y-79852068D01*
X167786260Y-79795000D01*
X167493740Y-79795000D01*
X167206842Y-79852068D01*
X166936589Y-79964010D01*
X166693368Y-80126525D01*
X166486525Y-80333368D01*
X166370000Y-80507760D01*
X166253475Y-80333368D01*
X166046632Y-80126525D01*
X165803411Y-79964010D01*
X165533158Y-79852068D01*
X165246260Y-79795000D01*
X164953740Y-79795000D01*
X164666842Y-79852068D01*
X164396589Y-79964010D01*
X164153368Y-80126525D01*
X163946525Y-80333368D01*
X163830000Y-80507760D01*
X163713475Y-80333368D01*
X163506632Y-80126525D01*
X163263411Y-79964010D01*
X162993158Y-79852068D01*
X162706260Y-79795000D01*
X162413740Y-79795000D01*
X162126842Y-79852068D01*
X161856589Y-79964010D01*
X161613368Y-80126525D01*
X161481513Y-80258380D01*
X161459502Y-80185820D01*
X161400537Y-80075506D01*
X161321185Y-79978815D01*
X161224494Y-79899463D01*
X161114180Y-79840498D01*
X160994482Y-79804188D01*
X160870000Y-79791928D01*
X159170000Y-79791928D01*
X159045518Y-79804188D01*
X158925820Y-79840498D01*
X158815506Y-79899463D01*
X158718815Y-79978815D01*
X158639463Y-80075506D01*
X158580498Y-80185820D01*
X158544188Y-80305518D01*
X158531928Y-80430000D01*
X156158043Y-80430000D01*
X156093475Y-80333368D01*
X155886632Y-80126525D01*
X155712240Y-80010000D01*
X155886632Y-79893475D01*
X156093475Y-79686632D01*
X156255990Y-79443411D01*
X156367932Y-79173158D01*
X156425000Y-78886260D01*
X156425000Y-78593740D01*
X156367932Y-78306842D01*
X156255990Y-78036589D01*
X156093475Y-77793368D01*
X155886632Y-77586525D01*
X155712240Y-77470000D01*
X155886632Y-77353475D01*
X156093475Y-77146632D01*
X156255990Y-76903411D01*
X156367932Y-76633158D01*
X156425000Y-76346260D01*
X156425000Y-76053740D01*
X156367932Y-75766842D01*
X156255990Y-75496589D01*
X156093475Y-75253368D01*
X155886632Y-75046525D01*
X155712240Y-74930000D01*
X155886632Y-74813475D01*
X156093475Y-74606632D01*
X156255990Y-74363411D01*
X156367932Y-74093158D01*
X156425000Y-73806260D01*
X156425000Y-73513740D01*
X156367932Y-73226842D01*
X156255990Y-72956589D01*
X156093475Y-72713368D01*
X155886632Y-72506525D01*
X155712240Y-72390000D01*
X155886632Y-72273475D01*
X156093475Y-72066632D01*
X156255990Y-71823411D01*
X156367932Y-71553158D01*
X156425000Y-71266260D01*
X156425000Y-70973740D01*
X156367932Y-70686842D01*
X156255990Y-70416589D01*
X156093475Y-70173368D01*
X155886632Y-69966525D01*
X155712240Y-69850000D01*
X155886632Y-69733475D01*
X156093475Y-69526632D01*
X156255990Y-69283411D01*
X156367932Y-69013158D01*
X156425000Y-68726260D01*
X156425000Y-68433740D01*
X156367932Y-68146842D01*
X156255990Y-67876589D01*
X156093475Y-67633368D01*
X155886632Y-67426525D01*
X155712240Y-67310000D01*
X155886632Y-67193475D01*
X156093475Y-66986632D01*
X156255990Y-66743411D01*
X156367932Y-66473158D01*
X156425000Y-66186260D01*
X156425000Y-65893740D01*
X156367932Y-65606842D01*
X156294708Y-65430061D01*
X163684000Y-65430061D01*
X163684000Y-65633939D01*
X163723774Y-65833898D01*
X163801795Y-66022256D01*
X163915063Y-66191774D01*
X164059226Y-66335937D01*
X164228744Y-66449205D01*
X164417102Y-66527226D01*
X164617061Y-66567000D01*
X164820939Y-66567000D01*
X165020898Y-66527226D01*
X165209256Y-66449205D01*
X165378774Y-66335937D01*
X165522937Y-66191774D01*
X165636205Y-66022256D01*
X165714226Y-65833898D01*
X165754000Y-65633939D01*
X165754000Y-65430061D01*
X165714226Y-65230102D01*
X165636205Y-65041744D01*
X165522937Y-64872226D01*
X165378774Y-64728063D01*
X165209256Y-64614795D01*
X165020898Y-64536774D01*
X164820939Y-64497000D01*
X164617061Y-64497000D01*
X164417102Y-64536774D01*
X164228744Y-64614795D01*
X164059226Y-64728063D01*
X163915063Y-64872226D01*
X163801795Y-65041744D01*
X163723774Y-65230102D01*
X163684000Y-65430061D01*
X156294708Y-65430061D01*
X156255990Y-65336589D01*
X156093475Y-65093368D01*
X155886632Y-64886525D01*
X155704466Y-64764805D01*
X155821355Y-64695178D01*
X156037588Y-64500269D01*
X156211641Y-64266920D01*
X156336825Y-64004099D01*
X156381476Y-63856890D01*
X156260155Y-63627000D01*
X155067000Y-63627000D01*
X155067000Y-63647000D01*
X154813000Y-63647000D01*
X154813000Y-63627000D01*
X153619845Y-63627000D01*
X153498524Y-63856890D01*
X153543175Y-64004099D01*
X153668359Y-64266920D01*
X153842412Y-64500269D01*
X154058645Y-64695178D01*
X154175534Y-64764805D01*
X153993368Y-64886525D01*
X153786525Y-65093368D01*
X153624010Y-65336589D01*
X153512068Y-65606842D01*
X153455000Y-65893740D01*
X150520000Y-65893740D01*
X150520000Y-53193740D01*
X153455000Y-53193740D01*
X153455000Y-53486260D01*
X153512068Y-53773158D01*
X153624010Y-54043411D01*
X153786525Y-54286632D01*
X153993368Y-54493475D01*
X154167760Y-54610000D01*
X153993368Y-54726525D01*
X153786525Y-54933368D01*
X153624010Y-55176589D01*
X153512068Y-55446842D01*
X153455000Y-55733740D01*
X153455000Y-56026260D01*
X153512068Y-56313158D01*
X153624010Y-56583411D01*
X153786525Y-56826632D01*
X153993368Y-57033475D01*
X154167760Y-57150000D01*
X153993368Y-57266525D01*
X153786525Y-57473368D01*
X153624010Y-57716589D01*
X153512068Y-57986842D01*
X153455000Y-58273740D01*
X153455000Y-58566260D01*
X153512068Y-58853158D01*
X153624010Y-59123411D01*
X153786525Y-59366632D01*
X153993368Y-59573475D01*
X154167760Y-59690000D01*
X153993368Y-59806525D01*
X153786525Y-60013368D01*
X153624010Y-60256589D01*
X153512068Y-60526842D01*
X153455000Y-60813740D01*
X153455000Y-61106260D01*
X153512068Y-61393158D01*
X153624010Y-61663411D01*
X153786525Y-61906632D01*
X153993368Y-62113475D01*
X154175534Y-62235195D01*
X154058645Y-62304822D01*
X153842412Y-62499731D01*
X153668359Y-62733080D01*
X153543175Y-62995901D01*
X153498524Y-63143110D01*
X153619845Y-63373000D01*
X154813000Y-63373000D01*
X154813000Y-63353000D01*
X155067000Y-63353000D01*
X155067000Y-63373000D01*
X156260155Y-63373000D01*
X156381476Y-63143110D01*
X156336825Y-62995901D01*
X156211641Y-62733080D01*
X156037588Y-62499731D01*
X155821355Y-62304822D01*
X155704466Y-62235195D01*
X155886632Y-62113475D01*
X156093475Y-61906632D01*
X156255990Y-61663411D01*
X156367932Y-61393158D01*
X156425000Y-61106260D01*
X156425000Y-60813740D01*
X156367932Y-60526842D01*
X156255990Y-60256589D01*
X156093475Y-60013368D01*
X155886632Y-59806525D01*
X155712240Y-59690000D01*
X155886632Y-59573475D01*
X156093475Y-59366632D01*
X156255990Y-59123411D01*
X156367932Y-58853158D01*
X156425000Y-58566260D01*
X156425000Y-58273740D01*
X156367932Y-57986842D01*
X156255990Y-57716589D01*
X156093475Y-57473368D01*
X155886632Y-57266525D01*
X155712240Y-57150000D01*
X155886632Y-57033475D01*
X156093475Y-56826632D01*
X156255990Y-56583411D01*
X156367932Y-56313158D01*
X156425000Y-56026260D01*
X156425000Y-55733740D01*
X156367932Y-55446842D01*
X156255990Y-55176589D01*
X156093475Y-54933368D01*
X155886632Y-54726525D01*
X155712240Y-54610000D01*
X155886632Y-54493475D01*
X156093475Y-54286632D01*
X156255990Y-54043411D01*
X156367932Y-53773158D01*
X156425000Y-53486260D01*
X156425000Y-53193740D01*
X156367932Y-52906842D01*
X156255990Y-52636589D01*
X156093475Y-52393368D01*
X155886632Y-52186525D01*
X155704466Y-52064805D01*
X155821355Y-51995178D01*
X156037588Y-51800269D01*
X156211641Y-51566920D01*
X156336825Y-51304099D01*
X156381476Y-51156890D01*
X156260155Y-50927000D01*
X155067000Y-50927000D01*
X155067000Y-50947000D01*
X154813000Y-50947000D01*
X154813000Y-50927000D01*
X153619845Y-50927000D01*
X153498524Y-51156890D01*
X153543175Y-51304099D01*
X153668359Y-51566920D01*
X153842412Y-51800269D01*
X154058645Y-51995178D01*
X154175534Y-52064805D01*
X153993368Y-52186525D01*
X153786525Y-52393368D01*
X153624010Y-52636589D01*
X153512068Y-52906842D01*
X153455000Y-53193740D01*
X150520000Y-53193740D01*
X150520000Y-45752408D01*
X150523192Y-45719999D01*
X150520000Y-45687590D01*
X150520000Y-45687581D01*
X150510450Y-45590617D01*
X150472710Y-45466207D01*
X150411425Y-45351550D01*
X150358320Y-45286842D01*
X150349613Y-45276232D01*
X150349612Y-45276231D01*
X150328948Y-45251052D01*
X150303769Y-45230388D01*
X149943381Y-44870000D01*
X153451928Y-44870000D01*
X153451928Y-46570000D01*
X153464188Y-46694482D01*
X153500498Y-46814180D01*
X153559463Y-46924494D01*
X153638815Y-47021185D01*
X153735506Y-47100537D01*
X153845820Y-47159502D01*
X153918380Y-47181513D01*
X153786525Y-47313368D01*
X153624010Y-47556589D01*
X153512068Y-47826842D01*
X153455000Y-48113740D01*
X153455000Y-48406260D01*
X153512068Y-48693158D01*
X153624010Y-48963411D01*
X153786525Y-49206632D01*
X153993368Y-49413475D01*
X154175534Y-49535195D01*
X154058645Y-49604822D01*
X153842412Y-49799731D01*
X153668359Y-50033080D01*
X153543175Y-50295901D01*
X153498524Y-50443110D01*
X153619845Y-50673000D01*
X154813000Y-50673000D01*
X154813000Y-50653000D01*
X155067000Y-50653000D01*
X155067000Y-50673000D01*
X156260155Y-50673000D01*
X156381476Y-50443110D01*
X156336825Y-50295901D01*
X156211641Y-50033080D01*
X156037588Y-49799731D01*
X155821355Y-49604822D01*
X155704466Y-49535195D01*
X155886632Y-49413475D01*
X156093475Y-49206632D01*
X156255990Y-48963411D01*
X156367932Y-48693158D01*
X156425000Y-48406260D01*
X156425000Y-48113740D01*
X156367932Y-47826842D01*
X156255990Y-47556589D01*
X156093475Y-47313368D01*
X155961620Y-47181513D01*
X156034180Y-47159502D01*
X156144494Y-47100537D01*
X156241185Y-47021185D01*
X156320537Y-46924494D01*
X156379502Y-46814180D01*
X156415812Y-46694482D01*
X156428072Y-46570000D01*
X156428072Y-46370212D01*
X159393000Y-46370212D01*
X159393000Y-46593788D01*
X159436617Y-46813067D01*
X159522176Y-47019624D01*
X159646388Y-47205520D01*
X159804480Y-47363612D01*
X159990376Y-47487824D01*
X160196933Y-47573383D01*
X160416212Y-47617000D01*
X160639788Y-47617000D01*
X160859067Y-47573383D01*
X161065624Y-47487824D01*
X161251520Y-47363612D01*
X161409612Y-47205520D01*
X161533824Y-47019624D01*
X161619383Y-46813067D01*
X161663000Y-46593788D01*
X161663000Y-46370212D01*
X163584000Y-46370212D01*
X163584000Y-46593788D01*
X163627617Y-46813067D01*
X163713176Y-47019624D01*
X163837388Y-47205520D01*
X163995480Y-47363612D01*
X164181376Y-47487824D01*
X164387933Y-47573383D01*
X164607212Y-47617000D01*
X164830788Y-47617000D01*
X165050067Y-47573383D01*
X165256624Y-47487824D01*
X165442520Y-47363612D01*
X165600612Y-47205520D01*
X165724824Y-47019624D01*
X165810383Y-46813067D01*
X165850974Y-46609000D01*
X167386000Y-46609000D01*
X167386000Y-52705000D01*
X167388440Y-52729776D01*
X167395667Y-52753601D01*
X167407403Y-52775557D01*
X167423197Y-52794803D01*
X167442443Y-52810597D01*
X167464399Y-52822333D01*
X167488224Y-52829560D01*
X167513000Y-52832000D01*
X170434000Y-52832000D01*
X170434000Y-58166000D01*
X170436440Y-58190776D01*
X170443667Y-58214601D01*
X170455403Y-58236557D01*
X170471197Y-58255803D01*
X170490443Y-58271597D01*
X170512399Y-58283333D01*
X170536224Y-58290560D01*
X170561000Y-58293000D01*
X171622868Y-58293000D01*
X171584388Y-58331480D01*
X171460176Y-58517376D01*
X171374617Y-58723933D01*
X171331000Y-58943212D01*
X171331000Y-59166788D01*
X171374617Y-59386067D01*
X171460176Y-59592624D01*
X171581001Y-59773451D01*
X171581000Y-68155531D01*
X171576719Y-68199000D01*
X171581000Y-68242469D01*
X171581000Y-68242476D01*
X171593805Y-68372489D01*
X171644411Y-68539312D01*
X171726589Y-68693058D01*
X171837183Y-68827817D01*
X171870956Y-68855534D01*
X179460465Y-76445044D01*
X179471774Y-76501898D01*
X179549795Y-76690256D01*
X179663063Y-76859774D01*
X179807226Y-77003937D01*
X179976744Y-77117205D01*
X180165102Y-77195226D01*
X180365061Y-77235000D01*
X180568939Y-77235000D01*
X180768898Y-77195226D01*
X180957256Y-77117205D01*
X181126774Y-77003937D01*
X181270937Y-76859774D01*
X181384205Y-76690256D01*
X181462226Y-76501898D01*
X181502000Y-76301939D01*
X181502000Y-76098061D01*
X181462226Y-75898102D01*
X181384205Y-75709744D01*
X181270937Y-75540226D01*
X181126774Y-75396063D01*
X180957256Y-75282795D01*
X180768898Y-75204774D01*
X180712044Y-75193465D01*
X173351000Y-67832422D01*
X173351000Y-64239578D01*
X184281000Y-75169579D01*
X184281001Y-80781824D01*
X184195990Y-80576589D01*
X184033475Y-80333368D01*
X183826632Y-80126525D01*
X183583411Y-79964010D01*
X183313158Y-79852068D01*
X183026260Y-79795000D01*
X182733740Y-79795000D01*
X182446842Y-79852068D01*
X182176589Y-79964010D01*
X181933368Y-80126525D01*
X181726525Y-80333368D01*
X181610000Y-80507760D01*
X181493475Y-80333368D01*
X181286632Y-80126525D01*
X181043411Y-79964010D01*
X180773158Y-79852068D01*
X180486260Y-79795000D01*
X180193740Y-79795000D01*
X179906842Y-79852068D01*
X179636589Y-79964010D01*
X179393368Y-80126525D01*
X179186525Y-80333368D01*
X179070000Y-80507760D01*
X178953475Y-80333368D01*
X178746632Y-80126525D01*
X178503411Y-79964010D01*
X178233158Y-79852068D01*
X177946260Y-79795000D01*
X177653740Y-79795000D01*
X177366842Y-79852068D01*
X177096589Y-79964010D01*
X176853368Y-80126525D01*
X176646525Y-80333368D01*
X176530000Y-80507760D01*
X176413475Y-80333368D01*
X176206632Y-80126525D01*
X175963411Y-79964010D01*
X175693158Y-79852068D01*
X175406260Y-79795000D01*
X175113740Y-79795000D01*
X174826842Y-79852068D01*
X174556589Y-79964010D01*
X174313368Y-80126525D01*
X174106525Y-80333368D01*
X173984805Y-80515534D01*
X173915178Y-80398645D01*
X173720269Y-80182412D01*
X173486920Y-80008359D01*
X173224099Y-79883175D01*
X173076890Y-79838524D01*
X172847000Y-79959845D01*
X172847000Y-81153000D01*
X172867000Y-81153000D01*
X172867000Y-81407000D01*
X172847000Y-81407000D01*
X172847000Y-82600155D01*
X173076890Y-82721476D01*
X173224099Y-82676825D01*
X173486920Y-82551641D01*
X173720269Y-82377588D01*
X173915178Y-82161355D01*
X173984805Y-82044466D01*
X174106525Y-82226632D01*
X174313368Y-82433475D01*
X174556589Y-82595990D01*
X174826842Y-82707932D01*
X175113740Y-82765000D01*
X175406260Y-82765000D01*
X175693158Y-82707932D01*
X175963411Y-82595990D01*
X176206632Y-82433475D01*
X176413475Y-82226632D01*
X176530000Y-82052240D01*
X176646525Y-82226632D01*
X176853368Y-82433475D01*
X177096589Y-82595990D01*
X177366842Y-82707932D01*
X177653740Y-82765000D01*
X177946260Y-82765000D01*
X178233158Y-82707932D01*
X178503411Y-82595990D01*
X178746632Y-82433475D01*
X178953475Y-82226632D01*
X179070000Y-82052240D01*
X179186525Y-82226632D01*
X179393368Y-82433475D01*
X179636589Y-82595990D01*
X179906842Y-82707932D01*
X180193740Y-82765000D01*
X180486260Y-82765000D01*
X180773158Y-82707932D01*
X181043411Y-82595990D01*
X181286632Y-82433475D01*
X181493475Y-82226632D01*
X181610000Y-82052240D01*
X181726525Y-82226632D01*
X181933368Y-82433475D01*
X182176589Y-82595990D01*
X182446842Y-82707932D01*
X182733740Y-82765000D01*
X183026260Y-82765000D01*
X183313158Y-82707932D01*
X183583411Y-82595990D01*
X183826632Y-82433475D01*
X184033475Y-82226632D01*
X184195990Y-81983411D01*
X184281001Y-81778176D01*
X184281001Y-83355549D01*
X184160176Y-83536376D01*
X184074617Y-83742933D01*
X184031000Y-83962212D01*
X184031000Y-84185788D01*
X184074617Y-84405067D01*
X184160176Y-84611624D01*
X184284388Y-84797520D01*
X184442480Y-84955612D01*
X184628376Y-85079824D01*
X184834933Y-85165383D01*
X185054212Y-85209000D01*
X185277788Y-85209000D01*
X185497067Y-85165383D01*
X185703624Y-85079824D01*
X185889520Y-84955612D01*
X186047612Y-84797520D01*
X186171824Y-84611624D01*
X186257383Y-84405067D01*
X186301000Y-84185788D01*
X186301000Y-83962212D01*
X186257383Y-83742933D01*
X186171824Y-83536376D01*
X186051000Y-83355550D01*
X186051000Y-78593740D01*
X186475000Y-78593740D01*
X186475000Y-78886260D01*
X186532068Y-79173158D01*
X186644010Y-79443411D01*
X186806525Y-79686632D01*
X187013368Y-79893475D01*
X187187760Y-80010000D01*
X187013368Y-80126525D01*
X186806525Y-80333368D01*
X186644010Y-80576589D01*
X186532068Y-80846842D01*
X186475000Y-81133740D01*
X186475000Y-81426260D01*
X186532068Y-81713158D01*
X186644010Y-81983411D01*
X186806525Y-82226632D01*
X187013368Y-82433475D01*
X187187760Y-82550000D01*
X187013368Y-82666525D01*
X186806525Y-82873368D01*
X186644010Y-83116589D01*
X186532068Y-83386842D01*
X186475000Y-83673740D01*
X186475000Y-83966260D01*
X186532068Y-84253158D01*
X186644010Y-84523411D01*
X186806525Y-84766632D01*
X187013368Y-84973475D01*
X187256589Y-85135990D01*
X187526842Y-85247932D01*
X187813740Y-85305000D01*
X188106260Y-85305000D01*
X188393158Y-85247932D01*
X188663411Y-85135990D01*
X188906632Y-84973475D01*
X189113475Y-84766632D01*
X189178042Y-84670000D01*
X191551928Y-84670000D01*
X191564188Y-84794482D01*
X191600498Y-84914180D01*
X191659463Y-85024494D01*
X191738815Y-85121185D01*
X191835506Y-85200537D01*
X191945820Y-85259502D01*
X192065518Y-85295812D01*
X192190000Y-85308072D01*
X192754250Y-85305000D01*
X192913000Y-85146250D01*
X192913000Y-83947000D01*
X193167000Y-83947000D01*
X193167000Y-85146250D01*
X193325750Y-85305000D01*
X193890000Y-85308072D01*
X194014482Y-85295812D01*
X194134180Y-85259502D01*
X194244494Y-85200537D01*
X194341185Y-85121185D01*
X194420537Y-85024494D01*
X194479502Y-84914180D01*
X194515812Y-84794482D01*
X194528072Y-84670000D01*
X194525000Y-84105750D01*
X194366250Y-83947000D01*
X193167000Y-83947000D01*
X192913000Y-83947000D01*
X191713750Y-83947000D01*
X191555000Y-84105750D01*
X191551928Y-84670000D01*
X189178042Y-84670000D01*
X189275990Y-84523411D01*
X189387932Y-84253158D01*
X189445000Y-83966260D01*
X189445000Y-83673740D01*
X189387932Y-83386842D01*
X189275990Y-83116589D01*
X189178043Y-82970000D01*
X191551928Y-82970000D01*
X191555000Y-83534250D01*
X191713750Y-83693000D01*
X192913000Y-83693000D01*
X192913000Y-82493750D01*
X193167000Y-82493750D01*
X193167000Y-83693000D01*
X194366250Y-83693000D01*
X194525000Y-83534250D01*
X194528072Y-82970000D01*
X194515812Y-82845518D01*
X194479502Y-82725820D01*
X194420537Y-82615506D01*
X194341185Y-82518815D01*
X194244494Y-82439463D01*
X194134180Y-82380498D01*
X194014482Y-82344188D01*
X193890000Y-82331928D01*
X193325750Y-82335000D01*
X193167000Y-82493750D01*
X192913000Y-82493750D01*
X192754250Y-82335000D01*
X192190000Y-82331928D01*
X192065518Y-82344188D01*
X191945820Y-82380498D01*
X191835506Y-82439463D01*
X191738815Y-82518815D01*
X191659463Y-82615506D01*
X191600498Y-82725820D01*
X191564188Y-82845518D01*
X191551928Y-82970000D01*
X189178043Y-82970000D01*
X189113475Y-82873368D01*
X188906632Y-82666525D01*
X188732240Y-82550000D01*
X188906632Y-82433475D01*
X189113475Y-82226632D01*
X189275990Y-81983411D01*
X189387932Y-81713158D01*
X189445000Y-81426260D01*
X189445000Y-81133740D01*
X189387932Y-80846842D01*
X189275990Y-80576589D01*
X189113475Y-80333368D01*
X188906632Y-80126525D01*
X188732240Y-80010000D01*
X188906632Y-79893475D01*
X189113475Y-79686632D01*
X189275990Y-79443411D01*
X189387932Y-79173158D01*
X189445000Y-78886260D01*
X189445000Y-78593740D01*
X189387932Y-78306842D01*
X189275990Y-78036589D01*
X189113475Y-77793368D01*
X188906632Y-77586525D01*
X188724466Y-77464805D01*
X188841355Y-77395178D01*
X189057588Y-77200269D01*
X189231641Y-76966920D01*
X189356825Y-76704099D01*
X189401476Y-76556890D01*
X189280155Y-76327000D01*
X188087000Y-76327000D01*
X188087000Y-76347000D01*
X187833000Y-76347000D01*
X187833000Y-76327000D01*
X186639845Y-76327000D01*
X186518524Y-76556890D01*
X186563175Y-76704099D01*
X186688359Y-76966920D01*
X186862412Y-77200269D01*
X187078645Y-77395178D01*
X187195534Y-77464805D01*
X187013368Y-77586525D01*
X186806525Y-77793368D01*
X186644010Y-78036589D01*
X186532068Y-78306842D01*
X186475000Y-78593740D01*
X186051000Y-78593740D01*
X186051000Y-74846469D01*
X186055281Y-74803000D01*
X186051000Y-74759531D01*
X186051000Y-74759523D01*
X186038195Y-74629510D01*
X185987589Y-74462687D01*
X185905411Y-74308941D01*
X185794817Y-74174183D01*
X185761051Y-74146472D01*
X181884579Y-70270000D01*
X186471928Y-70270000D01*
X186471928Y-71970000D01*
X186484188Y-72094482D01*
X186520498Y-72214180D01*
X186579463Y-72324494D01*
X186658815Y-72421185D01*
X186755506Y-72500537D01*
X186865820Y-72559502D01*
X186938380Y-72581513D01*
X186806525Y-72713368D01*
X186644010Y-72956589D01*
X186532068Y-73226842D01*
X186475000Y-73513740D01*
X186475000Y-73806260D01*
X186532068Y-74093158D01*
X186644010Y-74363411D01*
X186806525Y-74606632D01*
X187013368Y-74813475D01*
X187195534Y-74935195D01*
X187078645Y-75004822D01*
X186862412Y-75199731D01*
X186688359Y-75433080D01*
X186563175Y-75695901D01*
X186518524Y-75843110D01*
X186639845Y-76073000D01*
X187833000Y-76073000D01*
X187833000Y-76053000D01*
X188087000Y-76053000D01*
X188087000Y-76073000D01*
X189280155Y-76073000D01*
X189401476Y-75843110D01*
X189356825Y-75695901D01*
X189231641Y-75433080D01*
X189057588Y-75199731D01*
X188841355Y-75004822D01*
X188724466Y-74935195D01*
X188906632Y-74813475D01*
X189113475Y-74606632D01*
X189275990Y-74363411D01*
X189387932Y-74093158D01*
X189445000Y-73806260D01*
X189445000Y-73513740D01*
X189387932Y-73226842D01*
X189275990Y-72956589D01*
X189113475Y-72713368D01*
X188981620Y-72581513D01*
X189054180Y-72559502D01*
X189164494Y-72500537D01*
X189261185Y-72421185D01*
X189340537Y-72324494D01*
X189399502Y-72214180D01*
X189435812Y-72094482D01*
X189448072Y-71970000D01*
X189448072Y-70270000D01*
X189435812Y-70145518D01*
X189399502Y-70025820D01*
X189340537Y-69915506D01*
X189261185Y-69818815D01*
X189164494Y-69739463D01*
X189054180Y-69680498D01*
X188934482Y-69644188D01*
X188810000Y-69631928D01*
X187110000Y-69631928D01*
X186985518Y-69644188D01*
X186865820Y-69680498D01*
X186755506Y-69739463D01*
X186658815Y-69818815D01*
X186579463Y-69915506D01*
X186520498Y-70025820D01*
X186484188Y-70145518D01*
X186471928Y-70270000D01*
X181884579Y-70270000D01*
X180465758Y-68851179D01*
X180618774Y-68748937D01*
X180762937Y-68604774D01*
X180876205Y-68435256D01*
X180954226Y-68246898D01*
X180994000Y-68046939D01*
X180994000Y-67960212D01*
X186825000Y-67960212D01*
X186825000Y-68183788D01*
X186868617Y-68403067D01*
X186954176Y-68609624D01*
X187078388Y-68795520D01*
X187236480Y-68953612D01*
X187422376Y-69077824D01*
X187628933Y-69163383D01*
X187848212Y-69207000D01*
X188071788Y-69207000D01*
X188291067Y-69163383D01*
X188497624Y-69077824D01*
X188683520Y-68953612D01*
X188841612Y-68795520D01*
X188965824Y-68609624D01*
X189051383Y-68403067D01*
X189095000Y-68183788D01*
X189095000Y-67960212D01*
X189051383Y-67740933D01*
X188965824Y-67534376D01*
X188841612Y-67348480D01*
X188683520Y-67190388D01*
X188497624Y-67066176D01*
X188291067Y-66980617D01*
X188071788Y-66937000D01*
X187848212Y-66937000D01*
X187628933Y-66980617D01*
X187422376Y-67066176D01*
X187236480Y-67190388D01*
X187078388Y-67348480D01*
X186954176Y-67534376D01*
X186868617Y-67740933D01*
X186825000Y-67960212D01*
X180994000Y-67960212D01*
X180994000Y-67843061D01*
X180954226Y-67643102D01*
X180876205Y-67454744D01*
X180762937Y-67285226D01*
X180618774Y-67141063D01*
X180449256Y-67027795D01*
X180260898Y-66949774D01*
X180060939Y-66910000D01*
X179857061Y-66910000D01*
X179657102Y-66949774D01*
X179468744Y-67027795D01*
X179299226Y-67141063D01*
X179155063Y-67285226D01*
X179052821Y-67438243D01*
X177775254Y-66160676D01*
X177847898Y-66146226D01*
X178036256Y-66068205D01*
X178205774Y-65954937D01*
X178349937Y-65810774D01*
X178463205Y-65641256D01*
X178541226Y-65452898D01*
X178581000Y-65252939D01*
X178581000Y-65049061D01*
X178541226Y-64849102D01*
X178463205Y-64660744D01*
X178349937Y-64491226D01*
X178205774Y-64347063D01*
X178036256Y-64233795D01*
X177847898Y-64155774D01*
X177647939Y-64116000D01*
X177444061Y-64116000D01*
X177244102Y-64155774D01*
X177055744Y-64233795D01*
X176886226Y-64347063D01*
X176742063Y-64491226D01*
X176628795Y-64660744D01*
X176550774Y-64849102D01*
X176536324Y-64921746D01*
X175471468Y-63856890D01*
X186518524Y-63856890D01*
X186563175Y-64004099D01*
X186688359Y-64266920D01*
X186862412Y-64500269D01*
X187078645Y-64695178D01*
X187328748Y-64844157D01*
X187603109Y-64941481D01*
X187833000Y-64820814D01*
X187833000Y-63627000D01*
X188087000Y-63627000D01*
X188087000Y-64820814D01*
X188316891Y-64941481D01*
X188591252Y-64844157D01*
X188841355Y-64695178D01*
X189057588Y-64500269D01*
X189231641Y-64266920D01*
X189356825Y-64004099D01*
X189401476Y-63856890D01*
X189280155Y-63627000D01*
X188087000Y-63627000D01*
X187833000Y-63627000D01*
X186639845Y-63627000D01*
X186518524Y-63856890D01*
X175471468Y-63856890D01*
X174826518Y-63211940D01*
X174868824Y-63148624D01*
X174954383Y-62942067D01*
X174998000Y-62722788D01*
X174998000Y-62499212D01*
X174954383Y-62279933D01*
X174868824Y-62073376D01*
X174744612Y-61887480D01*
X174586520Y-61729388D01*
X174400624Y-61605176D01*
X174194067Y-61519617D01*
X173974788Y-61476000D01*
X173751212Y-61476000D01*
X173531933Y-61519617D01*
X173351000Y-61594562D01*
X173351000Y-60848212D01*
X184031000Y-60848212D01*
X184031000Y-61071788D01*
X184074617Y-61291067D01*
X184160176Y-61497624D01*
X184284388Y-61683520D01*
X184442480Y-61841612D01*
X184628376Y-61965824D01*
X184834933Y-62051383D01*
X185054212Y-62095000D01*
X185277788Y-62095000D01*
X185497067Y-62051383D01*
X185703624Y-61965824D01*
X185889520Y-61841612D01*
X186047612Y-61683520D01*
X186171824Y-61497624D01*
X186257383Y-61291067D01*
X186301000Y-61071788D01*
X186301000Y-60848212D01*
X186257383Y-60628933D01*
X186171824Y-60422376D01*
X186047612Y-60236480D01*
X185921132Y-60110000D01*
X186471928Y-60110000D01*
X186471928Y-61810000D01*
X186484188Y-61934482D01*
X186520498Y-62054180D01*
X186579463Y-62164494D01*
X186658815Y-62261185D01*
X186755506Y-62340537D01*
X186865820Y-62399502D01*
X186946466Y-62423966D01*
X186862412Y-62499731D01*
X186688359Y-62733080D01*
X186563175Y-62995901D01*
X186518524Y-63143110D01*
X186639845Y-63373000D01*
X187833000Y-63373000D01*
X187833000Y-63353000D01*
X188087000Y-63353000D01*
X188087000Y-63373000D01*
X189280155Y-63373000D01*
X189401476Y-63143110D01*
X189356825Y-62995901D01*
X189231641Y-62733080D01*
X189057588Y-62499731D01*
X188973534Y-62423966D01*
X189054180Y-62399502D01*
X189164494Y-62340537D01*
X189261185Y-62261185D01*
X189340537Y-62164494D01*
X189399502Y-62054180D01*
X189435812Y-61934482D01*
X189448072Y-61810000D01*
X189448072Y-60110000D01*
X189435812Y-59985518D01*
X189399502Y-59865820D01*
X189340537Y-59755506D01*
X189261185Y-59658815D01*
X189164494Y-59579463D01*
X189054180Y-59520498D01*
X188934482Y-59484188D01*
X188810000Y-59471928D01*
X187110000Y-59471928D01*
X186985518Y-59484188D01*
X186865820Y-59520498D01*
X186755506Y-59579463D01*
X186658815Y-59658815D01*
X186579463Y-59755506D01*
X186520498Y-59865820D01*
X186484188Y-59985518D01*
X186471928Y-60110000D01*
X185921132Y-60110000D01*
X185889520Y-60078388D01*
X185703624Y-59954176D01*
X185497067Y-59868617D01*
X185277788Y-59825000D01*
X185054212Y-59825000D01*
X184834933Y-59868617D01*
X184628376Y-59954176D01*
X184442480Y-60078388D01*
X184284388Y-60236480D01*
X184160176Y-60422376D01*
X184074617Y-60628933D01*
X184031000Y-60848212D01*
X173351000Y-60848212D01*
X173351000Y-59773450D01*
X173471824Y-59592624D01*
X173557383Y-59386067D01*
X173601000Y-59166788D01*
X173601000Y-58943212D01*
X173557383Y-58723933D01*
X173471824Y-58517376D01*
X173347612Y-58331480D01*
X173309132Y-58293000D01*
X173355000Y-58293000D01*
X173379776Y-58290560D01*
X173403601Y-58283333D01*
X173425557Y-58271597D01*
X173444803Y-58255803D01*
X173460597Y-58236557D01*
X173472333Y-58214601D01*
X173479560Y-58190776D01*
X173482000Y-58166000D01*
X173482000Y-57292212D01*
X186825000Y-57292212D01*
X186825000Y-57515788D01*
X186868617Y-57735067D01*
X186954176Y-57941624D01*
X187078388Y-58127520D01*
X187236480Y-58285612D01*
X187422376Y-58409824D01*
X187628933Y-58495383D01*
X187848212Y-58539000D01*
X188071788Y-58539000D01*
X188291067Y-58495383D01*
X188497624Y-58409824D01*
X188683520Y-58285612D01*
X188841612Y-58127520D01*
X188965824Y-57941624D01*
X189051383Y-57735067D01*
X189095000Y-57515788D01*
X189095000Y-57292212D01*
X189051383Y-57072933D01*
X188965824Y-56866376D01*
X188841612Y-56680480D01*
X188683520Y-56522388D01*
X188497624Y-56398176D01*
X188291067Y-56312617D01*
X188071788Y-56269000D01*
X187848212Y-56269000D01*
X187628933Y-56312617D01*
X187422376Y-56398176D01*
X187236480Y-56522388D01*
X187078388Y-56680480D01*
X186954176Y-56866376D01*
X186868617Y-57072933D01*
X186825000Y-57292212D01*
X173482000Y-57292212D01*
X173482000Y-55905061D01*
X174479000Y-55905061D01*
X174479000Y-56108939D01*
X174518774Y-56308898D01*
X174596795Y-56497256D01*
X174710063Y-56666774D01*
X174854226Y-56810937D01*
X175023744Y-56924205D01*
X175212102Y-57002226D01*
X175412061Y-57042000D01*
X175615939Y-57042000D01*
X175815898Y-57002226D01*
X176004256Y-56924205D01*
X176173774Y-56810937D01*
X176317937Y-56666774D01*
X176431205Y-56497256D01*
X176509226Y-56308898D01*
X176549000Y-56108939D01*
X176549000Y-55905061D01*
X176523739Y-55778061D01*
X177273000Y-55778061D01*
X177273000Y-55981939D01*
X177312774Y-56181898D01*
X177390795Y-56370256D01*
X177504063Y-56539774D01*
X177648226Y-56683937D01*
X177817744Y-56797205D01*
X178006102Y-56875226D01*
X178206061Y-56915000D01*
X178409939Y-56915000D01*
X178609898Y-56875226D01*
X178798256Y-56797205D01*
X178967774Y-56683937D01*
X179111937Y-56539774D01*
X179225205Y-56370256D01*
X179303226Y-56181898D01*
X179343000Y-55981939D01*
X179343000Y-55778061D01*
X179303226Y-55578102D01*
X179225205Y-55389744D01*
X179111937Y-55220226D01*
X178967774Y-55076063D01*
X178798256Y-54962795D01*
X178609898Y-54884774D01*
X178409939Y-54845000D01*
X178206061Y-54845000D01*
X178006102Y-54884774D01*
X177817744Y-54962795D01*
X177648226Y-55076063D01*
X177504063Y-55220226D01*
X177390795Y-55389744D01*
X177312774Y-55578102D01*
X177273000Y-55778061D01*
X176523739Y-55778061D01*
X176509226Y-55705102D01*
X176431205Y-55516744D01*
X176317937Y-55347226D01*
X176173774Y-55203063D01*
X176004256Y-55089795D01*
X175815898Y-55011774D01*
X175615939Y-54972000D01*
X175412061Y-54972000D01*
X175212102Y-55011774D01*
X175023744Y-55089795D01*
X174854226Y-55203063D01*
X174710063Y-55347226D01*
X174596795Y-55516744D01*
X174518774Y-55705102D01*
X174479000Y-55905061D01*
X173482000Y-55905061D01*
X173482000Y-52832000D01*
X177292000Y-52832000D01*
X177316776Y-52829560D01*
X177340601Y-52822333D01*
X177362557Y-52810597D01*
X177381803Y-52794803D01*
X177397597Y-52775557D01*
X177409333Y-52753601D01*
X177416560Y-52729776D01*
X177419000Y-52705000D01*
X177419000Y-46609000D01*
X177416560Y-46584224D01*
X177409333Y-46560399D01*
X177397597Y-46538443D01*
X177381803Y-46519197D01*
X177362557Y-46503403D01*
X177340601Y-46491667D01*
X177316776Y-46484440D01*
X177292000Y-46482000D01*
X167513000Y-46482000D01*
X167488224Y-46484440D01*
X167464399Y-46491667D01*
X167442443Y-46503403D01*
X167423197Y-46519197D01*
X167407403Y-46538443D01*
X167395667Y-46560399D01*
X167388440Y-46584224D01*
X167386000Y-46609000D01*
X165850974Y-46609000D01*
X165854000Y-46593788D01*
X165854000Y-46370212D01*
X165810383Y-46150933D01*
X165724824Y-45944376D01*
X165600612Y-45758480D01*
X165442520Y-45600388D01*
X165256624Y-45476176D01*
X165050067Y-45390617D01*
X164830788Y-45347000D01*
X164607212Y-45347000D01*
X164387933Y-45390617D01*
X164181376Y-45476176D01*
X163995480Y-45600388D01*
X163837388Y-45758480D01*
X163713176Y-45944376D01*
X163627617Y-46150933D01*
X163584000Y-46370212D01*
X161663000Y-46370212D01*
X161619383Y-46150933D01*
X161533824Y-45944376D01*
X161409612Y-45758480D01*
X161251520Y-45600388D01*
X161065624Y-45476176D01*
X160859067Y-45390617D01*
X160639788Y-45347000D01*
X160416212Y-45347000D01*
X160196933Y-45390617D01*
X159990376Y-45476176D01*
X159804480Y-45600388D01*
X159646388Y-45758480D01*
X159522176Y-45944376D01*
X159436617Y-46150933D01*
X159393000Y-46370212D01*
X156428072Y-46370212D01*
X156428072Y-44870000D01*
X156415812Y-44745518D01*
X156379502Y-44625820D01*
X156320537Y-44515506D01*
X156279262Y-44465212D01*
X161552000Y-44465212D01*
X161552000Y-44688788D01*
X161595617Y-44908067D01*
X161681176Y-45114624D01*
X161805388Y-45300520D01*
X161963480Y-45458612D01*
X162149376Y-45582824D01*
X162355933Y-45668383D01*
X162575212Y-45712000D01*
X162798788Y-45712000D01*
X163018067Y-45668383D01*
X163224624Y-45582824D01*
X163410520Y-45458612D01*
X163568612Y-45300520D01*
X163692824Y-45114624D01*
X163778383Y-44908067D01*
X163822000Y-44688788D01*
X163822000Y-44465212D01*
X163778383Y-44245933D01*
X163692824Y-44039376D01*
X163568612Y-43853480D01*
X163410520Y-43695388D01*
X163224624Y-43571176D01*
X163018067Y-43485617D01*
X162798788Y-43442000D01*
X162575212Y-43442000D01*
X162355933Y-43485617D01*
X162149376Y-43571176D01*
X161963480Y-43695388D01*
X161805388Y-43853480D01*
X161681176Y-44039376D01*
X161595617Y-44245933D01*
X161552000Y-44465212D01*
X156279262Y-44465212D01*
X156241185Y-44418815D01*
X156144494Y-44339463D01*
X156034180Y-44280498D01*
X155914482Y-44244188D01*
X155790000Y-44231928D01*
X154090000Y-44231928D01*
X153965518Y-44244188D01*
X153845820Y-44280498D01*
X153735506Y-44339463D01*
X153638815Y-44418815D01*
X153559463Y-44515506D01*
X153500498Y-44625820D01*
X153464188Y-44745518D01*
X153451928Y-44870000D01*
X149943381Y-44870000D01*
X147980000Y-42906620D01*
X147980000Y-40996890D01*
X153498524Y-40996890D01*
X153543175Y-41144099D01*
X153668359Y-41406920D01*
X153842412Y-41640269D01*
X154058645Y-41835178D01*
X154308748Y-41984157D01*
X154583109Y-42081481D01*
X154813000Y-41960814D01*
X154813000Y-40767000D01*
X155067000Y-40767000D01*
X155067000Y-41960814D01*
X155296891Y-42081481D01*
X155571252Y-41984157D01*
X155821355Y-41835178D01*
X156037588Y-41640269D01*
X156211641Y-41406920D01*
X156336825Y-41144099D01*
X156381476Y-40996890D01*
X156260155Y-40767000D01*
X155067000Y-40767000D01*
X154813000Y-40767000D01*
X153619845Y-40767000D01*
X153498524Y-40996890D01*
X147980000Y-40996890D01*
X147980000Y-38950000D01*
X148371928Y-38950000D01*
X148384188Y-39074482D01*
X148420498Y-39194180D01*
X148479463Y-39304494D01*
X148558815Y-39401185D01*
X148655506Y-39480537D01*
X148765820Y-39539502D01*
X148885518Y-39575812D01*
X149010000Y-39588072D01*
X149574250Y-39585000D01*
X149733000Y-39426250D01*
X149733000Y-38227000D01*
X149987000Y-38227000D01*
X149987000Y-39426250D01*
X150145750Y-39585000D01*
X150710000Y-39588072D01*
X150834482Y-39575812D01*
X150954180Y-39539502D01*
X151064494Y-39480537D01*
X151161185Y-39401185D01*
X151240537Y-39304494D01*
X151299502Y-39194180D01*
X151335812Y-39074482D01*
X151348072Y-38950000D01*
X151345000Y-38385750D01*
X151186250Y-38227000D01*
X149987000Y-38227000D01*
X149733000Y-38227000D01*
X148533750Y-38227000D01*
X148375000Y-38385750D01*
X148371928Y-38950000D01*
X147980000Y-38950000D01*
X147980000Y-37250000D01*
X148371928Y-37250000D01*
X148375000Y-37814250D01*
X148533750Y-37973000D01*
X149733000Y-37973000D01*
X149733000Y-36773750D01*
X149987000Y-36773750D01*
X149987000Y-37973000D01*
X151186250Y-37973000D01*
X151345000Y-37814250D01*
X151348072Y-37250000D01*
X153451928Y-37250000D01*
X153451928Y-38950000D01*
X153464188Y-39074482D01*
X153500498Y-39194180D01*
X153559463Y-39304494D01*
X153638815Y-39401185D01*
X153735506Y-39480537D01*
X153845820Y-39539502D01*
X153926466Y-39563966D01*
X153842412Y-39639731D01*
X153668359Y-39873080D01*
X153543175Y-40135901D01*
X153498524Y-40283110D01*
X153619845Y-40513000D01*
X154813000Y-40513000D01*
X154813000Y-40493000D01*
X155067000Y-40493000D01*
X155067000Y-40513000D01*
X156260155Y-40513000D01*
X156381476Y-40283110D01*
X156336825Y-40135901D01*
X156211641Y-39873080D01*
X156131930Y-39766212D01*
X164346000Y-39766212D01*
X164346000Y-39989788D01*
X164389617Y-40209067D01*
X164475176Y-40415624D01*
X164599388Y-40601520D01*
X164757480Y-40759612D01*
X164943376Y-40883824D01*
X165149933Y-40969383D01*
X165369212Y-41013000D01*
X165592788Y-41013000D01*
X165762963Y-40979150D01*
X165786617Y-41098067D01*
X165872176Y-41304624D01*
X165996388Y-41490520D01*
X166154480Y-41648612D01*
X166340376Y-41772824D01*
X166546933Y-41858383D01*
X166766212Y-41902000D01*
X166989788Y-41902000D01*
X167209067Y-41858383D01*
X167415624Y-41772824D01*
X167601520Y-41648612D01*
X167759612Y-41490520D01*
X167883824Y-41304624D01*
X167969383Y-41098067D01*
X167993037Y-40979150D01*
X168163212Y-41013000D01*
X168386788Y-41013000D01*
X168606067Y-40969383D01*
X168812624Y-40883824D01*
X168998520Y-40759612D01*
X169156612Y-40601520D01*
X169280824Y-40415624D01*
X169366383Y-40209067D01*
X169410000Y-39989788D01*
X169410000Y-39766212D01*
X169366383Y-39546933D01*
X169280824Y-39340376D01*
X169156612Y-39154480D01*
X168998520Y-38996388D01*
X168812624Y-38872176D01*
X168606067Y-38786617D01*
X168386788Y-38743000D01*
X168163212Y-38743000D01*
X167943933Y-38786617D01*
X167737376Y-38872176D01*
X167551480Y-38996388D01*
X167393388Y-39154480D01*
X167269176Y-39340376D01*
X167183617Y-39546933D01*
X167159963Y-39665850D01*
X166989788Y-39632000D01*
X166766212Y-39632000D01*
X166596037Y-39665850D01*
X166572383Y-39546933D01*
X166486824Y-39340376D01*
X166362612Y-39154480D01*
X166204520Y-38996388D01*
X166018624Y-38872176D01*
X165812067Y-38786617D01*
X165592788Y-38743000D01*
X165369212Y-38743000D01*
X165149933Y-38786617D01*
X164943376Y-38872176D01*
X164757480Y-38996388D01*
X164599388Y-39154480D01*
X164475176Y-39340376D01*
X164389617Y-39546933D01*
X164346000Y-39766212D01*
X156131930Y-39766212D01*
X156037588Y-39639731D01*
X155953534Y-39563966D01*
X156034180Y-39539502D01*
X156144494Y-39480537D01*
X156241185Y-39401185D01*
X156320537Y-39304494D01*
X156379502Y-39194180D01*
X156415812Y-39074482D01*
X156428072Y-38950000D01*
X156428072Y-37250000D01*
X186471928Y-37250000D01*
X186471928Y-38950000D01*
X186484188Y-39074482D01*
X186520498Y-39194180D01*
X186579463Y-39304494D01*
X186658815Y-39401185D01*
X186755506Y-39480537D01*
X186865820Y-39539502D01*
X186938380Y-39561513D01*
X186806525Y-39693368D01*
X186644010Y-39936589D01*
X186532068Y-40206842D01*
X186475000Y-40493740D01*
X186475000Y-40786260D01*
X186532068Y-41073158D01*
X186644010Y-41343411D01*
X186806525Y-41586632D01*
X187013368Y-41793475D01*
X187187760Y-41910000D01*
X187013368Y-42026525D01*
X186806525Y-42233368D01*
X186644010Y-42476589D01*
X186532068Y-42746842D01*
X186475000Y-43033740D01*
X186475000Y-43326260D01*
X186532068Y-43613158D01*
X186644010Y-43883411D01*
X186806525Y-44126632D01*
X187013368Y-44333475D01*
X187187760Y-44450000D01*
X187013368Y-44566525D01*
X186806525Y-44773368D01*
X186644010Y-45016589D01*
X186532068Y-45286842D01*
X186475000Y-45573740D01*
X186475000Y-45866260D01*
X186532068Y-46153158D01*
X186644010Y-46423411D01*
X186806525Y-46666632D01*
X187013368Y-46873475D01*
X187187760Y-46990000D01*
X187013368Y-47106525D01*
X186806525Y-47313368D01*
X186644010Y-47556589D01*
X186532068Y-47826842D01*
X186475000Y-48113740D01*
X186475000Y-48406260D01*
X186532068Y-48693158D01*
X186644010Y-48963411D01*
X186806525Y-49206632D01*
X187013368Y-49413475D01*
X187187760Y-49530000D01*
X187013368Y-49646525D01*
X186806525Y-49853368D01*
X186644010Y-50096589D01*
X186532068Y-50366842D01*
X186475000Y-50653740D01*
X186475000Y-50946260D01*
X186532068Y-51233158D01*
X186644010Y-51503411D01*
X186806525Y-51746632D01*
X187013368Y-51953475D01*
X187187760Y-52070000D01*
X187013368Y-52186525D01*
X186806525Y-52393368D01*
X186644010Y-52636589D01*
X186532068Y-52906842D01*
X186475000Y-53193740D01*
X186475000Y-53486260D01*
X186532068Y-53773158D01*
X186644010Y-54043411D01*
X186806525Y-54286632D01*
X187013368Y-54493475D01*
X187256589Y-54655990D01*
X187526842Y-54767932D01*
X187813740Y-54825000D01*
X188106260Y-54825000D01*
X188393158Y-54767932D01*
X188663411Y-54655990D01*
X188906632Y-54493475D01*
X189113475Y-54286632D01*
X189275990Y-54043411D01*
X189387932Y-53773158D01*
X189445000Y-53486260D01*
X189445000Y-53193740D01*
X189387932Y-52906842D01*
X189275990Y-52636589D01*
X189113475Y-52393368D01*
X188906632Y-52186525D01*
X188732240Y-52070000D01*
X188906632Y-51953475D01*
X189113475Y-51746632D01*
X189275990Y-51503411D01*
X189387932Y-51233158D01*
X189445000Y-50946260D01*
X189445000Y-50653740D01*
X189387932Y-50366842D01*
X189275990Y-50096589D01*
X189113475Y-49853368D01*
X188906632Y-49646525D01*
X188732240Y-49530000D01*
X188906632Y-49413475D01*
X189113475Y-49206632D01*
X189275990Y-48963411D01*
X189387932Y-48693158D01*
X189445000Y-48406260D01*
X189445000Y-48113740D01*
X189387932Y-47826842D01*
X189275990Y-47556589D01*
X189113475Y-47313368D01*
X188906632Y-47106525D01*
X188732240Y-46990000D01*
X188906632Y-46873475D01*
X189113475Y-46666632D01*
X189275990Y-46423411D01*
X189387932Y-46153158D01*
X189445000Y-45866260D01*
X189445000Y-45573740D01*
X189387932Y-45286842D01*
X189275990Y-45016589D01*
X189113475Y-44773368D01*
X188906632Y-44566525D01*
X188732240Y-44450000D01*
X188906632Y-44333475D01*
X189113475Y-44126632D01*
X189275990Y-43883411D01*
X189387932Y-43613158D01*
X189445000Y-43326260D01*
X189445000Y-43033740D01*
X189387932Y-42746842D01*
X189275990Y-42476589D01*
X189113475Y-42233368D01*
X188906632Y-42026525D01*
X188732240Y-41910000D01*
X188906632Y-41793475D01*
X189113475Y-41586632D01*
X189275990Y-41343411D01*
X189387932Y-41073158D01*
X189445000Y-40786260D01*
X189445000Y-40493740D01*
X189387932Y-40206842D01*
X189275990Y-39936589D01*
X189113475Y-39693368D01*
X188981620Y-39561513D01*
X189054180Y-39539502D01*
X189164494Y-39480537D01*
X189261185Y-39401185D01*
X189340537Y-39304494D01*
X189399502Y-39194180D01*
X189435812Y-39074482D01*
X189448072Y-38950000D01*
X191551928Y-38950000D01*
X191564188Y-39074482D01*
X191600498Y-39194180D01*
X191659463Y-39304494D01*
X191738815Y-39401185D01*
X191835506Y-39480537D01*
X191945820Y-39539502D01*
X192065518Y-39575812D01*
X192190000Y-39588072D01*
X192754250Y-39585000D01*
X192913000Y-39426250D01*
X192913000Y-38227000D01*
X193167000Y-38227000D01*
X193167000Y-39426250D01*
X193325750Y-39585000D01*
X193890000Y-39588072D01*
X194014482Y-39575812D01*
X194134180Y-39539502D01*
X194244494Y-39480537D01*
X194341185Y-39401185D01*
X194420537Y-39304494D01*
X194479502Y-39194180D01*
X194515812Y-39074482D01*
X194528072Y-38950000D01*
X194525000Y-38385750D01*
X194366250Y-38227000D01*
X193167000Y-38227000D01*
X192913000Y-38227000D01*
X191713750Y-38227000D01*
X191555000Y-38385750D01*
X191551928Y-38950000D01*
X189448072Y-38950000D01*
X189448072Y-37250000D01*
X191551928Y-37250000D01*
X191555000Y-37814250D01*
X191713750Y-37973000D01*
X192913000Y-37973000D01*
X192913000Y-36773750D01*
X193167000Y-36773750D01*
X193167000Y-37973000D01*
X194366250Y-37973000D01*
X194525000Y-37814250D01*
X194528072Y-37250000D01*
X194515812Y-37125518D01*
X194479502Y-37005820D01*
X194420537Y-36895506D01*
X194341185Y-36798815D01*
X194244494Y-36719463D01*
X194134180Y-36660498D01*
X194014482Y-36624188D01*
X193890000Y-36611928D01*
X193325750Y-36615000D01*
X193167000Y-36773750D01*
X192913000Y-36773750D01*
X192754250Y-36615000D01*
X192190000Y-36611928D01*
X192065518Y-36624188D01*
X191945820Y-36660498D01*
X191835506Y-36719463D01*
X191738815Y-36798815D01*
X191659463Y-36895506D01*
X191600498Y-37005820D01*
X191564188Y-37125518D01*
X191551928Y-37250000D01*
X189448072Y-37250000D01*
X189435812Y-37125518D01*
X189399502Y-37005820D01*
X189340537Y-36895506D01*
X189261185Y-36798815D01*
X189164494Y-36719463D01*
X189054180Y-36660498D01*
X188934482Y-36624188D01*
X188810000Y-36611928D01*
X187110000Y-36611928D01*
X186985518Y-36624188D01*
X186865820Y-36660498D01*
X186755506Y-36719463D01*
X186658815Y-36798815D01*
X186579463Y-36895506D01*
X186520498Y-37005820D01*
X186484188Y-37125518D01*
X186471928Y-37250000D01*
X156428072Y-37250000D01*
X156415812Y-37125518D01*
X156379502Y-37005820D01*
X156320537Y-36895506D01*
X156241185Y-36798815D01*
X156144494Y-36719463D01*
X156034180Y-36660498D01*
X155914482Y-36624188D01*
X155790000Y-36611928D01*
X154090000Y-36611928D01*
X153965518Y-36624188D01*
X153845820Y-36660498D01*
X153735506Y-36719463D01*
X153638815Y-36798815D01*
X153559463Y-36895506D01*
X153500498Y-37005820D01*
X153464188Y-37125518D01*
X153451928Y-37250000D01*
X151348072Y-37250000D01*
X151335812Y-37125518D01*
X151299502Y-37005820D01*
X151240537Y-36895506D01*
X151161185Y-36798815D01*
X151064494Y-36719463D01*
X150954180Y-36660498D01*
X150834482Y-36624188D01*
X150710000Y-36611928D01*
X150145750Y-36615000D01*
X149987000Y-36773750D01*
X149733000Y-36773750D01*
X149574250Y-36615000D01*
X149010000Y-36611928D01*
X148885518Y-36624188D01*
X148765820Y-36660498D01*
X148655506Y-36719463D01*
X148558815Y-36798815D01*
X148479463Y-36895506D01*
X148420498Y-37005820D01*
X148384188Y-37125518D01*
X148371928Y-37250000D01*
X147980000Y-37250000D01*
X147980000Y-36862279D01*
X147994722Y-36712131D01*
X148028953Y-36598754D01*
X148084555Y-36494181D01*
X148159407Y-36402404D01*
X148250664Y-36326909D01*
X148354844Y-36270581D01*
X148467976Y-36235560D01*
X148616022Y-36220000D01*
X194277721Y-36220000D01*
X194427869Y-36234722D01*
G37*
%TD.AperFunction*%
%TD*%
M02*
